<svg xmlns="http://www.w3.org/2000/svg" width="16" height="14" viewBox="0 0 16 14">
  <g id="XMLID_830_" transform="translate(0 -17.969)">
    <g id="Group_24142" data-name="Group 24142" transform="translate(0 17.969)">
      <g id="Group_24141" data-name="Group 24141" transform="translate(0 0)">
        <path id="Path_43307" data-name="Path 43307" d="M11.748,109.524h0a1.358,1.358,0,0,1-1.39-1.32v-2.192a1.358,1.358,0,0,1,1.39-1.32h3.623l.065,0v-2.184a1.046,1.046,0,0,0-1.072-1.018H1.072A1.046,1.046,0,0,0,0,102.509v9.2a1.046,1.046,0,0,0,1.072,1.018H14.365a1.046,1.046,0,0,0,1.072-1.018v-2.184l-.065,0Z" transform="translate(0 -98.724)" fill="#3c54b2"/>
        <path id="Path_43308" data-name="Path 43308" d="M322.927,219.925H319.3a.613.613,0,0,0-.629.6v2.192a.613.613,0,0,0,.629.6h3.623a.613.613,0,0,0,.629-.6v-2.192A.613.613,0,0,0,322.927,219.925Zm-2.375,2.554a.862.862,0,1,1,.907-.861A.885.885,0,0,1,320.552,222.479Z" transform="translate(-307.555 -213.234)" fill="#3c54b2"/>
        <path id="Path_43309" data-name="Path 43309" d="M159.154,18.872a1.4,1.4,0,0,0-1.749-.836l-5.447,1.708h7.5Z" transform="translate(-146.656 -17.969)" fill="#3c54b2"/>
      </g>
    </g>
  </g>
</svg>
