<svg viewBox="0 0 64 64" fill="none" xmlns="http://www.w3.org/2000/svg">
    <path opacity="0.1" d="M32 0C38.329 0 44.5159 1.87677 49.7782 5.39297C55.0406 8.90918 59.1421 13.9069 61.5641 19.7541C63.9861 25.6014 64.6198 32.0355 63.3851 38.2429C62.1504 44.4503 59.1027 50.1521 54.6274 54.6274C50.1521 59.1027 44.4503 62.1504 38.2429 63.3851C32.0355 64.6198 25.6014 63.9861 19.7541 61.5641C13.9069 59.1421 8.90918 55.0406 5.39297 49.7782C1.87677 44.5159 0 38.329 0 32C0 23.5131 3.37142 15.3737 9.37258 9.37258C15.3737 3.37142 23.5131 0 32 0V0Z" fill="#00B21E" />
    <path d="M32.0001 46.4001C39.953 46.4001 46.4001 39.953 46.4001 32.0001C46.4001 24.0472 39.953 17.6001 32.0001 17.6001C24.0472 17.6001 17.6001 24.0472 17.6001 32.0001C17.6001 39.953 24.0472 46.4001 32.0001 46.4001Z" fill="#00B21E" />
    <path d="M35.0009 27.0673C35.7273 27.5726 36.321 28.2459 36.7313 29.03C37.1416 29.814 37.3565 30.6855 37.3577 31.5705C37.3454 33.0475 36.7478 34.4594 35.6958 35.4963C34.6439 36.5333 33.2236 37.1106 31.7465 37.1017C30.2687 37.113 28.8466 36.5386 27.7911 35.5042C26.7357 34.4697 26.1329 33.0594 26.1145 31.5817C26.1146 30.6959 26.3285 29.8232 26.738 29.0377C27.1475 28.2522 27.7404 27.5771 28.4665 27.0697C28.5288 27.0255 28.5997 26.9948 28.6745 26.9796C28.7493 26.9643 28.8265 26.9648 28.9012 26.9809C28.9758 26.9971 29.0463 27.0286 29.1081 27.0735C29.1699 27.1184 29.2216 27.1757 29.2601 27.2417L29.6185 27.8681C29.6831 27.9815 29.7036 28.1147 29.676 28.2423C29.6484 28.3699 29.5746 28.4827 29.4689 28.5593C28.9924 28.9031 28.6044 29.3552 28.3368 29.8782C28.0692 30.4013 27.9297 30.9805 27.9297 31.5681C27.9329 32.0644 28.0341 32.5552 28.2272 33.0125C28.4204 33.4697 28.7019 33.8843 29.0555 34.2326C29.4092 34.5809 29.828 34.856 30.2881 35.0422C30.7483 35.2284 31.2406 35.322 31.7369 35.3177C32.235 35.3217 32.7289 35.2271 33.1903 35.0395C33.6516 34.8518 34.0713 34.5748 34.4252 34.2242C34.779 33.8737 35.0601 33.4567 35.2521 32.9971C35.4441 32.5376 35.5434 32.0445 35.5441 31.5465C35.539 30.9622 35.3966 30.3874 35.1286 29.8682C34.8605 29.3491 34.4743 28.9002 34.0009 28.5577C33.8956 28.4813 33.8223 28.3687 33.7951 28.2415C33.7679 28.1143 33.7888 27.9816 33.8537 27.8689L34.2121 27.2425C34.2502 27.1768 34.3015 27.1197 34.3629 27.0749C34.4242 27.0301 34.4942 26.9986 34.5683 26.9822C34.6425 26.9659 34.7193 26.9652 34.7937 26.9801C34.8682 26.995 34.9387 27.0252 35.0009 27.0689V27.0673ZM32.6433 31.7489V26.3961C32.6429 26.3252 32.6285 26.255 32.6009 26.1897C32.5733 26.1244 32.533 26.0652 32.4825 26.0154C32.432 25.9657 32.3721 25.9265 32.3063 25.8999C32.2406 25.8734 32.1702 25.8601 32.0993 25.8609H31.3745C31.3036 25.8601 31.2332 25.8734 31.1675 25.8999C31.1017 25.9265 31.0418 25.9657 30.9913 26.0154C30.9408 26.0652 30.9005 26.1244 30.8729 26.1897C30.8453 26.255 30.8309 26.3252 30.8305 26.3961V31.7489C30.8309 31.8198 30.8453 31.8899 30.8729 31.9552C30.9005 32.0205 30.9408 32.0798 30.9913 32.1295C31.0418 32.1792 31.1017 32.2185 31.1675 32.245C31.2332 32.2715 31.3036 32.2848 31.3745 32.2841H32.1001C32.1709 32.2847 32.2412 32.2713 32.3069 32.2448C32.3725 32.2182 32.4323 32.1789 32.4828 32.1292C32.5332 32.0795 32.5734 32.0203 32.6009 31.955C32.6285 31.8898 32.6429 31.8197 32.6433 31.7489Z" fill="white" />
</svg>