<svg width="80" height="80" viewBox="0 0 80 80" fill="none" xmlns="http://www.w3.org/2000/svg">
<path opacity="0.1" d="M40 80C62.0914 80 80 62.0914 80 40C80 17.9086 62.0914 0 40 0C17.9086 0 0 17.9086 0 40C0 62.0914 17.9086 80 40 80Z" fill="#8EA6C1"/>
<path d="M45.2225 53.5109L53.9159 49.1279C54.3328 48.9145 54.6044 48.4733 54.6044 47.9982C54.6044 47.8236 54.5656 47.6442 54.4928 47.4794C54.2116 46.8588 53.4747 46.5776 52.8541 46.8539L44.5583 50.5388C44.1995 50.786 43.7777 50.917 43.3316 50.917H37.2856C37.0238 50.917 36.8104 50.7036 36.8104 50.4418C36.8104 50.18 37.0238 49.9667 37.2856 49.9667H43.3268C43.511 49.9667 43.6856 49.9279 43.8456 49.8503C43.8504 49.8503 43.8504 49.8454 43.8553 49.8454C43.928 49.8163 43.9862 49.7776 44.0541 49.7339C44.0686 49.7242 44.0783 49.7145 44.0928 49.7097C44.1462 49.6709 44.1947 49.6321 44.2383 49.5885C44.2965 49.5254 44.3498 49.4624 44.3983 49.3897C44.5389 49.1763 44.6116 48.9291 44.6116 48.6721C44.6116 47.9545 44.0347 47.3776 43.3268 47.3776H39.2444C39.0068 47.3776 38.7741 47.363 38.5365 47.3436C38.4686 47.3388 38.3959 47.3291 38.328 47.3242C38.1147 47.3 37.9062 47.2709 37.6977 47.2273C37.625 47.2127 37.5522 47.1933 37.4795 47.1788C37.3147 47.14 37.1547 47.1012 36.9947 47.0527C36.9074 47.0285 36.825 47.0042 36.7377 46.9751C36.5341 46.9073 36.3304 46.8345 36.1316 46.7521C36.1171 46.7473 36.0977 46.7424 36.0831 46.7327C35.9474 46.6745 35.8116 46.6115 35.671 46.5436C35.6662 46.5436 35.6613 46.5388 35.6613 46.5388C35.5013 46.4612 35.3462 46.3788 35.191 46.2915C34.3328 45.797 33.368 45.5012 32.3789 45.3945V52.3133L36.7571 53.9618C39.4868 54.9945 42.6141 54.8248 45.2225 53.5109Z" fill="#6667AB"/>
<path d="M30.531 43.3105H26.2838C25.7941 43.3105 25.3965 43.7081 25.3965 44.1978V52.833C25.3965 53.3227 25.7941 53.7202 26.2838 53.7202H30.531C31.0207 53.7202 31.4183 53.3227 31.4183 52.833V52.6681C31.4183 52.6633 31.4183 52.6536 31.4183 52.6487V44.8669C31.4183 44.8621 31.4183 44.8621 31.4183 44.8572C31.4183 44.8524 31.4183 44.8524 31.4183 44.8475V44.1978C31.4183 43.7081 31.0207 43.3105 30.531 43.3105Z" fill="#6667AB"/>
<path d="M43.9771 29.0371C40.5977 29.0371 37.8438 31.7862 37.8438 35.1704C37.8438 38.5498 40.5928 41.2989 43.9771 41.2989C47.3613 41.2989 50.1056 38.5498 50.1056 35.1704C50.1104 31.7862 47.3613 29.0371 43.9771 29.0371ZM47.7831 35.2917L46.7601 36.2904C46.7213 36.3292 46.7019 36.3826 46.7116 36.4456L46.9492 37.8517C47.0219 38.2735 46.8522 38.6904 46.508 38.9474C46.3092 39.0929 46.0765 39.1656 45.8438 39.1656C45.6644 39.1656 45.4898 39.122 45.3201 39.0347L44.0547 38.3704C44.0062 38.3462 43.9431 38.3462 43.8947 38.3704L42.6292 39.0347C42.2462 39.2335 41.7904 39.1995 41.4462 38.9474C41.0971 38.6953 40.9322 38.2735 41.005 37.8468L41.2425 36.4456C41.2522 36.3874 41.2377 36.3292 41.1941 36.2904L40.171 35.2965C39.8607 34.991 39.7541 34.5498 39.8898 34.1377C40.0256 33.7304 40.3698 33.4395 40.7916 33.3765L42.2074 33.1729C42.2559 33.1632 42.3092 33.1244 42.3334 33.0759L42.9686 31.7959C43.1577 31.408 43.5456 31.1656 43.9771 31.1656C44.4086 31.1656 44.7916 31.408 44.9856 31.7959L45.6159 33.0662C45.6401 33.1195 45.6934 33.1583 45.7468 33.1632L47.1577 33.3668C47.5844 33.4298 47.9286 33.7207 48.0595 34.128C48.2001 34.5498 48.0934 34.991 47.7831 35.2917Z" fill="#6667AB"/>
<path d="M43.9814 25.3672C38.5753 25.3672 34.1777 29.7696 34.1777 35.1708C34.1777 40.572 38.5753 44.9696 43.9814 44.9696C49.3826 44.9696 53.7802 40.572 53.7802 35.1708C53.7802 29.7696 49.3826 25.3672 43.9814 25.3672ZM43.9765 42.2496C40.0735 42.2496 36.8929 39.0739 36.8929 35.1708C36.8929 31.2678 40.0686 28.0872 43.9765 28.0872C47.8796 28.0872 51.0602 31.2629 51.0602 35.1708C51.0602 39.0739 47.8844 42.2496 43.9765 42.2496Z" fill="#6667AB"/>
<path d="M47.022 34.3175L45.6111 34.1138C45.2427 34.0605 44.9275 33.8278 44.7627 33.4932L44.1323 32.2229C44.0887 32.1356 44.016 32.1211 43.9772 32.1211C43.9384 32.1211 43.8657 32.1356 43.822 32.2181L43.1869 33.4932C43.0269 33.8229 42.7117 34.0556 42.3433 34.109L40.9275 34.3126C40.8402 34.3272 40.8063 34.3902 40.7917 34.429C40.7772 34.4678 40.7675 34.5453 40.8354 34.6132L41.8536 35.6072C42.1202 35.8641 42.2414 36.2375 42.1784 36.6011L41.9408 38.0072C41.9263 38.0993 41.9748 38.1526 42.0087 38.1769C42.0427 38.2011 42.1057 38.235 42.193 38.1914L43.4584 37.5272C43.6233 37.4399 43.7978 37.3962 43.9772 37.3962C44.1566 37.3962 44.336 37.4399 44.5008 37.5272L45.7614 38.1914C45.8439 38.235 45.9117 38.2011 45.9457 38.1769C45.9796 38.1526 46.0281 38.0993 46.0136 38.012L45.776 36.6059C45.713 36.2423 45.8342 35.869 46.1008 35.612L47.119 34.6181C47.1869 34.5502 47.1723 34.4775 47.1627 34.4387C47.1481 34.395 47.1142 34.332 47.022 34.3175Z" fill="#6667AB"/>
</svg>
