<svg width="80" height="80" viewBox="0 0 80 80" fill="none" xmlns="http://www.w3.org/2000/svg">
    <path opacity="0.1" d="M40 80C62.0914 80 80 62.0914 80 40C80 17.9086 62.0914 0 40 0C17.9086 0 0 17.9086 0 40C0 62.0914 17.9086 80 40 80Z" fill="#8EA6C1"/>
    <g clip-path="url(#clip0_4_17736)">
    <path d="M37.6666 26H27.1666C26.5253 26 26 26.5253 26 27.1666V40C26 40.6416 26.5253 41.1666 27.1666 41.1666H37.6666C38.3081 41.1666 38.8334 40.6416 38.8334 40V27.1666C38.8334 26.5253 38.3081 26 37.6666 26Z" fill="#6667AB"/>
    <path d="M52.8334 38.8335H42.3334C41.6918 38.8335 41.1665 39.3585 41.1665 40V52.8335C41.1665 53.4747 41.6918 54 42.3334 54H52.8334C53.4746 54 54 53.4747 54 52.8335V40C54 39.3585 53.4746 38.8335 52.8334 38.8335Z" fill="#6667AB"/>
    <path d="M37.6666 43.5H27.1666C26.5253 43.5 26 44.0253 26 44.6666V52.8334C26 53.4747 26.5253 54 27.1666 54H37.6666C38.3081 54 38.8334 53.4747 38.8334 52.8334V44.6666C38.8334 44.0253 38.3081 43.5 37.6666 43.5Z" fill="#6667AB"/>
    <path d="M52.8334 26H42.3334C41.6918 26 41.1665 26.5253 41.1665 27.1666V35.3334C41.1665 35.9747 41.6918 36.5 42.3334 36.5H52.8334C53.4746 36.5 54 35.9747 54 35.3334V27.1666C54 26.5253 53.4746 26 52.8334 26Z" fill="#6667AB"/>
    </g>
    <defs>
    <clipPath id="clip0_4_17736">
    <rect width="28" height="28" fill="white" transform="translate(26 26)"/>
    </clipPath>
    </defs>
    </svg>
    