<svg version="1.1" id="Layer_1" xmlns="http://www.w3.org/2000/svg" x="0" y="0" viewBox="0 0 80 80" style="enable-background:new 0 0 80 80" xml:space="preserve"><style>.st1{fill:#6667ab}</style><path d="M40 80c22.1 0 40-17.9 40-40S62.1 0 40 0 0 17.9 0 40s17.9 40 40 40z" style="opacity:.1;fill:#8ea6c1;enable-background:new"/><path class="st1" d="M44.4 25.8h-1.6c-.5-1.6-2-2.8-3.8-2.8s-3.3 1.2-3.8 2.8h-1.6c-.6 0-1.1.5-1.1 1.1V29c0 1.4 1.1 2.5 2.5 2.5h7.8c1.4 0 2.5-1.1 2.5-2.5v-2.1c.1-.6-.4-1.1-.9-1.1z"/><path class="st1" d="M47.2 27.2h-.4V29c0 2.2-1.7 3.9-3.9 3.9h-7.8c-2.2 0-3.9-1.7-3.9-3.9v-1.8h-.4c-2.2 0-3.9 1.7-3.9 3.9v17.7c0 2.2 1.7 3.9 3.9 3.9h9.3c-.7-1.5-1.1-3.2-1.2-5h-6.7c-.6 0-1.1-.5-1.1-1.1 0-.6.5-1.1 1.1-1.1h6.9c.1-.9.3-1.7.6-2.5h-7.5c-.6 0-1.1-.5-1.1-1.1s.5-1.1 1.1-1.1h8.5c.6-.9 1.2-1.7 2-2.5H32.3c-.6 0-1.1-.5-1.1-1.1 0-.6.5-1.1 1.1-1.1h13.4c1.6-.9 3.5-1.4 5.4-1.4v-3.9c0-1.8-1.8-3.6-3.9-3.6z"/><path class="st1" d="M51.4 37.9c-5.3 0-9.6 4.3-9.6 9.6s4.3 9.6 9.6 9.6 9.6-4.3 9.6-9.6-4.3-9.6-9.6-9.6zm3.9 11h-2.5v2.5c0 .8-.6 1.4-1.4 1.4s-1.4-.7-1.4-1.5v-2.5h-2.5c-.8 0-1.4-.6-1.4-1.4s.6-1.4 1.4-1.4H50v-2.5c0-.8.6-1.4 1.4-1.4s1.4.6 1.4 1.4V46h2.5c.8 0 1.4.6 1.4 1.4s-.6 1.5-1.4 1.5z"/></svg>