<?xml version="1.0" encoding="utf-8"?>
<!-- Generator: Adobe Illustrator 25.0.0, SVG Export Plug-In . SVG Version: 6.00 Build 0)  -->
<svg fill="currentColor" version="1.1" id="Layer_1" xmlns="http://www.w3.org/2000/svg" xmlns:xlink="http://www.w3.org/1999/xlink" x="0px" y="0px"
	 viewBox="0 0 16 16" style="enable-background:new 0 0 16 16;" xml:space="preserve">
<style type="text/css">
</style>
<path d="M8,0C3.6,0,0,3.6,0,8c0,4.4,3.6,8,8,8c4.4,0,8-3.6,8-8C16,3.6,12.4,0,8,0z M11.5,8.7H8.7v2.8
	c0,0.4-0.3,0.7-0.7,0.7s-0.7-0.3-0.7-0.7V8.7H4.5C4.1,8.7,3.8,8.4,3.8,8s0.3-0.7,0.7-0.7h2.8V4.5c0-0.4,0.3-0.7,0.7-0.7
	s0.7,0.3,0.7,0.7v2.8h2.8c0.4,0,0.7,0.3,0.7,0.7S11.9,8.7,11.5,8.7z"/>
</svg>
