<svg version="1.1" id="Layer_1" xmlns="http://www.w3.org/2000/svg" xmlns:xlink="http://www.w3.org/1999/xlink" x="0px"
	y="0px" viewBox="0 0 24 23" style="enable-background:new 0 0 24 23;" xml:space="preserve">
	<g>
		<path fill="currentColor" d="M9,7.3L7.4,6c0.2-0.3,0.3-0.6,0.3-1c0-1.1-1.1-2-2.4-2C4.1,3,3,3.9,3,5c0,1.1,1.1,2,2.4,2
		c0.5,0,0.9-0.1,1.2-0.3L8.2,8C8.4,7.7,8.7,7.5,9,7.3z" />
		<path fill="currentColor" d="M15,7l2.1-3C17.3,4,17.5,4,17.7,4C19,4,20,3.1,20,2c0-1.1-1-2-2.3-2c-1.3,0-2.3,0.9-2.3,2
		c0,0.6,0.3,1.1,0.7,1.4l-2.1,3C14.4,6.6,14.7,6.8,15,7z" />
		<path fill="currentColor" d="M21.8,10c-0.9,0-1.7,0.5-2,1.3l-2.7-0.2c0,0,0,0,0,0.1c0,0.3,0,0.6-0.1,0.9l2.7,0.2c0.2,1,1.1,1.7,2.1,1.7
		c1.2,0,2.2-0.9,2.2-2C24,10.9,23,10,21.8,10z" />
		<path fill="currentColor" d="M14.1,18.6L13.5,16c-0.3,0.1-0.6,0.2-1,0.2l0.6,2.7C12.4,19.3,12,20,12,20.8c0,1.2,0.9,2.2,2,2.2
		c1.1,0,2-1,2-2.2C16,19.6,15.1,18.7,14.1,18.6z" />
		<path fill="currentColor" d="M7.6,12l-3.5,1c-0.4-0.5-1.1-0.9-1.9-0.9C1,12.1,0,13,0,14.1C0,15.1,1,16,2.3,16c1.2,0,2.3-0.9,2.3-1.9
		c0,0,0-0.1,0-0.1l3.5-1C7.8,12.6,7.7,12.3,7.6,12z" />
		<path fill="currentColor" d="M11.5,15c1.9,0,3.5-1.6,3.5-3.5S13.4,8,11.5,8C9.6,8,8,9.6,8,11.5S9.6,15,11.5,15z" />
	</g>
</svg>