<svg width="16" height="16" viewBox="0 0 16 16" fill="none" xmlns="http://www.w3.org/2000/svg">
<path d="M7.875 16H6.625C6.00466 16 5.5 15.4953 5.5 14.875V7.125C5.5 6.50466 6.00466 6 6.625 6H7.875C8.49534 6 9 6.50466 9 7.125V14.875C9 15.4953 8.49531 16 7.875 16Z" fill="#505D6E"/>
<path d="M3.125 16H1.875C1.25466 16 0.75 15.4953 0.75 14.875V9.625C0.75 9.00466 1.25466 8.5 1.875 8.5H3.125C3.74534 8.5 4.25 9.00466 4.25 9.625V14.875C4.25 15.4953 3.74531 16 3.125 16Z" fill="#505D6E"/>
<path d="M12.6248 16H11.3748C10.7545 16 10.2498 15.4953 10.2498 14.875V4.5H9.56292C9.2418 4.5 8.95892 4.31875 8.82473 4.027C8.69054 3.73525 8.73701 3.40256 8.94601 3.15872C8.94839 3.15594 8.95083 3.15316 8.95326 3.15044L11.6274 0.166313C11.7223 0.0604687 11.8577 0 11.9998 0C12.1419 0 12.2773 0.0604687 12.3722 0.166313L15.0463 3.15044C15.0488 3.15316 15.0512 3.15594 15.0536 3.15872C15.2626 3.40253 15.309 3.73525 15.1749 4.027C15.0407 4.31875 14.7578 4.5 14.4367 4.5H13.7498V14.875C13.7498 15.4953 13.2451 16 12.6248 16Z" fill="#505D6E"/>
</svg>
