<svg xmlns="http://www.w3.org/2000/svg" xml:space="preserve" id="Layer_1" x="0" y="0"
    style="enable-background:new 0 0 16 16" version="1.1" viewBox="0 0 16 16">
    <path d="M5.4 7.1c-.3 0-.5.2-.5.5V8h.9v-.5c0-.2-.2-.4-.4-.4zM8.9 7.1h-.4V8H9c.3 0 .5-.2.5-.5-.1-.2-.3-.4-.6-.4z"
        fill="currentColor" />
    <path
        d="m11.4 2.9.6-1h1.2c.2.5.7.9 1.3.9.8 0 1.4-.6 1.4-1.4.1-.8-.5-1.4-1.3-1.4-.6 0-1.1.4-1.3.9h-1.8l-.9 1.5c-.4-.1-.8-.3-1.2-.4V0h-.9v1.9h-1V0h-.9v2c-.4.1-.8.3-1.2.5L4.5.9H2.7C2.5.4 2 0 1.4 0 .6 0 0 .6 0 1.4c0 .8.6 1.4 1.4 1.4.6 0 1.1-.4 1.3-.9H4L4.6 3c-.7.4-1.3 1-1.8 1.7H0v.9h2.4c-.3.6-.4 1.3-.5 1.9H0v.9h1.9c.1.7.2 1.4.5 2H0v.9h2.8c.4.7 1 1.3 1.7 1.8l-.5 1H2.7c-.2-.5-.7-.9-1.3-.9-.8 0-1.4.6-1.4 1.4 0 .8.6 1.4 1.4 1.4.6 0 1.1-.4 1.3-.9h1.8l.9-1.5c.4.2.8.3 1.2.4v2h.9v-1.9h1V16h.9v-2c.4-.1.8-.2 1.2-.4l.9 1.5h1.8c.2.5.7.9 1.3.9.8 0 1.4-.6 1.4-1.4 0-.8-.6-1.4-1.4-1.4-.6 0-1.1.4-1.3.9H12l-.6-1.1c.7-.5 1.3-1.1 1.7-1.8H16v-.9h-2.4c.2-.6.4-1.2.5-1.9H16v-.9h-1.9c-.1-.7-.2-1.3-.5-1.9H16v-.9h-2.8c-.5-.7-1.1-1.3-1.8-1.8zm-4.6 7h-1v-1h-.9v.9H4V7.5c0-.8.6-1.4 1.4-1.4s1.4.6 1.4 1.4v2.4zm2.1-1h-.4v.9h-1V6.1h1.4c.8 0 1.4.6 1.4 1.4s-.6 1.4-1.4 1.4zm3 1H11V6.1h.9v3.8z"
        fill="currentColor" />
</svg>