<svg width="80" height="80" viewBox="0 0 80 80" fill="none" xmlns="http://www.w3.org/2000/svg">
    <path opacity="0.1" d="M40 80C62.0914 80 80 62.0914 80 40C80 17.9086 62.0914 0 40 0C17.9086 0 0 17.9086 0 40C0 62.0914 17.9086 80 40 80Z" fill="#8EA6C1"/>
    <path fill-rule="evenodd" clip-rule="evenodd" d="M30.67 35.0638C29.4954 36.2384 27.2783 38.4556 26.2746 39.4592C24.8188 40.9151 24 42.8914 24 44.9516C24 47.0118 24.8188 48.9881 26.2746 50.4455C26.6397 50.809 27.0095 51.1788 27.3731 51.5439C28.8305 52.9997 30.8068 53.8185 32.867 53.8185C34.9272 53.8185 36.9035 52.9997 38.3593 51.5439L42.7547 47.1485C43.3607 46.5426 43.3607 45.5575 42.7547 44.9516C42.1488 44.3456 41.1637 44.3456 40.5578 44.9516C39.3832 46.1262 37.1661 48.3433 36.1624 49.347C35.2892 50.2202 34.1037 50.7111 32.867 50.7111C31.6302 50.7111 30.4447 50.2202 29.5716 49.347C29.2064 48.9819 28.8367 48.6121 28.4715 48.247C27.5984 47.3738 27.1074 46.1883 27.1074 44.9516C27.1074 43.7148 27.5984 42.5294 28.4715 41.6562L32.867 37.2608C33.4729 36.6548 33.4729 35.6698 32.867 35.0638C32.261 34.4579 31.276 34.4579 30.67 35.0638V35.0638Z" fill="#6667AB"/>
    <path fill-rule="evenodd" clip-rule="evenodd" d="M47.1485 42.7547C48.3231 41.5801 50.5402 39.363 51.5439 38.3593C52.9997 36.9035 53.8185 34.9272 53.8185 32.867C53.8185 30.8068 52.9997 28.8305 51.5439 27.3731C51.1788 27.0095 50.809 26.6397 50.4455 26.2746C48.9881 24.8188 47.0118 24 44.9516 24C42.8914 24 40.9151 24.8188 39.4592 26.2746C38.4556 27.2783 36.2384 29.4954 35.0638 30.67C34.4579 31.276 34.4579 32.261 35.0638 32.867C35.6698 33.4729 36.6548 33.4729 37.2608 32.867C38.4354 31.6924 40.6525 29.4752 41.6562 28.4715C42.5294 27.5984 43.7148 27.1074 44.9516 27.1074C46.1883 27.1074 47.3738 27.5984 48.247 28.4715C48.6121 28.8367 48.9819 29.2064 49.347 29.5716C50.2202 30.4447 50.7111 31.6302 50.7111 32.867C50.7111 34.1037 50.2202 35.2892 49.347 36.1624C48.3433 37.1661 46.1262 39.3832 44.9516 40.5578C44.3456 41.1637 44.3456 42.1488 44.9516 42.7547C45.5575 43.3607 46.5426 43.3607 47.1485 42.7547Z" fill="#6667AB"/>
    <path fill-rule="evenodd" clip-rule="evenodd" d="M34.5162 45.5024L45.5024 34.5162C46.1084 33.9087 46.1084 32.9252 45.5024 32.3177C44.8949 31.7118 43.9114 31.7118 43.3039 32.3177L32.3177 43.3039C31.7118 43.9114 31.7118 44.8949 32.3177 45.5024C32.9252 46.1084 33.9087 46.1084 34.5162 45.5024V45.5024Z" fill="#6667AB"/>
    <path fill-rule="evenodd" clip-rule="evenodd" d="M49.0109 46.6787L49.0078 54.4472C49.0078 55.3048 49.7039 56.0009 50.5615 56.0009C51.4192 56.0009 52.1152 55.3048 52.1152 54.4472L52.1183 46.6787C52.1183 45.8211 51.4223 45.125 50.5646 45.125C49.707 45.125 49.0109 45.8211 49.0109 46.6787Z" fill="#6667AB"/>
    <path fill-rule="evenodd" clip-rule="evenodd" d="M46.6787 52.1133L54.4472 52.1164C55.3048 52.1164 56.0009 51.4203 56.0009 50.5627C56.0009 49.705 55.3048 49.009 54.4472 49.009L46.6787 49.0059C45.8211 49.0059 45.125 49.7019 45.125 50.5596C45.125 51.4172 45.8211 52.1133 46.6787 52.1133Z" fill="#6667AB"/>
    </svg>
    