<svg viewBox="0 0 80 80" fill="none" xmlns="http://www.w3.org/2000/svg">
<path opacity="0.1" d="M40 80C62.0914 80 80 62.0914 80 40C80 17.9086 62.0914 0 40 0C17.9086 0 0 17.9086 0 40C0 62.0914 17.9086 80 40 80Z" fill="#8EA6C1"/>
<path d="M48.8636 32.2727C47.839 32.2724 46.8565 31.8652 46.132 31.1407C45.4075 30.4162 45.0004 29.4337 45 28.4091V24.5455H37.7209C37.5714 24.5567 37.4216 24.5267 37.2881 24.4585C37.1545 24.3904 37.0423 24.2868 36.9636 24.1591C36.7577 23.8085 36.4643 23.5175 36.1121 23.3143C35.76 23.1111 35.3611 23.0028 34.9545 23C34.65 22.9996 34.3484 23.0593 34.0669 23.1756C33.7855 23.292 33.5298 23.4627 33.3144 23.6781C33.0991 23.8934 32.9283 24.1491 32.812 24.4306C32.6956 24.712 32.636 25.0136 32.6364 25.3182V33.0455C32.6364 33.6603 32.8806 34.2499 33.3153 34.6847C33.7501 35.1194 34.3397 35.3636 34.9545 35.3636C35.5694 35.3636 36.159 35.1194 36.5937 34.6847C37.0285 34.2499 37.2727 33.6603 37.2727 33.0455V28.4091C37.2727 28.2042 37.1913 28.0076 37.0464 27.8627C36.9015 27.7178 36.7049 27.6364 36.5 27.6364C36.2951 27.6364 36.0985 27.7178 35.9536 27.8627C35.8087 28.0076 35.7273 28.2042 35.7273 28.4091V33.0455C35.7273 33.2504 35.6459 33.4469 35.5009 33.5919C35.356 33.7368 35.1595 33.8182 34.9545 33.8182C34.7496 33.8182 34.5531 33.7368 34.4081 33.5919C34.2632 33.4469 34.1818 33.2504 34.1818 33.0455V28.4091C34.1818 27.7943 34.4261 27.2046 34.8608 26.7699C35.2955 26.3351 35.8852 26.0909 36.5 26.0909C37.1148 26.0909 37.7045 26.3351 38.1392 26.7699C38.5739 27.2046 38.8182 27.7943 38.8182 28.4091V33.0455C38.8182 34.0702 38.4111 35.0529 37.6865 35.7775C36.962 36.502 35.9792 36.9091 34.9545 36.9091C33.9298 36.9091 32.9471 36.502 32.2225 35.7775C31.498 35.0529 31.0909 34.0702 31.0909 33.0455V25.3182C31.092 25.0843 31.1179 24.8512 31.1682 24.6227C30.28 24.7824 29.4762 25.2491 28.8972 25.9411C28.3181 26.6332 28.0005 27.5067 28 28.4091V53.1364C28.0004 54.161 28.4075 55.1435 29.132 55.868C29.8565 56.5925 30.839 56.9996 31.8636 57H48.8636C49.8882 56.9996 50.8707 56.5925 51.5952 55.868C52.3197 55.1435 52.7269 54.161 52.7273 53.1364V32.2727H48.8636ZM48.8636 49.2727H31.8636C31.6587 49.2727 31.4621 49.1913 31.3172 49.0464C31.1723 48.9015 31.0909 48.7049 31.0909 48.5C31.0909 48.2951 31.1723 48.0985 31.3172 47.9536C31.4621 47.8087 31.6587 47.7273 31.8636 47.7273H48.8636C49.0686 47.7273 49.2651 47.8087 49.41 47.9536C49.5549 48.0985 49.6364 48.2951 49.6364 48.5C49.6364 48.7049 49.5549 48.9015 49.41 49.0464C49.2651 49.1913 49.0686 49.2727 48.8636 49.2727ZM48.8636 44.6364H31.8636C31.6587 44.6364 31.4621 44.555 31.3172 44.41C31.1723 44.2651 31.0909 44.0686 31.0909 43.8636C31.0909 43.6587 31.1723 43.4621 31.3172 43.3172C31.4621 43.1723 31.6587 43.0909 31.8636 43.0909H48.8636C49.0686 43.0909 49.2651 43.1723 49.41 43.3172C49.5549 43.4621 49.6364 43.6587 49.6364 43.8636C49.6364 44.0686 49.5549 44.2651 49.41 44.41C49.2651 44.555 49.0686 44.6364 48.8636 44.6364ZM48.8636 40H41.1364C40.9314 40 40.7349 39.9186 40.59 39.7737C40.445 39.6288 40.3636 39.4322 40.3636 39.2273C40.3636 39.0223 40.445 38.8258 40.59 38.6809C40.7349 38.536 40.9314 38.4545 41.1364 38.4545H48.8636C49.0686 38.4545 49.2651 38.536 49.41 38.6809C49.5549 38.8258 49.6364 39.0223 49.6364 39.2273C49.6364 39.4322 49.5549 39.6288 49.41 39.7737C49.2651 39.9186 49.0686 40 48.8636 40ZM46.5454 24.8082V28.4091C46.545 28.7136 46.6047 29.0153 46.7211 29.2967C46.8374 29.5781 47.0082 29.8339 47.2235 30.0492C47.4389 30.2645 47.6946 30.4353 47.976 30.5516C48.2575 30.668 48.5591 30.7277 48.8636 30.7273H52.4491C51.9023 29.4011 51.0995 28.1957 50.0865 27.1801C49.0735 26.1644 47.8702 25.3584 46.5454 24.8082V24.8082Z" fill="#6667AB"/>
</svg>
