<svg viewBox="0 0 16 16" fill="none" xmlns="http://www.w3.org/2000/svg">
    <path fill-rule="evenodd" clip-rule="evenodd"
        d="M3.33502 5.53192C2.74772 6.11921 1.63915 7.22778 1.13731 7.72962C0.4094 8.45753 0 9.44569 0 10.4758C0 11.5059 0.4094 12.494 1.13731 13.2227C1.31987 13.4045 1.50476 13.5894 1.68654 13.772C2.41523 14.4999 3.40338 14.9093 4.43348 14.9093C5.46359 14.9093 6.45174 14.4999 7.17965 13.772L9.37736 11.5743C9.68033 11.2713 9.68033 10.7788 9.37736 10.4758C9.07438 10.1728 8.58186 10.1728 8.27889 10.4758C7.69159 11.0631 6.58303 12.1717 6.08118 12.6735C5.64459 13.1101 5.05186 13.3556 4.43348 13.3556C3.81511 13.3556 3.22237 13.1101 2.78578 12.6735C2.60322 12.4909 2.41833 12.306 2.23577 12.1235C1.79918 11.6869 1.5537 11.0942 1.5537 10.4758C1.5537 9.85742 1.79918 9.26468 2.23577 8.82809L4.43348 6.63038C4.73645 6.32741 4.73645 5.83489 4.43348 5.53192C4.13051 5.22894 3.63799 5.22894 3.33502 5.53192Z"
        fill="#505D6E" />
    <path fill-rule="evenodd" clip-rule="evenodd"
        d="M11.5743 9.37736C12.1616 8.79006 13.2701 7.68149 13.772 7.17965C14.4999 6.45174 14.9093 5.46359 14.9093 4.43348C14.9093 3.40338 14.4999 2.41523 13.772 1.68654C13.5894 1.50476 13.4045 1.31987 13.2227 1.13731C12.494 0.4094 11.5059 0 10.4758 0C9.44569 0 8.45753 0.4094 7.72962 1.13731C7.22778 1.63915 6.11921 2.74772 5.53192 3.33502C5.22894 3.63799 5.22894 4.13051 5.53192 4.43348C5.83489 4.73645 6.32741 4.73645 6.63038 4.43348C7.21768 3.84618 8.32625 2.73762 8.82809 2.23577C9.26468 1.79918 9.85742 1.5537 10.4758 1.5537C11.0942 1.5537 11.6869 1.79918 12.1235 2.23577C12.306 2.41833 12.4909 2.60322 12.6735 2.78578C13.1101 3.22237 13.3556 3.81511 13.3556 4.43348C13.3556 5.05186 13.1101 5.64459 12.6735 6.08118C12.1717 6.58303 11.0631 7.69159 10.4758 8.27889C10.1728 8.58186 10.1728 9.07438 10.4758 9.37736C10.7788 9.68033 11.2713 9.68033 11.5743 9.37736Z"
        fill="#505D6E" />
    <path fill-rule="evenodd" clip-rule="evenodd"
        d="M5.25811 10.7512L10.7512 5.25811C11.0542 4.95436 11.0542 4.46262 10.7512 4.15887C10.4475 3.8559 9.95572 3.8559 9.65197 4.15887L4.15887 9.65197C3.8559 9.95572 3.8559 10.4475 4.15887 10.7512C4.46262 11.0542 4.95436 11.0542 5.25811 10.7512Z"
        fill="#505D6E" />
    <path fill-rule="evenodd" clip-rule="evenodd"
        d="M12.5055 11.3393L12.5039 15.2236C12.5039 15.6524 12.8519 16.0004 13.2808 16.0004C13.7096 16.0004 14.0576 15.6524 14.0576 15.2236L14.0592 11.3393C14.0592 10.9105 13.7111 10.5625 13.2823 10.5625C12.8535 10.5625 12.5055 10.9105 12.5055 11.3393Z"
        fill="#505D6E" />
    <path fill-rule="evenodd" clip-rule="evenodd"
        d="M11.3393 14.0566L15.2236 14.0582C15.6524 14.0582 16.0004 13.7102 16.0004 13.2813C16.0004 12.8525 15.6524 12.5045 15.2236 12.5045L11.3393 12.5029C10.9105 12.5029 10.5625 12.851 10.5625 13.2798C10.5625 13.7086 10.9105 14.0566 11.3393 14.0566Z"
        fill="#505D6E" />
</svg>