<svg viewBox="0 0 64 64" fill="none" xmlns="http://www.w3.org/2000/svg">
<path opacity="0.1" d="M32 64C49.6731 64 64 49.6731 64 32C64 14.3269 49.6731 0 32 0C14.3269 0 0 14.3269 0 32C0 49.6731 14.3269 64 32 64Z" fill="#D30000"/>
<path d="M31.4996 38.8959C32.4567 38.8959 33.2533 38.1626 33.3339 37.2089L34.5782 22.348C34.6507 21.4861 34.3584 20.6341 33.7734 19.9977C33.1891 19.3622 32.3639 19 31.4996 19C30.6353 19 29.8102 19.3622 29.2258 19.9977C28.6407 20.6341 28.3486 21.4861 28.421 22.348L29.6653 37.2089C29.7459 38.1626 30.5426 38.8959 31.4996 38.8959Z" fill="#D30000"/>
<path d="M31.4994 39.9897C30.3917 39.9897 29.4941 40.8873 29.4941 41.995C29.4941 43.1026 30.3917 44.0001 31.4994 44.0001C32.607 44.0001 33.5046 43.1026 33.5046 41.995C33.5046 40.8873 32.607 39.9897 31.4994 39.9897Z" fill="#D30000"/>
</svg>
