<svg version="1.1" id="Layer_1" xmlns="http://www.w3.org/2000/svg" x="0" y="0" viewBox="0 0 16 14"
    style="enable-background:new 0 0 16 14" xml:space="preserve">

    <g id="XMLID_830_" transform="translate(0 -17.969)">
        <g id="Group_24142" transform="translate(0 17.969)">
            <g id="Group_24141">
                <path id="Path_43307" fill="#6667ab"
                    d="M11.7 10.8c-.7 0-1.4-.6-1.4-1.3V7.3c.1-.8.7-1.3 1.4-1.3h3.7V3.8c0-.6-.5-1-1.1-1H1.1c-.6 0-1.1.4-1.1 1V13c0 .6.5 1 1.1 1h13.3c.6 0 1.1-.4 1.1-1v-2.2H11.7z" />
                <path id="Path_43308" fill="#6667ab"
                    d="M15.4 6.7h-3.6c-.3 0-.6.3-.6.6v2.2c0 .3.3.6.6.6h3.6c.3 0 .6-.3.6-.6V7.3c0-.3-.3-.6-.6-.6zM13 9.2c-.5 0-.8-.4-.8-.9s.4-.8.9-.8.8.4.8.9-.4.9-.9.8z" />
                <path id="Path_43309" fill="#6667ab" d="M12.5.9c-.3-.7-1-1.1-1.7-.8L5.3 1.8h7.5l-.3-.9z" />
            </g>
        </g>
    </g>
</svg>