<svg width="80" height="80" viewBox="0 0 80 80" fill="none" xmlns="http://www.w3.org/2000/svg">
<path opacity="0.1" d="M40 80C62.0914 80 80 62.0914 80 40C80 17.9086 62.0914 0 40 0C17.9086 0 0 17.9086 0 40C0 62.0914 17.9086 80 40 80Z" fill="#8EA6C1"/>
<g clip-path="url(#clip0_2409_71981)">
<path d="M50.2752 53H29.4679C27.5559 53 26 51.4297 26 49.5V28.5C26 26.5703 27.5559 25 29.4679 25H50.2752C52.1872 25 53.7431 26.5703 53.7431 28.5V49.5C53.7431 51.4297 52.1872 53 50.2752 53Z" fill="#6667AB"/>
<path d="M30.9239 44H42.7421C43.0687 44 43.333 43.7267 43.333 43.3889V33.6111C43.333 33.2733 43.0687 33 42.7421 33H30.9239C30.5973 33 30.333 33.2733 30.333 33.6111V43.3889C30.333 43.7267 30.5973 44 30.9239 44ZM31.5148 34.2223H42.1512V42.7778H31.5148V34.2223Z" fill="white"/>
<circle cx="34.583" cy="36.25" r="1.25" fill="white"/>
<path d="M33.3333 39.1667L36.2201 42.9167H30.4466L33.3333 39.1667Z" fill="white"/>
<path d="M38.333 36.6667L42.6631 42.9167H34.0029L38.333 36.6667Z" fill="white"/>
<path d="M45.5 36.5H48.5C48.7764 36.5 49 36.1645 49 35.75C49 35.3354 48.7764 35 48.5 35H45.5C45.2236 35 45 35.3355 45 35.75C45 36.1646 45.2236 36.5 45.5 36.5Z" fill="white"/>
<path d="M45.625 40H49.375C49.7205 40 50 39.6645 50 39.25C50 38.8354 49.7205 38.5 49.375 38.5H45.625C45.2795 38.5 45 38.8355 45 39.25C45 39.6646 45.2795 40 45.625 40Z" fill="white"/>
<path d="M45.75 43.5H50.25C50.6645 43.5 51 43.1645 51 42.75C51 42.3354 50.6645 42 50.25 42H45.75C45.3355 42 45 42.3354 45 42.75C45 43.1646 45.3355 43.5 45.75 43.5Z" fill="white"/>
</g>
<defs>
<clipPath id="clip0_2409_71981">
<rect width="27.7431" height="28" fill="white" transform="translate(26 25)"/>
</clipPath>
</defs>
</svg>
