<svg xmlns="http://www.w3.org/2000/svg" width="80" height="80" viewBox="0 0 80 80">
  <g id="Block" transform="translate(-653 -238)">
    <g id="Group_2585" data-name="Group 2585" transform="translate(15776.848 7714.675)">
      <g id="Group_502" data-name="Group 502" transform="translate(-15123.848 -7476.675)">
        <circle id="Ellipse_1" data-name="Ellipse 1" cx="40" cy="40" r="40" transform="translate(0 0)" fill="#d30000" opacity="0.1"/>
      </g>
    </g>
    <g id="Component_85_6" data-name="Component 85 – 6" transform="translate(676.432 257.291)">
      <path id="Icon_ionic-ios-lock" data-name="Icon ionic-ios-lock" d="M35.744,17.712H33.258v-4.65a9.839,9.839,0,0,0-9.806-9.688,9.792,9.792,0,0,0-10.075,9.558v4.779H10.892A4.077,4.077,0,0,0,6.75,21.7V40.811a4.077,4.077,0,0,0,4.142,3.983H35.744a4.077,4.077,0,0,0,4.142-3.983V21.7A4.077,4.077,0,0,0,35.744,17.712ZM24.767,30.138v6.85a1.452,1.452,0,0,1-1.377,1.434,1.428,1.428,0,0,1-1.522-1.394v-6.89a3.167,3.167,0,0,1-1.854-3.156,3.324,3.324,0,0,1,6.617.289A3.169,3.169,0,0,1,24.767,30.138Zm5.592-12.426H16.276V12.933a6.585,6.585,0,0,1,2.071-4.779,7.2,7.2,0,0,1,9.941,0,6.585,6.585,0,0,1,2.071,4.779Z" transform="translate(-6.75 -3.374)" fill="#d30000"/>
      <rect id="Rectangle_11292" data-name="Rectangle 11292" width="24" height="24" transform="translate(4.568 17.419)" fill="none"/>
    </g>
  </g>
</svg>
