<svg id="Component_88_1" data-name="Component 88 – 1" xmlns="http://www.w3.org/2000/svg" width="80" height="80" viewBox="0 0 80 80">
  <g id="Group_2595" data-name="Group 2595" transform="translate(-653 -238)">
    <g id="Group_2585" data-name="Group 2585" transform="translate(15776.848 7714.675)">
      <g id="Group_502" data-name="Group 502" transform="translate(-15123.848 -7476.675)">
        <circle id="Ellipse_1" data-name="Ellipse 1" cx="40" cy="40" r="40" transform="translate(0 0)" fill="#d30000" opacity="0.1"/>
      </g>
    </g>
  </g>
  <path id="Icon_awesome-stop-circle" data-name="Icon awesome-stop-circle" d="M19.562.562a19,19,0,1,0,19,19A19,19,0,0,0,19.562.562Zm7.355,25.129a1.229,1.229,0,0,1-1.226,1.226H13.433a1.229,1.229,0,0,1-1.226-1.226V13.433a1.229,1.229,0,0,1,1.226-1.226H25.692a1.229,1.229,0,0,1,1.226,1.226Z" transform="translate(20.438 20.437)" fill="#d30000"/>
</svg>
