<svg viewBox="0 0 20 20" fill="none" xmlns="http://www.w3.org/2000/svg">
    <path d="M3.72495 5.85939H9.41121V4.29688H10.5877V5.85939H16.2739C16.5988 5.85939 16.8622 5.59704 16.8622 5.27345V3.71094C16.8622 3.38735 16.5988 3.12501 16.2739 3.12501H13.4883C13.6392 2.83176 13.7249 2.5 13.7249 2.14844C13.7249 0.963791 12.7574 0 11.5681 0C10.9504 0 10.393 0.260352 9.99944 0.676173C9.60588 0.260352 9.04847 0 8.43082 0C7.24153 0 6.27397 0.963791 6.27397 2.14844C6.27397 2.5 6.35973 2.83176 6.51063 3.12501H3.72495C3.40009 3.12501 3.13672 3.38735 3.13672 3.71094V5.27345C3.13672 5.59704 3.40009 5.85939 3.72495 5.85939ZM11.5681 1.17188C12.1087 1.17188 12.5485 1.60996 12.5485 2.14844C12.5485 2.68692 12.1087 3.12501 11.5681 3.12501H10.5877V2.14844C10.5877 1.60996 11.0275 1.17188 11.5681 1.17188ZM7.45043 2.14844C7.45043 1.60996 7.89024 1.17188 8.43082 1.17188C8.97141 1.17188 9.41121 1.60996 9.41121 2.14844V3.12501H8.43082C7.89024 3.12501 7.45043 2.68692 7.45043 2.14844Z" fill="currentColor" />
    <path d="M19.6313 12.0905C19.0999 11.4951 18.1862 11.4371 17.5833 11.9605L15.2389 13.996C15.2399 14.0258 15.2411 14.0556 15.2411 14.0856C15.2411 15.5392 14.054 16.7217 12.5947 16.7217H9.44185C9.11699 16.7217 8.85361 16.4594 8.85361 16.1358C8.85361 15.8122 9.11699 15.5498 9.44185 15.5498H11.0193H12.5953C13.4068 15.5498 14.0647 14.8945 14.0647 14.0861C14.0647 13.2773 13.4063 12.6219 12.5943 12.6223L9.5242 12.6242C8.68507 11.6737 7.5255 11.0979 6.25809 11.0029C4.98813 10.9077 3.7528 11.3055 2.77936 12.1233L2.50391 12.3547L5.39605 19.0768H12.8652C13.5917 19.0768 14.2896 18.8105 14.8301 18.327L19.5157 14.1362C20.1128 13.6022 20.1645 12.6879 19.6313 12.0905Z" fill="currentColor" />
    <path d="M10.5898 11.4516L12.5955 11.4504C13.5684 11.4504 14.4198 11.9748 14.88 12.7546L16.08 11.7127V7.03125H10.5898V11.4516Z" fill="currentColor" />
    <path d="M5.88944 9.81704C6.04116 9.81704 6.19508 9.82282 6.34693 9.83419C7.46814 9.91833 8.52163 10.3052 9.41206 10.9472V7.03125H3.92188V10.1495C4.55074 9.93141 5.21571 9.81704 5.88944 9.81704Z" fill="currentColor" />
    <path d="M0.356548 13.4066C0.213176 13.4678 0.100039 13.5833 0.0420782 13.7276C-0.0158824 13.8718 -0.0138824 14.0331 0.0475684 14.176L2.4005 19.6447C2.49611 19.8669 2.71325 20 2.94144 20C3.01874 20 3.09732 19.9847 3.17289 19.9524L4.2883 19.4763L1.472 12.9305L0.356548 13.4066Z" fill="currentColor" />
</svg>