<svg width="24" height="24" viewBox="0 0 24 24" fill="none" xmlns="http://www.w3.org/2000/svg">
<path d="M19.7614 4.7345C21.2865 4.54976 22.6726 5.63635 22.8574 7.16147C23.0421 8.68658 21.9555 10.0727 20.4304 10.2574C18.9053 10.4422 17.5192 9.35557 17.3345 7.83046C17.1497 6.30534 18.2363 4.91924 19.7614 4.7345Z" fill="#6667AB"/>
<rect x="22.5681" y="12.0547" width="4.94378" height="9.90858" transform="rotate(165.657 22.5681 12.0547)" fill="#F4F7F9"/>
<path d="M18.1067 1.10616C17.7716 1.18993 17.4952 1.29045 17.4952 1.31558C17.4952 1.40772 20.9213 14.1573 20.9548 14.1908C20.9883 14.2327 22.0941 13.9227 22.1611 13.8557C22.2113 13.8055 18.8774 1.20668 18.7601 1.03077C18.7266 0.972129 18.5004 0.997259 18.1067 1.10616Z" fill="#6667AB"/>
<path d="M12.2597 4.76688C10.1403 6.28309 8.3393 7.57312 8.24715 7.63176C8.10475 7.73228 8.12988 7.86631 8.83353 10.4966C9.23562 12.0212 9.57907 13.2778 9.58745 13.2945C9.6042 13.3029 11.6984 13.5207 14.245 13.772C16.7915 14.0149 19.0198 14.2327 19.1957 14.2579C19.3967 14.2746 19.5056 14.2579 19.5056 14.1992C19.514 13.9395 16.2722 1.99414 16.1968 2.00252C16.1549 2.00252 14.379 3.24229 12.2597 4.76688Z" fill="#6667AB"/>
<path d="M4.70381 8.87153C3.43891 9.21498 2.4672 9.52492 2.27453 9.6422C0.775072 10.5888 0.565651 12.5741 1.82218 13.8139C2.38343 14.3584 2.92792 14.5845 3.67346 14.5762C4.14257 14.5678 7.97916 13.6128 8.1467 13.462C8.21371 13.4034 7.01582 8.66211 6.86504 8.39405C6.83153 8.33541 6.11113 8.49457 4.70381 8.87153Z" fill="#6667AB"/>
<path d="M7.36627 14.6396C6.89028 14.7633 6.50354 14.9282 6.50354 14.997C6.50354 15.2306 8.60085 22.4188 8.7496 22.6524C8.8091 22.7761 9.07684 22.9548 9.31483 23.051C9.88007 23.2572 10.5048 23.0098 10.7874 22.4738C10.9659 22.1301 10.8767 21.7453 9.99906 18.6941C8.7496 14.3372 8.76447 14.3922 8.46698 14.406C8.33311 14.4197 7.82738 14.5297 7.36627 14.6396Z" fill="#6667AB"/>
</svg>
