<svg width="80" height="80" viewBox="0 0 80 80" fill="none" xmlns="http://www.w3.org/2000/svg">
<path opacity="0.1" d="M40 80C62.0914 80 80 62.0914 80 40C80 17.9086 62.0914 0 40 0C17.9086 0 0 17.9086 0 40C0 62.0914 17.9086 80 40 80Z" fill="#D30000"/>
<g clip-path="url(#clip0_1342_34767)">
<path d="M50.6114 29.3886C44.7586 23.5371 35.2404 23.5371 29.3877 29.3886C23.5374 35.2401 23.5374 44.7608 29.3877 50.6123C32.314 53.5375 36.1571 54.9994 40.0002 54.9994C43.8433 54.9994 47.685 53.5374 50.6114 50.6123C56.4629 44.7609 56.4629 35.2401 50.6114 29.3886ZM46.1893 44.4219C46.6782 44.9109 46.6782 45.7013 46.1893 46.1902C45.9454 46.4341 45.6253 46.5567 45.3051 46.5567C44.985 46.5567 44.6648 46.4341 44.4209 46.1902L40.0001 41.7681L35.5805 46.1889C35.3354 46.4328 35.0152 46.5554 34.6963 46.5554C34.3762 46.5554 34.056 46.4328 33.8122 46.1889C33.3232 45.7 33.3232 44.9084 33.8122 44.4206L38.2317 39.9998L33.8109 35.579C33.322 35.0901 33.322 34.2985 33.8109 33.8107C34.2987 33.3218 35.0903 33.3218 35.5792 33.8107L40 38.2315L44.4208 33.8107C44.9098 33.3218 45.7002 33.3218 46.1892 33.8107C46.6781 34.2985 46.6781 35.0901 46.1892 35.579L41.7684 39.9998L46.1893 44.4219Z" fill="#D30000"/>
</g>
<defs>
<clipPath id="clip0_1342_34767">
<rect width="30" height="30" fill="white" transform="translate(25 25)"/>
</clipPath>
</defs>
</svg>
