<svg viewBox="0 0 14 14" fill="none" xmlns="http://www.w3.org/2000/svg">
    <path fill-rule="evenodd" clip-rule="evenodd" d="M6.55623 2.55457C6.55623 2.08322 6.36899 1.63117 6.0357 1.29788C5.7024 0.964586 5.25036 0.777344 4.77901 0.777344H2.55457C2.08322 0.777344 1.63117 0.964586 1.29788 1.29788C0.964586 1.63117 0.777344 2.08322 0.777344 2.55457V4.77512C0.777344 5.24647 0.964586 5.69851 1.29788 6.03181C1.63117 6.3651 2.08322 6.55234 2.55457 6.55234H5.66568C5.90187 6.55234 6.12838 6.45852 6.29539 6.29151C6.46241 6.12449 6.55623 5.89798 6.55623 5.66179V2.55068V2.55457Z" fill="#6667AB" />
    <path fill-rule="evenodd" clip-rule="evenodd" d="M7.44336 2.55457C7.44336 2.08322 7.6306 1.63118 7.9639 1.29788C8.29719 0.964591 8.74923 0.777348 9.22058 0.777348H11.4411C11.6749 0.776837 11.9064 0.822428 12.1224 0.911513C12.3385 1.0006 12.5349 1.13143 12.7003 1.29651C12.8658 1.46159 12.997 1.65768 13.0866 1.87356C13.1762 2.08943 13.2222 2.32085 13.2222 2.55457V4.77513C13.2222 5.24647 13.035 5.69852 12.7017 6.03181C12.3684 6.36511 11.9164 6.55235 11.445 6.55235H8.33392C8.09773 6.55235 7.87121 6.45852 7.7042 6.29151C7.53719 6.1245 7.44336 5.89798 7.44336 5.66179V2.55068V2.55457Z" fill="#6667AB" />
    <path fill-rule="evenodd" clip-rule="evenodd" d="M6.55623 11.4431C6.55623 11.9144 6.36899 12.3665 6.0357 12.6998C5.7024 13.0331 5.25036 13.2203 4.77901 13.2203H2.55457C2.08322 13.2203 1.63117 13.0331 1.29788 12.6998C0.964586 12.3665 0.777344 11.9144 0.777344 11.4431V9.21863C0.777344 8.74728 0.964586 8.29524 1.29788 7.96194C1.63117 7.62865 2.08322 7.44141 2.55457 7.44141H5.66568C5.90187 7.44141 6.12838 7.53523 6.29539 7.70224C6.46241 7.86926 6.55623 8.09577 6.55623 8.33196V11.4431Z" fill="#6667AB" />
    <path fill-rule="evenodd" clip-rule="evenodd" d="M7.44336 11.4431C7.44336 11.9144 7.6306 12.3665 7.9639 12.6998C8.29719 13.0331 8.74923 13.2203 9.22058 13.2203H11.4411C11.6749 13.2208 11.9064 13.1752 12.1224 13.0861C12.3385 12.997 12.5349 12.8662 12.7003 12.7011C12.8658 12.5361 12.997 12.34 13.0866 12.1241C13.1762 11.9082 13.2222 11.6768 13.2222 11.4431V9.21863C13.2222 8.74728 13.035 8.29524 12.7017 7.96194C12.3684 7.62865 11.9164 7.44141 11.445 7.44141H8.33392C8.09773 7.44141 7.87121 7.53523 7.7042 7.70224C7.53719 7.86926 7.44336 8.09577 7.44336 8.33196V11.4431Z" fill="#6667AB" />
</svg>