<svg version="1.1" id="Layer_1" xmlns="http://www.w3.org/2000/svg" x="0" y="0" viewBox="0 0 20 20" style="enable-background:new 0 0 20 20" xml:space="preserve" fill="currentColor">
<path class="st0" d="M4.6 9.2C.8 9.2 0 8.4 0 4.6S.8 0 4.6 0s4.6.8 4.6 4.6-.8 4.6-4.6 4.6zM4.6 20C.8 20 0 19.2 0 15.4s.8-4.6 4.6-4.6 4.6.8 4.6 4.6S8.4 20 4.6 20zM10.8 15.4c0 3.8.8 4.6 4.6 4.6s4.6-.8 4.6-4.6-.8-4.6-4.6-4.6-4.6.8-4.6 4.6zM16.3 1.7c0-.5-.4-.8-.8-.8-.5 0-.8.4-.8.8v2.1h-2.1c-.5 0-.8.4-.8.8 0 .5.4.8.8.8h2.1v2.1c0 .5.4.8.8.8.5 0 .8-.4.8-.8V5.4h2.1c.5 0 .8-.4.8-.8 0-.5-.4-.8-.8-.8h-2.1V1.7z"/>
</svg>