<svg width="80" height="80" viewBox="0 0 80 80" fill="none" xmlns="http://www.w3.org/2000/svg">
<path opacity="0.1" d="M40 80C62.0914 80 80 62.0914 80 40C80 17.9086 62.0914 0 40 0C17.9086 0 0 17.9086 0 40C0 62.0914 17.9086 80 40 80Z" fill="#3C54B2"/>
<path d="M52.0005 31.9845H50.0007V27.9827C49.9427 25.315 48.8637 22.7764 46.9947 20.9106C45.1256 19.0448 42.6151 18 40.0006 18C37.3862 18 34.8756 19.0448 33.0066 20.9106C31.1375 22.7764 30.0585 25.315 30.0005 27.9827V31.9845H27.9995C26.9502 31.9772 25.9406 32.3939 25.1912 33.1437C24.4418 33.8935 24.0136 34.9154 24 35.9864V55.9981C24.0136 57.069 24.4418 58.091 25.1912 58.8408C25.9406 59.5906 26.9502 60.0073 27.9995 59.9999H52.0005C53.0498 60.0073 54.0594 59.5906 54.8088 58.8408C55.5582 58.091 55.9864 57.069 56 55.9981V35.9864C55.9864 34.9154 55.5582 33.8935 54.8088 33.1437C54.0594 32.3939 53.0498 31.9772 52.0005 31.9845ZM40.0006 49.9941C39.2283 49.9785 38.4777 49.7305 37.8429 49.2813C37.2082 48.832 36.7175 48.2014 36.4325 47.4687C36.1476 46.7359 36.0809 45.9335 36.241 45.1622C36.401 44.391 36.7807 43.6851 37.3323 43.1332C37.8839 42.5813 38.5829 42.2079 39.3416 42.0598C40.1003 41.9118 40.885 41.9958 41.5971 42.3011C42.3093 42.6065 42.9172 43.1197 43.3447 43.7763C43.7722 44.433 44.0002 45.2038 44.0002 45.9922C43.9865 47.0632 43.5583 48.0851 42.8089 48.8349C42.0596 49.5847 41.05 50.0014 40.0006 49.9941ZM46.2001 31.9845H33.7999V27.9827C33.8228 26.3198 34.4861 24.733 35.6464 23.5653C36.8066 22.3977 38.3706 21.743 40 21.743C41.6294 21.743 43.1934 22.3977 44.3536 23.5653C45.5139 24.733 46.1772 26.3198 46.2001 27.9827V31.9845Z" fill="#6667AB"/>
</svg>
