<svg version="1.1" id="Layer_1" xmlns="http://www.w3.org/2000/svg" x="0" y="0" viewBox="0 0 55 55" style="enable-background:new 0 0 55 55" xml:space="preserve"><style>.st1{fill:#6667ab}</style><path d="M27.5 0C42.7 0 55 12.3 55 27.5S42.7 55 27.5 55 0 42.7 0 27.5 12.3 0 27.5 0z" style="fill:#f0efff"/><path class="st1" d="M18.9 22.2c-.5 0-.9-.4-.9-.8v-.8c0-1.4 1.2-2.5 2.6-2.5h.9c.5 0 .9.4.9.8 0 .5-.4.8-.9.8h-.9c-.5 0-.9.4-.9.8v.8c0 .5-.3.9-.8.9zM34.5 22.2c-.5 0-.9-.4-.9-.8v-.8c0-.5-.4-.8-.9-.8h-.9c-.5 0-.9-.4-.9-.8 0-.5.4-.8.9-.8h.9c1.4 0 2.6 1.1 2.6 2.5v.8c.1.3-.3.7-.8.7zM28.4 19.7H25c-.5 0-.9-.4-.9-.8 0-.5.4-.8.9-.8h3.5c.5 0 .9.4.9.8-.1.4-.5.8-1 .8zM26.7 34.7H25c-.5 0-.9-.4-.9-.8s.4-.9.9-.9h1.7c.5 0 .9.4.9.8s-.4.9-.9.9zM21.5 34.7h-.9c-1.4 0-2.6-1.1-2.6-2.5v-.8c0-.5.4-.8.9-.8s.9.4.9.8v.8c0 .5.4.8.9.8h.9c.5 0 .9.4.9.8-.1.5-.5.9-1 .9zM18.9 28.8c-.5 0-.9-.4-.9-.8v-3.3c0-.5.4-.8.9-.8s.9.4.9.8V28c-.1.5-.4.8-.9.8zM34.5 27.2c-.5 0-.9-.4-.9-.8v-1.7c0-.5.4-.8.9-.8s.9.4.9.8v1.7c0 .4-.4.8-.9.8zM37.8 33.5l-8.2-7.9c-.1-.1-.2-.2-.4-.2-.3 0-.6.2-.6.5v11.4c0 .3.3.5.6.5.2 0 .3-.1.4-.2l3.4-3.4h4.4c.3 0 .6-.2.6-.5 0 .1-.1-.1-.2-.2z"/></svg>