<svg width="62" height="62" fill="none" xmlns="http://www.w3.org/2000/svg"><g clip-path="url(#a)"><path d="M30.979 60.546C14.66 60.534 1.442 47.297 1.453 30.98 1.465 14.662 14.702 1.442 31.02 1.454 47.33 1.466 60.545 14.69 60.545 31c-.024 16.316-13.25 29.533-29.566 29.546z" fill="#fff"/><path d="M30.98 2.908C46.495 2.92 59.063 15.505 59.05 31.02 59.04 46.535 46.454 59.103 30.94 59.092 15.433 59.08 2.868 46.506 2.868 31 2.89 15.487 15.467 2.92 30.98 2.908zm0-2.908C13.858.012-.012 13.899 0 31.02.012 48.142 13.899 62.012 31.02 62 48.133 61.988 62 48.113 62 31 61.994 13.874 48.106-.006 30.98 0z" fill="#AAC1CE"/><path d="M30.983 6.595c13.479.008 24.398 10.943 24.389 24.421-.009 13.479-10.944 24.398-24.422 24.39C17.478 55.395 6.561 44.471 6.561 31c.02-13.476 10.945-24.395 24.422-24.405zm0-.97C16.97 5.635 5.616 17.002 5.625 31.016c.009 14.015 11.377 25.367 25.391 25.358C45.024 56.366 56.374 45.008 56.374 31 56.37 16.982 45.002 5.621 30.984 5.625z" fill="#BAC6CC"/><path d="m21.141 16.367-4.797 4.797L40.82 45.641l4.798-4.797L21.14 16.366z" fill="#415E72"/><path d="M40.82 16.36 16.344 40.837l4.797 4.797 24.477-24.476-4.798-4.798z" fill="#415E72"/></g><defs><clipPath id="a"><path fill="#fff" d="M0 0h62v62H0z"/></clipPath></defs></svg>