<svg  viewBox="0 0 20 20" fill="none" xmlns="http://www.w3.org/2000/svg">
<g clip-path="url(#clip0_1544_25779)">
<path d="M11.3843 4.1H13.5921L10.2129 0.545166V2.92401C10.2129 3.56839 10.7355 4.1 11.3843 4.1Z" fill="#6667AB"/>
<path d="M7.72139 13.0659H3.806C3.60778 13.0659 3.44558 12.9039 3.44558 12.7055C3.44558 12.5073 3.60778 12.3451 3.806 12.3451H7.96019C8.18984 11.7595 8.49623 11.2637 8.8748 10.7681H3.806C3.60778 10.7681 3.44558 10.6061 3.44558 10.4077C3.44558 10.2095 3.60778 10.0473 3.806 10.0473H9.55962C10.6409 9.10109 12.0737 8.49745 13.6371 8.49745C13.7857 8.49745 13.9075 8.51088 14.0877 8.52446V4.82085H11.3843C10.339 4.82085 9.49202 3.96484 9.49202 2.92404V0H2.58056C1.68838 0 0.976562 0.729827 0.976562 1.62643V15.3773C0.976562 16.2739 1.68838 16.9858 2.58056 16.9858H8.00963C7.69881 16.2649 7.52761 15.4539 7.52761 14.6069C7.52303 14.0753 7.5952 13.5615 7.72139 13.0659ZM3.806 7.79448H8.3702C8.56841 7.79448 8.73061 7.95668 8.73061 8.15505C8.73061 8.35326 8.56841 8.51546 8.3702 8.51546H3.806C3.60778 8.51546 3.44558 8.35326 3.44558 8.15505C3.44558 7.95668 3.60778 7.79448 3.806 7.79448Z" fill="#6667AB"/>
<path d="M13.6321 9.23181C10.6631 9.23181 8.24805 11.6467 8.24805 14.6159C8.24805 17.5849 10.6631 19.9999 13.6321 19.9999C16.6013 19.9999 19.0163 17.5849 19.0163 14.6159C19.0163 11.6467 16.6013 9.23181 13.6321 9.23181ZM13.6233 14.2284C14.7091 14.2284 15.5875 15.1115 15.5875 16.1927C15.5875 17.1659 14.8803 17.9725 13.9521 18.1301V18.6527C13.9521 18.8511 13.7899 19.0133 13.5917 19.0133C13.3935 19.0133 13.2313 18.8511 13.2313 18.6527V18.1167C12.3346 17.9319 11.6588 17.1389 11.6588 16.1927C11.6588 15.9945 11.821 15.8323 12.0193 15.8323C12.2175 15.8323 12.3797 15.9945 12.3797 16.1927C12.3797 16.8777 12.9384 17.4363 13.6233 17.4363C14.3081 17.4363 14.8667 16.8775 14.8667 16.1927C14.8667 15.5079 14.3081 14.9493 13.6233 14.9493C12.5374 14.9493 11.6588 14.0661 11.6588 12.9849C11.6588 12.0341 12.3346 11.2412 13.2313 11.061V10.678C13.2313 10.4797 13.3935 10.3175 13.5917 10.3175C13.7899 10.3175 13.9521 10.4797 13.9521 10.678V11.0429C14.8803 11.2006 15.5875 12.0071 15.5875 12.9803C15.5875 13.1785 15.4255 13.3407 15.2271 13.3407C15.0289 13.3407 14.8667 13.1785 14.8667 12.9803C14.8667 12.3225 14.3531 11.7819 13.7043 11.7368C13.6683 11.7503 13.6277 11.7548 13.5871 11.7548C13.5511 11.7548 13.5195 11.7503 13.4835 11.7413C12.8617 11.8089 12.3752 12.3361 12.3752 12.9803C12.3797 13.6697 12.9383 14.2284 13.6233 14.2284Z" fill="#6667AB"/>
<path d="M4.82821 4.29509C5.37437 4.29509 5.81852 3.85093 5.81852 3.30477C5.81852 2.75861 5.37437 2.31445 4.82821 2.31445C4.28205 2.31445 3.83789 2.75861 3.83789 3.30477C3.83789 3.85093 4.28205 4.29509 4.82821 4.29509ZM4.82821 2.80961C5.10104 2.80961 5.32337 3.03169 5.32337 3.30477C5.32337 3.57785 5.10104 3.79993 4.82821 3.79993C4.55513 3.79993 4.33305 3.57785 4.33305 3.30477C4.33305 3.03169 4.55513 2.80961 4.82821 2.80961Z" fill="#F5F5F5"/>
<path d="M6.545 5.02136C5.99884 5.02136 5.55469 5.46552 5.55469 6.01168C5.55469 6.55784 5.99884 7.002 6.545 7.002C7.09116 7.002 7.53532 6.55784 7.53532 6.01168C7.53532 5.46552 7.09116 5.02136 6.545 5.02136ZM6.545 6.50684C6.27192 6.50684 6.04985 6.28476 6.04985 6.01168C6.04985 5.7386 6.27192 5.51652 6.545 5.51652C6.81784 5.51652 7.04016 5.7386 7.04016 6.01168C7.04016 6.28476 6.81784 6.50684 6.545 6.50684Z" fill="#F5F5F5"/>
<path d="M4.26388 6.43264L7.22812 3.4951C7.45933 3.26597 7.10979 2.91983 6.87883 3.14896L3.91459 6.0865C3.68042 6.31857 4.03613 6.65834 4.26388 6.43264Z" fill="#F5F5F5"/>
</g>
<defs>
<clipPath id="clip0_1544_25779">
<rect width="20" height="20" fill="white"/>
</clipPath>
</defs>
</svg>
