<svg version="1.1" id="Layer_1" xmlns="http://www.w3.org/2000/svg" xmlns:xlink="http://www.w3.org/1999/xlink" x="0px"
    y="0px" viewBox="0 0 12 12" style="enable-background:new 0 0 12 12;" xml:space="preserve">
    <path fill-rule="evenodd" clip-rule="evenodd" fill="currentColor" d="M2.4,2.4V1.8c0-1,0.8-1.8,1.8-1.8h6c1,0,1.8,0.8,1.8,1.8v6c0,1-0.8,1.8-1.8,1.8H9.6v0.6c0,1-0.8,1.8-1.8,1.8h-6
	c-1,0-1.8-0.8-1.8-1.8v-6c0-1,0.8-1.8,1.8-1.8H2.4z M3.6,2.4V1.8c0-0.3,0.3-0.6,0.6-0.6h6c0.3,0,0.6,0.3,0.6,0.6v6
	c0,0.3-0.3,0.6-0.6,0.6H9.6V4.2c0-1-0.8-1.8-1.8-1.8H3.6z" />
</svg>