<svg viewBox="0 0 14 14" fill="none" xmlns="http://www.w3.org/2000/svg">
    <path fill-rule="evenodd" clip-rule="evenodd" d="M2.9987 2.99967V2.33301C2.9987 1.22844 3.89413 0.333008 4.9987 0.333008H11.6654C12.77 0.333008 13.6654 1.22844 13.6654 2.33301V8.99967C13.6654 10.1043 12.77 10.9997 11.6654 10.9997H10.9987V11.6663C10.9987 12.7709 10.1033 13.6663 8.9987 13.6663H2.33203C1.22746 13.6663 0.332031 12.7709 0.332031 11.6663V4.99967C0.332031 3.89511 1.22746 2.99967 2.33203 2.99967H2.9987ZM4.33203 2.99967V2.33301C4.33203 1.96482 4.6305 1.66634 4.9987 1.66634H11.6654C12.0336 1.66634 12.332 1.96482 12.332 2.33301V8.99967C12.332 9.36787 12.0336 9.66634 11.6654 9.66634H10.9987V4.99967C10.9987 3.89511 10.1033 2.99967 8.9987 2.99967H4.33203Z" fill="#505D6E" />
</svg>