<svg version="1.1" id="Layer_1" xmlns="http://www.w3.org/2000/svg" xmlns:xlink="http://www.w3.org/1999/xlink" x="0px"
    y="0px" viewBox="0 0 22 22" style="enable-background:new 0 0 22 22;" xml:space="preserve">
    <style type="text/css">
        .st0 {
            clip-path: url(#SVGID_2_);
        }

        .st1 {
            /* opacity: 0.6; */
            /* fill: #F0F0F7; */
            fill: currentColor;
            enable-background: new;
        }

        .st2 {
            fill: #6667ab;
        }
    </style>
    <g>
        <defs>
            <rect id="SVGID_1_" width="22" height="22" />
        </defs>
        <clipPath id="SVGID_2_">
            <use xlink:href="#SVGID_1_" style="overflow:visible;" />
        </clipPath>
        <g class="st0">
            <path class="st1" d="M22,10.1c0,0,0-0.1-0.1-0.1c0,0-0.1-0.1-0.1-0.1l-1.3-0.5c-0.1,0-0.1-0.1-0.2-0.1c0,0-0.1-0.1-0.1-0.2
			c-0.2-1.1-0.7-2.2-1.3-3.1c0-0.1-0.1-0.1-0.1-0.2c0-0.1,0-0.1,0-0.2l0.6-1.3c0,0,0-0.1,0-0.1c0,0,0-0.1-0.1-0.1
			c-0.2-0.2-0.4-0.4-0.6-0.7c-0.3-0.3-0.5-0.5-0.7-0.6c0,0-0.1-0.1-0.1-0.1c0,0-0.1,0-0.1,0l-1.3,0.6c-0.1,0-0.1,0-0.2,0
			c-0.1,0-0.1,0-0.2-0.1c-1-0.6-2-1.1-3.1-1.3c-0.1,0-0.1,0-0.2-0.1c0,0-0.1-0.1-0.1-0.2l-0.5-1.3c0,0,0-0.1-0.1-0.1
			c0,0-0.1,0-0.1-0.1c-0.3,0-0.6,0-0.9,0s-0.7,0-0.9,0c0,0-0.1,0-0.1,0.1c0,0-0.1,0.1-0.1,0.1L9.3,1.5c0,0.1-0.1,0.1-0.1,0.2
			c0,0-0.1,0.1-0.2,0.1C7.9,2,6.8,2.5,5.9,3.1c-0.1,0-0.1,0.1-0.2,0.1c-0.1,0-0.1,0-0.2,0L4.2,2.6c0,0-0.1,0-0.1,0
			c0,0-0.1,0-0.1,0.1C3.7,2.8,3.5,3,3.2,3.2C3,3.5,2.8,3.7,2.6,3.9C2.6,4,2.5,4,2.5,4c0,0,0,0.1,0,0.1l0.6,1.3c0,0.1,0,0.1,0,0.2
			c0,0.1,0,0.1-0.1,0.2C2.5,6.8,2,7.9,1.8,9c0,0.1,0,0.1-0.1,0.2c0,0-0.1,0.1-0.2,0.1L0.2,9.8c0,0-0.1,0-0.1,0.1c0,0,0,0.1-0.1,0.1
			c0,0.3,0,0.6,0,0.9c0,0.3,0,0.6,0,0.9c0,0,0,0.1,0.1,0.1c0,0,0.1,0.1,0.1,0.1l1.3,0.5c0.1,0,0.1,0.1,0.2,0.1c0,0,0.1,0.1,0.1,0.2
			c0.2,1.1,0.7,2.2,1.3,3.1c0,0.1,0.1,0.1,0.1,0.2c0,0.1,0,0.1,0,0.2l-0.6,1.3c0,0,0,0.1,0,0.1c0,0,0,0.1,0.1,0.1
			c0.2,0.2,0.4,0.4,0.6,0.7c0.3,0.3,0.5,0.5,0.7,0.6c0,0,0.1,0.1,0.1,0.1c0,0,0.1,0,0.1,0l1.3-0.6c0,0,0.1,0,0.2,0
			c0.1,0,0.2,0,0.2,0.1c1,0.6,2,1.1,3.1,1.3c0.1,0,0.1,0,0.2,0.1c0,0,0.1,0.1,0.1,0.2l0.5,1.3c0,0,0,0.1,0.1,0.1c0,0,0.1,0,0.1,0.1
			c0.3,0,0.6,0,0.9,0c0.4,0,0.7,0,0.9,0c0,0,0.1,0,0.1-0.1c0,0,0.1-0.1,0.1-0.1l0.5-1.3c0-0.1,0.1-0.1,0.1-0.2c0,0,0.1-0.1,0.2-0.1
			c1.1-0.2,2.2-0.7,3.1-1.3c0.1,0,0.1-0.1,0.2-0.1c0.1,0,0.1,0,0.2,0l1.3,0.6c0,0,0.1,0,0.1,0c0,0,0.1,0,0.1-0.1
			c0.2-0.2,0.4-0.4,0.7-0.6c0.3-0.3,0.5-0.5,0.6-0.7c0,0,0.1-0.1,0.1-0.1c0,0,0-0.1,0-0.1l-0.6-1.3c0-0.1,0-0.1,0-0.2
			c0-0.1,0-0.1,0.1-0.2c0.6-1,1.1-2,1.3-3.1c0-0.1,0-0.1,0.1-0.2c0,0,0.1-0.1,0.2-0.1l1.3-0.5c0,0,0.1,0,0.1-0.1s0-0.1,0.1-0.1
			c0-0.3,0-0.6,0-0.9C22,10.7,22,10.4,22,10.1L22,10.1z" />
            <path class="st2" d="M5.7,7.8c0.3,0,0.6,0.2,0.8,0.4c0.1,0.2,0.3,0.2,0.4,0C7,8.1,7,7.8,6.9,7.7C6.6,7.2,6.1,7,5.7,7
			C4.7,7,4,7.9,4,9v4c0,1.1,0.7,2,1.7,2c0.5,0,0.9-0.2,1.3-0.7c0.1-0.2,0.1-0.4,0-0.5c-0.1-0.1-0.3-0.1-0.4,0
			c-0.2,0.3-0.5,0.4-0.8,0.4c-0.6,0-1-0.6-1-1.2V9C4.6,8.3,5.1,7.8,5.7,7.8z" />
            <path class="st2" d="M16.6,15c0.2,0,0.4-0.2,0.4-0.4V7.4C17,7.2,16.9,7,16.7,7c-0.2,0-0.4,0.1-0.4,0.3l-1.7,5.9l-1.7-5.9
			C12.7,7.1,12.5,7,12.3,7C12.1,7,12,7.2,12,7.4v7.2c0,0.2,0.2,0.4,0.4,0.4s0.4-0.2,0.4-0.4v-4.5l1.3,4.6c0,0.2,0.2,0.3,0.4,0.3
			c0.2,0,0.3-0.1,0.4-0.3l1.3-4.6v4.5C16.2,14.8,16.4,15,16.6,15z" />
            <path class="st2"
                d="M10.4,14.8c0,0.2,0.2,0.2,0.3,0.2c0,0,0.1,0,0.1,0c0.2-0.1,0.2-0.3,0.2-0.5l-0.9-2.9c0.6-0.3,0.9-1,0.9-1.8V9
			c0-1.1-0.7-2-1.7-2h-1C8.1,7,8,7.2,8,7.4v2.4c0,0.2,0.1,0.4,0.3,0.4S8.6,10,8.6,9.8v-2h0.7c0.6,0,1,0.6,1,1.2v0.8
			c0,0.7-0.5,1.2-1,1.2h-1C8.1,11,8,11.2,8,11.4v3.2C8,14.8,8.1,15,8.3,15s0.3-0.2,0.3-0.4v-2.8h0.7c0,0,0.1,0,0.1,0L10.4,14.8z" />
        </g>
    </g>
</svg>