<svg width="85" height="85" viewBox="0 0 85 85" fill="none" xmlns="http://www.w3.org/2000/svg">
<path d="M42.5 85.0001C65.9721 85.0001 85 65.9721 85 42.5C85 19.0279 65.9721 0 42.5 0C19.0279 0 0 19.0279 0 42.5C0 65.9721 19.0279 85.0001 42.5 85.0001Z" fill="#6667AB"/>
<path d="M43.9897 28.0879C35.9437 28.0883 28.2276 29.6865 22.5386 32.5314C16.8495 35.3762 13.6536 39.2345 13.6538 43.2574C13.6536 47.2804 16.8495 51.1389 22.5386 53.9837C28.2276 56.8286 35.9437 58.4268 43.9897 58.4272C47.9739 58.4273 51.9192 58.0349 55.6002 57.2726C59.2812 56.5102 62.6258 55.393 65.4431 53.9843C68.2604 52.5757 70.4951 50.9034 72.0198 49.0629C73.5445 47.2224 74.3292 45.2496 74.3291 43.2574C74.3292 41.2653 73.5445 39.2927 72.0198 37.4522C70.4951 35.6117 68.2604 33.9394 65.4431 32.5308C62.6258 31.1221 59.2812 30.0049 55.6002 29.2425C51.9192 28.4802 47.9739 28.0878 43.9897 28.0879ZM43.9897 30.5851C51.2416 30.5848 58.1969 31.9196 63.3255 34.2961C68.4541 36.6726 71.336 39.8961 71.3373 43.2574C71.3376 44.9221 70.6305 46.5706 69.2563 48.1086C67.882 49.6466 65.8676 51.0441 63.3281 52.2212C60.7886 53.3983 57.7737 54.3318 54.4556 54.9688C51.1375 55.6058 47.5811 55.9336 43.9897 55.9335C40.3986 55.9334 36.8426 55.6055 33.5249 54.9684C30.2072 54.3313 27.1927 53.3977 24.6535 52.2206C22.1144 51.0435 20.1003 49.6461 18.7263 48.1082C17.3523 46.5703 16.6452 44.922 16.6455 43.2574C16.6469 39.8964 19.5283 36.6732 24.6562 34.2967C29.784 31.9203 36.7384 30.5852 43.9897 30.5851Z" fill="#C7C7FF"/>
<path d="M30.8531 35.674C26.8304 42.6422 24.3566 50.1239 23.9758 56.4732C23.595 62.8224 25.3384 67.5192 28.8225 69.5305C32.3064 71.5422 37.2457 70.7036 42.5539 67.1992C47.8621 63.6948 53.1045 57.8116 57.1278 50.8438C59.1199 47.3933 60.7528 43.7805 61.9331 40.2115C63.1134 36.6425 63.818 33.1872 64.0067 30.043C64.1954 26.8988 63.8645 24.1273 63.033 21.8866C62.2014 19.646 60.8854 17.9802 59.1601 16.9842C57.4349 15.9881 55.3342 15.6813 52.978 16.0814C50.6217 16.4816 48.0561 17.5808 45.4275 19.3163C42.799 21.0519 40.159 23.3897 37.6583 26.1963C35.1576 29.003 32.8452 32.2235 30.8531 35.674ZM33.0156 36.9228C36.6413 30.6423 41.275 25.2863 45.8975 22.0331C50.5199 18.7799 54.7525 17.8958 57.6642 19.5753C59.106 20.4074 60.1799 21.844 60.8248 23.8031C61.4696 25.7622 61.6726 28.2056 61.4222 30.9934C61.1719 33.7812 60.473 36.8591 59.3656 40.0511C58.2582 43.2432 56.7639 46.4868 54.9681 49.597C53.1724 52.707 51.1105 55.6227 48.8999 58.1774C46.6893 60.7321 44.3734 62.8759 42.0845 64.4863C39.7955 66.0968 37.5783 67.1422 35.5594 67.5632C33.5406 67.9842 31.7596 67.7724 30.3183 66.9398C27.4081 65.2582 26.0574 61.1513 26.5632 55.5222C27.0691 49.893 29.39 43.2028 33.0156 36.9228Z" fill="#C7C7FF"/>
<path d="M30.8548 50.8438C34.8781 57.8116 40.1204 63.6948 45.4286 67.1992C50.7368 70.7036 55.6762 71.5422 59.1601 69.5305C62.6442 67.5192 64.3876 62.8224 64.0067 56.4732C63.6259 50.1239 61.1521 42.6422 57.1295 35.674C55.1374 32.2235 52.825 29.003 50.3243 26.1963C47.8236 23.3897 45.1836 21.0519 42.555 19.3163C39.9265 17.5808 37.3608 16.4816 35.0046 16.0814C32.6483 15.6813 30.5476 15.9881 28.8224 16.9842C27.0972 17.9802 25.7812 19.646 24.9496 21.8866C24.118 24.1273 23.7871 26.8988 23.9758 30.043C24.1646 33.1872 24.8692 36.6425 26.0495 40.2115C27.2298 43.7805 28.8626 47.3933 30.8548 50.8438ZM33.0174 49.5952C29.3911 43.3149 27.0696 36.624 26.5634 30.9942C26.0573 25.3645 27.4079 21.2569 30.3183 19.5751C31.7598 18.7425 33.5409 18.5308 35.56 18.952C37.579 19.3731 39.7964 20.4187 42.0856 22.0294C44.3748 23.6401 46.6908 25.7843 48.9015 28.3394C51.1122 30.8944 53.1742 33.8104 54.9698 36.9208C56.7654 40.0308 58.2593 43.2745 59.3665 46.4663C60.4736 49.658 61.1722 52.7355 61.4224 55.523C61.6726 58.3105 61.4695 60.7533 60.8246 62.7122C60.1798 64.6711 59.1059 66.1076 57.6642 66.9396C54.7528 68.619 50.5206 67.7353 45.8986 64.4827C41.2766 61.2301 36.6432 55.875 33.0174 49.5952Z" fill="#C7C7FF"/>
<path d="M43.9912 46.9663C46.0396 46.9663 47.7001 45.3057 47.7001 43.2573C47.7001 41.2089 46.0396 39.5483 43.9912 39.5483C41.9428 39.5483 40.2822 41.2089 40.2822 43.2573C40.2822 45.3057 41.9428 46.9663 43.9912 46.9663Z" fill="#C7C7FF"/>
<path d="M42.498 27.3306C34.452 27.3309 26.7359 28.9292 21.0469 31.7741C15.3578 34.6189 12.1619 38.4771 12.1621 42.5001C12.1619 46.5231 15.3578 50.3816 21.0469 53.2264C26.7359 56.0712 34.452 57.6695 42.498 57.6699C46.4822 57.6699 50.4275 57.2776 54.1085 56.5153C57.7895 55.7529 61.1341 54.6357 63.9514 53.227C66.7687 51.8184 69.0034 50.1461 70.5281 48.3056C72.0528 46.4651 72.8374 44.4923 72.8374 42.5001C72.8374 40.508 72.0528 38.5354 70.5281 36.6949C69.0034 34.8544 66.7687 33.1821 63.9514 31.7734C61.1341 30.3648 57.7895 29.2475 54.1085 28.4852C50.4275 27.7229 46.4822 27.3305 42.498 27.3306ZM42.498 29.8277C49.7499 29.8275 56.7052 31.1623 61.8338 33.5388C66.9624 35.9153 69.8443 39.1388 69.8456 42.5001C69.8459 44.1648 69.1388 45.8133 67.7646 47.3513C66.3903 48.8893 64.3759 50.2868 61.8364 51.4639C59.2969 52.641 56.282 53.5745 52.9639 54.2115C49.6458 54.8485 46.0894 55.1763 42.498 55.1762C38.9069 55.1761 35.3509 54.8482 32.0332 54.2111C28.7155 53.574 25.701 52.6404 23.1618 51.4633C20.6227 50.2862 18.6086 48.8888 17.2346 47.3509C15.8606 45.813 15.1535 44.1647 15.1538 42.5001C15.1552 39.139 18.0366 35.9159 23.1645 33.5394C28.2923 31.1629 35.2467 29.8279 42.498 29.8277Z" fill="white"/>
<path d="M29.3619 34.9169C25.3392 41.8851 22.8654 49.3668 22.4846 55.7161C22.1038 62.0653 23.8472 66.7621 27.3313 68.7735C30.8152 70.7851 35.7545 69.9466 41.0627 66.4421C46.3709 62.9377 51.6133 57.0545 55.6366 50.0867C57.6287 46.6363 59.2616 43.0234 60.4419 39.4544C61.6222 35.8854 62.3268 32.4301 62.5155 29.2859C62.7042 26.1418 62.3733 23.3702 61.5418 21.1296C60.7102 18.8889 59.3942 17.2231 57.6689 16.2271C55.9437 15.231 53.843 14.9242 51.4868 15.3243C49.1305 15.7245 46.5649 16.8237 43.9363 18.5593C41.3077 20.2948 38.6677 22.6326 36.1671 25.4393C33.6664 28.2459 31.354 31.4665 29.3619 34.9169ZM31.5244 36.1657C35.1501 29.8852 39.7838 24.5292 44.4063 21.276C49.0287 18.0228 53.2613 17.1387 56.173 18.8183C57.6148 19.6503 58.6887 21.0869 59.3336 23.0461C59.9784 25.0052 60.1814 27.4485 59.931 30.2363C59.6807 33.0242 58.9818 36.102 57.8744 39.2941C56.767 42.4861 55.2727 45.7298 53.4769 48.84C51.6812 51.9499 49.6193 54.8657 47.4087 57.4204C45.1981 59.975 42.8822 62.1188 40.5933 63.7293C38.3043 65.3397 36.0871 66.3851 34.0682 66.8061C32.0494 67.2271 30.2684 67.0153 28.8271 66.1827C25.9169 64.5011 24.5662 60.3942 25.072 54.7651C25.5779 49.136 27.8988 42.4457 31.5244 36.1657Z" fill="white"/>
<path d="M29.3636 50.0867C33.3869 57.0545 38.6292 62.9377 43.9374 66.4421C49.2456 69.9466 54.1849 70.7851 57.6689 68.7735C61.153 66.7621 62.8963 62.0653 62.5155 55.7161C62.1347 49.3668 59.6609 41.8851 55.6382 34.9169C53.6462 31.4665 51.3338 28.2459 48.8331 25.4393C46.3324 22.6326 43.6924 20.2948 41.0638 18.5593C38.4352 16.8237 35.8696 15.7245 33.5133 15.3243C31.1571 14.9242 29.0564 15.231 27.3312 16.2271C25.606 17.2231 24.2899 18.8889 23.4584 21.1296C22.6268 23.3702 22.2959 26.1418 22.4846 29.2859C22.6733 32.4301 23.378 35.8854 24.5583 39.4544C25.7386 43.0234 27.3714 46.6363 29.3636 50.0867ZM31.5261 48.8381C27.8999 42.5579 25.5784 35.8669 25.0722 30.2371C24.5661 24.6074 25.9167 20.4999 28.8271 18.818C30.2686 17.9854 32.0497 17.7738 34.0687 18.1949C36.0878 18.616 38.3052 19.6616 40.5944 21.2723C42.8835 22.8831 45.1996 25.0272 47.4103 27.5823C49.621 30.1374 51.683 33.0534 53.4786 36.1637C55.2741 39.2738 56.7681 42.5174 57.8753 45.7092C58.9824 48.9009 59.681 51.9784 59.9312 54.7659C60.1814 57.5534 59.9783 59.9963 59.3334 61.9552C58.6886 63.914 57.6147 65.3506 56.173 66.1825C53.2615 67.862 49.0294 66.9782 44.4074 63.7256C39.7854 60.473 35.152 55.1179 31.5261 48.8381Z" fill="white"/>
<path d="M42.5 46.2093C44.5484 46.2093 46.2089 44.5487 46.2089 42.5003C46.2089 40.4519 44.5484 38.7913 42.5 38.7913C40.4516 38.7913 38.791 40.4519 38.791 42.5003C38.791 44.5487 40.4516 46.2093 42.5 46.2093Z" fill="white"/>
</svg>
