<svg viewBox="0 0 64 64" fill="none" xmlns="http://www.w3.org/2000/svg">
    <path d="M32 64C49.6731 64 64 49.6731 64 32C64 14.3269 49.6731 0 32 0C14.3269 0 0 14.3269 0 32C0 49.6731 14.3269 64 32 64Z" fill="#FBE5E5" />
    <path d="M32 47C40.2843 47 47 40.2843 47 32C47 23.7157 40.2843 17 32 17C23.7157 17 17 23.7157 17 32C17 40.2843 23.7157 47 32 47Z" fill="#D30000" />
    <path d="M35.1263 26.8617C35.883 27.3881 36.5014 28.0895 36.9288 28.9062C37.3562 29.7229 37.5801 30.6307 37.5813 31.5525C37.5685 33.0911 36.946 34.5618 35.8502 35.642C34.7544 36.7221 33.2749 37.3235 31.7363 37.3142C30.1969 37.326 28.7155 36.7277 27.6161 35.6501C26.5167 34.5726 25.8888 33.1035 25.8696 31.5642C25.8698 30.6415 26.0926 29.7324 26.5191 28.9142C26.9456 28.0959 27.5633 27.3927 28.3196 26.8642C28.3846 26.8182 28.4583 26.7862 28.5363 26.7703C28.6142 26.7544 28.6947 26.7549 28.7724 26.7717C28.8502 26.7886 28.9236 26.8214 28.9879 26.8682C29.0523 26.915 29.1062 26.9746 29.1463 27.0433L29.5196 27.6958C29.5869 27.814 29.6083 27.9528 29.5795 28.0857C29.5507 28.2185 29.4739 28.3361 29.3638 28.4158C28.8675 28.774 28.4633 29.2449 28.1846 29.7898C27.9058 30.3347 27.7605 30.938 27.7605 31.55C27.7638 32.067 27.8692 32.5783 28.0704 33.0546C28.2716 33.5308 28.5648 33.9627 28.9332 34.3255C29.3016 34.6883 29.7379 34.9749 30.2172 35.1689C30.6965 35.3628 31.2093 35.4603 31.7263 35.4558C32.2451 35.46 32.7596 35.3615 33.2402 35.1661C33.7208 34.9706 34.158 34.682 34.5266 34.3169C34.8952 33.9517 35.1879 33.5173 35.388 33.0386C35.588 32.5599 35.6914 32.0463 35.6921 31.5275C35.6868 30.9189 35.5385 30.3201 35.2593 29.7793C34.9801 29.2386 34.5777 28.7709 34.0846 28.4142C33.9749 28.3347 33.8986 28.2173 33.8703 28.0849C33.842 27.9524 33.8637 27.8141 33.9313 27.6967L34.3046 27.0442C34.3443 26.9757 34.3978 26.9163 34.4617 26.8697C34.5256 26.823 34.5984 26.7901 34.6757 26.7731C34.753 26.7561 34.8329 26.7554 34.9105 26.7709C34.988 26.7864 35.0615 26.8179 35.1263 26.8633V26.8617ZM32.6705 31.7383V26.1625C32.67 26.0886 32.655 26.0156 32.6263 25.9476C32.5975 25.8795 32.5556 25.8178 32.503 25.766C32.4503 25.7142 32.3879 25.6733 32.3194 25.6457C32.2509 25.6181 32.1777 25.6042 32.1038 25.605H31.3488C31.2749 25.6042 31.2017 25.6181 31.1332 25.6457C31.0647 25.6733 31.0023 25.7142 30.9496 25.766C30.897 25.8178 30.8551 25.8795 30.8263 25.9476C30.7976 26.0156 30.7826 26.0886 30.7821 26.1625V31.7383C30.7826 31.8122 30.7976 31.8853 30.8263 31.9533C30.8551 32.0213 30.897 32.083 30.9496 32.1348C31.0023 32.1866 31.0647 32.2275 31.1332 32.2552C31.2017 32.2828 31.2749 32.2966 31.3488 32.2958H32.1046C32.1784 32.2965 32.2516 32.2826 32.32 32.2549C32.3884 32.2272 32.4507 32.1863 32.5033 32.1345C32.5558 32.0827 32.5976 32.0211 32.6263 31.9531C32.655 31.8851 32.67 31.8121 32.6705 31.7383Z" fill="white" />
</svg>