<svg xmlns="http://www.w3.org/2000/svg" viewBox="0 0 14 14" style="enable-background:new 0 0 14 14" xml:space="preserve"><path d="M12.8 0H8c-.3 0-.8.2-1 .4L.3 7.1c-.5.5-.5 1.2 0 1.6l5 4.9c.5.5 1.2.5 1.6 0L13.6 7c.2-.2.4-.7.4-1V1.2c0-.7-.5-1.2-1.2-1.2zm-2.3 4.7c-.6 0-1.2-.5-1.2-1.2 0-.6.5-1.2 1.2-1.2.6 0 1.2.5 1.2 1.2 0 .6-.6 1.2-1.2 1.2z" fill="currentColor"/><circle cx="9" cy="10" r="4" style="fill:#fff"/><path d="M9 6c-2.2 0-4 1.8-4 4s1.8 4 4 4 4-1.8 4-4-1.8-4-4-4zm0 7.2c-1.7 0-3.2-1.4-3.2-3.2S7.3 6.8 9 6.8c1.7 0 3.2 1.4 3.2 3.2 0 1.7-1.5 3.2-3.2 3.2zm1.5-4.7c.2.2.2.4 0 .6l-.9.9.8.8c.2.2.2.4 0 .6-.2.2-.4.2-.6 0l-.8-.8-.8.8c-.2.2-.4.2-.6 0-.2-.2-.2-.4 0-.6l.8-.8-.9-.8c-.1-.2-.1-.5 0-.7s.4-.2.6 0l.9.9.8-.8c.2-.2.5-.2.7-.1z" fill="currentColor"/></svg>