<svg version="1.1" id="Layer_1" xmlns="http://www.w3.org/2000/svg" x="0" y="0" viewBox="0 0 80 80" style="enable-background:new 0 0 80 80" xml:space="preserve"><style>.st1{fill:#d30000}</style><path d="M40 80c22.1 0 40-17.9 40-40S62.1 0 40 0 0 17.9 0 40s17.9 40 40 40z" style="fill:#fbe5e5"/><path class="st1" d="M50.6 28.8h-5v-.9c0-.7-.3-1.4-.8-2-.5-.5-1.2-.8-1.9-.8h-3.6c-.7 0-1.4.3-1.9.8s-.8 1.2-.8 2v.9h-5c-.6 0-1.2.3-1.6.7-.4.4-.7 1-.7 1.6V33c0 .1 0 .2.1.4 0 .1.1.2.2.3.1.1.2.2.3.2.1 0 .2.1.4.1h21.9c.1 0 .2 0 .4-.1.1 0 .2-.1.3-.2.1-.1.2-.2.2-.3 0-.1.1-.2.1-.4v-1.9c0-.6-.2-1.2-.7-1.6-.7-.5-1.3-.7-1.9-.7zm-12.3-1c0-.2.1-.5.3-.7.2-.2.4-.3.6-.3h3.6c.2 0 .5.1.6.3.2.2.3.4.3.7v.9h-5.5v-.9zM30.9 35.8h-.1s-.1 0-.1.1c0 0 0 .1-.1.1s0 .1 0 .1l.8 16.2a2.732 2.732 0 0 0 2.7 2.7h13.8a2.732 2.732 0 0 0 2.7-2.7l.8-16.2V36s0-.1-.1-.1l-.1-.1H30.9zm13.7 2.3c0-.2.1-.5.3-.6.2-.2.4-.3.6-.3s.5.1.6.3c.2.2.3.4.3.6v12.2c0 .2-.1.5-.3.6-.2.2-.4.3-.6.3s-.5-.1-.6-.3c-.2-.2-.3-.4-.3-.6V38.1zm-4.5 0c0-.2.1-.5.3-.6.2-.2.4-.3.6-.3.2 0 .5.1.6.3.2.2.3.4.3.6v12.2c0 .1 0 .2-.1.3 0 .1-.1.2-.2.3-.1.1-.2.2-.3.2s-.2.1-.3.1c-.1 0-.2 0-.3-.1s-.3-.1-.3-.1c-.1-.1-.2-.2-.2-.3 0-.1-.1-.2-.1-.3V38.1zm-4.6 0c0-.2.1-.5.3-.6.2-.2.4-.3.6-.3.2 0 .5.1.6.3.2.2.3.4.3.6v12.2c0 .1 0 .2-.1.3 0 .1-.1.2-.2.3-.1.1-.2.2-.3.2s-.2.1-.3.1c-.1 0-.2 0-.3-.1-.1 0-.2-.1-.3-.2-.1-.1-.2-.2-.2-.3 0-.1-.1-.2-.1-.3V38.1z"/></svg>