<svg xmlns="http://www.w3.org/2000/svg" xmlns:xlink="http://www.w3.org/1999/xlink" xml:space="preserve" id="Layer_1"
    x="0" y="0" style="enable-background:new 0 0 24 20" version="1.1" viewBox="0 0 24 20">

    <path d="M4 0h8c2.2 0 4 1.8 4 4v8c0 2.2-1.8 4-4 4H4c-2.2 0-4-1.8-4-4V4c0-2.2 1.8-4 4-4z" fill="#fff" />
    <defs>
        <path id="SVGID_1_" d="M0 0h16v16H0z" />
    </defs>
    <clipPath id="SVGID_2_">
        <use xlink:href="#SVGID_1_" style="overflow:visible" />
    </clipPath>
    <g style="clip-path:url(#SVGID_2_)">
        <path
            d="M13 2.2c1.5 0 2.7 1.1 2.7 2.5v7.5c0 1.4-1.2 2.5-2.7 2.5H5c-1.5 0-2.7-1.1-2.7-2.5V4.8c0-1.4 1.2-2.5 2.7-2.5h8zM13 1H5C2.8 1 1 2.7 1 4.8v7.5c0 2 1.8 3.7 4 3.7h8c2.2 0 4-1.7 4-3.8V4.8C17 2.7 15.2 1 13 1z"
            fill="#6667ab" />
        <path
            d="m8.9 8 1.9-1.9c.3-.3.3-.7 0-.9-.3-.3-.7-.3-.9 0L8 7.1 6.1 5.2c-.3-.3-.7-.3-.9 0-.3.3-.3.7 0 .9L7.1 8 5.2 9.9c-.3.3-.3.7 0 .9.1.2.3.2.4.2.2 0 .4 0 .5-.2L8 8.9l1.9 1.9c.1.2.3.2.5.2s.3-.1.5-.2c.3-.3.3-.7 0-.9L8.9 8z"
            fill="#6667ab" />
    </g>
    <path d="M8 2h8c2.2 0 4 1.8 4 4v8c0 2.2-1.8 4-4 4H8c-2.2 0-4-1.8-4-4V6c0-2.2 1.8-4 4-4z" fill="#fff" />
    <defs>
        <path id="SVGID_3_" d="M4 2h16v16H4z" />
    </defs>
    <clipPath id="SVGID_4_">
        <use xlink:href="#SVGID_3_" style="overflow:visible" />
    </clipPath>
    <g style="clip-path:url(#SVGID_4_)">
        <path
            d="M16 3.3c1.5 0 2.7 1.2 2.7 2.7v8c0 1.5-1.2 2.7-2.7 2.7H8c-1.5 0-2.7-1.2-2.7-2.7V6c0-1.5 1.2-2.7 2.7-2.7h8zM16 2H8C5.8 2 4 3.8 4 6v8c0 2.2 1.8 4 4 4h8c2.2 0 4-1.8 4-4V6c0-2.2-1.8-4-4-4z"
            fill="#6667ab" />
        <path
            d="m12.9 10 1.9-1.9c.3-.3.3-.7 0-.9-.3-.3-.7-.3-.9 0L12 9.1l-1.9-1.9c-.3-.3-.7-.3-.9 0-.3.3-.3.7 0 .9l1.9 1.9-1.9 1.9c-.3.3-.3.7 0 .9.1.2.3.2.4.2.2 0 .3-.1.5-.2l1.9-1.9 1.9 1.9c.1.2.3.2.5.2s.3-.1.5-.2c.3-.3.3-.7 0-.9l-2-1.9z"
            fill="#6667ab" />
    </g>
    <path d="M12 4h8c2.2 0 4 1.8 4 4v8c0 2.2-1.8 4-4 4h-8c-2.2 0-4-1.8-4-4V8c0-2.2 1.8-4 4-4z" fill="#6667ab" />
    <defs>
        <path id="SVGID_5_" d="M8 4h16v16H8z" />
    </defs>
    <clipPath id="SVGID_6_">
        <use xlink:href="#SVGID_5_" style="overflow:visible" />
    </clipPath>
    <g style="clip-path:url(#SVGID_6_)">
        <path
            d="M20 5.3c1.5 0 2.7 1.2 2.7 2.7v8c0 1.5-1.2 2.7-2.7 2.7h-8c-1.5 0-2.7-1.2-2.7-2.7V8c0-1.5 1.2-2.7 2.7-2.7h8zM20 4h-8C9.8 4 8 5.8 8 8v8c0 2.2 1.8 4 4 4h8c2.2 0 4-1.8 4-4V8c0-2.2-1.8-4-4-4z"
            fill="#6667ab" />
        <path
            d="M19.2 8.2h-1.7v-.3c0-.2-.1-.5-.3-.7-.1-.1-.3-.2-.6-.2h-1.2c-.2 0-.5.1-.7.3-.2.2-.3.4-.3.7v.3h-1.7c-.1 0-.2 0-.3.1-.1 0-.2.1-.3.2-.1.1-.1.2-.2.3.1-.1.1 0 .1.1v.7s0 .1.1.1l.1.1h7.6s.1 0 .1-.1l.1-.1V9c0-.1 0-.2-.1-.3 0-.1-.1-.2-.2-.3-.1-.1-.2-.1-.3-.2 0 .1-.1.1-.2 0zm-4.1-.3c0-.1 0-.2.1-.2.1-.1.1-.1.2-.1h1.2c.1 0 .2 0 .2.1.1.1.1.1.1.2v.3h-1.8v-.3zM12.6 10.6c-.1 0-.1 0 0 0-.1 0-.1 0 0 0l-.1.1.3 5.4c0 .2.1.5.3.6.2.2.4.3.6.3h4.7c.2 0 .5-.1.6-.3s.3-.4.3-.6l.3-5.4h-7zm4.6.8v-.1s0-.1.1-.1l.1-.1h.2s.1 0 .1.1l.1.1V15.6s0 .1-.1.1l-.1.1h-.2s-.1 0-.1-.1l-.1-.1V11.4zm-1.5 0v-.1s0-.1.1-.1l.1-.1h.2s.1 0 .1.1l.1.1V15.6s0 .1-.1.1l-.1.1h-.2s-.1 0-.1-.1l-.1-.1V11.4zm-1.5 0v-.1s0-.1.1-.1l.1-.1h.2s.1 0 .1.1l.1.1V15.6s0 .1-.1.1l-.1.1h-.2s-.1 0-.1-.1l-.1-.1V11.4z"
            fill="#fff" />
    </g>
</svg>