<svg viewBox="0 0 80 80" fill="none" xmlns="http://www.w3.org/2000/svg">
<g clip-path="url(#clip0_12_11629)">
<path opacity="0.1" d="M40 80C62.0914 80 80 62.0914 80 40C80 17.9086 62.0914 0 40 0C17.9086 0 0 17.9086 0 40C0 62.0914 17.9086 80 40 80Z" fill="#8EA6C1"/>
<path d="M33.333 40C33.589 40 33.845 40.0973 34.0396 40.2933L40.373 46.6267C40.6583 46.912 40.745 47.3427 40.5903 47.716C40.4356 48.0893 40.0703 48.3333 39.6663 48.3333H36.6663V54.3333C36.6663 55.252 35.9183 56 34.9996 56H31.6663C30.7476 56 29.9996 55.252 29.9996 54.3333V48.3333H26.9996C26.5956 48.3333 26.2303 48.0893 26.0756 47.716C25.921 47.3427 26.0063 46.912 26.293 46.6267L32.6263 40.2933C32.821 40.0973 33.077 40 33.333 40Z" fill="#6667AB"/>
<path d="M28 28H52C54.2 28 56 29.8 56 32V48C56 50.2 54.2 52 52 52H39.5067L39.5 51C39.5 50.5 39.5 50 39.5067 49.3333H52C52.7333 49.3333 53.3333 48.7333 53.3333 48V32C53.3333 31.2667 52.7333 30.6667 52 30.6667H28C27.2667 30.6667 26.6667 31.2667 26.6667 32V38.5333C26.6667 40 26.6667 40.44 26.6667 41.6667V45H25C24.6533 45 24.5 45 24 45V32C24 29.8 25.8 28 28 28Z" fill="#6667AB"/>
<path d="M46.3339 34.666H54.3339C54.8859 34.666 55.3339 35.114 55.3339 35.666V44.3327C55.3339 44.8847 54.8859 45.3327 54.3339 45.3327H46.3339C44.3112 45.3327 42.6672 43.6887 42.6672 41.666V38.3327C42.6672 36.31 44.3112 34.666 46.3339 34.666ZM48.0006 42.666C49.4739 42.666 50.6672 41.4727 50.6672 39.9993C50.6672 38.526 49.4739 37.3327 48.0006 37.3327C46.5272 37.3327 45.3339 38.526 45.3339 39.9993C45.3339 41.4727 46.5272 42.666 48.0006 42.666Z" fill="#6667AB"/>
</g>
<defs>
<clipPath id="clip0_12_11629">
<rect width="80" height="80" fill="white"/>
</clipPath>
</defs>
</svg>
