<?xml version="1.0" encoding="utf-8"?>
<!-- Generator: Adobe Illustrator 25.0.0, SVG Export Plug-In . SVG Version: 6.00 Build 0)  -->
<svg version="1.1" id="Слой_1" xmlns="http://www.w3.org/2000/svg" xmlns:xlink="http://www.w3.org/1999/xlink" x="0px" y="0px"
	 viewBox="0 0 216.4 215.1" style="enable-background:new 0 0 216.4 215.1;" xml:space="preserve">
<style type="text/css">
	.st0{fill:#0D121C;}
	.st1{fill:url(#SVGID_1_);}
	.st2{fill:#6667AB;filter:url(#Adobe_OpacityMaskFilter);}
	.st3{mask:url(#mask0_10_146_1_);}
	.st4{fill:#FFFFFF;}
	.st5{fill:#E1EBFA;}
	.st6{fill:none;stroke:#6667AB;stroke-width:2;}
	.st7{opacity:0.5;fill:#6667AB;enable-background:new    ;}
	.st8{fill:#6667AB;stroke:#6667AB;}
</style>
<path class="st0" d="M7.4,205v10H6.6l-5.7-8.5v8.5H0v-10h0.8l5.7,8.5V205H7.4z M9.3,211.4v-0.2c0-0.5,0.1-1,0.2-1.5
	c0.2-0.5,0.4-0.8,0.7-1.2c0.3-0.3,0.6-0.6,1-0.8c0.4-0.2,0.9-0.3,1.4-0.3c0.5,0,1,0.1,1.4,0.3c0.4,0.2,0.8,0.4,1,0.8
	c0.3,0.3,0.5,0.7,0.7,1.2c0.2,0.5,0.2,1,0.2,1.5v0.2c0,0.5-0.1,1-0.2,1.5c-0.2,0.5-0.4,0.8-0.7,1.2c-0.3,0.3-0.6,0.6-1,0.8
	c-0.4,0.2-0.9,0.3-1.4,0.3c-0.5,0-1-0.1-1.4-0.3c-0.4-0.2-0.8-0.4-1-0.8c-0.3-0.3-0.5-0.7-0.7-1.2C9.4,212.5,9.3,212,9.3,211.4z
	 M10.1,211.2v0.2c0,0.4,0.1,0.8,0.2,1.2c0.1,0.4,0.3,0.7,0.5,1c0.2,0.3,0.5,0.5,0.8,0.7c0.3,0.2,0.7,0.2,1.1,0.2
	c0.4,0,0.8-0.1,1.1-0.2c0.3-0.2,0.6-0.4,0.8-0.7c0.2-0.3,0.4-0.6,0.5-1c0.1-0.4,0.2-0.7,0.2-1.2v-0.2c0-0.4-0.1-0.8-0.2-1.1
	c-0.1-0.4-0.3-0.7-0.5-1c-0.2-0.3-0.5-0.5-0.8-0.7c-0.3-0.2-0.7-0.2-1.1-0.2c-0.4,0-0.8,0.1-1.1,0.2c-0.3,0.2-0.6,0.4-0.8,0.7
	c-0.2,0.3-0.4,0.6-0.5,1C10.2,210.4,10.1,210.8,10.1,211.2z M21.9,207.6v7.4h-0.8v-7.4H21.9z M21,205.5c0-0.2,0-0.3,0.1-0.4
	c0.1-0.1,0.2-0.2,0.4-0.2c0.2,0,0.3,0.1,0.4,0.2c0.1,0.1,0.2,0.2,0.2,0.4c0,0.1-0.1,0.3-0.2,0.4c-0.1,0.1-0.2,0.2-0.4,0.2
	c-0.2,0-0.3-0.1-0.4-0.2C21,205.7,21,205.6,21,205.5z M29,213.6v-9.1h0.8V215H29L29,213.6z M23.8,211.4v-0.1c0-0.6,0.1-1.1,0.2-1.6
	c0.1-0.5,0.3-0.9,0.6-1.2c0.3-0.3,0.6-0.6,0.9-0.8c0.4-0.2,0.7-0.3,1.2-0.3c0.4,0,0.8,0.1,1.1,0.2c0.3,0.1,0.6,0.3,0.9,0.6
	c0.2,0.3,0.4,0.6,0.6,0.9c0.2,0.4,0.3,0.8,0.3,1.2v1.8c-0.1,0.4-0.2,0.8-0.3,1.2c-0.1,0.3-0.3,0.6-0.6,0.9c-0.2,0.3-0.5,0.5-0.9,0.6
	c-0.3,0.1-0.7,0.2-1.2,0.2c-0.4,0-0.8-0.1-1.2-0.3c-0.4-0.2-0.6-0.4-0.9-0.8c-0.2-0.3-0.4-0.7-0.6-1.2
	C23.9,212.4,23.8,211.9,23.8,211.4z M24.7,211.2v0.1c0,0.4,0,0.8,0.1,1.2c0.1,0.4,0.2,0.7,0.4,1c0.2,0.3,0.4,0.5,0.7,0.6
	c0.3,0.2,0.6,0.2,1,0.2c0.5,0,0.9-0.1,1.2-0.3c0.3-0.2,0.6-0.4,0.8-0.7c0.2-0.3,0.3-0.6,0.4-1v-2.1c-0.1-0.2-0.1-0.5-0.2-0.7
	c-0.1-0.3-0.2-0.5-0.4-0.7c-0.2-0.2-0.4-0.4-0.7-0.5c-0.3-0.1-0.6-0.2-1-0.2c-0.4,0-0.7,0.1-1,0.2c-0.3,0.2-0.5,0.4-0.7,0.6
	c-0.2,0.3-0.3,0.6-0.4,1C24.7,210.4,24.7,210.8,24.7,211.2z M34.8,215.1c-0.5,0-0.9-0.1-1.3-0.3c-0.4-0.2-0.8-0.4-1.1-0.8
	c-0.3-0.3-0.5-0.7-0.7-1.1c-0.2-0.4-0.2-0.9-0.2-1.5v-0.3c0-0.6,0.1-1.1,0.3-1.5c0.2-0.5,0.4-0.9,0.7-1.2s0.6-0.6,1-0.8
	c0.4-0.2,0.8-0.3,1.2-0.3c0.5,0,0.9,0.1,1.3,0.3c0.4,0.2,0.7,0.4,0.9,0.7c0.3,0.3,0.4,0.7,0.6,1.1c0.1,0.4,0.2,0.9,0.2,1.4v0.5H32
	v-0.7h4.8v-0.1c0-0.4-0.1-0.8-0.3-1.2c-0.2-0.4-0.4-0.7-0.7-0.9c-0.3-0.2-0.7-0.3-1.2-0.3c-0.3,0-0.7,0.1-1,0.2
	c-0.3,0.1-0.5,0.4-0.7,0.6c-0.2,0.3-0.4,0.6-0.5,1c-0.1,0.4-0.2,0.8-0.2,1.2v0.3c0,0.4,0.1,0.8,0.2,1.1c0.1,0.4,0.3,0.7,0.5,0.9
	c0.2,0.3,0.5,0.5,0.8,0.6c0.3,0.1,0.7,0.2,1,0.2c0.4,0,0.8-0.1,1.2-0.2c0.3-0.2,0.6-0.4,0.9-0.8l0.5,0.4c-0.2,0.2-0.4,0.5-0.6,0.7
	c-0.2,0.2-0.5,0.4-0.9,0.5C35.6,215.1,35.3,215.1,34.8,215.1z M40,209.2v5.8h-0.8v-7.4H40L40,209.2z M39.8,210.8l-0.4-0.2
	c0-0.4,0.1-0.8,0.3-1.2c0.2-0.4,0.4-0.7,0.6-1c0.3-0.3,0.6-0.5,0.9-0.7c0.4-0.2,0.7-0.2,1.2-0.2c0.4,0,0.7,0.1,1,0.2
	c0.3,0.1,0.5,0.3,0.7,0.5c0.2,0.2,0.4,0.5,0.5,0.8c0.1,0.3,0.2,0.8,0.2,1.3v4.8H44v-4.8c0-0.5-0.1-0.9-0.2-1.2
	c-0.1-0.3-0.3-0.5-0.6-0.6c-0.3-0.1-0.6-0.2-0.9-0.2c-0.4,0-0.7,0.1-1,0.3c-0.3,0.2-0.5,0.4-0.7,0.7c-0.2,0.3-0.3,0.6-0.5,0.9
	C39.9,210.3,39.8,210.6,39.8,210.8z M49.7,207.6v0.7H46v-0.7H49.7z M47.3,205.7h0.8v7.5c0,0.3,0,0.6,0.1,0.8
	c0.1,0.2,0.2,0.3,0.4,0.3c0.1,0.1,0.3,0.1,0.5,0.1c0.1,0,0.2,0,0.4,0c0.1,0,0.2,0,0.3-0.1l0,0.7c-0.1,0-0.2,0.1-0.4,0.1
	c-0.2,0-0.3,0-0.5,0c-0.3,0-0.6-0.1-0.8-0.2c-0.2-0.1-0.4-0.3-0.6-0.6c-0.1-0.3-0.2-0.7-0.2-1.2V205.7z M52.3,207.6v7.4h-0.8v-7.4
	H52.3z M51.4,205.5c0-0.2,0-0.3,0.1-0.4c0.1-0.1,0.2-0.2,0.4-0.2c0.2,0,0.3,0.1,0.4,0.2c0.1,0.1,0.2,0.2,0.2,0.4
	c0,0.1-0.1,0.3-0.2,0.4c-0.1,0.1-0.2,0.2-0.4,0.2c-0.2,0-0.3-0.1-0.4-0.2C51.4,205.7,51.4,205.6,51.4,205.5z M55.9,215H55v-8.2
	c0-0.5,0.1-1,0.3-1.3c0.2-0.4,0.5-0.6,0.8-0.8c0.4-0.2,0.8-0.3,1.3-0.3c0.3,0,0.6,0,0.9,0.1c0.3,0.1,0.6,0.2,1,0.3l-0.1,0.7
	c-0.2-0.1-0.5-0.2-0.8-0.3c-0.3-0.1-0.6-0.1-0.9-0.1c-0.6,0-1,0.1-1.3,0.4c-0.3,0.3-0.4,0.7-0.4,1.3V215z M57.6,207.6v0.7h-3.8v-0.7
	H57.6z M59.8,207.6v7.4H59v-7.4H59.8z M64.8,214.4c0.3,0,0.7-0.1,1-0.2c0.3-0.1,0.6-0.3,0.8-0.6c0.2-0.3,0.3-0.6,0.3-0.9h0.8
	c0,0.5-0.2,0.9-0.4,1.3c-0.3,0.4-0.6,0.7-1,0.9c-0.4,0.2-0.9,0.3-1.4,0.3c-0.5,0-1-0.1-1.4-0.3c-0.4-0.2-0.7-0.4-1-0.8
	c-0.3-0.3-0.5-0.7-0.6-1.2c-0.1-0.5-0.2-0.9-0.2-1.5v-0.3c0-0.5,0.1-1,0.2-1.4c0.1-0.5,0.3-0.8,0.6-1.2c0.3-0.3,0.6-0.6,1-0.8
	c0.4-0.2,0.8-0.3,1.4-0.3c0.5,0,1,0.1,1.4,0.3c0.4,0.2,0.8,0.5,1,0.9c0.3,0.4,0.4,0.9,0.4,1.4h-0.8c0-0.4-0.1-0.7-0.3-1
	c-0.2-0.3-0.4-0.5-0.7-0.7c-0.3-0.2-0.6-0.2-1-0.2c-0.4,0-0.8,0.1-1.1,0.2c-0.3,0.2-0.5,0.4-0.7,0.7c-0.2,0.3-0.3,0.6-0.4,1
	c-0.1,0.4-0.1,0.7-0.1,1.1v0.3c0,0.4,0,0.8,0.1,1.1c0.1,0.4,0.2,0.7,0.4,0.9c0.2,0.3,0.4,0.5,0.7,0.7
	C64,214.4,64.4,214.4,64.8,214.4z M73.8,213.7v-3.8c0-0.4-0.1-0.7-0.2-0.9c-0.1-0.3-0.4-0.5-0.6-0.6c-0.3-0.1-0.6-0.2-1-0.2
	c-0.4,0-0.7,0.1-1,0.2c-0.3,0.1-0.5,0.3-0.7,0.5c-0.2,0.2-0.3,0.5-0.3,0.7l-0.8,0c0-0.3,0.1-0.5,0.2-0.8c0.1-0.3,0.3-0.5,0.6-0.7
	c0.3-0.2,0.5-0.4,0.9-0.5c0.4-0.1,0.7-0.2,1.2-0.2c0.5,0,1,0.1,1.4,0.3c0.4,0.2,0.7,0.4,1,0.8c0.2,0.4,0.3,0.8,0.3,1.3v3.6
	c0,0.3,0,0.5,0.1,0.8c0,0.3,0.1,0.5,0.2,0.7v0.1H74c-0.1-0.2-0.1-0.4-0.1-0.6C73.8,214.1,73.8,213.9,73.8,213.7z M74,210.7l0,0.6
	h-1.6c-0.4,0-0.8,0-1.1,0.1c-0.3,0.1-0.6,0.2-0.8,0.3c-0.2,0.1-0.4,0.3-0.5,0.5c-0.1,0.2-0.2,0.4-0.2,0.7c0,0.3,0.1,0.5,0.2,0.7
	c0.1,0.2,0.3,0.4,0.6,0.5c0.3,0.1,0.5,0.2,0.9,0.2c0.5,0,0.9-0.1,1.2-0.3c0.4-0.2,0.6-0.4,0.9-0.7c0.2-0.3,0.4-0.6,0.5-0.9l0.4,0.5
	c-0.1,0.2-0.2,0.5-0.3,0.7c-0.2,0.2-0.4,0.5-0.6,0.7c-0.3,0.2-0.5,0.4-0.9,0.5c-0.3,0.1-0.7,0.2-1.1,0.2c-0.5,0-0.9-0.1-1.3-0.3
	c-0.4-0.2-0.6-0.4-0.8-0.7c-0.2-0.3-0.3-0.7-0.3-1.1c0-0.4,0.1-0.7,0.2-1c0.2-0.3,0.4-0.5,0.7-0.7c0.3-0.2,0.7-0.4,1.1-0.5
	c0.4-0.1,0.9-0.2,1.4-0.2H74z M79.6,207.6v0.7h-3.7v-0.7H79.6z M77.3,205.7h0.8v7.5c0,0.3,0,0.6,0.1,0.8c0.1,0.2,0.2,0.3,0.4,0.3
	c0.1,0.1,0.3,0.1,0.5,0.1c0.1,0,0.2,0,0.4,0c0.1,0,0.2,0,0.3-0.1l0,0.7c-0.1,0-0.2,0.1-0.4,0.1c-0.2,0-0.3,0-0.5,0
	c-0.3,0-0.6-0.1-0.8-0.2c-0.2-0.1-0.4-0.3-0.6-0.6c-0.1-0.3-0.2-0.7-0.2-1.2V205.7z M82.2,207.6v7.4h-0.8v-7.4H82.2z M81.3,205.5
	c0-0.2,0-0.3,0.1-0.4c0.1-0.1,0.2-0.2,0.4-0.2c0.2,0,0.3,0.1,0.4,0.2c0.1,0.1,0.2,0.2,0.2,0.4c0,0.1-0.1,0.3-0.2,0.4
	c-0.1,0.1-0.2,0.2-0.4,0.2c-0.2,0-0.3-0.1-0.4-0.2C81.3,205.7,81.3,205.6,81.3,205.5z M84,211.4v-0.2c0-0.5,0.1-1,0.2-1.5
	c0.2-0.5,0.4-0.8,0.7-1.2c0.3-0.3,0.6-0.6,1-0.8c0.4-0.2,0.9-0.3,1.4-0.3c0.5,0,1,0.1,1.4,0.3c0.4,0.2,0.8,0.4,1,0.8
	c0.3,0.3,0.5,0.7,0.7,1.2c0.2,0.5,0.2,1,0.2,1.5v0.2c0,0.5-0.1,1-0.2,1.5c-0.2,0.5-0.4,0.8-0.7,1.2c-0.3,0.3-0.6,0.6-1,0.8
	c-0.4,0.2-0.9,0.3-1.4,0.3c-0.5,0-1-0.1-1.4-0.3c-0.4-0.2-0.8-0.4-1-0.8c-0.3-0.3-0.5-0.7-0.7-1.2C84.1,212.5,84,212,84,211.4z
	 M84.8,211.2v0.2c0,0.4,0.1,0.8,0.2,1.2c0.1,0.4,0.3,0.7,0.5,1c0.2,0.3,0.5,0.5,0.8,0.7c0.3,0.2,0.7,0.2,1.1,0.2
	c0.4,0,0.8-0.1,1.1-0.2c0.3-0.2,0.6-0.4,0.8-0.7c0.2-0.3,0.4-0.6,0.5-1c0.1-0.4,0.2-0.7,0.2-1.2v-0.2c0-0.4-0.1-0.8-0.2-1.1
	c-0.1-0.4-0.3-0.7-0.5-1c-0.2-0.3-0.5-0.5-0.8-0.7c-0.3-0.2-0.7-0.2-1.1-0.2c-0.4,0-0.8,0.1-1.1,0.2c-0.3,0.2-0.6,0.4-0.8,0.7
	c-0.2,0.3-0.4,0.6-0.5,1C84.9,210.4,84.8,210.8,84.8,211.2z M93.1,209.2v5.8h-0.8v-7.4h0.8L93.1,209.2z M92.9,210.8l-0.4-0.2
	c0-0.4,0.1-0.8,0.3-1.2c0.2-0.4,0.4-0.7,0.6-1c0.3-0.3,0.6-0.5,0.9-0.7c0.4-0.2,0.7-0.2,1.2-0.2c0.4,0,0.7,0.1,1,0.2
	c0.3,0.1,0.5,0.3,0.7,0.5c0.2,0.2,0.4,0.5,0.5,0.8c0.1,0.3,0.2,0.8,0.2,1.3v4.8h-0.8v-4.8c0-0.5-0.1-0.9-0.2-1.2
	c-0.1-0.3-0.3-0.5-0.6-0.6c-0.3-0.1-0.6-0.2-0.9-0.2c-0.4,0-0.7,0.1-1,0.3c-0.3,0.2-0.5,0.4-0.7,0.7c-0.2,0.3-0.3,0.6-0.5,0.9
	C93,210.3,93,210.6,92.9,210.8z M108.2,213.6v-9.1h0.8V215h-0.8L108.2,213.6z M103.1,211.4v-0.1c0-0.6,0.1-1.1,0.2-1.6
	c0.1-0.5,0.3-0.9,0.6-1.2c0.3-0.3,0.6-0.6,0.9-0.8c0.4-0.2,0.7-0.3,1.2-0.3c0.4,0,0.8,0.1,1.1,0.2c0.3,0.1,0.6,0.3,0.9,0.6
	c0.2,0.3,0.4,0.6,0.6,0.9c0.2,0.4,0.3,0.8,0.3,1.2v1.8c-0.1,0.4-0.2,0.8-0.3,1.2c-0.1,0.3-0.3,0.6-0.6,0.9c-0.2,0.3-0.5,0.5-0.9,0.6
	c-0.3,0.1-0.7,0.2-1.2,0.2c-0.4,0-0.8-0.1-1.2-0.3c-0.4-0.2-0.6-0.4-0.9-0.8c-0.2-0.3-0.4-0.7-0.6-1.2
	C103.2,212.4,103.1,211.9,103.1,211.4z M103.9,211.2v0.1c0,0.4,0,0.8,0.1,1.2c0.1,0.4,0.2,0.7,0.4,1c0.2,0.3,0.4,0.5,0.7,0.6
	c0.3,0.2,0.6,0.2,1,0.2c0.5,0,0.9-0.1,1.2-0.3c0.3-0.2,0.6-0.4,0.8-0.7c0.2-0.3,0.3-0.6,0.4-1v-2.1c-0.1-0.2-0.1-0.5-0.2-0.7
	c-0.1-0.3-0.2-0.5-0.4-0.7c-0.2-0.2-0.4-0.4-0.7-0.5c-0.3-0.1-0.6-0.2-1-0.2c-0.4,0-0.7,0.1-1,0.2c-0.3,0.2-0.5,0.4-0.7,0.6
	c-0.2,0.3-0.3,0.6-0.4,1C104,210.4,103.9,210.8,103.9,211.2z M110.8,211.4v-0.2c0-0.5,0.1-1,0.2-1.5c0.2-0.5,0.4-0.8,0.7-1.2
	c0.3-0.3,0.6-0.6,1-0.8c0.4-0.2,0.9-0.3,1.4-0.3c0.5,0,1,0.1,1.4,0.3c0.4,0.2,0.8,0.4,1,0.8c0.3,0.3,0.5,0.7,0.7,1.2
	c0.2,0.5,0.2,1,0.2,1.5v0.2c0,0.5-0.1,1-0.2,1.5c-0.2,0.5-0.4,0.8-0.7,1.2c-0.3,0.3-0.6,0.6-1,0.8c-0.4,0.2-0.9,0.3-1.4,0.3
	c-0.5,0-1-0.1-1.4-0.3c-0.4-0.2-0.8-0.4-1-0.8c-0.3-0.3-0.5-0.7-0.7-1.2C110.8,212.5,110.8,212,110.8,211.4z M111.6,211.2v0.2
	c0,0.4,0.1,0.8,0.2,1.2c0.1,0.4,0.3,0.7,0.5,1c0.2,0.3,0.5,0.5,0.8,0.7c0.3,0.2,0.7,0.2,1.1,0.2c0.4,0,0.8-0.1,1.1-0.2
	c0.3-0.2,0.6-0.4,0.8-0.7c0.2-0.3,0.4-0.6,0.5-1c0.1-0.4,0.2-0.7,0.2-1.2v-0.2c0-0.4-0.1-0.8-0.2-1.1c-0.1-0.4-0.3-0.7-0.5-1
	c-0.2-0.3-0.5-0.5-0.8-0.7c-0.3-0.2-0.7-0.2-1.1-0.2s-0.8,0.1-1.1,0.2c-0.3,0.2-0.6,0.4-0.8,0.7c-0.2,0.3-0.4,0.6-0.5,1
	C111.6,210.4,111.6,210.8,111.6,211.2z M121.8,214.4c0.3,0,0.7-0.1,1-0.2c0.3-0.1,0.6-0.3,0.8-0.6c0.2-0.3,0.3-0.6,0.3-0.9h0.8
	c0,0.5-0.2,0.9-0.4,1.3c-0.3,0.4-0.6,0.7-1,0.9c-0.4,0.2-0.9,0.3-1.4,0.3c-0.5,0-1-0.1-1.4-0.3c-0.4-0.2-0.7-0.4-1-0.8
	c-0.3-0.3-0.5-0.7-0.6-1.2c-0.1-0.5-0.2-0.9-0.2-1.5v-0.3c0-0.5,0.1-1,0.2-1.4c0.1-0.5,0.3-0.8,0.6-1.2c0.3-0.3,0.6-0.6,1-0.8
	c0.4-0.2,0.8-0.3,1.4-0.3c0.5,0,1,0.1,1.4,0.3c0.4,0.2,0.8,0.5,1,0.9c0.3,0.4,0.4,0.9,0.4,1.4h-0.8c0-0.4-0.1-0.7-0.3-1
	c-0.2-0.3-0.4-0.5-0.7-0.7c-0.3-0.2-0.6-0.2-1-0.2c-0.4,0-0.8,0.1-1.1,0.2c-0.3,0.2-0.5,0.4-0.7,0.7c-0.2,0.3-0.3,0.6-0.4,1
	c-0.1,0.4-0.1,0.7-0.1,1.1v0.3c0,0.4,0,0.8,0.1,1.1c0.1,0.4,0.2,0.7,0.4,0.9c0.2,0.3,0.4,0.5,0.7,0.7
	C121,214.4,121.4,214.4,121.8,214.4z M131,213.3v-5.7h0.8v7.4H131L131,213.3z M131.2,211.9l0.4,0c0,0.5-0.1,0.9-0.2,1.3
	c-0.1,0.4-0.3,0.7-0.5,1c-0.2,0.3-0.5,0.5-0.9,0.7c-0.4,0.2-0.8,0.2-1.3,0.2c-0.4,0-0.7,0-1-0.2c-0.3-0.1-0.6-0.3-0.8-0.5
	c-0.2-0.2-0.4-0.5-0.5-0.9c-0.1-0.4-0.2-0.8-0.2-1.3v-4.7h0.8v4.7c0,0.4,0,0.7,0.1,1c0.1,0.3,0.2,0.5,0.4,0.6
	c0.2,0.2,0.3,0.3,0.5,0.3c0.2,0.1,0.4,0.1,0.7,0.1c0.6,0,1.1-0.1,1.4-0.3c0.4-0.2,0.6-0.5,0.7-0.9
	C131.1,212.8,131.2,212.4,131.2,211.9z M134.7,209.1v5.9h-0.8v-7.4h0.8L134.7,209.1z M134.6,210.8l-0.4-0.2c0-0.4,0.1-0.8,0.2-1.2
	c0.1-0.4,0.3-0.7,0.6-1c0.3-0.3,0.6-0.5,0.9-0.7c0.4-0.2,0.8-0.2,1.2-0.2c0.4,0,0.7,0.1,1,0.2c0.3,0.1,0.5,0.2,0.8,0.5
	c0.2,0.2,0.4,0.5,0.5,0.8c0.1,0.3,0.2,0.7,0.2,1.2v4.9h-0.8v-4.9c0-0.5-0.1-0.9-0.2-1.2c-0.2-0.3-0.4-0.5-0.6-0.6
	c-0.3-0.1-0.6-0.2-0.9-0.2c-0.4,0-0.8,0.1-1.1,0.3c-0.3,0.2-0.5,0.4-0.7,0.7c-0.2,0.3-0.3,0.6-0.4,0.9
	C134.6,210.3,134.6,210.6,134.6,210.8z M139.5,210.2l-0.5,0c0-0.4,0.1-0.7,0.2-1c0.1-0.3,0.3-0.6,0.6-0.9c0.3-0.3,0.6-0.5,0.9-0.6
	c0.4-0.1,0.7-0.2,1.2-0.2c0.4,0,0.7,0.1,1,0.2c0.3,0.1,0.6,0.3,0.8,0.5c0.2,0.2,0.4,0.5,0.5,0.8c0.1,0.3,0.2,0.8,0.2,1.2v4.8h-0.8
	v-4.8c0-0.5-0.1-0.9-0.2-1.2c-0.2-0.3-0.4-0.5-0.6-0.6s-0.6-0.2-0.9-0.2c-0.4,0-0.7,0.1-0.9,0.2c-0.3,0.1-0.5,0.3-0.7,0.5
	c-0.2,0.2-0.3,0.4-0.4,0.7C139.6,209.8,139.5,210,139.5,210.2z M149.2,215.1c-0.5,0-0.9-0.1-1.3-0.3c-0.4-0.2-0.8-0.4-1.1-0.8
	c-0.3-0.3-0.5-0.7-0.7-1.1c-0.2-0.4-0.2-0.9-0.2-1.5v-0.3c0-0.6,0.1-1.1,0.3-1.5c0.2-0.5,0.4-0.9,0.7-1.2c0.3-0.3,0.6-0.6,1-0.8
	c0.4-0.2,0.8-0.3,1.2-0.3c0.5,0,0.9,0.1,1.3,0.3c0.4,0.2,0.7,0.4,0.9,0.7c0.3,0.3,0.4,0.7,0.6,1.1c0.1,0.4,0.2,0.9,0.2,1.4v0.5h-5.6
	v-0.7h4.8v-0.1c0-0.4-0.1-0.8-0.3-1.2c-0.2-0.4-0.4-0.7-0.7-0.9c-0.3-0.2-0.7-0.3-1.2-0.3c-0.3,0-0.7,0.1-1,0.2
	c-0.3,0.1-0.5,0.4-0.7,0.6c-0.2,0.3-0.4,0.6-0.5,1c-0.1,0.4-0.2,0.8-0.2,1.2v0.3c0,0.4,0.1,0.8,0.2,1.1c0.1,0.4,0.3,0.7,0.5,0.9
	c0.2,0.3,0.5,0.5,0.8,0.6c0.3,0.1,0.7,0.2,1,0.2c0.4,0,0.8-0.1,1.2-0.2c0.3-0.2,0.6-0.4,0.9-0.8l0.5,0.4c-0.2,0.2-0.4,0.5-0.6,0.7
	c-0.2,0.2-0.5,0.4-0.9,0.5C150.1,215.1,149.7,215.1,149.2,215.1z M154.4,209.2v5.8h-0.8v-7.4h0.8L154.4,209.2z M154.3,210.8
	l-0.4-0.2c0-0.4,0.1-0.8,0.3-1.2c0.1-0.4,0.4-0.7,0.6-1c0.3-0.3,0.6-0.5,0.9-0.7c0.4-0.2,0.7-0.2,1.2-0.2c0.4,0,0.7,0.1,1,0.2
	c0.3,0.1,0.5,0.3,0.7,0.5c0.2,0.2,0.4,0.5,0.5,0.8c0.1,0.3,0.2,0.8,0.2,1.3v4.8h-0.8v-4.8c0-0.5-0.1-0.9-0.2-1.2
	c-0.1-0.3-0.3-0.5-0.6-0.6c-0.3-0.1-0.6-0.2-0.9-0.2c-0.4,0-0.7,0.1-1,0.3c-0.3,0.2-0.5,0.4-0.7,0.7c-0.2,0.3-0.3,0.6-0.5,0.9
	C154.3,210.3,154.3,210.6,154.3,210.8z M164.1,207.6v0.7h-3.7v-0.7H164.1z M161.8,205.7h0.8v7.5c0,0.3,0,0.6,0.1,0.8
	c0.1,0.2,0.2,0.3,0.4,0.3c0.1,0.1,0.3,0.1,0.5,0.1c0.1,0,0.2,0,0.4,0c0.1,0,0.2,0,0.3-0.1l0,0.7c-0.1,0-0.2,0.1-0.4,0.1
	c-0.2,0-0.3,0-0.5,0c-0.3,0-0.6-0.1-0.8-0.2c-0.2-0.1-0.4-0.3-0.6-0.6c-0.1-0.3-0.2-0.7-0.2-1.2V205.7z M170.2,207.6v7.4h-0.8v-7.4
	H170.2z M169.2,205.5c0-0.2,0-0.3,0.1-0.4c0.1-0.1,0.2-0.2,0.4-0.2s0.3,0.1,0.4,0.2c0.1,0.1,0.2,0.2,0.2,0.4c0,0.1-0.1,0.3-0.2,0.4
	c-0.1,0.1-0.2,0.2-0.4,0.2s-0.3-0.1-0.4-0.2C169.3,205.7,169.2,205.6,169.2,205.5z M176.8,213.1c0-0.2-0.1-0.4-0.2-0.6
	c-0.1-0.2-0.3-0.4-0.6-0.5c-0.3-0.2-0.7-0.3-1.3-0.4c-0.4-0.1-0.8-0.2-1.1-0.3c-0.3-0.1-0.6-0.3-0.8-0.4c-0.2-0.2-0.4-0.4-0.5-0.6
	c-0.1-0.2-0.2-0.5-0.2-0.8c0-0.3,0.1-0.5,0.2-0.8c0.1-0.2,0.3-0.5,0.5-0.6c0.2-0.2,0.5-0.3,0.8-0.4c0.3-0.1,0.7-0.2,1.1-0.2
	c0.6,0,1.1,0.1,1.5,0.3c0.4,0.2,0.7,0.5,0.9,0.8c0.2,0.3,0.3,0.7,0.3,1.1h-0.8c0-0.3-0.1-0.5-0.2-0.7c-0.1-0.2-0.4-0.4-0.6-0.6
	c-0.3-0.1-0.6-0.2-1-0.2c-0.4,0-0.8,0.1-1,0.2c-0.3,0.1-0.5,0.3-0.6,0.5c-0.1,0.2-0.2,0.4-0.2,0.6c0,0.2,0,0.3,0.1,0.5
	c0.1,0.1,0.2,0.3,0.3,0.4c0.1,0.1,0.3,0.2,0.6,0.3c0.3,0.1,0.6,0.2,1,0.3c0.6,0.1,1.1,0.3,1.5,0.5c0.4,0.2,0.7,0.4,0.8,0.7
	c0.2,0.3,0.3,0.6,0.3,1c0,0.3-0.1,0.6-0.2,0.8c-0.1,0.3-0.3,0.5-0.6,0.6c-0.2,0.2-0.5,0.3-0.9,0.4c-0.3,0.1-0.7,0.2-1.1,0.2
	c-0.6,0-1.2-0.1-1.6-0.3c-0.4-0.2-0.8-0.5-1-0.8c-0.2-0.3-0.3-0.7-0.3-1.1h0.8c0,0.4,0.1,0.7,0.4,0.9c0.2,0.2,0.5,0.4,0.8,0.5
	c0.3,0.1,0.6,0.1,0.9,0.1c0.4,0,0.8-0.1,1.1-0.2c0.3-0.1,0.5-0.3,0.6-0.5C176.8,213.6,176.8,213.3,176.8,213.1z M184.3,215h-0.8
	v-8.3c0-0.5,0.1-0.9,0.3-1.3c0.2-0.3,0.4-0.6,0.8-0.8c0.3-0.2,0.7-0.3,1.2-0.3c0.1,0,0.3,0,0.4,0c0.2,0,0.3,0,0.4,0.1l-0.1,0.7
	c-0.1,0-0.2-0.1-0.3-0.1c-0.1,0-0.2,0-0.4,0c-0.3,0-0.6,0.1-0.8,0.2c-0.2,0.1-0.4,0.3-0.5,0.5c-0.1,0.2-0.2,0.5-0.2,0.9V215z
	 M186.1,207.6v0.7h-3.8v-0.7H186.1z M187.1,211.4v-0.2c0-0.5,0.1-1,0.2-1.5c0.2-0.5,0.4-0.8,0.7-1.2c0.3-0.3,0.6-0.6,1-0.8
	c0.4-0.2,0.9-0.3,1.4-0.3c0.5,0,1,0.1,1.4,0.3c0.4,0.2,0.8,0.4,1,0.8c0.3,0.3,0.5,0.7,0.7,1.2c0.2,0.5,0.2,1,0.2,1.5v0.2
	c0,0.5-0.1,1-0.2,1.5c-0.2,0.5-0.4,0.8-0.7,1.2c-0.3,0.3-0.6,0.6-1,0.8c-0.4,0.2-0.9,0.3-1.4,0.3c-0.5,0-1-0.1-1.4-0.3
	c-0.4-0.2-0.8-0.4-1-0.8c-0.3-0.3-0.5-0.7-0.7-1.2C187.2,212.5,187.1,212,187.1,211.4z M187.9,211.2v0.2c0,0.4,0.1,0.8,0.2,1.2
	c0.1,0.4,0.3,0.7,0.5,1c0.2,0.3,0.5,0.5,0.8,0.7c0.3,0.2,0.7,0.2,1.1,0.2c0.4,0,0.8-0.1,1.1-0.2c0.3-0.2,0.6-0.4,0.8-0.7
	c0.2-0.3,0.4-0.6,0.5-1c0.1-0.4,0.2-0.7,0.2-1.2v-0.2c0-0.4-0.1-0.8-0.2-1.1c-0.1-0.4-0.3-0.7-0.5-1c-0.2-0.3-0.5-0.5-0.8-0.7
	c-0.3-0.2-0.7-0.2-1.1-0.2s-0.8,0.1-1.1,0.2c-0.3,0.2-0.6,0.4-0.8,0.7c-0.2,0.3-0.4,0.6-0.5,1C188,210.4,187.9,210.8,187.9,211.2z
	 M200.1,213.3v-5.7h0.8v7.4h-0.8L200.1,213.3z M200.3,211.9l0.4,0c0,0.5-0.1,0.9-0.2,1.3c-0.1,0.4-0.3,0.7-0.5,1
	c-0.2,0.3-0.5,0.5-0.9,0.7c-0.4,0.2-0.8,0.2-1.3,0.2c-0.4,0-0.7,0-1-0.2c-0.3-0.1-0.6-0.3-0.8-0.5c-0.2-0.2-0.4-0.5-0.5-0.9
	c-0.1-0.4-0.2-0.8-0.2-1.3v-4.7h0.8v4.7c0,0.4,0,0.7,0.1,1c0.1,0.3,0.2,0.5,0.4,0.6c0.2,0.2,0.3,0.3,0.5,0.3
	c0.2,0.1,0.4,0.1,0.7,0.1c0.6,0,1.1-0.1,1.4-0.3c0.4-0.2,0.6-0.5,0.7-0.9C200.2,212.8,200.3,212.4,200.3,211.9z M203.9,209.2v5.8
	h-0.8v-7.4h0.8L203.9,209.2z M203.7,210.8l-0.4-0.2c0-0.4,0.1-0.8,0.3-1.2c0.2-0.4,0.4-0.7,0.6-1c0.3-0.3,0.6-0.5,0.9-0.7
	c0.4-0.2,0.7-0.2,1.2-0.2c0.4,0,0.7,0.1,1,0.2c0.3,0.1,0.5,0.3,0.7,0.5c0.2,0.2,0.4,0.5,0.5,0.8c0.1,0.3,0.2,0.8,0.2,1.3v4.8h-0.8
	v-4.8c0-0.5-0.1-0.9-0.2-1.2c-0.1-0.3-0.3-0.5-0.6-0.6c-0.3-0.1-0.6-0.2-0.9-0.2c-0.4,0-0.7,0.1-1,0.3c-0.3,0.2-0.5,0.4-0.7,0.7
	c-0.2,0.3-0.3,0.6-0.5,0.9C203.8,210.3,203.7,210.6,203.7,210.8z M215.6,213.6v-9.1h0.8V215h-0.8L215.6,213.6z M210.5,211.4v-0.1
	c0-0.6,0.1-1.1,0.2-1.6c0.1-0.5,0.3-0.9,0.6-1.2c0.3-0.3,0.6-0.6,0.9-0.8c0.4-0.2,0.7-0.3,1.2-0.3c0.4,0,0.8,0.1,1.1,0.2
	c0.3,0.1,0.6,0.3,0.9,0.6c0.2,0.3,0.4,0.6,0.6,0.9c0.1,0.4,0.3,0.8,0.3,1.2v1.8c-0.1,0.4-0.2,0.8-0.3,1.2c-0.1,0.3-0.3,0.6-0.6,0.9
	c-0.2,0.3-0.5,0.5-0.9,0.6c-0.3,0.1-0.7,0.2-1.2,0.2c-0.4,0-0.8-0.1-1.2-0.3c-0.4-0.2-0.7-0.4-0.9-0.8c-0.2-0.3-0.4-0.7-0.6-1.2
	C210.5,212.4,210.5,211.9,210.5,211.4z M211.3,211.2v0.1c0,0.4,0,0.8,0.1,1.2c0.1,0.4,0.2,0.7,0.4,1c0.2,0.3,0.4,0.5,0.7,0.6
	c0.3,0.2,0.6,0.2,1,0.2c0.5,0,0.9-0.1,1.2-0.3c0.3-0.2,0.6-0.4,0.8-0.7c0.2-0.3,0.3-0.6,0.4-1v-2.1c-0.1-0.2-0.1-0.5-0.2-0.7
	c-0.1-0.3-0.2-0.5-0.4-0.7c-0.2-0.2-0.4-0.4-0.7-0.5c-0.3-0.1-0.6-0.2-1-0.2c-0.4,0-0.7,0.1-1,0.2c-0.3,0.2-0.5,0.4-0.7,0.6
	c-0.2,0.3-0.3,0.6-0.4,1C211.3,210.4,211.3,210.8,211.3,211.2z"/>
<path class="st0" d="M91.8,175.6V187h-1.5l-5.7-8.8v8.8h-1.5v-11.4h1.5l5.8,8.8v-8.8H91.8z M93.9,182.9v-0.2c0-0.6,0.1-1.2,0.3-1.7
	c0.2-0.5,0.4-1,0.8-1.4c0.3-0.4,0.7-0.7,1.2-0.9c0.5-0.2,1-0.3,1.6-0.3c0.6,0,1.1,0.1,1.6,0.3c0.5,0.2,0.9,0.5,1.2,0.9
	c0.3,0.4,0.6,0.8,0.8,1.4c0.2,0.5,0.3,1.1,0.3,1.7v0.2c0,0.6-0.1,1.2-0.3,1.7c-0.2,0.5-0.4,1-0.8,1.4c-0.3,0.4-0.7,0.7-1.2,0.9
	c-0.5,0.2-1,0.3-1.6,0.3c-0.6,0-1.1-0.1-1.6-0.3c-0.5-0.2-0.9-0.5-1.2-0.9c-0.3-0.4-0.6-0.8-0.8-1.4C94,184,93.9,183.5,93.9,182.9z
	 M95.3,182.7v0.2c0,0.4,0,0.8,0.1,1.2c0.1,0.4,0.2,0.7,0.4,1c0.2,0.3,0.5,0.5,0.8,0.7c0.3,0.2,0.7,0.2,1.1,0.2c0.4,0,0.7-0.1,1-0.2
	c0.3-0.2,0.6-0.4,0.8-0.7c0.2-0.3,0.3-0.6,0.4-1c0.1-0.4,0.2-0.8,0.2-1.2v-0.2c0-0.4-0.1-0.8-0.2-1.2c-0.1-0.4-0.2-0.7-0.5-1
	c-0.2-0.3-0.4-0.5-0.8-0.7c-0.3-0.2-0.6-0.2-1-0.2c-0.4,0-0.7,0.1-1,0.2c-0.3,0.2-0.5,0.4-0.8,0.7c-0.2,0.3-0.3,0.6-0.4,1
	C95.4,181.9,95.3,182.3,95.3,182.7z M112.7,185.4V175h1.5v12h-1.3L112.7,185.4z M107,182.9v-0.2c0-0.6,0.1-1.2,0.2-1.8
	c0.2-0.5,0.4-1,0.7-1.4c0.3-0.4,0.6-0.7,1.1-0.9c0.4-0.2,0.9-0.3,1.4-0.3c0.5,0,1,0.1,1.4,0.3c0.4,0.2,0.7,0.4,1,0.8
	c0.3,0.3,0.5,0.8,0.7,1.3c0.2,0.5,0.3,1.1,0.3,1.7v0.7c-0.1,0.6-0.2,1.2-0.3,1.7c-0.2,0.5-0.4,0.9-0.7,1.3c-0.3,0.3-0.6,0.6-1,0.8
	c-0.4,0.2-0.9,0.3-1.4,0.3c-0.5,0-0.9-0.1-1.4-0.3c-0.4-0.2-0.8-0.5-1.1-0.9c-0.3-0.4-0.5-0.8-0.7-1.4
	C107.1,184.1,107,183.5,107,182.9z M108.4,182.7v0.2c0,0.4,0,0.8,0.1,1.2c0.1,0.4,0.2,0.7,0.4,1c0.2,0.3,0.4,0.5,0.7,0.7
	c0.3,0.2,0.6,0.2,1,0.2c0.5,0,0.9-0.1,1.2-0.3c0.3-0.2,0.6-0.5,0.8-0.8c0.2-0.3,0.3-0.7,0.4-1.1v-1.9c-0.1-0.3-0.2-0.6-0.3-0.8
	c-0.1-0.3-0.3-0.5-0.5-0.7c-0.2-0.2-0.4-0.4-0.7-0.5c-0.3-0.1-0.6-0.2-0.9-0.2c-0.4,0-0.7,0.1-1,0.2c-0.3,0.2-0.5,0.4-0.7,0.7
	c-0.2,0.3-0.3,0.6-0.4,1C108.5,181.9,108.4,182.3,108.4,182.7z M121.4,185.6v-4.4c0-0.3-0.1-0.6-0.2-0.9c-0.1-0.2-0.3-0.4-0.6-0.6
	c-0.3-0.1-0.6-0.2-1-0.2c-0.4,0-0.7,0.1-1,0.2c-0.3,0.1-0.5,0.3-0.6,0.5c-0.2,0.2-0.2,0.4-0.2,0.7h-1.4c0-0.3,0.1-0.6,0.2-0.9
	c0.2-0.3,0.4-0.6,0.7-0.8c0.3-0.2,0.7-0.4,1.1-0.6c0.4-0.1,0.9-0.2,1.4-0.2c0.6,0,1.2,0.1,1.6,0.3c0.5,0.2,0.8,0.5,1.1,0.9
	c0.3,0.4,0.4,0.9,0.4,1.6v3.9c0,0.3,0,0.6,0.1,0.9c0.1,0.3,0.1,0.6,0.2,0.8v0.1h-1.5c-0.1-0.2-0.1-0.4-0.2-0.7
	C121.4,186.1,121.4,185.8,121.4,185.6z M121.6,181.9l0,1h-1.5c-0.4,0-0.8,0-1.1,0.1c-0.3,0.1-0.6,0.2-0.8,0.3
	c-0.2,0.1-0.4,0.3-0.5,0.5c-0.1,0.2-0.2,0.4-0.2,0.7c0,0.3,0.1,0.5,0.2,0.7c0.1,0.2,0.3,0.4,0.5,0.5c0.2,0.1,0.5,0.2,0.9,0.2
	c0.4,0,0.8-0.1,1.2-0.3c0.3-0.2,0.6-0.4,0.8-0.7c0.2-0.3,0.3-0.5,0.3-0.8l0.6,0.7c0,0.2-0.1,0.5-0.3,0.7c-0.2,0.3-0.4,0.5-0.6,0.8
	c-0.3,0.2-0.6,0.4-1,0.6c-0.4,0.2-0.8,0.2-1.2,0.2c-0.6,0-1.1-0.1-1.5-0.3c-0.4-0.2-0.8-0.5-1-0.9c-0.2-0.4-0.4-0.8-0.4-1.3
	c0-0.5,0.1-0.9,0.3-1.2c0.2-0.3,0.4-0.6,0.8-0.9c0.3-0.2,0.7-0.4,1.2-0.5c0.5-0.1,1-0.2,1.6-0.2H121.6z M128.6,178.5v1.1h-4.6v-1.1
	H128.6z M125.6,176.5h1.4v8.4c0,0.3,0,0.5,0.1,0.6c0.1,0.1,0.2,0.2,0.3,0.3c0.1,0,0.3,0.1,0.5,0.1c0.1,0,0.2,0,0.4,0
	c0.1,0,0.2,0,0.3-0.1l0,1.2c-0.1,0-0.3,0.1-0.5,0.1c-0.2,0-0.4,0.1-0.7,0.1c-0.4,0-0.7-0.1-1-0.2c-0.3-0.1-0.5-0.4-0.7-0.7
	c-0.2-0.3-0.3-0.8-0.3-1.3V176.5z M135.3,185.6v-4.4c0-0.3-0.1-0.6-0.2-0.9c-0.1-0.2-0.3-0.4-0.6-0.6c-0.3-0.1-0.6-0.2-1-0.2
	c-0.4,0-0.7,0.1-1,0.2c-0.3,0.1-0.5,0.3-0.6,0.5c-0.2,0.2-0.2,0.4-0.2,0.7h-1.4c0-0.3,0.1-0.6,0.2-0.9s0.4-0.6,0.7-0.8
	c0.3-0.2,0.7-0.4,1.1-0.6c0.4-0.1,0.9-0.2,1.4-0.2c0.6,0,1.2,0.1,1.6,0.3c0.5,0.2,0.8,0.5,1.1,0.9c0.3,0.4,0.4,0.9,0.4,1.6v3.9
	c0,0.3,0,0.6,0.1,0.9c0.1,0.3,0.1,0.6,0.2,0.8v0.1h-1.5c-0.1-0.2-0.1-0.4-0.2-0.7C135.3,186.1,135.3,185.8,135.3,185.6z
	 M135.6,181.9l0,1h-1.5c-0.4,0-0.8,0-1.1,0.1c-0.3,0.1-0.6,0.2-0.8,0.3c-0.2,0.1-0.4,0.3-0.5,0.5c-0.1,0.2-0.2,0.4-0.2,0.7
	c0,0.3,0.1,0.5,0.2,0.7c0.1,0.2,0.3,0.4,0.5,0.5c0.2,0.1,0.5,0.2,0.9,0.2c0.4,0,0.8-0.1,1.2-0.3c0.3-0.2,0.6-0.4,0.8-0.7
	c0.2-0.3,0.3-0.5,0.3-0.8l0.6,0.7c0,0.2-0.1,0.5-0.3,0.7c-0.2,0.3-0.4,0.5-0.6,0.8c-0.3,0.2-0.6,0.4-1,0.6c-0.4,0.2-0.8,0.2-1.2,0.2
	c-0.6,0-1.1-0.1-1.5-0.3c-0.4-0.2-0.8-0.5-1-0.9c-0.2-0.4-0.4-0.8-0.4-1.3c0-0.5,0.1-0.9,0.3-1.2c0.2-0.3,0.4-0.6,0.8-0.9
	c0.3-0.2,0.7-0.4,1.2-0.5c0.5-0.1,1-0.2,1.6-0.2H135.6z"/>
<linearGradient id="SVGID_1_" gradientUnits="userSpaceOnUse" x1="109.7354" y1="230" x2="109.7354" y2="80" gradientTransform="matrix(1 0 0 -1 0 230)">
	<stop  offset="0" style="stop-color:#E3ECFA"/>
	<stop  offset="1" style="stop-color:#DAE7FF"/>
</linearGradient>
<path class="st1" d="M109.7,150c41.4,0,75-33.6,75-75c0-41.4-33.6-75-75-75c-41.4,0-75,33.6-75,75C34.7,116.4,68.3,150,109.7,150z"
	/>
<g>
	<defs>
		<filter id="Adobe_OpacityMaskFilter" filterUnits="userSpaceOnUse" x="61.7" y="43" width="96" height="115">
			<feColorMatrix  type="matrix" values="1 0 0 0 0  0 1 0 0 0  0 0 1 0 0  0 0 0 1 0"/>
		</filter>
	</defs>
	<mask maskUnits="userSpaceOnUse" x="61.7" y="43" width="96" height="115" id="mask0_10_146_1_">
		<path class="st2" d="M109.7,150c41.4,0,75-33.6,75-75c0-41.4-33.6-75-75-75c-41.4,0-75,33.6-75,75C34.7,116.4,68.3,150,109.7,150z
			"/>
	</mask>
	<g class="st3">
		<path class="st4" d="M152.7,43h-86c-2.8,0-5,2.2-5,5v105c0,2.8,2.2,5,5,5h86c2.8,0,5-2.2,5-5V48C157.7,45.2,155.5,43,152.7,43z"/>
	</g>
</g>
<path class="st5" d="M100.7,53h-26c-1.7,0-3,1.3-3,3s1.3,3,3,3h26c1.7,0,3-1.3,3-3S102.4,53,100.7,53z"/>
<path class="st5" d="M100.7,95h-26c-1.7,0-3,1.3-3,3s1.3,3,3,3h26c1.7,0,3-1.3,3-3S102.4,95,100.7,95z"/>
<path class="st6" d="M142.7,68h-66c-2.2,0-4,1.8-4,4v10c0,2.2,1.8,4,4,4h66c2.2,0,4-1.8,4-4V72C146.7,69.8,144.9,68,142.7,68z"/>
<path class="st7" d="M142.7,109h-66c-2.8,0-5,2.2-5,5v8c0,2.8,2.2,5,5,5h66c2.8,0,5-2.2,5-5v-8C147.7,111.2,145.5,109,142.7,109z"/>
<path class="st4" d="M87.7,32c2.2,0,4-1.8,4-4s-1.8-4-4-4s-4,1.8-4,4S85.5,32,87.7,32z"/>
<path class="st8" d="M113.2,28c0,1.9-1.6,3.5-3.5,3.5s-3.5-1.6-3.5-3.5s1.6-3.5,3.5-3.5S113.2,26.1,113.2,28z"/>
<path class="st4" d="M131.7,32c2.2,0,4-1.8,4-4s-1.8-4-4-4s-4,1.8-4,4S129.5,32,131.7,32z"/>
</svg>
