<?xml version="1.0" encoding="utf-8"?>
<!-- Generator: Adobe Illustrator 25.0.0, SVG Export Plug-In . SVG Version: 6.00 Build 0)  -->
<svg version="1.1" id="Слой_1" xmlns="http://www.w3.org/2000/svg" xmlns:xlink="http://www.w3.org/1999/xlink" x="0px" y="0px"
	 viewBox="0 0 156 224" style="enable-background:new 0 0 156 224;" xml:space="preserve">
<style type="text/css">
	.st0{clip-path:url(#SVGID_2_);}
	.st1{fill:url(#SVGID_3_);}
	.st2{fill:#6667AB;filter:url(#Adobe_OpacityMaskFilter);}
	.st3{mask:url(#mask0_2329_28760_1_);}
	.st4{fill:#FFFFFF;}
	.st5{fill:#E1EBFA;}
	.st6{fill:none;stroke:#6667AB;stroke-width:2;}
	.st7{opacity:0.5;fill:#6667AB;enable-background:new    ;}
	.st8{fill:#6667AB;stroke:#6667AB;}
	.st9{fill:#34343F;}
	.st10{fill:#464665;}
</style>
<g>
	<defs>
		<rect id="SVGID_1_" width="156" height="224"/>
	</defs>
	<clipPath id="SVGID_2_">
		<use xlink:href="#SVGID_1_"  style="overflow:visible;"/>
	</clipPath>
	<g class="st0">
		
			<linearGradient id="SVGID_3_" gradientUnits="userSpaceOnUse" x1="81" y1="226" x2="81" y2="76" gradientTransform="matrix(1 0 0 -1 0 226)">
			<stop  offset="0" style="stop-color:#E3ECFA"/>
			<stop  offset="1" style="stop-color:#DAE7FF"/>
		</linearGradient>
		<path class="st1" d="M81,150c41.4,0,75-33.6,75-75c0-41.4-33.6-75-75-75C39.6,0,6,33.6,6,75C6,116.4,39.6,150,81,150z"/>
		<g>
			<defs>
				<filter id="Adobe_OpacityMaskFilter" filterUnits="userSpaceOnUse" x="33" y="43" width="96" height="115">
					<feColorMatrix  type="matrix" values="1 0 0 0 0  0 1 0 0 0  0 0 1 0 0  0 0 0 1 0"/>
				</filter>
			</defs>
			<mask maskUnits="userSpaceOnUse" x="33" y="43" width="96" height="115" id="mask0_2329_28760_1_">
				<path class="st2" d="M81,150c41.4,0,75-33.6,75-75c0-41.4-33.6-75-75-75C39.6,0,6,33.6,6,75C6,116.4,39.6,150,81,150z"/>
			</mask>
			<g class="st3">
				<path class="st4" d="M124,43H38c-2.8,0-5,2.2-5,5v105c0,2.8,2.2,5,5,5h86c2.8,0,5-2.2,5-5V48C129,45.2,126.8,43,124,43z"/>
			</g>
		</g>
		<path class="st5" d="M72,53H46c-1.7,0-3,1.3-3,3s1.3,3,3,3h26c1.7,0,3-1.3,3-3S73.7,53,72,53z"/>
		<path class="st5" d="M72,95H46c-1.7,0-3,1.3-3,3s1.3,3,3,3h26c1.7,0,3-1.3,3-3S73.7,95,72,95z"/>
		<path class="st6" d="M114,68H48c-2.2,0-4,1.8-4,4v10c0,2.2,1.8,4,4,4h66c2.2,0,4-1.8,4-4V72C118,69.8,116.2,68,114,68z"/>
		<path class="st7" d="M114,109H48c-2.8,0-5,2.2-5,5v8c0,2.8,2.2,5,5,5h66c2.8,0,5-2.2,5-5v-8C119,111.2,116.8,109,114,109z"/>
		<path class="st4" d="M59,32c2.2,0,4-1.8,4-4s-1.8-4-4-4s-4,1.8-4,4S56.8,32,59,32z"/>
		<path class="st8" d="M84.5,28c0,1.9-1.6,3.5-3.5,3.5s-3.5-1.6-3.5-3.5s1.6-3.5,3.5-3.5S84.5,26.1,84.5,28z"/>
		<path class="st4" d="M103,32c2.2,0,4-1.8,4-4s-1.8-4-4-4s-4,1.8-4,4S100.8,32,103,32z"/>
		<path class="st9" d="M42.9,189.4v1.4h-5.6v-1.4H42.9z M37.6,178v12.8H36V178H37.6z M42.1,183.5v1.4h-4.8v-1.4H42.1z M42.8,178v1.4
			h-5.5V178H42.8z M46.3,183.2v7.6h-1.5v-9.5h1.5L46.3,183.2z M46,185.7l-0.7,0c0-0.6,0.1-1.3,0.2-1.8c0.1-0.6,0.3-1,0.6-1.5
			c0.3-0.4,0.6-0.7,1-0.9c0.4-0.2,0.9-0.3,1.5-0.3c0.4,0,0.7,0.1,1,0.2c0.3,0.1,0.6,0.3,0.8,0.6c0.2,0.3,0.4,0.6,0.5,1
			c0.1,0.4,0.2,0.9,0.2,1.5v6.3h-1.6v-6.3c0-0.5-0.1-0.9-0.2-1.2c-0.1-0.3-0.3-0.5-0.6-0.7c-0.2-0.1-0.5-0.2-0.9-0.2
			c-0.4,0-0.7,0.1-1,0.3c-0.3,0.2-0.5,0.4-0.6,0.7c-0.1,0.3-0.3,0.6-0.3,1C46,184.9,46,185.3,46,185.7z M51.1,184.8l-1,0.3
			c0-0.5,0.1-1,0.2-1.5c0.1-0.5,0.3-0.9,0.6-1.3c0.3-0.4,0.6-0.7,1-0.9c0.4-0.2,0.9-0.3,1.4-0.3c0.4,0,0.8,0.1,1.2,0.2
			c0.3,0.1,0.6,0.3,0.8,0.6c0.2,0.3,0.4,0.6,0.5,1.1c0.1,0.4,0.2,0.9,0.2,1.5v6.2h-1.6v-6.3c0-0.5-0.1-0.9-0.2-1.2
			c-0.1-0.3-0.3-0.5-0.6-0.6c-0.2-0.1-0.5-0.2-0.9-0.2c-0.3,0-0.5,0.1-0.7,0.2c-0.2,0.1-0.4,0.3-0.5,0.5c-0.1,0.2-0.2,0.5-0.3,0.7
			C51.1,184.2,51.1,184.5,51.1,184.8z M59.8,183.1v11.3h-1.6v-13.2h1.4L59.8,183.1z M65.2,185.6v0.9c0,0.8-0.1,1.4-0.2,2
			c-0.1,0.6-0.3,1-0.6,1.4c-0.3,0.4-0.6,0.6-1,0.8c-0.4,0.2-0.8,0.3-1.3,0.3c-0.5,0-0.9-0.1-1.3-0.3c-0.4-0.2-0.7-0.5-0.9-0.8
			c-0.2-0.4-0.4-0.8-0.6-1.3c-0.1-0.5-0.2-1.1-0.3-1.7v-1.4c0.1-0.7,0.1-1.3,0.3-1.8c0.1-0.5,0.3-1,0.6-1.4c0.3-0.4,0.6-0.7,0.9-0.9
			c0.4-0.2,0.8-0.3,1.3-0.3c0.5,0,1,0.1,1.3,0.3c0.4,0.2,0.7,0.4,1,0.8c0.3,0.4,0.5,0.8,0.6,1.4C65.1,184.2,65.2,184.8,65.2,185.6z
			 M63.6,186.5v-0.9c0-0.5,0-1-0.1-1.4c-0.1-0.4-0.2-0.7-0.4-1c-0.2-0.3-0.4-0.5-0.6-0.6c-0.3-0.1-0.6-0.2-0.9-0.2
			c-0.3,0-0.6,0.1-0.8,0.2c-0.2,0.1-0.4,0.3-0.6,0.5c-0.2,0.2-0.3,0.5-0.4,0.7c-0.1,0.3-0.2,0.6-0.2,0.9v2.7
			c0.1,0.4,0.2,0.7,0.4,1.1c0.2,0.3,0.4,0.6,0.7,0.8c0.3,0.2,0.6,0.3,1.1,0.3c0.4,0,0.7-0.1,0.9-0.2c0.3-0.1,0.5-0.3,0.6-0.6
			c0.2-0.3,0.3-0.6,0.4-1C63.6,187.5,63.6,187,63.6,186.5z M70.6,181.3v1.2h-4.4v-1.2H70.6z M67.6,179h1.6v9.5c0,0.3,0,0.6,0.1,0.7
			c0.1,0.2,0.2,0.3,0.3,0.3c0.1,0.1,0.3,0.1,0.4,0.1c0.1,0,0.2,0,0.4,0c0.1,0,0.2-0.1,0.3-0.1l0,1.3c-0.1,0-0.2,0.1-0.4,0.1
			c-0.2,0-0.4,0.1-0.7,0.1c-0.3,0-0.6-0.1-0.9-0.2c-0.3-0.2-0.5-0.4-0.7-0.8c-0.2-0.4-0.3-0.9-0.3-1.5V179z M74.7,189.8l2.1-8.5h1.7
			l-3.1,11c-0.1,0.2-0.2,0.5-0.3,0.8c-0.1,0.3-0.3,0.5-0.5,0.8c-0.2,0.2-0.4,0.4-0.7,0.6c-0.3,0.2-0.6,0.2-0.9,0.2
			c-0.1,0-0.3,0-0.4-0.1c-0.2,0-0.3-0.1-0.4-0.1v-1.3c0,0,0.1,0,0.2,0c0.1,0,0.1,0,0.2,0c0.3,0,0.6-0.1,0.8-0.1
			c0.2-0.1,0.4-0.3,0.6-0.5c0.2-0.2,0.3-0.5,0.4-0.9L74.7,189.8z M73.3,181.3l1.9,7.4l0.4,1.7l-1.1,0.6l-2.9-9.7H73.3z M86,178v12.8
			h-1.6V178H86z M90.3,183.8v1.4h-4.6v-1.4H90.3z M91,178v1.4h-5.4V178H91z M92.3,186.5v-0.9c0-0.7,0.1-1.4,0.3-1.9
			c0.2-0.6,0.4-1,0.8-1.4c0.3-0.4,0.7-0.7,1.2-0.8c0.4-0.2,0.9-0.3,1.4-0.3c0.5,0,1,0.1,1.5,0.3c0.4,0.2,0.8,0.5,1.2,0.8
			c0.3,0.4,0.6,0.8,0.8,1.4c0.2,0.6,0.3,1.2,0.3,1.9v0.9c0,0.7-0.1,1.4-0.3,2c-0.2,0.6-0.4,1-0.8,1.4c-0.3,0.4-0.7,0.7-1.2,0.8
			c-0.4,0.2-0.9,0.3-1.4,0.3s-1-0.1-1.4-0.3c-0.4-0.2-0.8-0.5-1.2-0.8c-0.3-0.4-0.6-0.8-0.8-1.4C92.4,187.9,92.3,187.2,92.3,186.5z
			 M93.8,185.6v0.9c0,0.5,0.1,1,0.2,1.4c0.1,0.4,0.3,0.7,0.4,1c0.2,0.3,0.4,0.5,0.7,0.6c0.3,0.1,0.5,0.2,0.8,0.2
			c0.4,0,0.7-0.1,0.9-0.2c0.3-0.1,0.5-0.3,0.7-0.6c0.2-0.3,0.3-0.6,0.4-1c0.1-0.4,0.1-0.8,0.1-1.4v-0.9c0-0.5-0.1-1-0.2-1.4
			c-0.1-0.4-0.3-0.7-0.4-1c-0.2-0.3-0.4-0.5-0.7-0.6c-0.3-0.1-0.5-0.2-0.8-0.2c-0.3,0-0.6,0.1-0.8,0.2c-0.3,0.1-0.5,0.3-0.7,0.6
			c-0.2,0.3-0.3,0.6-0.4,1C93.9,184.6,93.8,185.1,93.8,185.6z M103.2,182.8v8h-1.6v-9.5h1.5L103.2,182.8z M105.6,181.2l0,1.5
			c-0.1,0-0.2,0-0.4-0.1c-0.1,0-0.2,0-0.4,0c-0.3,0-0.6,0.1-0.8,0.2c-0.2,0.1-0.4,0.3-0.6,0.5c-0.2,0.2-0.3,0.5-0.4,0.8
			c-0.1,0.3-0.2,0.6-0.2,0.9l-0.4,0.3c0-0.6,0-1.1,0.1-1.6c0.1-0.5,0.2-0.9,0.4-1.3c0.2-0.4,0.4-0.7,0.7-0.9
			c0.3-0.2,0.7-0.3,1.1-0.3c0.1,0,0.2,0,0.3,0C105.4,181.2,105.5,181.2,105.6,181.2z M108.7,183.2v7.6h-1.5v-9.5h1.5L108.7,183.2z
			 M108.4,185.7l-0.7,0c0-0.6,0.1-1.3,0.2-1.8c0.1-0.6,0.3-1,0.6-1.5c0.3-0.4,0.6-0.7,1-0.9c0.4-0.2,0.9-0.3,1.4-0.3
			c0.4,0,0.7,0.1,1,0.2c0.3,0.1,0.6,0.3,0.8,0.6c0.2,0.3,0.4,0.6,0.5,1c0.1,0.4,0.2,0.9,0.2,1.5v6.3h-1.6v-6.3
			c0-0.5-0.1-0.9-0.2-1.2c-0.1-0.3-0.3-0.5-0.6-0.7c-0.2-0.1-0.5-0.2-0.9-0.2c-0.4,0-0.7,0.1-1,0.3c-0.3,0.2-0.5,0.4-0.6,0.7
			c-0.1,0.3-0.3,0.6-0.3,1C108.4,184.9,108.4,185.3,108.4,185.7z M113.5,184.8l-1,0.3c0-0.5,0.1-1,0.2-1.5c0.1-0.5,0.3-0.9,0.6-1.3
			c0.3-0.4,0.6-0.7,1-0.9c0.4-0.2,0.9-0.3,1.4-0.3c0.4,0,0.8,0.1,1.2,0.2c0.3,0.1,0.6,0.3,0.8,0.6c0.2,0.3,0.4,0.6,0.5,1.1
			c0.1,0.4,0.2,0.9,0.2,1.5v6.2h-1.6v-6.3c0-0.5-0.1-0.9-0.2-1.2c-0.1-0.3-0.3-0.5-0.6-0.6c-0.2-0.1-0.5-0.2-0.9-0.2
			c-0.3,0-0.5,0.1-0.7,0.2c-0.2,0.1-0.4,0.3-0.5,0.5c-0.1,0.2-0.2,0.5-0.3,0.7C113.5,184.2,113.5,184.5,113.5,184.8z M125.3,188.4
			c0-0.2-0.1-0.5-0.2-0.6c-0.1-0.2-0.3-0.4-0.6-0.5c-0.3-0.2-0.6-0.4-1.1-0.5c-0.4-0.2-0.8-0.4-1.2-0.5c-0.3-0.2-0.6-0.4-0.9-0.6
			c-0.2-0.2-0.4-0.5-0.6-0.7c-0.1-0.3-0.2-0.6-0.2-1s0.1-0.7,0.2-1.1c0.1-0.3,0.4-0.6,0.6-0.9c0.3-0.2,0.6-0.4,0.9-0.6
			c0.4-0.1,0.8-0.2,1.2-0.2c0.7,0,1.2,0.1,1.7,0.4s0.8,0.6,1,1c0.2,0.4,0.4,0.9,0.4,1.5h-1.5c0-0.3-0.1-0.5-0.2-0.7
			c-0.1-0.2-0.3-0.4-0.5-0.6c-0.2-0.2-0.5-0.2-0.8-0.2c-0.3,0-0.6,0.1-0.8,0.2c-0.2,0.1-0.4,0.3-0.5,0.5c-0.1,0.2-0.1,0.4-0.1,0.6
			c0,0.2,0,0.3,0.1,0.5c0.1,0.1,0.1,0.2,0.3,0.4c0.1,0.1,0.3,0.2,0.5,0.3c0.2,0.1,0.5,0.2,0.8,0.4c0.6,0.3,1.2,0.5,1.6,0.8
			c0.4,0.3,0.8,0.6,1,0.9c0.2,0.3,0.3,0.8,0.3,1.3c0,0.4-0.1,0.8-0.2,1.1c-0.1,0.3-0.4,0.6-0.6,0.9c-0.3,0.2-0.6,0.4-1,0.6
			c-0.4,0.1-0.8,0.2-1.3,0.2c-0.7,0-1.3-0.1-1.8-0.4c-0.5-0.3-0.9-0.7-1.1-1.1c-0.3-0.5-0.4-1-0.4-1.5h1.6c0,0.4,0.1,0.8,0.3,1
			c0.2,0.2,0.4,0.4,0.7,0.5c0.3,0.1,0.5,0.1,0.8,0.1c0.3,0,0.6,0,0.9-0.1c0.2-0.1,0.4-0.3,0.5-0.4
			C125.2,188.8,125.3,188.6,125.3,188.4z"/>
		<path class="st10" d="M12.9,211.5v10h-1.2v-10H12.9z M15.5,211.5v1.1H9v-1.1H15.5z M18,211v10.5h-1.2V211H18z M17.7,217.5l-0.5,0
			c0-0.5,0.1-1,0.2-1.4c0.1-0.4,0.3-0.8,0.5-1.1c0.2-0.3,0.5-0.6,0.8-0.7c0.3-0.2,0.7-0.3,1-0.3c0.3,0,0.6,0.1,0.8,0.2
			c0.2,0.1,0.5,0.3,0.6,0.5c0.2,0.2,0.3,0.5,0.4,0.8c0.1,0.3,0.1,0.8,0.1,1.2v4.8h-1.2v-4.9c0-0.4,0-0.7-0.1-0.9
			c-0.1-0.2-0.2-0.4-0.4-0.5c-0.2-0.1-0.4-0.2-0.6-0.2c-0.2,0-0.5,0.1-0.7,0.2c-0.2,0.1-0.4,0.3-0.5,0.5c-0.2,0.2-0.3,0.5-0.4,0.8
			C17.7,216.9,17.7,217.2,17.7,217.5z M26.2,221.6c-0.4,0-0.8-0.1-1.2-0.2c-0.4-0.1-0.7-0.3-0.9-0.6c-0.3-0.3-0.4-0.6-0.6-1
			c-0.1-0.4-0.2-0.9-0.2-1.5v-0.8c0-0.7,0.1-1.2,0.2-1.7c0.2-0.5,0.4-0.8,0.6-1.1c0.3-0.3,0.6-0.5,0.9-0.6c0.3-0.1,0.7-0.2,1-0.2
			c0.5,0,0.9,0.1,1.2,0.2c0.3,0.2,0.6,0.4,0.8,0.7c0.2,0.3,0.4,0.7,0.5,1.1c0.1,0.4,0.2,0.9,0.2,1.5v0.7H24v-1h3.4V217
			c0-0.4-0.1-0.7-0.2-1c-0.1-0.3-0.2-0.5-0.4-0.7c-0.2-0.2-0.5-0.3-0.8-0.3c-0.2,0-0.4,0-0.6,0.1c-0.2,0.1-0.3,0.2-0.5,0.4
			c-0.1,0.2-0.2,0.4-0.3,0.8c-0.1,0.3-0.1,0.7-0.1,1.2v0.8c0,0.4,0,0.7,0.1,1c0.1,0.3,0.2,0.5,0.3,0.7c0.2,0.2,0.3,0.3,0.5,0.4
			c0.2,0.1,0.5,0.1,0.7,0.1c0.4,0,0.7-0.1,1-0.2c0.3-0.2,0.5-0.4,0.7-0.6l0.6,0.8c-0.1,0.2-0.3,0.4-0.5,0.5
			c-0.2,0.2-0.5,0.3-0.8,0.4C27,221.6,26.6,221.6,26.2,221.6z M31.3,215.3v6.2h-1.2v-7.4h1.2L31.3,215.3z M33.2,214.1l0,1.2
			c-0.1,0-0.2,0-0.3,0c-0.1,0-0.2,0-0.3,0c-0.2,0-0.4,0-0.6,0.1c-0.2,0.1-0.3,0.2-0.4,0.4c-0.1,0.2-0.2,0.4-0.3,0.6
			c-0.1,0.2-0.1,0.5-0.2,0.7l-0.3,0.2c0-0.4,0-0.9,0.1-1.3c0.1-0.4,0.2-0.7,0.3-1c0.2-0.3,0.3-0.5,0.6-0.7c0.2-0.2,0.5-0.3,0.8-0.3
			c0.1,0,0.2,0,0.3,0C33.1,214,33.1,214,33.2,214.1z M36.9,221.6c-0.4,0-0.8-0.1-1.2-0.2c-0.4-0.1-0.7-0.3-0.9-0.6
			c-0.3-0.3-0.4-0.6-0.6-1c-0.1-0.4-0.2-0.9-0.2-1.5v-0.8c0-0.7,0.1-1.2,0.2-1.7c0.2-0.5,0.4-0.8,0.6-1.1c0.3-0.3,0.6-0.5,0.9-0.6
			c0.3-0.1,0.7-0.2,1-0.2c0.5,0,0.9,0.1,1.2,0.2c0.3,0.2,0.6,0.4,0.8,0.7c0.2,0.3,0.4,0.7,0.5,1.1c0.1,0.4,0.2,0.9,0.2,1.5v0.7h-4.6
			v-1h3.4V217c0-0.4-0.1-0.7-0.2-1c-0.1-0.3-0.2-0.5-0.4-0.7c-0.2-0.2-0.5-0.3-0.8-0.3c-0.2,0-0.4,0-0.6,0.1
			c-0.2,0.1-0.3,0.2-0.5,0.4c-0.1,0.2-0.2,0.4-0.3,0.8c-0.1,0.3-0.1,0.7-0.1,1.2v0.8c0,0.4,0,0.7,0.1,1c0.1,0.3,0.2,0.5,0.3,0.7
			c0.2,0.2,0.3,0.3,0.5,0.4c0.2,0.1,0.5,0.1,0.7,0.1c0.4,0,0.7-0.1,1-0.2c0.3-0.2,0.5-0.4,0.7-0.6l0.6,0.8c-0.1,0.2-0.3,0.4-0.5,0.5
			c-0.2,0.2-0.5,0.3-0.8,0.4C37.7,221.6,37.3,221.6,36.9,221.6z M45.3,214.1v7.4h-1.2v-7.4H45.3z M44,212.1c0-0.2,0.1-0.4,0.2-0.5
			c0.1-0.1,0.3-0.2,0.5-0.2c0.2,0,0.4,0.1,0.5,0.2c0.1,0.1,0.2,0.3,0.2,0.5c0,0.2-0.1,0.4-0.2,0.5c-0.1,0.1-0.3,0.2-0.5,0.2
			c-0.2,0-0.4-0.1-0.5-0.2C44.1,212.5,44,212.3,44,212.1z M50.8,219.6c0-0.2,0-0.4-0.1-0.5c-0.1-0.1-0.2-0.3-0.5-0.4
			c-0.2-0.1-0.5-0.3-0.8-0.4c-0.3-0.1-0.6-0.3-0.9-0.4c-0.3-0.1-0.5-0.3-0.7-0.5c-0.2-0.2-0.3-0.4-0.4-0.6c-0.1-0.2-0.1-0.5-0.1-0.8
			c0-0.3,0.1-0.6,0.2-0.8c0.1-0.3,0.3-0.5,0.5-0.7c0.2-0.2,0.5-0.3,0.7-0.4c0.3-0.1,0.6-0.2,1-0.2c0.5,0,0.9,0.1,1.3,0.3
			c0.4,0.2,0.6,0.5,0.8,0.8c0.2,0.3,0.3,0.7,0.3,1.1h-1.2c0-0.2,0-0.4-0.1-0.6c-0.1-0.2-0.2-0.3-0.4-0.4c-0.2-0.1-0.4-0.2-0.6-0.2
			c-0.3,0-0.5,0-0.7,0.1c-0.2,0.1-0.3,0.2-0.4,0.4c-0.1,0.2-0.1,0.3-0.1,0.5c0,0.1,0,0.3,0.1,0.4c0,0.1,0.1,0.2,0.2,0.3
			c0.1,0.1,0.2,0.2,0.4,0.3c0.2,0.1,0.4,0.2,0.6,0.3c0.5,0.2,0.9,0.4,1.3,0.6c0.3,0.2,0.6,0.4,0.8,0.7c0.2,0.3,0.3,0.6,0.3,1
			c0,0.3-0.1,0.6-0.2,0.9c-0.1,0.3-0.3,0.5-0.5,0.7c-0.2,0.2-0.5,0.3-0.8,0.4c-0.3,0.1-0.6,0.1-1,0.1c-0.6,0-1-0.1-1.4-0.3
			c-0.4-0.2-0.7-0.5-0.9-0.9c-0.2-0.4-0.3-0.7-0.3-1.2h1.2c0,0.3,0.1,0.6,0.2,0.8c0.1,0.2,0.3,0.3,0.5,0.4c0.2,0.1,0.4,0.1,0.6,0.1
			c0.3,0,0.5,0,0.7-0.1c0.2-0.1,0.3-0.2,0.4-0.3C50.8,220,50.8,219.8,50.8,219.6z M58,215.7v5.8h-1.2v-7.4H58L58,215.7z M57.7,217.5
			l-0.5,0c0-0.5,0.1-1,0.2-1.4c0.1-0.4,0.3-0.8,0.5-1.1c0.2-0.3,0.5-0.6,0.8-0.7c0.3-0.2,0.7-0.3,1-0.3c0.3,0,0.6,0.1,0.8,0.2
			c0.2,0.1,0.5,0.3,0.6,0.5c0.2,0.2,0.3,0.5,0.4,0.8c0.1,0.3,0.1,0.8,0.1,1.2v4.8h-1.2v-4.9c0-0.4,0-0.7-0.1-0.9
			c-0.1-0.2-0.2-0.4-0.4-0.5c-0.2-0.1-0.4-0.2-0.6-0.2c-0.2,0-0.5,0.1-0.7,0.2c-0.2,0.1-0.4,0.3-0.5,0.5c-0.2,0.2-0.3,0.5-0.4,0.8
			C57.8,216.9,57.7,217.2,57.7,217.5z M63.4,218.2v-0.7c0-0.6,0.1-1.1,0.2-1.5c0.1-0.4,0.3-0.8,0.6-1.1c0.3-0.3,0.6-0.5,0.9-0.7
			c0.3-0.1,0.7-0.2,1.1-0.2c0.4,0,0.8,0.1,1.1,0.2c0.3,0.1,0.6,0.4,0.9,0.7c0.3,0.3,0.5,0.7,0.6,1.1c0.1,0.4,0.2,0.9,0.2,1.5v0.7
			c0,0.6-0.1,1.1-0.2,1.5c-0.1,0.4-0.3,0.8-0.6,1.1c-0.3,0.3-0.6,0.5-0.9,0.7c-0.3,0.1-0.7,0.2-1.1,0.2c-0.4,0-0.8-0.1-1.1-0.2
			c-0.3-0.1-0.7-0.4-0.9-0.7c-0.3-0.3-0.5-0.7-0.6-1.1C63.4,219.2,63.4,218.7,63.4,218.2z M64.6,217.5v0.7c0,0.4,0,0.8,0.1,1.1
			c0.1,0.3,0.2,0.6,0.3,0.8c0.2,0.2,0.3,0.4,0.5,0.5c0.2,0.1,0.4,0.2,0.7,0.2c0.3,0,0.5-0.1,0.7-0.2c0.2-0.1,0.4-0.3,0.5-0.5
			c0.1-0.2,0.2-0.5,0.3-0.8c0.1-0.3,0.1-0.7,0.1-1.1v-0.7c0-0.4,0-0.8-0.1-1.1c-0.1-0.3-0.2-0.6-0.3-0.8c-0.2-0.2-0.3-0.4-0.5-0.5
			c-0.2-0.1-0.4-0.2-0.7-0.2c-0.2,0-0.4,0.1-0.6,0.2c-0.2,0.1-0.4,0.3-0.5,0.5c-0.1,0.2-0.3,0.5-0.3,0.8
			C64.6,216.7,64.6,217,64.6,217.5z M77.7,220.1V211h1.2v10.5h-1.1L77.7,220.1z M73.6,218.2v-0.7c0-0.6,0.1-1.1,0.2-1.6
			c0.1-0.4,0.3-0.8,0.5-1.1c0.2-0.3,0.5-0.5,0.8-0.6c0.3-0.1,0.6-0.2,1-0.2c0.4,0,0.7,0.1,1,0.2c0.3,0.2,0.5,0.4,0.7,0.7
			c0.2,0.3,0.3,0.6,0.4,1.1c0.1,0.4,0.2,0.9,0.2,1.4v0.9c0,0.5-0.1,1-0.2,1.4c-0.1,0.4-0.3,0.8-0.4,1.1c-0.2,0.3-0.4,0.5-0.7,0.7
			c-0.3,0.2-0.6,0.2-1,0.2c-0.4,0-0.7-0.1-1-0.2c-0.3-0.1-0.6-0.4-0.8-0.7c-0.2-0.3-0.4-0.7-0.5-1.1
			C73.6,219.3,73.6,218.7,73.6,218.2z M74.8,217.5v0.7c0,0.4,0,0.8,0.1,1.1c0.1,0.3,0.2,0.6,0.3,0.8c0.1,0.2,0.3,0.3,0.5,0.4
			c0.2,0.1,0.4,0.1,0.7,0.1c0.3,0,0.6-0.1,0.8-0.2c0.2-0.2,0.4-0.4,0.5-0.6c0.1-0.3,0.2-0.6,0.3-0.9v-1.9c0-0.2-0.1-0.5-0.2-0.7
			c-0.1-0.2-0.2-0.4-0.3-0.6c-0.1-0.2-0.3-0.3-0.5-0.4c-0.2-0.1-0.4-0.2-0.6-0.2c-0.3,0-0.5,0-0.7,0.2c-0.2,0.1-0.4,0.2-0.5,0.5
			c-0.1,0.2-0.2,0.5-0.3,0.8C74.8,216.7,74.8,217.1,74.8,217.5z M84.4,220.2v-4c0-0.3,0-0.5-0.1-0.7c-0.1-0.2-0.2-0.3-0.4-0.4
			c-0.2-0.1-0.4-0.1-0.7-0.1c-0.3,0-0.5,0.1-0.7,0.2c-0.2,0.1-0.3,0.2-0.4,0.4c-0.1,0.2-0.1,0.4-0.1,0.6h-1.2c0-0.3,0.1-0.5,0.2-0.8
			c0.1-0.3,0.3-0.5,0.5-0.7c0.2-0.2,0.5-0.4,0.8-0.5c0.3-0.1,0.7-0.2,1-0.2c0.5,0,0.9,0.1,1.2,0.2c0.4,0.1,0.6,0.4,0.8,0.7
			c0.2,0.3,0.3,0.8,0.3,1.3v3.7c0,0.2,0,0.5,0.1,0.8c0,0.3,0.1,0.5,0.2,0.7v0.1h-1.3c-0.1-0.1-0.1-0.3-0.1-0.6
			C84.4,220.7,84.4,220.4,84.4,220.2z M84.6,217l0,0.9h-0.8c-0.3,0-0.5,0-0.8,0.1c-0.2,0.1-0.4,0.2-0.6,0.3
			c-0.2,0.1-0.3,0.3-0.4,0.4c-0.1,0.2-0.1,0.4-0.1,0.6c0,0.3,0,0.5,0.1,0.7c0.1,0.2,0.2,0.3,0.4,0.4c0.2,0.1,0.4,0.1,0.6,0.1
			c0.3,0,0.6-0.1,0.8-0.2c0.2-0.1,0.4-0.3,0.5-0.5c0.1-0.2,0.2-0.4,0.2-0.6l0.3,0.6c0,0.2-0.1,0.4-0.2,0.6c-0.1,0.2-0.2,0.4-0.4,0.6
			c-0.2,0.2-0.4,0.3-0.6,0.5c-0.2,0.1-0.5,0.2-0.8,0.2c-0.4,0-0.8-0.1-1.1-0.2c-0.3-0.2-0.6-0.4-0.7-0.7c-0.2-0.3-0.3-0.7-0.3-1.2
			c0-0.4,0.1-0.7,0.2-1c0.1-0.3,0.3-0.6,0.5-0.8c0.2-0.2,0.5-0.4,0.9-0.5c0.4-0.1,0.8-0.2,1.3-0.2H84.6z M90.2,214.1v1h-3.5v-1H90.2
			z M87.9,212.3h1.2v7.4c0,0.3,0,0.4,0.1,0.6c0.1,0.1,0.1,0.2,0.2,0.3s0.2,0.1,0.3,0.1c0.1,0,0.2,0,0.3,0c0.1,0,0.2,0,0.2-0.1l0,1
			c-0.1,0-0.2,0.1-0.3,0.1c-0.1,0-0.3,0-0.5,0c-0.3,0-0.5-0.1-0.7-0.2c-0.2-0.1-0.4-0.3-0.5-0.6c-0.1-0.3-0.2-0.7-0.2-1.2V212.3z
			 M95.3,220.2v-4c0-0.3,0-0.5-0.1-0.7c-0.1-0.2-0.2-0.3-0.4-0.4c-0.2-0.1-0.4-0.1-0.7-0.1c-0.3,0-0.5,0.1-0.7,0.2
			c-0.2,0.1-0.3,0.2-0.4,0.4c-0.1,0.2-0.1,0.4-0.1,0.6h-1.2c0-0.3,0.1-0.5,0.2-0.8c0.1-0.3,0.3-0.5,0.5-0.7c0.2-0.2,0.5-0.4,0.8-0.5
			c0.3-0.1,0.7-0.2,1-0.2c0.5,0,0.9,0.1,1.2,0.2c0.4,0.1,0.6,0.4,0.8,0.7c0.2,0.3,0.3,0.8,0.3,1.3v3.7c0,0.2,0,0.5,0.1,0.8
			c0,0.3,0.1,0.5,0.2,0.7v0.1h-1.3c-0.1-0.1-0.1-0.3-0.1-0.6C95.3,220.7,95.3,220.4,95.3,220.2z M95.5,217l0,0.9h-0.8
			c-0.3,0-0.5,0-0.8,0.1c-0.2,0.1-0.4,0.2-0.6,0.3c-0.2,0.1-0.3,0.3-0.4,0.4c-0.1,0.2-0.1,0.4-0.1,0.6c0,0.3,0,0.5,0.1,0.7
			c0.1,0.2,0.2,0.3,0.4,0.4c0.2,0.1,0.4,0.1,0.6,0.1c0.3,0,0.6-0.1,0.8-0.2c0.2-0.1,0.4-0.3,0.5-0.5c0.1-0.2,0.2-0.4,0.2-0.6
			l0.3,0.6c0,0.2-0.1,0.4-0.2,0.6c-0.1,0.2-0.2,0.4-0.4,0.6c-0.2,0.2-0.4,0.3-0.6,0.5c-0.2,0.1-0.5,0.2-0.8,0.2
			c-0.4,0-0.8-0.1-1.1-0.2c-0.3-0.2-0.6-0.4-0.7-0.7c-0.2-0.3-0.3-0.7-0.3-1.2c0-0.4,0.1-0.7,0.2-1c0.1-0.3,0.3-0.6,0.5-0.8
			c0.2-0.2,0.5-0.4,0.9-0.5c0.4-0.1,0.8-0.2,1.3-0.2H95.5z M104.3,214.1v1h-3.5v-1H104.3z M101.9,212.3h1.2v7.4c0,0.3,0,0.4,0.1,0.6
			c0.1,0.1,0.1,0.2,0.2,0.3c0.1,0,0.2,0.1,0.3,0.1c0.1,0,0.2,0,0.3,0c0.1,0,0.2,0,0.2-0.1l0,1c-0.1,0-0.2,0.1-0.3,0.1
			c-0.1,0-0.3,0-0.5,0c-0.3,0-0.5-0.1-0.7-0.2c-0.2-0.1-0.4-0.3-0.5-0.6c-0.1-0.3-0.2-0.7-0.2-1.2V212.3z M105.3,218.2v-0.7
			c0-0.6,0.1-1.1,0.2-1.5c0.1-0.4,0.3-0.8,0.6-1.1c0.3-0.3,0.6-0.5,0.9-0.7c0.3-0.1,0.7-0.2,1.1-0.2c0.4,0,0.8,0.1,1.1,0.2
			c0.3,0.1,0.7,0.4,0.9,0.7c0.3,0.3,0.5,0.7,0.6,1.1c0.1,0.4,0.2,0.9,0.2,1.5v0.7c0,0.6-0.1,1.1-0.2,1.5c-0.1,0.4-0.3,0.8-0.6,1.1
			c-0.3,0.3-0.6,0.5-0.9,0.7s-0.7,0.2-1.1,0.2c-0.4,0-0.8-0.1-1.1-0.2c-0.3-0.1-0.7-0.4-0.9-0.7c-0.3-0.3-0.5-0.7-0.6-1.1
			C105.4,219.2,105.3,218.7,105.3,218.2z M106.5,217.5v0.7c0,0.4,0,0.8,0.1,1.1c0.1,0.3,0.2,0.6,0.3,0.8c0.1,0.2,0.3,0.4,0.5,0.5
			c0.2,0.1,0.4,0.2,0.7,0.2c0.3,0,0.5-0.1,0.7-0.2c0.2-0.1,0.4-0.3,0.5-0.5c0.1-0.2,0.2-0.5,0.3-0.8c0.1-0.3,0.1-0.7,0.1-1.1v-0.7
			c0-0.4,0-0.8-0.1-1.1c-0.1-0.3-0.2-0.6-0.3-0.8c-0.2-0.2-0.3-0.4-0.5-0.5c-0.2-0.1-0.4-0.2-0.7-0.2c-0.2,0-0.4,0.1-0.7,0.2
			c-0.2,0.1-0.4,0.3-0.5,0.5c-0.1,0.2-0.3,0.5-0.3,0.8C106.6,216.7,106.5,217,106.5,217.5z M117.7,220.4l1.6-6.3h1.2l-2.2,7.4h-0.8
			L117.7,220.4z M116.5,214.1l1.7,6.3l0.1,1.1h-0.8l-2.2-7.4H116.5z M123.1,214.1v7.4h-1.2v-7.4H123.1z M121.8,212.1
			c0-0.2,0.1-0.4,0.2-0.5c0.1-0.1,0.3-0.2,0.5-0.2c0.2,0,0.4,0.1,0.5,0.2c0.1,0.1,0.2,0.3,0.2,0.5c0,0.2-0.1,0.4-0.2,0.5
			c-0.1,0.1-0.3,0.2-0.5,0.2c-0.2,0-0.4-0.1-0.5-0.2C121.9,212.5,121.8,212.3,121.8,212.1z M127.7,221.6c-0.4,0-0.8-0.1-1.2-0.2
			c-0.4-0.1-0.7-0.3-0.9-0.6c-0.3-0.3-0.4-0.6-0.6-1c-0.1-0.4-0.2-0.9-0.2-1.5v-0.8c0-0.7,0.1-1.2,0.2-1.7c0.2-0.5,0.4-0.8,0.6-1.1
			c0.3-0.3,0.6-0.5,0.9-0.6c0.3-0.1,0.7-0.2,1-0.2c0.5,0,0.9,0.1,1.2,0.2c0.3,0.2,0.6,0.4,0.8,0.7c0.2,0.3,0.4,0.7,0.5,1.1
			c0.1,0.4,0.2,0.9,0.2,1.5v0.7h-4.6v-1h3.4V217c0-0.4-0.1-0.7-0.2-1c-0.1-0.3-0.2-0.5-0.4-0.7c-0.2-0.2-0.5-0.3-0.8-0.3
			c-0.2,0-0.4,0-0.6,0.1c-0.2,0.1-0.3,0.2-0.5,0.4c-0.1,0.2-0.2,0.4-0.3,0.8c-0.1,0.3-0.1,0.7-0.1,1.2v0.8c0,0.4,0,0.7,0.1,1
			c0.1,0.3,0.2,0.5,0.3,0.7c0.2,0.2,0.3,0.3,0.5,0.4c0.2,0.1,0.5,0.1,0.7,0.1c0.4,0,0.7-0.1,1-0.2c0.3-0.2,0.5-0.4,0.7-0.6l0.6,0.8
			c-0.1,0.2-0.3,0.4-0.5,0.5c-0.2,0.2-0.5,0.3-0.8,0.4C128.5,221.6,128.1,221.6,127.7,221.6z M133.1,220.2l1.6-6.1h0.8l-0.1,1.2
			l-1.6,6.2H133L133.1,220.2z M132.2,214.1l1.4,6.2l0,1.2h-0.8l-1.8-7.4H132.2z M136.9,220.2l1.3-6.1h1.2l-1.8,7.4h-0.8L136.9,220.2
			z M135.7,214.1l1.6,6l0.1,1.4h-0.8l-1.7-6.2l-0.1-1.2H135.7z M145.6,220.7l1.6-6.6h1.3l-2.4,8.5c-0.1,0.2-0.1,0.4-0.2,0.6
			c-0.1,0.2-0.2,0.4-0.4,0.6c-0.2,0.2-0.3,0.3-0.5,0.5c-0.2,0.1-0.5,0.2-0.7,0.2c-0.1,0-0.2,0-0.3,0c-0.1,0-0.2-0.1-0.3-0.1v-1
			c0,0,0.1,0,0.1,0c0.1,0,0.1,0,0.1,0c0.2,0,0.4,0,0.6-0.1c0.2-0.1,0.3-0.2,0.4-0.4c0.1-0.2,0.2-0.4,0.3-0.7L145.6,220.7z
			 M144.5,214.1l1.5,5.7l0.3,1.3l-0.9,0.5l-2.2-7.5H144.5z M152.3,221.6c-0.4,0-0.8-0.1-1.2-0.2c-0.4-0.1-0.7-0.3-0.9-0.6
			c-0.2-0.3-0.4-0.6-0.6-1c-0.1-0.4-0.2-0.9-0.2-1.5v-0.8c0-0.7,0.1-1.2,0.2-1.7c0.2-0.5,0.4-0.8,0.6-1.1c0.3-0.3,0.6-0.5,0.9-0.6
			c0.3-0.1,0.7-0.2,1-0.2c0.5,0,0.9,0.1,1.2,0.2c0.3,0.2,0.6,0.4,0.8,0.7c0.2,0.3,0.4,0.7,0.5,1.1c0.1,0.4,0.2,0.9,0.2,1.5v0.7h-4.6
			v-1h3.4V217c0-0.4-0.1-0.7-0.2-1c-0.1-0.3-0.2-0.5-0.4-0.7c-0.2-0.2-0.5-0.3-0.8-0.3c-0.2,0-0.4,0-0.6,0.1
			c-0.2,0.1-0.3,0.2-0.5,0.4c-0.1,0.2-0.2,0.4-0.3,0.8c-0.1,0.3-0.1,0.7-0.1,1.2v0.8c0,0.4,0,0.7,0.1,1c0.1,0.3,0.2,0.5,0.3,0.7
			c0.2,0.2,0.3,0.3,0.5,0.4c0.2,0.1,0.5,0.1,0.7,0.1c0.4,0,0.7-0.1,1-0.2c0.3-0.2,0.5-0.4,0.7-0.6l0.6,0.8c-0.1,0.2-0.3,0.4-0.5,0.5
			c-0.2,0.2-0.5,0.3-0.8,0.4C153.1,221.6,152.7,221.6,152.3,221.6z M158.9,214.1v1h-3.5v-1H158.9z M156.6,212.3h1.2v7.4
			c0,0.3,0,0.4,0.1,0.6c0.1,0.1,0.1,0.2,0.2,0.3c0.1,0,0.2,0.1,0.3,0.1c0.1,0,0.2,0,0.3,0c0.1,0,0.2,0,0.2-0.1l0,1
			c-0.1,0-0.2,0.1-0.3,0.1c-0.1,0-0.3,0-0.5,0c-0.3,0-0.5-0.1-0.7-0.2c-0.2-0.1-0.4-0.3-0.5-0.6c-0.1-0.3-0.2-0.7-0.2-1.2V212.3z
			 M160.4,220.8c0-0.2,0.1-0.4,0.2-0.5c0.1-0.1,0.3-0.2,0.6-0.2c0.3,0,0.4,0.1,0.6,0.2c0.1,0.1,0.2,0.3,0.2,0.5
			c0,0.2-0.1,0.4-0.2,0.5c-0.1,0.1-0.3,0.2-0.6,0.2c-0.3,0-0.5-0.1-0.6-0.2C160.5,221.2,160.4,221,160.4,220.8z"/>
	</g>
</g>
</svg>
