<?xml version="1.0" encoding="utf-8"?>
<!-- Generator: Adobe Illustrator 25.2.3, SVG Export Plug-In . SVG Version: 6.00 Build 0)  -->
<svg version="1.1" id="Layer_1" xmlns="http://www.w3.org/2000/svg" xmlns:xlink="http://www.w3.org/1999/xlink" x="0px" y="0px"
	 viewBox="0 0 13 3" style="enable-background:new 0 0 13 3;" xml:space="preserve">
<style type="text/css">
	.st0{fill:#51566A;}
</style>
<path class="st0" d="M6.5,3C5.7,3,5,2.3,5,1.5S5.7,0,6.5,0S8,0.7,8,1.5S7.3,3,6.5,3z"/>
<path class="st0" d="M1.5,3C0.7,3,0,2.3,0,1.5S0.7,0,1.5,0S3,0.7,3,1.5S2.3,3,1.5,3z"/>
<path class="st0" d="M11.5,3C10.7,3,10,2.3,10,1.5S10.7,0,11.5,0S13,0.7,13,1.5S12.3,3,11.5,3z"/>
</svg>
