<svg width="10" height="10" viewBox="0 0 10 10" fill="none" xmlns="http://www.w3.org/2000/svg">
<path fill-rule="evenodd" clip-rule="evenodd" d="M0 9.375C0 9.20924 0.0752549 9.05027 0.209209 8.93306C0.343164 8.81585 0.524845 8.75 0.714286 8.75H9.28571C9.47515 8.75 9.65684 8.81585 9.79079 8.93306C9.92475 9.05027 10 9.20924 10 9.375C10 9.54076 9.92475 9.69973 9.79079 9.81694C9.65684 9.93415 9.47515 10 9.28571 10H0.714286C0.524845 10 0.343164 9.93415 0.209209 9.81694C0.0752549 9.69973 0 9.54076 0 9.375ZM2.35214 4.55813C2.48609 4.44096 2.66774 4.37513 2.85714 4.37513C3.04655 4.37513 3.22819 4.44096 3.36214 4.55813L4.28571 5.36625V0.625C4.28571 0.45924 4.36097 0.300268 4.49492 0.183058C4.62888 0.065848 4.81056 0 5 0C5.18944 0 5.37112 0.065848 5.50508 0.183058C5.63903 0.300268 5.71429 0.45924 5.71429 0.625V5.36625L6.63786 4.55813C6.70375 4.49843 6.78257 4.45082 6.86971 4.41806C6.95686 4.38531 7.05059 4.36806 7.14543 4.36734C7.24027 4.36662 7.33433 4.38244 7.42211 4.41386C7.50989 4.44529 7.58964 4.4917 7.65671 4.55038C7.72378 4.60906 7.77681 4.67884 7.81273 4.75565C7.84864 4.83246 7.86672 4.91476 7.86589 4.99775C7.86507 5.08074 7.84537 5.16275 7.80793 5.239C7.77049 5.31526 7.71608 5.38422 7.64786 5.44187L5.505 7.31687C5.37105 7.43404 5.1894 7.49987 5 7.49987C4.8106 7.49987 4.62895 7.43404 4.495 7.31687L2.35214 5.44187C2.21824 5.32467 2.14301 5.16573 2.14301 5C2.14301 4.83427 2.21824 4.67533 2.35214 4.55813Z" fill="#505D6E"/>
</svg>
