<svg viewBox="0 0 64 64" fill="none" xmlns="http://www.w3.org/2000/svg">
    <path opacity="0.1" d="M32 64C49.6731 64 64 49.6731 64 32C64 14.3269 49.6731 0 32 0C14.3269 0 0 14.3269 0 32C0 49.6731 14.3269 64 32 64Z" fill="#8EA6C1" />
    <path fill-rule="evenodd" clip-rule="evenodd" d="M25.598 25.5995V24.5328C25.598 22.7655 27.0307 21.3328 28.798 21.3328H39.4646C41.232 21.3328 42.6646 22.7655 42.6646 24.5328V35.1995C42.6646 36.9668 41.232 38.3995 39.4646 38.3995H38.398V39.4662C38.398 41.2335 36.9653 42.6662 35.198 42.6662H24.5313C22.764 42.6662 21.3313 41.2335 21.3313 39.4662V28.7995C21.3313 27.0322 22.764 25.5995 24.5313 25.5995H25.598ZM27.7313 25.5995V24.5328C27.7313 23.9437 28.2089 23.4662 28.798 23.4662H39.4646C40.0538 23.4662 40.5313 23.9437 40.5313 24.5328V35.1995C40.5313 35.7886 40.0538 36.2662 39.4646 36.2662H38.398V28.7995C38.398 27.0322 36.9653 25.5995 35.198 25.5995H27.7313Z" fill="#6667AB" />
</svg>