<svg width="24" height="18" viewBox="0 0 24 18" fill="none" xmlns="http://www.w3.org/2000/svg">
<path d="M23.9824 2.17022C23.9824 2.14279 24.0013 2.1161 24 2.08899L16.676 9.14603L23.9912 15.9776C23.9955 15.9288 23.9824 15.8796 23.9824 15.8298V2.17022V2.17022Z" fill="#6667AB"/>
<path d="M15.5579 10.2321L12.568 13.1087C12.4167 13.2542 12.2213 13.3272 12.0258 13.3272C11.8343 13.3272 11.6429 13.2574 11.4927 13.1173L8.51092 10.3388L1.14795 17.4359C1.32698 17.5002 1.51915 17.5502 1.7204 17.5502H22.3313C22.6301 17.5502 22.9104 17.4592 23.1541 17.3234L15.5579 10.2321Z" fill="#6667AB"/>
<path d="M12.0173 11.4683L23.1947 0.701165C22.9416 0.550702 22.6471 0.449768 22.3313 0.449768H1.72045C1.30931 0.449768 0.932578 0.609407 0.63916 0.852879L12.0173 11.4683Z" fill="#6667AB"/>
<path d="M0 2.4325V15.8296C0 15.9834 0.0353478 16.1317 0.0737194 16.2734L7.34535 9.27099L0 2.4325Z" fill="#6667AB"/>
</svg>
