<svg xmlns="http://www.w3.org/2000/svg" viewBox="0 0 36.1 29.8" xml:space="preserve"><path d="M30.3 4H1.8C.8 4 0 4.8 0 5.8V28c0 1 .8 1.8 1.8 1.8h28.5c1 0 1.8-.8 1.8-1.8V5.8c0-1-.8-1.8-1.8-1.8zm-1.8 3.6v16.3l-4.1-5c-.2-.2-.4-.2-.6-.1L19 22.3l-8.3-8c-.2-.2-.5-.2-.6 0v.1l-6.4 9.1V7.6h24.8zm-10.8 6.8c0-1.6 1.3-2.9 2.9-2.9 1.6 0 2.9 1.3 2.9 2.9 0 1.6-1.3 2.9-2.9 2.9-1.6 0-2.9-1.3-2.9-2.9zm17.1 8.8c-.8 0-1.4-.6-1.4-1.4V2.7H5.2c-.7 0-1.4-.6-1.4-1.4S4.5 0 5.2 0h29.6c.8 0 1.4.6 1.4 1.4v20.5c-.1.7-.7 1.3-1.4 1.3z"/></svg>