<svg version="1.1" id="Layer_1" xmlns="http://www.w3.org/2000/svg" x="0" y="0" viewBox="0 0 53.2 40.7" xml:space="preserve"><style>.st0{fill:#f9f9f9}.st1{fill:#8ea6c1}</style><path class="st0" d="M13.1 39.5c-4.3 0-8.1-3.1-8.9-7.3l-3-15.3C.2 12 3.4 7.2 8.3 6.2l25.3-5c.6-.1 1.2-.2 1.8-.2 4.3 0 8.1 3.1 8.9 7.3l3 15.3c.5 2.4 0 4.8-1.4 6.8s-3.4 3.4-5.8 3.9l-25.3 5c-.5.1-1.1.2-1.7.2z"/><path class="st1" d="M35.4 2c3.8 0 7.2 2.7 7.9 6.5l3 15.3c.4 2.1 0 4.3-1.2 6.1-1.2 1.8-3 3-5.2 3.4l-25.3 5c-.5.1-1.1.2-1.6.2-3.8 0-7.2-2.7-7.9-6.5l-3-15.3c-.4-2.1 0-4.3 1.2-6.1 1.2-1.8 3-3 5.2-3.4l25.3-5c.6-.1 1.1-.2 1.6-.2m0-2c-.6 0-1.3.1-2 .2l-25.3 5C2.6 6.3-.9 11.6.2 17.1l3 15.3c1 4.8 5.2 8.1 9.9 8.1.6 0 1.3-.1 2-.2l25.3-5c5.5-1.1 9-6.4 7.9-11.9l-3-15.3C44.4 3.3 40.1 0 35.4 0z"/><path class="st0" d="M18.3 39.7c-5 0-9.1-4.1-9.1-9.1V15.8c0-5 4.1-9.1 9.1-9.1h24.8c5 0 9.1 4.1 9.1 9.1v14.8c0 5-4.1 9.1-9.1 9.1H18.3z"/><path class="st1" d="M43.1 7.7c4.5 0 8.1 3.6 8.1 8.1v14.8c0 4.5-3.6 8.1-8.1 8.1H18.3c-4.5 0-8.1-3.6-8.1-8.1V15.8c0-4.5 3.6-8.1 8.1-8.1h24.8m0-2H18.3c-5.6 0-10.1 4.5-10.1 10.1v14.8c0 5.6 4.5 10.1 10.1 10.1h24.8c5.6 0 10.1-4.5 10.1-10.1V15.8c0-5.6-4.5-10.1-10.1-10.1z"/><path class="st1" d="M30.7 12.7c-5.8 0-10.5 4.7-10.5 10.5s4.7 10.5 10.5 10.5S41.2 29 41.2 23.2s-4.7-10.5-10.5-10.5zm5.3 2.8-.7 1c-.9-.6-1.9-1-3-1.2l.2-1.2c1.3.2 2.4.7 3.5 1.4zm-4.7 12.4v1.2h-1v-1.2c-.7-.1-1.4-.3-1.9-.8s-.7-1.1-.7-2h1.8c0 .6.1.9.4 1.2.3.2.6.4 1 .4s.7-.1.9-.3c.2-.2.3-.5.3-.8 0-.3-.1-.6-.3-.8-.2-.2-.5-.4-1-.6-.9-.3-1.6-.7-2-1.1-.4-.4-.7-1-.7-1.7s.2-1.3.6-1.7c.4-.4 1.1-.7 1.8-.8v-1.3h1v1.3c.7.1 1.3.4 1.7.9.4.5.6 1.1.6 1.9H32c0-.5-.1-.8-.3-1.1-.2-.3-.5-.4-.8-.4-.4 0-.6.1-.8.3-.2.2-.3.5-.3.8 0 .3.1.6.3.8.2.2.5.4 1 .6.9.4 1.6.7 2 1.1.4.4.7 1 .7 1.7s-.2 1.3-.7 1.7c-.4.4-1 .6-1.8.7zM28.9 14l.2 1.2c-1.1.2-2.1.6-3 1.2l-.7-1c1.2-.6 2.3-1.1 3.5-1.4zM23 18l1 .7c-.6.9-1 1.9-1.2 3l-1.2-.2c.2-1.3.7-2.5 1.4-3.5zm0 10.5c-.7-1-1.2-2.2-1.4-3.4l1.2-.2c.2 1.1.6 2.1 1.2 3l-1 .6zm2.5 2.5.7-1c.9.6 1.9 1 3 1.2l-.2 1.2c-1.3-.2-2.4-.7-3.5-1.4zm7 1.4-.2-1.2c1.1-.2 2.1-.6 3-1.2l.7 1c-1.1.7-2.2 1.2-3.5 1.4zm6-3.9-1-.7c.6-.9 1-1.9 1.2-3l1.2.2c-.2 1.3-.7 2.4-1.4 3.5zm.3-6.8c-.2-1.1-.6-2.1-1.2-3l1-.7c.7 1 1.2 2.2 1.4 3.4l-1.2.3z"/></svg>