<svg xmlns="http://www.w3.org/2000/svg" viewBox="0 0 16 16" style="enable-background:new 0 0 16 16" xml:space="preserve"><path d="M6.6 4H3.3C2.6 4 2 4.6 2 5.3v5.4c0 .6-.4 1-1 1s-1-.4-1-1V5.3C0 3.5 1.5 2 3.3 2h3.3l-.3-.3c-.4-.4-.4-1 0-1.4.4-.4 1-.4 1.4 0l2 2c.2.2.3.5.3.7s-.1.5-.3.7l-2 2c-.2.2-.5.3-.7.3-.3 0-.5-.1-.7-.3-.4-.4-.4-1 0-1.4l.3-.3zm8.4.3c-.6 0-1 .4-1 1v5.4c0 .7-.6 1.3-1.3 1.3H9.4l.3-.3c.4-.4.4-1 0-1.4-.4-.4-1-.4-1.4 0l-2 2c-.2.2-.3.4-.3.7 0 .3.1.5.3.7l2 2c.2.2.5.3.7.3.3 0 .5-.1.7-.3.4-.4.4-1 0-1.4l-.3-.3h3.3c1.8 0 3.3-1.5 3.3-3.3V5.3c0-.6-.4-1-1-1z" style="fill:currentColor"/></svg>