<svg width="100%" height="100%" viewBox="0 0 18 18" fill="none" xmlns="http://www.w3.org/2000/svg">
    <g clip-path="url(#clip0_2943_42247)">
        <path d="M10.6875 0H2.0625C0.9225 0 0 0.9225 0 2.0625V13.6875C0 14.8275 0.9225 15.75 2.0625 15.75H7.005C6.6 14.895 6.375 13.9425 6.375 12.9375C6.375 12.075 6.54 11.25 6.8475 10.4925C6.8175 10.5 6.7875 10.5 6.75 10.5H3C2.5875 10.5 2.25 10.1625 2.25 9.75C2.25 9.3375 2.5875 9 3 9H6.75C7.035 9 7.29 9.165 7.41 9.405C7.8975 8.6475 8.5275 8.0025 9.27 7.5H3C2.5875 7.5 2.25 7.1625 2.25 6.75C2.25 6.3375 2.5875 6 3 6H9.75C10.1625 6 10.5 6.3375 10.5 6.75C10.5 6.7875 10.5 6.8175 10.4925 6.8475C11.19 6.5625 11.955 6.3975 12.75 6.3825V2.0625C12.75 0.9225 11.8275 0 10.6875 0V0ZM6 4.5H3C2.5875 4.5 2.25 4.1625 2.25 3.75C2.25 3.3375 2.5875 3 3 3H6C6.4125 3 6.75 3.3375 6.75 3.75C6.75 4.1625 6.4125 4.5 6 4.5Z" fill="#505D6E" />
        <path d="M12.9375 7.875C10.146 7.875 7.875 10.146 7.875 12.9375C7.875 15.729 10.146 18 12.9375 18C15.729 18 18 15.729 18 12.9375C18 10.146 15.729 7.875 12.9375 7.875ZM14.7803 13.7197C15.0735 14.013 15.0735 14.487 14.7803 14.7803C14.634 14.9265 14.442 15 14.25 15C14.058 15 13.866 14.9265 13.7197 14.7803L12.9375 13.998L12.1553 14.7803C12.009 14.9265 11.817 15 11.625 15C11.433 15 11.241 14.9265 11.0948 14.7803C10.8015 14.487 10.8015 14.013 11.0948 13.7197L11.877 12.9375L11.0948 12.1553C10.8015 11.862 10.8015 11.388 11.0948 11.0948C11.388 10.8015 11.862 10.8015 12.1553 11.0948L12.9375 11.877L13.7197 11.0948C14.013 10.8015 14.487 10.8015 14.7803 11.0948C15.0735 11.388 15.0735 11.862 14.7803 12.1553L13.998 12.9375L14.7803 13.7197Z" fill="#505D6E" />
    </g>
    <defs>
        <clipPath id="clip0_2943_42247">
            <rect width="100%" height="100%" fill="white" />
        </clipPath>
    </defs>
</svg>
    