<svg version="1.1" id="Layer_1" xmlns="http://www.w3.org/2000/svg" x="0" y="0" viewBox="0 0 12 12" style="enable-background:new 0 0 12 12" xml:space="preserve"><style>.st0{fill:#505d6e}</style><path class="st0" d="M7.1 0H1.4C.6 0 0 .6 0 1.4v7.8c0 .8.6 1.4 1.4 1.4h3.3c-.3-.7-.5-1.3-.5-2 0-.6.1-1.1.3-1.6H2c-.3 0-.5-.2-.5-.5S1.7 6 2 6h2.5c.2 0 .4.1.4.3.4-.5.8-1 1.3-1.3H2c-.3 0-.5-.2-.5-.5S1.7 4 2 4h4.5c.3 0 .5.2.5.5v.1c.5-.2 1-.3 1.5-.3V1.4C8.5.6 7.9 0 7.1 0zM4 3H2c-.3 0-.5-.2-.5-.5S1.7 2 2 2h2c.3 0 .5.2.5.5S4.3 3 4 3z"/><path class="st0" d="M8.6 5.2c-1.9 0-3.4 1.5-3.4 3.4S6.8 12 8.6 12 12 10.5 12 8.6s-1.5-3.4-3.4-3.4zm1.3 3.9c.2.2.2.5 0 .7-.1.2-.3.2-.4.2s-.3 0-.4-.1l-.5-.6-.5.6c-.1.1-.2.1-.3.1s-.3 0-.4-.1c-.2-.2-.2-.5 0-.7l.5-.5-.5-.6c-.2-.2-.2-.5 0-.7s.5-.2.7 0l.5.5.5-.5c.2-.2.5-.2.7 0 .2.2.2.5 0 .7l-.5.5.6.5z"/></svg>