<svg viewBox="0 0 12 8" fill="none" xmlns="http://www.w3.org/2000/svg">
<path d="M6 0C4.82828 0.0514501 3.68362 0.411306 2.65791 1.05067C1.6322 1.69003 0.754041 2.59107 0.0939346 3.68147C0.0329586 3.77301 0 3.88433 0 3.99873C0 4.11313 0.0329586 4.22445 0.0939346 4.316C0.753409 5.40728 1.63138 6.30915 2.65718 6.94901C3.68298 7.58887 4.82797 7.94886 6 8C7.17172 7.94855 8.31638 7.58869 9.34209 6.94933C10.3678 6.30997 11.246 5.40893 11.9061 4.31853C11.967 4.22699 12 4.11567 12 4.00127C12 3.88687 11.967 3.77555 11.9061 3.684C11.2466 2.59272 10.3686 1.69085 9.34282 1.05099C8.31702 0.411127 7.17203 0.0511412 6 0ZM6.16424 6.817C5.65541 6.85124 5.14938 6.71032 4.71349 6.413C4.2776 6.11568 3.93252 5.67607 3.72418 5.15266C3.51584 4.62924 3.45412 4.04685 3.54723 3.48299C3.64034 2.91914 3.88386 2.40056 4.2454 1.99626C4.60693 1.59197 5.06932 1.32113 5.57105 1.2198C6.07277 1.11846 6.59002 1.19144 7.05396 1.42902C7.51791 1.66659 7.90655 2.0575 8.16816 2.54971C8.42977 3.04193 8.55194 3.6121 8.51842 4.18437C8.47581 4.86916 8.21362 5.51324 7.7806 5.99686C7.34758 6.48048 6.7732 6.77073 6.16424 6.81363V6.817ZM6.08925 5.51587C5.81568 5.53392 5.54371 5.45786 5.30948 5.29781C5.07526 5.13776 4.88988 4.9013 4.77797 4.61985C4.66607 4.33841 4.63295 4.02531 4.68301 3.72218C4.73307 3.41905 4.86395 3.14025 5.05824 2.92282C5.25253 2.70539 5.50104 2.55962 5.77073 2.50492C6.04042 2.45021 6.31852 2.48915 6.56807 2.61655C6.81762 2.74395 7.0268 2.95378 7.1678 3.21816C7.3088 3.48253 7.37495 3.78893 7.35746 4.09662C7.3364 4.46669 7.19574 4.81531 6.96199 5.07675C6.72823 5.33819 6.41754 5.49438 6.0885 5.51587H6.08925Z" fill="#505D6E"/>
</svg>
