<svg  viewBox="0 0 24 24" fill="currentColor" xmlns="http://www.w3.org/2000/svg">
<path d="M14.5 4.24981C14.5 4.58133 14.3683 4.89927 14.1339 5.13369C13.8995 5.36811 13.5815 5.49981 13.25 5.49981H5.75C5.41848 5.49981 5.10054 5.36811 4.86612 5.13369C4.6317 4.89927 4.5 4.58133 4.5 4.24981C4.50064 4.16589 4.50901 4.0822 4.525 3.99981C4.58263 3.71747 4.73605 3.46371 4.95927 3.28148C5.1825 3.09926 5.46184 2.99975 5.75 2.99981H7.775C7.94903 2.69602 8.2002 2.44358 8.5031 2.26802C8.806 2.09246 9.1499 2 9.5 2C9.8501 2 10.194 2.09246 10.4969 2.26802C10.7998 2.44358 11.051 2.69602 11.225 2.99981H13.25C13.5382 2.99975 13.8175 3.09926 14.0407 3.28148C14.264 3.46371 14.4174 3.71747 14.475 3.99981C14.491 4.0822 14.4994 4.16589 14.5 4.24981Z" fill="currentColor"/>
<path d="M15.5 4.20508V4.25008C15.4991 4.84653 15.2617 5.41829 14.84 5.84005C14.4182 6.2618 13.8465 6.49915 13.25 6.50008H5.75C5.15355 6.49915 4.58179 6.2618 4.16003 5.84005C3.73828 5.41829 3.50093 4.84653 3.5 4.25008V4.20508C3.0547 4.40143 2.67595 4.72278 2.40969 5.13015C2.14343 5.53753 2.00112 6.01341 2 6.50008V19.5001C2 20.1631 2.26339 20.799 2.73223 21.2678C3.20107 21.7367 3.83696 22.0001 4.5 22.0001H14.34C13.4182 21.3532 12.7173 20.4389 12.332 19.3807C11.9468 18.3225 11.8958 17.1716 12.1859 16.0835C12.4761 14.9954 13.0934 14.0227 13.9544 13.2968C14.8154 12.571 15.8785 12.127 17 12.0251V6.50008C16.9989 6.01341 16.8566 5.53753 16.5903 5.13015C16.3241 4.72278 15.9453 4.40143 15.5 4.20508ZM5.5 9.00008H8.5C8.63261 9.00008 8.75979 9.05276 8.85355 9.14652C8.94732 9.24029 9 9.36747 9 9.50008C9 9.63269 8.94732 9.75986 8.85355 9.85363C8.75979 9.9474 8.63261 10.0001 8.5 10.0001H5.5C5.36739 10.0001 5.24021 9.9474 5.14645 9.85363C5.05268 9.75986 5 9.63269 5 9.50008C5 9.36747 5.05268 9.24029 5.14645 9.14652C5.24021 9.05276 5.36739 9.00008 5.5 9.00008ZM11.5 20.0001H5.5C5.36739 20.0001 5.24021 19.9474 5.14645 19.8536C5.05268 19.7599 5 19.6327 5 19.5001C5 19.3675 5.05268 19.2403 5.14645 19.1465C5.24021 19.0528 5.36739 19.0001 5.5 19.0001H11.5C11.6326 19.0001 11.7598 19.0528 11.8536 19.1465C11.9473 19.2403 12 19.3675 12 19.5001C12 19.6327 11.9473 19.7599 11.8536 19.8536C11.7598 19.9474 11.6326 20.0001 11.5 20.0001ZM11.5 17.5001H5.5C5.36739 17.5001 5.24021 17.4474 5.14645 17.3536C5.05268 17.2599 5 17.1327 5 17.0001C5 16.8675 5.05268 16.7403 5.14645 16.6465C5.24021 16.5528 5.36739 16.5001 5.5 16.5001H11.5C11.6326 16.5001 11.7598 16.5528 11.8536 16.6465C11.9473 16.7403 12 16.8675 12 17.0001C12 17.1327 11.9473 17.2599 11.8536 17.3536C11.7598 17.4474 11.6326 17.5001 11.5 17.5001ZM11.5 15.0001H5.5C5.36739 15.0001 5.24021 14.9474 5.14645 14.8536C5.05268 14.7599 5 14.6327 5 14.5001C5 14.3675 5.05268 14.2403 5.14645 14.1465C5.24021 14.0528 5.36739 14.0001 5.5 14.0001H11.5C11.6326 14.0001 11.7598 14.0528 11.8536 14.1465C11.9473 14.2403 12 14.3675 12 14.5001C12 14.6327 11.9473 14.7599 11.8536 14.8536C11.7598 14.9474 11.6326 15.0001 11.5 15.0001ZM11.5 12.5001H5.5C5.36739 12.5001 5.24021 12.4474 5.14645 12.3536C5.05268 12.2599 5 12.1327 5 12.0001C5 11.8675 5.05268 11.7403 5.14645 11.6465C5.24021 11.5528 5.36739 11.5001 5.5 11.5001H11.5C11.6326 11.5001 11.7598 11.5528 11.8536 11.6465C11.9473 11.7403 12 11.8675 12 12.0001C12 12.1327 11.9473 12.2599 11.8536 12.3536C11.7598 12.4474 11.6326 12.5001 11.5 12.5001Z" fill="currentColor"/>
<path d="M20.5005 14.15C19.6767 13.4095 18.6082 12.9999 17.5005 13C17.3334 12.9999 17.1664 13.0099 17.0005 13.03C16.0857 13.1352 15.2252 13.5184 14.5349 14.1277C13.8446 14.7371 13.3576 15.5434 13.1397 16.4381C12.9217 17.3327 12.9833 18.2727 13.316 19.1313C13.6487 19.9899 14.2366 20.7258 15.0005 21.24C15.2429 21.402 15.5008 21.5394 15.7705 21.65C16.3179 21.8814 16.9062 22.0004 17.5005 22C18.4117 22.0007 19.3016 21.7245 20.0523 21.2081C20.803 20.6918 21.3792 19.9595 21.7045 19.1084C22.0298 18.2572 22.0888 17.3273 21.8738 16.4419C21.6588 15.5564 21.1799 14.7572 20.5005 14.15ZM17.5005 17C17.8523 17.0027 18.1919 17.129 18.46 17.3568C18.7281 17.5845 18.9076 17.8992 18.9672 18.2459C19.0268 18.5926 18.9626 18.9493 18.7859 19.2534C18.6092 19.5576 18.3312 19.79 18.0005 19.91V20.5C18.0005 20.6326 17.9478 20.7598 17.8541 20.8536C17.7603 20.9473 17.6331 21 17.5005 21C17.3679 21 17.2407 20.9473 17.147 20.8536C17.0532 20.7598 17.0005 20.6326 17.0005 20.5V19.91C16.9905 19.905 16.9755 19.9 16.9655 19.895C16.6827 19.787 16.4391 19.596 16.2669 19.347C16.0947 19.098 16.0018 18.8027 16.0005 18.5C16.0005 18.3674 16.0532 18.2402 16.147 18.1464C16.2407 18.0527 16.3679 18 16.5005 18C16.6331 18 16.7603 18.0527 16.8541 18.1464C16.9478 18.2402 17.0005 18.3674 17.0005 18.5C17.0005 18.5989 17.0298 18.6956 17.0848 18.7778C17.1397 18.86 17.2178 18.9241 17.3092 18.9619C17.4005 18.9998 17.5011 19.0097 17.5981 18.9904C17.6951 18.9711 17.7841 18.9235 17.8541 18.8536C17.924 18.7836 17.9716 18.6945 17.9909 18.5975C18.0102 18.5006 18.0003 18.4 17.9625 18.3087C17.9246 18.2173 17.8605 18.1392 17.7783 18.0843C17.6961 18.0293 17.5994 18 17.5005 18C17.3297 18.0011 17.1602 17.9706 17.0005 17.91C16.7082 17.8076 16.455 17.6169 16.2758 17.3643C16.0967 17.1117 16.0004 16.8097 16.0004 16.5C16.0004 16.1903 16.0967 15.8883 16.2758 15.6357C16.455 15.3831 16.7082 15.1924 17.0005 15.09V14.5C17.0005 14.3674 17.0532 14.2402 17.147 14.1464C17.2407 14.0527 17.3679 14 17.5005 14C17.6331 14 17.7603 14.0527 17.8541 14.1464C17.9478 14.2402 18.0005 14.3674 18.0005 14.5V15.09C18.2923 15.1932 18.545 15.384 18.724 15.6365C18.9031 15.8889 18.9996 16.1905 19.0005 16.5C19.0005 16.6326 18.9478 16.7598 18.8541 16.8536C18.7603 16.9473 18.6331 17 18.5005 17C18.3679 17 18.2407 16.9473 18.147 16.8536C18.0532 16.7598 18.0005 16.6326 18.0005 16.5C18.0005 16.4011 17.9712 16.3044 17.9162 16.2222C17.8613 16.14 17.7832 16.0759 17.6919 16.0381C17.6005 16.0002 17.5 15.9903 17.403 16.0096C17.306 16.0289 17.2169 16.0765 17.147 16.1464C17.077 16.2164 17.0294 16.3055 17.0101 16.4025C16.9908 16.4994 17.0007 16.6 17.0386 16.6913C17.0764 16.7827 17.1405 16.8608 17.2227 16.9157C17.305 16.9707 17.4016 17 17.5005 17Z" fill="currentColor"/>
</svg>
