<svg viewBox="0 0 280 171" fill="none" xmlns="http://www.w3.org/2000/svg">
<path d="M274.4 0H5.6C2.50721 0 0 2.25174 0 5.02941V165.971C0 168.748 2.50721 171 5.6 171H274.4C277.493 171 280 168.748 280 165.971V5.02941C280 2.25174 277.493 0 274.4 0Z" fill="#F6F8FE"/>
<path d="M274.4 0.628662H5.59995C2.89376 0.628662 0.699951 2.59894 0.699951 5.0294V165.971C0.699951 168.401 2.89376 170.371 5.59995 170.371H274.4C277.106 170.371 279.3 168.401 279.3 165.971V5.0294C279.3 2.59894 277.106 0.628662 274.4 0.628662Z" stroke="#6667AB"/>
<path d="M117.628 54.728C117.297 54.7568 116.992 54.9154 116.778 55.1692C116.564 55.423 116.459 55.7513 116.487 56.082L116.6 57.436C116.628 57.7486 116.773 58.0393 117.005 58.2505C117.237 58.4618 117.54 58.5783 117.854 58.577H117.966C118.131 58.5628 118.291 58.5161 118.438 58.4397C118.585 58.3632 118.715 58.2585 118.821 58.1315C118.927 58.0046 119.007 57.8578 119.056 57.6999C119.105 57.5419 119.122 57.3757 119.107 57.211L118.982 55.87C118.954 55.5392 118.795 55.2331 118.541 55.0191C118.287 54.805 117.959 54.7003 117.628 54.728V54.728Z" fill="#6667AB"/>
<path d="M166.015 79.097L162.994 76.078C164.92 73.8853 166.192 71.1967 166.666 68.3175C167.141 65.4382 166.798 62.4836 165.678 59.789C164.558 57.0944 162.705 54.7679 160.329 53.0734C157.954 51.379 155.15 50.3845 152.238 50.203L152.338 47.796C152.357 47.3971 152.296 46.9986 152.159 46.6233C152.023 46.2481 151.813 45.9037 151.543 45.6099C151.272 45.3162 150.947 45.0789 150.584 44.9119C150.221 44.7449 149.829 44.6515 149.43 44.637L123.77 43.459C123.372 43.4388 122.974 43.4975 122.599 43.6317C122.224 43.7658 121.88 43.9729 121.585 44.2408C121.29 44.5088 121.051 44.8323 120.882 45.1929C120.713 45.5535 120.617 45.944 120.599 46.342L120.436 50.002L114.582 50.516C113.786 50.5825 113.049 50.9614 112.532 51.5699C112.015 52.1783 111.76 52.9668 111.822 53.763L115.583 96.196C115.656 96.9958 116.042 97.7343 116.657 98.2508C117.272 98.7673 118.067 99.0201 118.867 98.954L136.191 97.437L141.907 103.216C142.317 103.624 142.827 103.918 143.386 104.068C143.943 104.218 144.529 104.218 145.086 104.068L160.429 99.956C160.985 99.8077 161.493 99.5151 161.9 99.108C162.307 98.7008 162.6 98.1934 162.748 97.637L166.86 82.306C167.012 81.7439 167.013 81.1519 166.865 80.5889C166.717 80.0259 166.424 79.5115 166.015 79.097ZM161.239 74.321L159.622 72.704C160.149 72.0584 160.603 71.3565 160.976 70.611L163.132 71.376C162.631 72.4353 161.995 73.4253 161.239 74.321ZM151.939 57.521C153.44 57.6366 154.882 58.1568 156.112 59.0262C157.341 59.8956 158.312 61.0817 158.921 62.4587C159.531 63.8356 159.756 65.3518 159.573 66.8464C159.389 68.3409 158.805 69.758 157.881 70.947L154.822 67.89C154.411 67.4832 153.902 67.1906 153.343 67.0412C152.785 66.8918 152.197 66.8907 151.638 67.038H151.5L151.939 57.521ZM163.984 69.031L161.853 68.266C162.08 67.208 162.156 66.1232 162.079 65.044L164.31 64.644C164.44 66.1081 164.317 67.5836 163.946 69.006L163.984 69.031ZM163.909 62.249L161.653 62.663C161.341 61.6505 160.885 60.688 160.299 59.805L161.966 58.288C162.818 59.4836 163.462 60.8142 163.871 62.224L163.909 62.249ZM156.851 53.938C158.176 54.5708 159.387 55.4178 160.436 56.445L158.682 57.937C157.904 57.2164 157.026 56.6125 156.075 56.144L156.851 53.938ZM154.445 53.078L153.68 55.234C153.131 55.1184 152.573 55.0472 152.013 55.021L152.113 52.765C152.898 52.798 153.679 52.9028 154.445 53.078ZM123.106 46.455C123.109 46.3859 123.126 46.3181 123.156 46.2555C123.185 46.193 123.227 46.1369 123.278 46.0904C123.33 46.044 123.39 46.0081 123.455 45.9849C123.52 45.9616 123.589 45.9515 123.658 45.955L149.343 47.207C149.411 47.2087 149.479 47.2242 149.541 47.2524C149.604 47.2806 149.66 47.321 149.706 47.3712C149.753 47.4214 149.789 47.4804 149.813 47.5448C149.836 47.6092 149.846 47.6775 149.843 47.746L148.915 67.803L147.661 68.141L146.161 50.892C146.088 50.0921 145.702 49.3536 145.087 48.8371C144.472 48.3206 143.677 48.0679 142.877 48.134L122.955 49.802L123.106 46.455ZM118.606 96.497C118.47 96.5077 118.336 96.4653 118.23 96.3788C118.125 96.2923 118.058 96.1683 118.042 96.033L114.331 53.6C114.32 53.4623 114.364 53.326 114.454 53.2205C114.543 53.1149 114.67 53.0487 114.807 53.036L143.1 50.529C143.168 50.5238 143.235 50.532 143.3 50.5531C143.364 50.5743 143.424 50.608 143.475 50.6522C143.526 50.6964 143.568 50.7504 143.599 50.8109C143.629 50.8714 143.647 50.9374 143.652 51.005L145.206 68.705L141.022 69.821C140.715 69.4189 140.366 69.0502 139.982 68.721L130.631 60.911C130.505 60.8046 130.36 60.7242 130.202 60.6742C130.045 60.6242 129.88 60.6056 129.716 60.6195C129.552 60.6334 129.392 60.6796 129.246 60.7554C129.099 60.8311 128.969 60.9349 128.863 61.061L121.012 70.398C119.884 71.7189 119.308 73.4235 119.404 75.1579C119.5 76.8922 120.26 78.5231 121.526 79.712C122.299 80.3985 123.222 80.8944 124.221 81.1599C125.221 81.4254 126.268 81.4532 127.28 81.241C126.946 81.8636 126.522 82.4337 126.022 82.933C125.843 83.1051 125.718 83.3265 125.664 83.5693C125.61 83.8121 125.629 84.0655 125.719 84.2974C125.809 84.5293 125.965 84.7295 126.169 84.8727C126.372 85.0158 126.613 85.0956 126.862 85.102H126.975L130.848 84.764L129.808 88.864C129.666 89.4105 129.667 89.9842 129.809 90.5305C129.952 91.0768 130.232 91.5775 130.623 91.985L133.845 95.131L118.606 96.497ZM131.58 82.178L129.537 82.353C129.679 82.1131 129.809 81.8661 129.926 81.613C130.122 81.2267 130.196 80.7905 130.14 80.3612C130.085 79.9319 129.901 79.5294 129.613 79.206C129.333 78.8905 128.965 78.666 128.556 78.561C128.147 78.4561 127.717 78.4756 127.319 78.617C126.627 78.8715 125.88 78.9336 125.156 78.7968C124.432 78.6599 123.758 78.3293 123.207 77.84C122.426 77.0855 121.965 76.0602 121.918 74.9755C121.872 73.8909 122.243 72.8297 122.956 72.011L129.988 63.625L138.274 70.582L136.256 71.121C135.696 71.2709 135.186 71.5657 134.776 71.9756C134.366 72.3855 134.072 72.8961 133.922 73.456L131.58 82.178ZM160.336 96.973C160.3 97.1081 160.228 97.2313 160.129 97.3303C160.03 97.4292 159.907 97.5005 159.772 97.537L144.416 101.649C144.28 101.676 144.139 101.667 144.007 101.623C143.875 101.579 143.757 101.502 143.664 101.398L132.445 90.116C132.343 90.0201 132.269 89.8981 132.231 89.7633C132.194 89.6284 132.194 89.4858 132.232 89.351L136.343 74.008C136.379 73.8728 136.451 73.7496 136.55 73.6507C136.649 73.5517 136.772 73.4804 136.907 73.444L152.238 69.433C152.37 69.4017 152.507 69.4017 152.638 69.433C152.776 69.4713 152.901 69.5447 153.002 69.646L164.285 80.927C164.386 81.0235 164.459 81.1456 164.497 81.2802C164.534 81.4148 164.535 81.5571 164.498 81.692L160.336 96.973Z" fill="#6667AB"/>
<path d="M148.177 83.5721L141.646 77.0541C141.408 76.8254 141.09 76.6987 140.759 76.701C140.429 76.7032 140.113 76.8342 139.878 77.0661C139.643 77.298 139.507 77.6125 139.5 77.9426C139.493 78.2728 139.616 78.5926 139.841 78.8341L146.372 85.3521C146.545 85.5294 146.669 85.7482 146.733 85.9874C146.797 86.2267 146.798 86.4783 146.736 86.7181L144.342 95.6311C144.299 95.7908 144.287 95.9575 144.308 96.1216C144.33 96.2858 144.383 96.4441 144.466 96.5874C144.549 96.7308 144.659 96.8563 144.79 96.9569C144.922 97.0574 145.072 97.1309 145.232 97.1731C145.34 97.1861 145.45 97.1861 145.558 97.1731C145.841 97.1828 146.119 97.0963 146.347 96.9278C146.575 96.7593 146.739 96.5187 146.812 96.2451L149.206 87.3321C149.378 86.6701 149.374 85.9745 149.193 85.3147C149.013 84.655 148.662 84.0541 148.177 83.5721V83.5721Z" fill="#6667AB"/>
<path d="M159.948 82.4309C159.86 82.113 159.65 81.8426 159.364 81.6784C159.077 81.5143 158.738 81.4695 158.419 81.5539L152.619 83.0959C152.324 83.1786 152.069 83.3662 151.902 83.6235C151.736 83.8808 151.669 84.19 151.714 84.4932C151.76 84.7963 151.914 85.0725 152.149 85.2699C152.383 85.4672 152.682 85.5721 152.988 85.5649C153.096 85.5772 153.206 85.5772 153.314 85.5649L159.105 84.0109C159.265 83.9636 159.413 83.885 159.542 83.7797C159.671 83.6744 159.778 83.5445 159.856 83.3975C159.934 83.2505 159.982 83.0894 159.998 82.9236C160.013 82.7579 159.995 82.5907 159.945 82.4319L159.948 82.4309Z" fill="#6667AB"/>
<path d="M139.979 92.485C139.873 92.9779 139.885 93.489 140.016 93.976C140.147 94.4629 140.392 94.9117 140.731 95.285C141.383 95.949 142.11 95.761 142.348 94.859C142.454 94.3661 142.441 93.855 142.311 93.368C142.18 92.8811 141.935 92.4323 141.596 92.059C140.944 91.369 140.217 91.595 139.979 92.485Z" fill="#6667AB"/>
<path d="M139.063 83.3709C139.169 82.878 139.156 82.3669 139.026 81.8799C138.895 81.393 138.65 80.9442 138.311 80.5709C137.659 79.9189 136.932 80.1069 136.694 80.9969C136.588 81.4898 136.6 82.0009 136.731 82.4879C136.862 82.9748 137.107 83.4236 137.446 83.7969C138.148 84.4609 138.825 84.2729 139.063 83.3709Z" fill="#6667AB"/>
<path d="M140.655 89.1131C140.761 88.6202 140.748 88.1091 140.618 87.6221C140.487 87.1352 140.242 86.6864 139.903 86.3131C139.251 85.6611 138.524 85.8491 138.286 86.7391C138.18 87.232 138.192 87.7431 138.323 88.2301C138.454 88.717 138.699 89.1658 139.038 89.5391C139.74 90.2031 140.467 90.0151 140.655 89.1131Z" fill="#6667AB"/>
<path d="M151.938 77.9181C152.11 77.888 152.268 77.8083 152.395 77.6889C152.522 77.5694 152.611 77.4154 152.651 77.246C152.691 77.0765 152.68 76.899 152.62 76.7355C152.56 76.572 152.454 76.4297 152.314 76.3261C151.94 75.988 151.491 75.7436 151.005 75.6129C150.518 75.4821 150.007 75.4688 149.514 75.5741C149.328 75.5832 149.15 75.6514 149.005 75.7687C148.86 75.886 148.756 76.0464 148.709 76.2266C148.662 76.4068 148.673 76.5974 148.741 76.7708C148.809 76.9442 148.931 77.0914 149.088 77.1911C149.469 77.5328 149.926 77.7774 150.422 77.904C150.917 78.0306 151.436 78.0354 151.934 77.9181H151.938Z" fill="#6667AB"/>
<path d="M159.459 86.2551C158.98 86.4117 158.545 86.6797 158.19 87.0371C157.835 87.3945 157.57 87.8312 157.416 88.3111C157.178 89.2011 157.716 89.7281 158.67 89.4891C159.148 89.3313 159.583 89.0629 159.938 88.7056C160.293 88.3484 160.558 87.9124 160.713 87.4331C160.934 86.5431 160.399 86.0161 159.459 86.2551Z" fill="#6667AB"/>
<path d="M150.905 94.5661C150.428 94.7225 149.995 94.989 149.64 95.3439C149.285 95.6988 149.018 96.1322 148.862 96.6091C148.624 97.4991 149.162 98.0261 150.116 97.7871C150.596 97.6335 151.033 97.3683 151.39 97.0131C151.747 96.6579 152.015 96.223 152.172 95.7441C152.351 94.8421 151.812 94.3281 150.905 94.5661Z" fill="#6667AB"/>
<path d="M88.5107 127.044V130.688C88.3877 130.87 88.1917 131.075 87.9229 131.303C87.654 131.526 87.2826 131.722 86.8086 131.891C86.3392 132.055 85.7331 132.137 84.9902 132.137C84.3841 132.137 83.8258 132.032 83.3154 131.822C82.8096 131.608 82.3698 131.298 81.9961 130.893C81.627 130.482 81.3398 129.986 81.1348 129.402C80.9342 128.814 80.834 128.149 80.834 127.406V126.634C80.834 125.891 80.9206 125.228 81.0938 124.645C81.2715 124.061 81.5312 123.567 81.873 123.161C82.2148 122.751 82.6341 122.441 83.1309 122.231C83.6276 122.017 84.1973 121.91 84.8398 121.91C85.6009 121.91 86.2367 122.042 86.7471 122.307C87.262 122.566 87.6631 122.926 87.9502 123.387C88.2419 123.847 88.4287 124.371 88.5107 124.959H87.1914C87.1322 124.599 87.0137 124.271 86.8359 123.975C86.6628 123.678 86.4144 123.441 86.0908 123.264C85.7673 123.081 85.3503 122.99 84.8398 122.99C84.3796 122.99 83.9808 123.075 83.6436 123.243C83.3063 123.412 83.0283 123.653 82.8096 123.968C82.5908 124.282 82.4268 124.663 82.3174 125.109C82.2126 125.556 82.1602 126.06 82.1602 126.62V127.406C82.1602 127.98 82.2262 128.493 82.3584 128.944C82.4951 129.396 82.6888 129.781 82.9395 130.1C83.1901 130.414 83.4886 130.653 83.835 130.817C84.1859 130.981 84.5732 131.063 84.9971 131.063C85.4665 131.063 85.847 131.025 86.1387 130.947C86.4303 130.865 86.6582 130.77 86.8223 130.66C86.9863 130.546 87.1117 130.439 87.1982 130.339V128.11H84.8945V127.044H88.5107ZM94.8682 130.735V126.928C94.8682 126.636 94.8089 126.383 94.6904 126.169C94.5765 125.95 94.4033 125.782 94.1709 125.663C93.9385 125.545 93.6514 125.485 93.3096 125.485C92.9906 125.485 92.7103 125.54 92.4688 125.649C92.2318 125.759 92.0449 125.902 91.9082 126.08C91.776 126.258 91.71 126.449 91.71 126.654H90.4453C90.4453 126.39 90.5137 126.128 90.6504 125.868C90.7871 125.608 90.9831 125.374 91.2383 125.164C91.498 124.95 91.8079 124.781 92.168 124.658C92.5326 124.531 92.9382 124.467 93.3848 124.467C93.9225 124.467 94.3965 124.558 94.8066 124.74C95.2214 124.923 95.5449 125.198 95.7773 125.567C96.0143 125.932 96.1328 126.39 96.1328 126.941V130.387C96.1328 130.633 96.1533 130.895 96.1943 131.173C96.2399 131.451 96.306 131.69 96.3926 131.891V132H95.0732C95.0094 131.854 94.9593 131.66 94.9229 131.419C94.8864 131.173 94.8682 130.945 94.8682 130.735ZM95.0869 127.516L95.1006 128.404H93.8223C93.4622 128.404 93.141 128.434 92.8584 128.493C92.5758 128.548 92.3389 128.632 92.1475 128.746C91.9561 128.86 91.8102 129.004 91.71 129.177C91.6097 129.345 91.5596 129.544 91.5596 129.771C91.5596 130.004 91.612 130.216 91.7168 130.407C91.8216 130.599 91.9788 130.751 92.1885 130.865C92.4027 130.975 92.6647 131.029 92.9746 131.029C93.362 131.029 93.7038 130.947 94 130.783C94.2962 130.619 94.5309 130.419 94.7041 130.182C94.8818 129.945 94.9775 129.715 94.9912 129.491L95.5312 130.1C95.4993 130.291 95.4128 130.503 95.2715 130.735C95.1302 130.968 94.9411 131.191 94.7041 131.405C94.4717 131.615 94.1937 131.79 93.8701 131.932C93.5511 132.068 93.1911 132.137 92.79 132.137C92.2887 132.137 91.849 132.039 91.4707 131.843C91.097 131.647 90.8053 131.385 90.5957 131.057C90.3906 130.724 90.2881 130.353 90.2881 129.942C90.2881 129.546 90.3656 129.197 90.5205 128.896C90.6755 128.591 90.8988 128.338 91.1904 128.138C91.4821 127.933 91.833 127.778 92.2432 127.673C92.6533 127.568 93.1113 127.516 93.6172 127.516H95.0869ZM99.3799 126.073V132H98.1084V124.604H99.3115L99.3799 126.073ZM99.1201 128.021L98.5322 128.001C98.5368 127.495 98.6029 127.028 98.7305 126.6C98.8581 126.167 99.0472 125.791 99.2979 125.472C99.5485 125.153 99.8607 124.907 100.234 124.733C100.608 124.556 101.041 124.467 101.533 124.467C101.88 124.467 102.199 124.517 102.49 124.617C102.782 124.713 103.035 124.866 103.249 125.075C103.463 125.285 103.63 125.554 103.748 125.882C103.867 126.21 103.926 126.606 103.926 127.071V132H102.661V127.133C102.661 126.745 102.595 126.436 102.463 126.203C102.335 125.971 102.153 125.802 101.916 125.697C101.679 125.588 101.401 125.533 101.082 125.533C100.708 125.533 100.396 125.599 100.146 125.731C99.8949 125.864 99.6943 126.046 99.5439 126.278C99.3936 126.511 99.2842 126.777 99.2158 127.078C99.152 127.374 99.1201 127.689 99.1201 128.021ZM103.912 127.324L103.064 127.584C103.069 127.178 103.135 126.789 103.263 126.415C103.395 126.041 103.584 125.709 103.83 125.417C104.081 125.125 104.388 124.895 104.753 124.727C105.118 124.553 105.535 124.467 106.004 124.467C106.4 124.467 106.751 124.519 107.057 124.624C107.367 124.729 107.626 124.891 107.836 125.109C108.05 125.324 108.212 125.599 108.321 125.937C108.431 126.274 108.485 126.675 108.485 127.14V132H107.214V127.126C107.214 126.711 107.148 126.39 107.016 126.162C106.888 125.93 106.706 125.768 106.469 125.677C106.236 125.581 105.958 125.533 105.635 125.533C105.357 125.533 105.111 125.581 104.896 125.677C104.682 125.772 104.502 125.905 104.356 126.073C104.211 126.237 104.099 126.426 104.021 126.641C103.949 126.855 103.912 127.083 103.912 127.324ZM110.393 121.5H111.664V130.564L111.555 132H110.393V121.5ZM116.661 128.24V128.384C116.661 128.922 116.597 129.421 116.47 129.881C116.342 130.337 116.155 130.733 115.909 131.07C115.663 131.408 115.362 131.67 115.007 131.856C114.651 132.043 114.243 132.137 113.783 132.137C113.314 132.137 112.901 132.057 112.546 131.897C112.195 131.733 111.899 131.499 111.657 131.193C111.416 130.888 111.222 130.519 111.076 130.086C110.935 129.653 110.837 129.165 110.782 128.623V127.994C110.837 127.447 110.935 126.957 111.076 126.524C111.222 126.091 111.416 125.722 111.657 125.417C111.899 125.107 112.195 124.872 112.546 124.713C112.897 124.549 113.305 124.467 113.77 124.467C114.234 124.467 114.647 124.558 115.007 124.74C115.367 124.918 115.668 125.173 115.909 125.506C116.155 125.839 116.342 126.237 116.47 126.702C116.597 127.162 116.661 127.675 116.661 128.24ZM115.39 128.384V128.24C115.39 127.871 115.355 127.525 115.287 127.201C115.219 126.873 115.109 126.586 114.959 126.34C114.809 126.089 114.61 125.893 114.364 125.752C114.118 125.606 113.815 125.533 113.455 125.533C113.136 125.533 112.858 125.588 112.621 125.697C112.389 125.807 112.19 125.955 112.026 126.142C111.862 126.324 111.728 126.534 111.623 126.771C111.523 127.003 111.448 127.244 111.397 127.495V129.143C111.47 129.462 111.589 129.769 111.753 130.065C111.922 130.357 112.145 130.596 112.423 130.783C112.705 130.97 113.054 131.063 113.469 131.063C113.811 131.063 114.102 130.995 114.344 130.858C114.59 130.717 114.788 130.523 114.938 130.277C115.093 130.031 115.207 129.746 115.28 129.423C115.353 129.099 115.39 128.753 115.39 128.384ZM119.635 121.5V132H118.363V121.5H119.635ZM123.039 124.604V132H121.768V124.604H123.039ZM121.672 122.642C121.672 122.437 121.733 122.263 121.856 122.122C121.984 121.981 122.171 121.91 122.417 121.91C122.659 121.91 122.843 121.981 122.971 122.122C123.103 122.263 123.169 122.437 123.169 122.642C123.169 122.838 123.103 123.006 122.971 123.147C122.843 123.284 122.659 123.353 122.417 123.353C122.171 123.353 121.984 123.284 121.856 123.147C121.733 123.006 121.672 122.838 121.672 122.642ZM126.334 126.183V132H125.069V124.604H126.266L126.334 126.183ZM126.033 128.021L125.507 128.001C125.511 127.495 125.587 127.028 125.732 126.6C125.878 126.167 126.083 125.791 126.348 125.472C126.612 125.153 126.926 124.907 127.291 124.733C127.66 124.556 128.068 124.467 128.515 124.467C128.879 124.467 129.207 124.517 129.499 124.617C129.791 124.713 130.039 124.868 130.244 125.082C130.454 125.296 130.613 125.574 130.723 125.916C130.832 126.253 130.887 126.666 130.887 127.153V132H129.615V127.14C129.615 126.752 129.558 126.442 129.444 126.21C129.33 125.973 129.164 125.802 128.945 125.697C128.727 125.588 128.458 125.533 128.139 125.533C127.824 125.533 127.537 125.599 127.277 125.731C127.022 125.864 126.801 126.046 126.614 126.278C126.432 126.511 126.288 126.777 126.184 127.078C126.083 127.374 126.033 127.689 126.033 128.021ZM137.6 124.604H138.748V131.843C138.748 132.494 138.616 133.05 138.352 133.511C138.087 133.971 137.718 134.32 137.244 134.557C136.775 134.798 136.232 134.919 135.617 134.919C135.362 134.919 135.061 134.878 134.715 134.796C134.373 134.718 134.036 134.584 133.703 134.393C133.375 134.206 133.099 133.953 132.876 133.634L133.539 132.882C133.849 133.256 134.173 133.515 134.51 133.661C134.852 133.807 135.189 133.88 135.521 133.88C135.923 133.88 136.269 133.805 136.561 133.654C136.852 133.504 137.078 133.281 137.237 132.984C137.401 132.693 137.483 132.333 137.483 131.904V126.23L137.6 124.604ZM132.507 128.384V128.24C132.507 127.675 132.573 127.162 132.705 126.702C132.842 126.237 133.035 125.839 133.286 125.506C133.541 125.173 133.849 124.918 134.209 124.74C134.569 124.558 134.975 124.467 135.426 124.467C135.891 124.467 136.296 124.549 136.643 124.713C136.993 124.872 137.29 125.107 137.531 125.417C137.777 125.722 137.971 126.091 138.112 126.524C138.254 126.957 138.352 127.447 138.406 127.994V128.623C138.356 129.165 138.258 129.653 138.112 130.086C137.971 130.519 137.777 130.888 137.531 131.193C137.29 131.499 136.993 131.733 136.643 131.897C136.292 132.057 135.882 132.137 135.412 132.137C134.97 132.137 134.569 132.043 134.209 131.856C133.854 131.67 133.548 131.408 133.293 131.07C133.038 130.733 132.842 130.337 132.705 129.881C132.573 129.421 132.507 128.922 132.507 128.384ZM133.771 128.24V128.384C133.771 128.753 133.808 129.099 133.881 129.423C133.958 129.746 134.075 130.031 134.229 130.277C134.389 130.523 134.592 130.717 134.838 130.858C135.084 130.995 135.378 131.063 135.72 131.063C136.139 131.063 136.485 130.975 136.759 130.797C137.032 130.619 137.249 130.384 137.408 130.093C137.572 129.801 137.7 129.484 137.791 129.143V127.495C137.741 127.244 137.663 127.003 137.559 126.771C137.458 126.534 137.326 126.324 137.162 126.142C137.003 125.955 136.804 125.807 136.567 125.697C136.33 125.588 136.052 125.533 135.733 125.533C135.387 125.533 135.089 125.606 134.838 125.752C134.592 125.893 134.389 126.089 134.229 126.34C134.075 126.586 133.958 126.873 133.881 127.201C133.808 127.525 133.771 127.871 133.771 128.24ZM145.98 126.477L147.471 125.417C147.758 125.221 147.979 125.025 148.134 124.829C148.293 124.629 148.373 124.355 148.373 124.009C148.373 123.74 148.268 123.496 148.059 123.277C147.849 123.054 147.553 122.942 147.17 122.942C146.906 122.942 146.682 123.004 146.5 123.127C146.318 123.25 146.181 123.414 146.09 123.619C145.999 123.82 145.953 124.041 145.953 124.282C145.953 124.487 146.003 124.699 146.104 124.918C146.204 125.137 146.343 125.365 146.521 125.602C146.698 125.839 146.901 126.089 147.129 126.354L151.839 132H150.321L146.459 127.379C146.117 126.978 145.812 126.611 145.543 126.278C145.274 125.941 145.062 125.615 144.907 125.301C144.757 124.986 144.682 124.66 144.682 124.323C144.682 123.804 144.784 123.366 144.989 123.011C145.199 122.651 145.491 122.377 145.864 122.19C146.238 122.004 146.675 121.91 147.177 121.91C147.664 121.91 148.084 122.008 148.435 122.204C148.79 122.396 149.063 122.651 149.255 122.97C149.446 123.284 149.542 123.631 149.542 124.009C149.542 124.328 149.485 124.615 149.371 124.87C149.257 125.121 149.098 125.351 148.893 125.561C148.692 125.77 148.457 125.975 148.188 126.176L146.213 127.646C145.885 127.887 145.646 128.117 145.495 128.336C145.345 128.555 145.247 128.748 145.201 128.917C145.16 129.086 145.14 129.22 145.14 129.32C145.14 129.644 145.21 129.94 145.352 130.209C145.493 130.478 145.707 130.694 145.994 130.858C146.286 131.018 146.65 131.098 147.088 131.098C147.471 131.098 147.842 131.011 148.202 130.838C148.567 130.66 148.893 130.41 149.18 130.086C149.467 129.758 149.695 129.368 149.863 128.917C150.036 128.461 150.123 127.958 150.123 127.406H151.258C151.258 127.857 151.215 128.284 151.128 128.685C151.041 129.086 150.907 129.459 150.725 129.806C150.547 130.147 150.319 130.46 150.041 130.742C150 130.783 149.968 130.831 149.945 130.886C149.923 130.94 149.891 130.988 149.85 131.029C149.508 131.398 149.086 131.676 148.585 131.863C148.088 132.046 147.589 132.137 147.088 132.137C146.427 132.137 145.855 132.016 145.372 131.774C144.894 131.533 144.524 131.2 144.265 130.776C144.005 130.353 143.875 129.867 143.875 129.32C143.875 128.901 143.964 128.532 144.142 128.213C144.324 127.894 144.572 127.595 144.887 127.317C145.206 127.039 145.57 126.759 145.98 126.477ZM162.523 128.835H163.836C163.768 129.464 163.588 130.027 163.296 130.523C163.004 131.02 162.592 131.414 162.059 131.706C161.525 131.993 160.86 132.137 160.062 132.137C159.479 132.137 158.948 132.027 158.47 131.809C157.996 131.59 157.588 131.28 157.246 130.879C156.904 130.473 156.64 129.988 156.453 129.423C156.271 128.853 156.18 128.22 156.18 127.522V126.531C156.18 125.834 156.271 125.203 156.453 124.638C156.64 124.068 156.907 123.58 157.253 123.175C157.604 122.769 158.025 122.457 158.518 122.238C159.01 122.02 159.563 121.91 160.179 121.91C160.931 121.91 161.566 122.051 162.086 122.334C162.605 122.617 163.009 123.008 163.296 123.51C163.588 124.007 163.768 124.583 163.836 125.239H162.523C162.46 124.774 162.341 124.376 162.168 124.043C161.995 123.706 161.749 123.446 161.43 123.264C161.111 123.081 160.694 122.99 160.179 122.99C159.737 122.99 159.347 123.075 159.01 123.243C158.677 123.412 158.397 123.651 158.169 123.961C157.946 124.271 157.777 124.642 157.663 125.075C157.549 125.508 157.492 125.989 157.492 126.518V127.522C157.492 128.01 157.542 128.468 157.643 128.896C157.747 129.325 157.905 129.701 158.114 130.024C158.324 130.348 158.59 130.603 158.914 130.79C159.238 130.972 159.62 131.063 160.062 131.063C160.623 131.063 161.07 130.975 161.402 130.797C161.735 130.619 161.986 130.364 162.154 130.031C162.327 129.699 162.451 129.3 162.523 128.835ZM169.804 130.735V126.928C169.804 126.636 169.744 126.383 169.626 126.169C169.512 125.95 169.339 125.782 169.106 125.663C168.874 125.545 168.587 125.485 168.245 125.485C167.926 125.485 167.646 125.54 167.404 125.649C167.167 125.759 166.98 125.902 166.844 126.08C166.712 126.258 166.646 126.449 166.646 126.654H165.381C165.381 126.39 165.449 126.128 165.586 125.868C165.723 125.608 165.919 125.374 166.174 125.164C166.434 124.95 166.743 124.781 167.104 124.658C167.468 124.531 167.874 124.467 168.32 124.467C168.858 124.467 169.332 124.558 169.742 124.74C170.157 124.923 170.48 125.198 170.713 125.567C170.95 125.932 171.068 126.39 171.068 126.941V130.387C171.068 130.633 171.089 130.895 171.13 131.173C171.175 131.451 171.242 131.69 171.328 131.891V132H170.009C169.945 131.854 169.895 131.66 169.858 131.419C169.822 131.173 169.804 130.945 169.804 130.735ZM170.022 127.516L170.036 128.404H168.758C168.398 128.404 168.076 128.434 167.794 128.493C167.511 128.548 167.274 128.632 167.083 128.746C166.892 128.86 166.746 129.004 166.646 129.177C166.545 129.345 166.495 129.544 166.495 129.771C166.495 130.004 166.548 130.216 166.652 130.407C166.757 130.599 166.914 130.751 167.124 130.865C167.338 130.975 167.6 131.029 167.91 131.029C168.298 131.029 168.639 130.947 168.936 130.783C169.232 130.619 169.466 130.419 169.64 130.182C169.817 129.945 169.913 129.715 169.927 129.491L170.467 130.1C170.435 130.291 170.348 130.503 170.207 130.735C170.066 130.968 169.877 131.191 169.64 131.405C169.407 131.615 169.129 131.79 168.806 131.932C168.487 132.068 168.127 132.137 167.726 132.137C167.224 132.137 166.785 132.039 166.406 131.843C166.033 131.647 165.741 131.385 165.531 131.057C165.326 130.724 165.224 130.353 165.224 129.942C165.224 129.546 165.301 129.197 165.456 128.896C165.611 128.591 165.834 128.338 166.126 128.138C166.418 127.933 166.769 127.778 167.179 127.673C167.589 127.568 168.047 127.516 168.553 127.516H170.022ZM177.364 130.038C177.364 129.856 177.323 129.687 177.241 129.532C177.164 129.373 177.002 129.229 176.756 129.102C176.514 128.969 176.15 128.855 175.662 128.76C175.252 128.673 174.881 128.571 174.548 128.452C174.22 128.334 173.939 128.19 173.707 128.021C173.479 127.853 173.304 127.655 173.181 127.427C173.058 127.199 172.996 126.932 172.996 126.627C172.996 126.335 173.06 126.06 173.188 125.8C173.32 125.54 173.504 125.31 173.741 125.109C173.983 124.909 174.272 124.752 174.609 124.638C174.947 124.524 175.323 124.467 175.737 124.467C176.33 124.467 176.836 124.572 177.255 124.781C177.674 124.991 177.995 125.271 178.219 125.622C178.442 125.968 178.554 126.354 178.554 126.777H177.289C177.289 126.572 177.228 126.374 177.104 126.183C176.986 125.987 176.811 125.825 176.578 125.697C176.35 125.57 176.07 125.506 175.737 125.506C175.386 125.506 175.102 125.561 174.883 125.67C174.669 125.775 174.511 125.909 174.411 126.073C174.315 126.237 174.268 126.41 174.268 126.593C174.268 126.729 174.29 126.853 174.336 126.962C174.386 127.067 174.473 127.165 174.596 127.256C174.719 127.342 174.892 127.424 175.115 127.502C175.339 127.579 175.623 127.657 175.97 127.734C176.576 127.871 177.075 128.035 177.467 128.227C177.859 128.418 178.15 128.653 178.342 128.931C178.533 129.209 178.629 129.546 178.629 129.942C178.629 130.266 178.561 130.562 178.424 130.831C178.292 131.1 178.098 131.332 177.843 131.528C177.592 131.72 177.291 131.87 176.94 131.979C176.594 132.084 176.204 132.137 175.771 132.137C175.12 132.137 174.568 132.021 174.117 131.788C173.666 131.556 173.324 131.255 173.092 130.886C172.859 130.517 172.743 130.127 172.743 129.717H174.015C174.033 130.063 174.133 130.339 174.315 130.544C174.498 130.744 174.721 130.888 174.985 130.975C175.25 131.057 175.512 131.098 175.771 131.098C176.118 131.098 176.407 131.052 176.64 130.961C176.877 130.87 177.057 130.744 177.18 130.585C177.303 130.425 177.364 130.243 177.364 130.038ZM181.664 124.604V132H180.393V124.604H181.664ZM180.297 122.642C180.297 122.437 180.358 122.263 180.481 122.122C180.609 121.981 180.796 121.91 181.042 121.91C181.284 121.91 181.468 121.981 181.596 122.122C181.728 122.263 181.794 122.437 181.794 122.642C181.794 122.838 181.728 123.006 181.596 123.147C181.468 123.284 181.284 123.353 181.042 123.353C180.796 123.353 180.609 123.284 180.481 123.147C180.358 123.006 180.297 122.838 180.297 122.642ZM184.959 126.183V132H183.694V124.604H184.891L184.959 126.183ZM184.658 128.021L184.132 128.001C184.136 127.495 184.212 127.028 184.357 126.6C184.503 126.167 184.708 125.791 184.973 125.472C185.237 125.153 185.551 124.907 185.916 124.733C186.285 124.556 186.693 124.467 187.14 124.467C187.504 124.467 187.832 124.517 188.124 124.617C188.416 124.713 188.664 124.868 188.869 125.082C189.079 125.296 189.238 125.574 189.348 125.916C189.457 126.253 189.512 126.666 189.512 127.153V132H188.24V127.14C188.24 126.752 188.183 126.442 188.069 126.21C187.955 125.973 187.789 125.802 187.57 125.697C187.352 125.588 187.083 125.533 186.764 125.533C186.449 125.533 186.162 125.599 185.902 125.731C185.647 125.864 185.426 126.046 185.239 126.278C185.057 126.511 184.913 126.777 184.809 127.078C184.708 127.374 184.658 127.689 184.658 128.021ZM191.098 128.384V128.227C191.098 127.693 191.175 127.199 191.33 126.743C191.485 126.283 191.708 125.884 192 125.547C192.292 125.205 192.645 124.941 193.06 124.754C193.474 124.562 193.939 124.467 194.454 124.467C194.974 124.467 195.441 124.562 195.855 124.754C196.275 124.941 196.63 125.205 196.922 125.547C197.218 125.884 197.444 126.283 197.599 126.743C197.754 127.199 197.831 127.693 197.831 128.227V128.384C197.831 128.917 197.754 129.411 197.599 129.867C197.444 130.323 197.218 130.722 196.922 131.063C196.63 131.401 196.277 131.665 195.862 131.856C195.452 132.043 194.987 132.137 194.468 132.137C193.948 132.137 193.481 132.043 193.066 131.856C192.652 131.665 192.296 131.401 192 131.063C191.708 130.722 191.485 130.323 191.33 129.867C191.175 129.411 191.098 128.917 191.098 128.384ZM192.362 128.227V128.384C192.362 128.753 192.406 129.102 192.492 129.43C192.579 129.753 192.709 130.04 192.882 130.291C193.06 130.542 193.281 130.74 193.545 130.886C193.809 131.027 194.117 131.098 194.468 131.098C194.814 131.098 195.117 131.027 195.377 130.886C195.641 130.74 195.86 130.542 196.033 130.291C196.206 130.04 196.336 129.753 196.423 129.43C196.514 129.102 196.56 128.753 196.56 128.384V128.227C196.56 127.862 196.514 127.518 196.423 127.194C196.336 126.866 196.204 126.577 196.026 126.326C195.853 126.071 195.634 125.87 195.37 125.725C195.11 125.579 194.805 125.506 194.454 125.506C194.108 125.506 193.802 125.579 193.538 125.725C193.278 125.87 193.06 126.071 192.882 126.326C192.709 126.577 192.579 126.866 192.492 127.194C192.406 127.518 192.362 127.862 192.362 128.227Z" fill="#48485D"/>
</svg>
