<svg xmlns="http://www.w3.org/2000/svg" viewBox="0 0 16 16" fill="none">
    <path
        d="M5.6625 1C5.6625 1.26522 5.55714 1.51957 5.36961 1.70711C5.18207 1.89464 4.92772 2 4.6625 2H2V4.6625C2 4.92772 1.89464 5.18207 1.70711 5.36961C1.51957 5.55714 1.26522 5.6625 1 5.6625C0.734784 5.6625 0.48043 5.55714 0.292893 5.36961C0.105357 5.18207 0 4.92772 0 4.6625V1C0 0.734784 0.105357 0.48043 0.292893 0.292893C0.48043 0.105357 0.734784 0 1 0L4.6625 0C4.92772 0 5.18207 0.105357 5.36961 0.292893C5.55714 0.48043 5.6625 0.734784 5.6625 1ZM4.6625 14H2V11.3375C2 11.0723 1.89464 10.8179 1.70711 10.6304C1.51957 10.4429 1.26522 10.3375 1 10.3375C0.734784 10.3375 0.48043 10.4429 0.292893 10.6304C0.105357 10.8179 0 11.0723 0 11.3375L0 15C0 15.2652 0.105357 15.5196 0.292893 15.7071C0.48043 15.8946 0.734784 16 1 16H4.6625C4.92772 16 5.18207 15.8946 5.36961 15.7071C5.55714 15.5196 5.6625 15.2652 5.6625 15C5.6625 14.7348 5.55714 14.4804 5.36961 14.2929C5.18207 14.1054 4.92772 14 4.6625 14ZM15 10.3375C14.7348 10.3375 14.4804 10.4429 14.2929 10.6304C14.1054 10.8179 14 11.0723 14 11.3375V14H11.3375C11.0723 14 10.8179 14.1054 10.6304 14.2929C10.4429 14.4804 10.3375 14.7348 10.3375 15C10.3375 15.2652 10.4429 15.5196 10.6304 15.7071C10.8179 15.8946 11.0723 16 11.3375 16H15C15.2652 16 15.5196 15.8946 15.7071 15.7071C15.8946 15.5196 16 15.2652 16 15V11.3375C16 11.0723 15.8946 10.8179 15.7071 10.6304C15.5196 10.4429 15.2652 10.3375 15 10.3375ZM15 0H11.3375C11.0723 0 10.8179 0.105357 10.6304 0.292893C10.4429 0.48043 10.3375 0.734784 10.3375 1C10.3375 1.26522 10.4429 1.51957 10.6304 1.70711C10.8179 1.89464 11.0723 2 11.3375 2H14V4.6625C14 4.92772 14.1054 5.18207 14.2929 5.36961C14.4804 5.55714 14.7348 5.6625 15 5.6625C15.2652 5.6625 15.5196 5.55714 15.7071 5.36961C15.8946 5.18207 16 4.92772 16 4.6625V1C16 0.734784 15.8946 0.48043 15.7071 0.292893C15.5196 0.105357 15.2652 0 15 0Z"
        fill="currentColor" />
</svg>