<svg xmlns="http://www.w3.org/2000/svg" width="17" height="17" viewBox="0 0 17 17" fill="none">
    <path
        d="M6.31712 0.347376C5.80412 0.355376 5.38412 0.787876 5.39112 1.30038V4.99438H1.72012C1.44312 4.99088 1.17362 5.10888 1.00662 5.29488C0.839617 5.48088 0.767117 5.71138 0.767117 5.93488C0.767117 6.15838 0.839617 6.38888 1.00662 6.57488C1.17362 6.76088 1.44312 6.87888 1.72012 6.87538H6.33162C6.84512 6.87538 7.27212 6.44888 7.27212 5.93488V1.30038C7.27912 0.776376 6.84062 0.339376 6.31712 0.347376ZM11.1436 0.335876C10.6301 0.343876 10.2096 0.777376 10.2176 1.29088V5.90038C10.2176 6.41388 10.6446 6.84088 11.1581 6.84088H15.7916C16.0686 6.84488 16.3381 6.72638 16.5051 6.53988C16.6726 6.35438 16.7451 6.12388 16.7451 5.90038C16.7451 5.67688 16.6726 5.44638 16.5056 5.25988C16.3386 5.07438 16.0691 4.95638 15.7921 4.95988H12.0991V1.29088C12.1071 0.765876 11.6686 0.327376 11.1436 0.335876ZM11.1586 9.48888C10.6451 9.48888 10.2186 9.91588 10.2181 10.4294V15.0629C10.2146 15.3399 10.3326 15.6094 10.5186 15.7764C10.7046 15.9434 10.9351 16.0159 11.1586 16.0159C11.3821 16.0159 11.6126 15.9429 11.7986 15.7764C11.9846 15.6099 12.1026 15.3399 12.0991 15.0629V11.3699H15.7691C16.0461 11.3739 16.3156 11.2554 16.4826 11.0694C16.6496 10.8834 16.7221 10.6529 16.7221 10.4294C16.7221 10.2059 16.6491 9.97538 16.4826 9.78938C16.3156 9.60338 16.0461 9.48538 15.7691 9.48888H11.1586ZM1.69812 9.52338C1.42112 9.51938 1.15162 9.63788 0.984617 9.82338C0.817617 10.0094 0.745117 10.2399 0.745117 10.4639C0.745117 10.6879 0.817617 10.9179 0.984617 11.1034C1.15162 11.2899 1.42112 11.4079 1.69812 11.4044H5.39112V15.0749C5.38762 15.3519 5.50562 15.6214 5.69162 15.7884C5.87762 15.9559 6.10812 16.0284 6.33162 16.0284C6.55512 16.0284 6.78562 15.9554 6.97162 15.7884C7.15762 15.6214 7.27562 15.3519 7.27212 15.0749V10.4639C7.27212 9.95038 6.84512 9.52338 6.33162 9.52338H1.69812Z"
        fill="currentColor" />
</svg>