<svg id="Game_Management" data-name="Game Management" xmlns="http://www.w3.org/2000/svg" width="24" height="24" viewBox="0 0 24 24">
  <g id="dices-svgrepo-com" transform="translate(2 2)">
    <path id="Path_43200" data-name="Path 43200" d="M14.22,12.774V1.446A1.448,1.448,0,0,0,12.774,0H1.446A1.448,1.448,0,0,0,0,1.446V12.774A1.448,1.448,0,0,0,1.446,14.22H12.774A1.448,1.448,0,0,0,14.22,12.774ZM3.158,12.553a1.491,1.491,0,1,1,1.491-1.491A1.492,1.492,0,0,1,3.158,12.553Zm0-7.9A1.491,1.491,0,1,1,4.649,3.158,1.492,1.492,0,0,1,3.158,4.649Zm4.051,3.84A1.491,1.491,0,1,1,8.7,7,1.492,1.492,0,0,1,7.209,8.489Zm3.853,4.064a1.491,1.491,0,1,1,1.491-1.491A1.492,1.492,0,0,1,11.062,12.553Zm0-7.9a1.491,1.491,0,1,1,1.491-1.491A1.492,1.492,0,0,1,11.062,4.649Z" transform="translate(20 8.949) rotate(129)" fill="currentColor"/>
  </g>
  <rect id="Rectangle_11172" data-name="Rectangle 11172" width="24" height="24" fill="none"/>
</svg>
