<svg xmlns="http://www.w3.org/2000/svg" viewBox="0 0 18.8 18.8" xml:space="preserve"><path d="m.5 11.4 8.8 7.1c.6.5 1.5.4 2-.2l7.1-8.8c.5-.6.4-1.5-.2-2L9.5.3C8.9-.2 8-.1 7.5.5L.4 9.3c-.6.7-.5 1.6.1 2.1zm7.2-8.5c.5-.6 1.5-.7 2.1-.2s.7 1.5.2 2.1-1.5.7-2.1.2c-.7-.5-.7-1.4-.2-2.1zm6.1 5c.5-.6 1.5-.7 2.1-.2s.7 1.5.2 2.1c-.5.6-1.4.7-2.1.2-.6-.5-.7-1.5-.2-2.1zm-5.5.7c.5-.6 1.4-.7 2.1-.2s.7 1.5.2 2.1c-.5.6-1.5.7-2.1.2-.6-.5-.7-1.4-.2-2.1zm-5.6.5c.5-.6 1.5-.7 2.1-.2s.7 1.4.2 2-1.4.8-2.1.3c-.6-.6-.7-1.5-.2-2.1zM8.8 14c.5-.6 1.5-.7 2.1-.2.6.5.7 1.5.2 2.1-.5.6-1.5.7-2.1.2-.6-.5-.7-1.4-.2-2.1z"/></svg>