<svg viewBox="0 0 80 80" fill="none" xmlns="http://www.w3.org/2000/svg">
    <path opacity="0.1" d="M40 80C62.0914 80 80 62.0914 80 40C80 17.9086 62.0914 0 40 0C17.9086 0 0 17.9086 0 40C0 62.0914 17.9086 80 40 80Z" fill="#8EA6C1" />
    <g clip-path="url(#clip0_337_21184)">
        <path d="M53.5819 26.4171C52.0682 24.9021 49.9482 24.0178 47.807 24.0003C45.6095 23.9828 43.4595 24.8771 41.8989 26.4171L37.9827 30.3339C38.5383 30.2408 39.1039 30.1927 39.6752 30.1927C40.7908 30.1927 41.8895 30.3739 42.942 30.7302C43.2301 30.8277 43.5114 30.9377 43.787 31.0589L45.1639 29.6821C45.8063 29.0377 46.6982 28.6515 47.607 28.6183C48.6088 28.5815 49.6088 28.9733 50.3176 29.6821C51.7382 31.1033 51.7382 33.4145 50.3176 34.8358L47.4932 37.6589L42.8989 42.2538C42.0058 43.1469 40.6476 43.5188 39.4239 43.2076C38.357 42.9363 37.4327 42.1538 36.9889 41.1463C36.9364 41.027 36.8908 40.9051 36.8521 40.7807L33.434 44.2207C33.7527 44.6975 34.1221 45.14 34.5315 45.5419C35.4483 46.4419 36.5696 47.1375 37.7921 47.5369C38.0121 47.6088 38.2352 47.6713 38.4608 47.7231C41.0933 48.3319 44.0026 47.5506 45.9732 45.7019C46.0376 45.6419 53.5819 38.1001 53.5819 38.1001C56.8031 34.8789 56.8031 29.6383 53.5819 26.4171ZM37.0558 49.27C36.7677 49.1725 36.4864 49.0625 36.2108 48.9413C36.2108 48.9413 34.834 50.3181 34.834 50.3187C34.1877 50.965 33.2933 51.3512 32.3802 51.3825C31.384 51.4162 30.3834 51.0262 29.6803 50.3181C28.2596 48.8975 28.2596 46.5857 29.6803 45.1644L37.4602 37.4639C37.6214 37.3007 37.8177 37.1764 38.022 37.0732C38.9564 36.6008 40.097 36.557 41.0645 36.9564C42.0608 37.367 42.8808 38.2539 43.1714 39.297C43.1739 39.3057 43.1764 39.3145 43.1789 39.3232C43.1789 39.3232 46.632 35.8701 46.6338 35.8683C46.7251 35.7764 45.6345 34.6064 45.5232 34.4958C45.0864 34.0627 44.6007 33.6777 44.0801 33.3495C43.0389 32.6939 41.8539 32.2627 40.6301 32.1202C38.1683 31.8339 35.5827 32.7202 33.8346 34.482L26.4159 41.9001C23.1947 45.1213 23.1947 50.3619 26.4159 53.5831C27.939 55.1068 30.074 55.9924 32.2277 55.9999C34.4021 56.0074 36.5608 55.1206 38.0989 53.5831L42.0151 49.6669C41.4595 49.76 40.8945 49.8075 40.3227 49.8075C39.2077 49.8075 38.1083 49.6269 37.0558 49.27Z" fill="#6667AB" />
    </g>
    <defs>
        <clipPath id="clip0_337_21184">
            <rect width="32" height="32" fill="white" transform="translate(24 24)" />
        </clipPath>
    </defs>
</svg>