<svg viewBox="0 0 16 16" fill="none" xmlns="http://www.w3.org/2000/svg">
    <path d="M7.10481 8.88477C5.78706 8.88477 1.90875 8.88477 1.90875 8.88477C1.49704 8.88477 1.16016 9.22159 1.16016 9.6333V15.2518C1.16016 15.6635 1.49704 16.0003 1.90875 16.0003C1.90875 16.0003 5.86821 16.0003 7.19218 16.0003C7.36828 16.0003 7.36828 15.8112 7.36828 15.8112V9.13913C7.36823 9.13913 7.36823 8.88477 7.10481 8.88477Z" fill="#505D6E" />
    <path d="M14.092 8.88477C14.092 8.88477 10.1988 8.88477 8.90122 8.88477C8.58506 8.88477 8.6324 9.21401 8.6324 9.21401V15.8173C8.6324 15.8173 8.62983 16.0002 8.82001 16.0002C10.138 16.0002 14.0919 16.0002 14.0919 16.0002C14.5036 16.0002 14.8405 15.6634 14.8405 15.2516V9.6333C14.8406 9.22159 14.5037 8.88477 14.092 8.88477Z" fill="#505D6E" />
    <path d="M7.36786 4.46362C7.36786 4.46362 7.36786 4.20996 7.11721 4.20996C5.61626 4.20996 1.06304 4.20996 1.06304 4.20996C0.651335 4.20996 0.314453 4.54684 0.314453 4.9585V7.29518C0.314453 7.70689 0.651335 8.04372 1.06304 8.04372C1.06304 8.04372 5.63666 8.04372 7.13771 8.04372C7.36786 8.04372 7.36786 7.84411 7.36786 7.84411V4.46362Z" fill="#505D6E" />
    <path d="M14.9366 4.20996C14.9366 4.20996 10.3815 4.20996 8.86313 4.20996C8.63184 4.20996 8.63184 4.43035 8.63184 4.43035V7.84874C8.63184 7.84874 8.63184 8.04372 8.91303 8.04372C10.4189 8.04372 14.9366 8.04372 14.9366 8.04372C15.3483 8.04372 15.6852 7.70689 15.6852 7.29518V4.9585C15.6852 4.54684 15.3483 4.20996 14.9366 4.20996Z" fill="#505D6E" />
    <path d="M4.82162 3.65623C4.47912 3.65623 4.16629 3.62907 3.89197 3.57546C3.19519 3.43933 2.71629 3.17439 2.42789 2.76557C2.16949 2.39918 2.09041 1.9475 2.19278 1.42301C2.3721 0.50535 2.98838 0 3.92796 0C4.12681 0 4.34518 0.0229605 4.57707 0.0682817C5.16696 0.183521 5.92144 0.521766 6.59536 0.973068C7.73875 1.73884 7.79531 2.2149 7.73837 2.50641C7.65466 2.93475 7.25429 3.24082 6.51437 3.44217C6.01448 3.57819 5.39749 3.65623 4.82162 3.65623ZM3.92801 1.19978C3.56414 1.19978 3.43908 1.30144 3.37042 1.65305C3.31424 1.94052 3.38509 2.04092 3.40832 2.07392C3.50562 2.2119 3.75906 2.32698 4.12201 2.39782C4.31785 2.43611 4.55984 2.45634 4.82157 2.45634C5.39711 2.45634 5.90415 2.36913 6.24059 2.27375C6.26508 2.26682 6.30309 2.23786 6.26235 2.21359C5.8225 1.85528 5.01779 1.37681 4.34703 1.24576C4.19078 1.21533 4.04974 1.19978 3.92801 1.19978Z" fill="#505D6E" />
    <path d="M11.1961 3.65618C11.1961 3.65618 11.1961 3.65618 11.196 3.65618C10.6201 3.65618 10.0032 3.57813 9.50331 3.44212C8.76334 3.24082 8.36303 2.93469 8.27931 2.50641C8.22243 2.2149 8.27888 1.73884 9.42238 0.973069C10.0962 0.521766 10.8507 0.183521 11.4407 0.0682817C11.6726 0.0229605 11.8909 0 12.0896 0C13.0294 0 13.6456 0.505404 13.8248 1.42306C13.9273 1.9475 13.8483 2.39918 13.5898 2.76557C13.3014 3.17444 12.8226 3.43933 12.1256 3.57546C11.8514 3.62896 11.5386 3.65618 11.1961 3.65618ZM9.76493 2.20612C9.72594 2.22875 9.74481 2.26448 9.76504 2.27031C10.1013 2.36701 10.6137 2.45634 11.196 2.45634C11.4578 2.45634 11.6997 2.43611 11.8956 2.39782C12.2585 2.32692 12.5121 2.2119 12.6093 2.07392C12.6327 2.04092 12.7036 1.94052 12.6472 1.65305C12.5786 1.30144 12.4535 1.19978 12.0896 1.19978C11.9679 1.19978 11.827 1.21527 11.6706 1.24581C10.9998 1.37681 10.2048 1.84775 9.76493 2.20612Z" fill="#505D6E" />
</svg>