<svg width="524" height="474" viewBox="0 0 524 474" fill="none" xmlns="http://www.w3.org/2000/svg">
<rect width="524" height="474" rx="8" fill="white"/>
<path d="M352.374 404H271.626C270.176 404 269 405.791 269 408V438C269 440.209 270.176 442 271.626 442H352.374C353.824 442 355 440.209 355 438V408C355 405.791 353.824 404 352.374 404Z" fill="#6667AB"/>
<path d="M303.46 425.484C303.46 425.252 303.424 425.047 303.351 424.869C303.282 424.687 303.159 424.523 302.981 424.377C302.808 424.231 302.567 424.092 302.257 423.96C301.951 423.828 301.564 423.693 301.095 423.557C300.603 423.411 300.158 423.249 299.762 423.071C299.365 422.889 299.026 422.682 298.743 422.449C298.461 422.217 298.244 421.95 298.094 421.649C297.943 421.349 297.868 421.005 297.868 420.617C297.868 420.23 297.948 419.872 298.107 419.544C298.267 419.216 298.495 418.931 298.791 418.689C299.092 418.443 299.45 418.252 299.864 418.115C300.279 417.979 300.742 417.91 301.252 417.91C301.999 417.91 302.633 418.054 303.152 418.341C303.676 418.623 304.075 418.995 304.349 419.455C304.622 419.911 304.759 420.398 304.759 420.918H303.446C303.446 420.544 303.367 420.214 303.207 419.927C303.048 419.635 302.806 419.407 302.482 419.243C302.159 419.075 301.749 418.99 301.252 418.99C300.783 418.99 300.395 419.061 300.09 419.202C299.785 419.343 299.557 419.535 299.406 419.776C299.26 420.018 299.188 420.294 299.188 420.604C299.188 420.813 299.231 421.005 299.317 421.178C299.409 421.346 299.548 421.504 299.734 421.649C299.926 421.795 300.167 421.93 300.459 422.053C300.755 422.176 301.108 422.294 301.519 422.408C302.084 422.568 302.571 422.745 302.981 422.941C303.392 423.137 303.729 423.358 303.993 423.604C304.262 423.846 304.46 424.122 304.588 424.432C304.72 424.737 304.786 425.083 304.786 425.471C304.786 425.876 304.704 426.243 304.54 426.571C304.376 426.899 304.141 427.18 303.836 427.412C303.531 427.645 303.164 427.825 302.735 427.952C302.312 428.075 301.838 428.137 301.313 428.137C300.853 428.137 300.4 428.073 299.953 427.945C299.511 427.818 299.108 427.626 298.743 427.371C298.383 427.116 298.094 426.801 297.875 426.428C297.661 426.049 297.554 425.612 297.554 425.115H298.866C298.866 425.457 298.932 425.751 299.064 425.997C299.197 426.239 299.377 426.439 299.604 426.599C299.837 426.758 300.099 426.877 300.391 426.954C300.687 427.027 300.994 427.063 301.313 427.063C301.774 427.063 302.163 427 302.482 426.872C302.801 426.744 303.043 426.562 303.207 426.325C303.376 426.088 303.46 425.808 303.46 425.484ZM310.638 426.735V422.928C310.638 422.636 310.578 422.383 310.46 422.169C310.346 421.95 310.173 421.782 309.94 421.663C309.708 421.545 309.421 421.485 309.079 421.485C308.76 421.485 308.48 421.54 308.238 421.649C308.001 421.759 307.814 421.902 307.678 422.08C307.546 422.258 307.479 422.449 307.479 422.654H306.215C306.215 422.39 306.283 422.128 306.42 421.868C306.557 421.608 306.753 421.374 307.008 421.164C307.268 420.95 307.577 420.781 307.938 420.658C308.302 420.531 308.708 420.467 309.154 420.467C309.692 420.467 310.166 420.558 310.576 420.74C310.991 420.923 311.314 421.198 311.547 421.567C311.784 421.932 311.902 422.39 311.902 422.941V426.387C311.902 426.633 311.923 426.895 311.964 427.173C312.009 427.451 312.076 427.69 312.162 427.891V428H310.843C310.779 427.854 310.729 427.66 310.692 427.419C310.656 427.173 310.638 426.945 310.638 426.735ZM310.856 423.516L310.87 424.404H309.592C309.232 424.404 308.91 424.434 308.628 424.493C308.345 424.548 308.108 424.632 307.917 424.746C307.726 424.86 307.58 425.004 307.479 425.177C307.379 425.345 307.329 425.544 307.329 425.771C307.329 426.004 307.382 426.216 307.486 426.407C307.591 426.599 307.748 426.751 307.958 426.865C308.172 426.975 308.434 427.029 308.744 427.029C309.132 427.029 309.473 426.947 309.77 426.783C310.066 426.619 310.3 426.419 310.474 426.182C310.651 425.945 310.747 425.715 310.761 425.491L311.301 426.1C311.269 426.291 311.182 426.503 311.041 426.735C310.9 426.968 310.711 427.191 310.474 427.405C310.241 427.615 309.963 427.79 309.64 427.932C309.321 428.068 308.961 428.137 308.56 428.137C308.058 428.137 307.618 428.039 307.24 427.843C306.867 427.647 306.575 427.385 306.365 427.057C306.16 426.724 306.058 426.353 306.058 425.942C306.058 425.546 306.135 425.197 306.29 424.896C306.445 424.591 306.668 424.338 306.96 424.138C307.252 423.933 307.603 423.778 308.013 423.673C308.423 423.568 308.881 423.516 309.387 423.516H310.856ZM316.031 426.858L318.055 420.604H319.347L316.688 428H315.84L316.031 426.858ZM314.343 420.604L316.428 426.893L316.571 428H315.724L313.044 420.604H314.343ZM323.537 428.137C323.022 428.137 322.555 428.05 322.136 427.877C321.721 427.699 321.363 427.451 321.062 427.132C320.766 426.813 320.538 426.435 320.379 425.997C320.219 425.56 320.14 425.081 320.14 424.562V424.274C320.14 423.673 320.229 423.137 320.406 422.668C320.584 422.194 320.826 421.793 321.131 421.465C321.436 421.137 321.783 420.888 322.17 420.72C322.557 420.551 322.958 420.467 323.373 420.467C323.902 420.467 324.357 420.558 324.74 420.74C325.128 420.923 325.444 421.178 325.69 421.506C325.937 421.829 326.119 422.212 326.237 422.654C326.356 423.092 326.415 423.57 326.415 424.09V424.657H320.892V423.625H325.15V423.529C325.132 423.201 325.064 422.882 324.945 422.572C324.831 422.262 324.649 422.007 324.398 421.807C324.148 421.606 323.806 421.506 323.373 421.506C323.086 421.506 322.822 421.567 322.58 421.69C322.339 421.809 322.131 421.987 321.958 422.224C321.785 422.461 321.65 422.75 321.555 423.092C321.459 423.434 321.411 423.828 321.411 424.274V424.562C321.411 424.912 321.459 425.243 321.555 425.553C321.655 425.858 321.799 426.127 321.985 426.359C322.177 426.592 322.407 426.774 322.676 426.906C322.949 427.038 323.259 427.104 323.605 427.104C324.052 427.104 324.43 427.013 324.74 426.831C325.05 426.649 325.321 426.405 325.554 426.1L326.319 426.708C326.16 426.95 325.957 427.18 325.711 427.398C325.465 427.617 325.162 427.795 324.802 427.932C324.446 428.068 324.025 428.137 323.537 428.137Z" fill="white"/>
<path d="M250.712 405H170.288C169.025 405 168 406.567 168 408.5V438.5C168 440.433 169.025 442 170.288 442H250.712C251.975 442 253 440.433 253 438.5V408.5C253 406.567 251.975 405 250.712 405Z" stroke="#7D86A9"/>
<path d="M196.749 425.335H198.062C197.993 425.964 197.813 426.527 197.522 427.023C197.23 427.52 196.818 427.914 196.284 428.206C195.751 428.493 195.086 428.637 194.288 428.637C193.705 428.637 193.174 428.527 192.695 428.309C192.222 428.09 191.814 427.78 191.472 427.379C191.13 426.973 190.866 426.488 190.679 425.923C190.497 425.353 190.405 424.72 190.405 424.022V423.031C190.405 422.334 190.497 421.703 190.679 421.138C190.866 420.568 191.132 420.08 191.479 419.675C191.83 419.269 192.251 418.957 192.743 418.738C193.236 418.52 193.789 418.41 194.404 418.41C195.156 418.41 195.792 418.551 196.312 418.834C196.831 419.117 197.235 419.508 197.522 420.01C197.813 420.507 197.993 421.083 198.062 421.739H196.749C196.685 421.274 196.567 420.876 196.394 420.543C196.221 420.206 195.974 419.946 195.655 419.764C195.336 419.581 194.919 419.49 194.404 419.49C193.962 419.49 193.573 419.575 193.236 419.743C192.903 419.912 192.623 420.151 192.395 420.461C192.171 420.771 192.003 421.142 191.889 421.575C191.775 422.008 191.718 422.489 191.718 423.018V424.022C191.718 424.51 191.768 424.968 191.868 425.396C191.973 425.825 192.13 426.201 192.34 426.524C192.55 426.848 192.816 427.103 193.14 427.29C193.463 427.472 193.846 427.563 194.288 427.563C194.849 427.563 195.295 427.475 195.628 427.297C195.961 427.119 196.211 426.864 196.38 426.531C196.553 426.199 196.676 425.8 196.749 425.335ZM204.029 427.235V423.428C204.029 423.136 203.97 422.883 203.852 422.669C203.738 422.45 203.565 422.282 203.332 422.163C203.1 422.045 202.813 421.985 202.471 421.985C202.152 421.985 201.872 422.04 201.63 422.149C201.393 422.259 201.206 422.402 201.07 422.58C200.937 422.758 200.871 422.949 200.871 423.154H199.607C199.607 422.89 199.675 422.628 199.812 422.368C199.948 422.108 200.144 421.874 200.4 421.664C200.659 421.45 200.969 421.281 201.329 421.158C201.694 421.031 202.099 420.967 202.546 420.967C203.084 420.967 203.558 421.058 203.968 421.24C204.383 421.423 204.706 421.698 204.939 422.067C205.176 422.432 205.294 422.89 205.294 423.441V426.887C205.294 427.133 205.315 427.395 205.356 427.673C205.401 427.951 205.467 428.19 205.554 428.391V428.5H204.235C204.171 428.354 204.121 428.16 204.084 427.919C204.048 427.673 204.029 427.445 204.029 427.235ZM204.248 424.016L204.262 424.904H202.984C202.624 424.904 202.302 424.934 202.02 424.993C201.737 425.048 201.5 425.132 201.309 425.246C201.117 425.36 200.972 425.504 200.871 425.677C200.771 425.845 200.721 426.044 200.721 426.271C200.721 426.504 200.773 426.716 200.878 426.907C200.983 427.099 201.14 427.251 201.35 427.365C201.564 427.475 201.826 427.529 202.136 427.529C202.523 427.529 202.865 427.447 203.161 427.283C203.458 427.119 203.692 426.919 203.865 426.682C204.043 426.445 204.139 426.215 204.153 425.991L204.693 426.6C204.661 426.791 204.574 427.003 204.433 427.235C204.292 427.468 204.102 427.691 203.865 427.905C203.633 428.115 203.355 428.29 203.031 428.432C202.712 428.568 202.352 428.637 201.951 428.637C201.45 428.637 201.01 428.539 200.632 428.343C200.258 428.147 199.967 427.885 199.757 427.557C199.552 427.224 199.449 426.853 199.449 426.442C199.449 426.046 199.527 425.697 199.682 425.396C199.837 425.091 200.06 424.838 200.352 424.638C200.643 424.433 200.994 424.278 201.404 424.173C201.815 424.068 202.273 424.016 202.778 424.016H204.248ZM208.548 422.683V428.5H207.283V421.104H208.48L208.548 422.683ZM208.247 424.521L207.721 424.501C207.725 423.995 207.801 423.528 207.946 423.1C208.092 422.667 208.297 422.291 208.562 421.972C208.826 421.653 209.14 421.407 209.505 421.233C209.874 421.056 210.282 420.967 210.729 420.967C211.093 420.967 211.421 421.017 211.713 421.117C212.005 421.213 212.253 421.368 212.458 421.582C212.668 421.796 212.827 422.074 212.937 422.416C213.046 422.753 213.101 423.166 213.101 423.653V428.5H211.829V423.64C211.829 423.252 211.772 422.942 211.658 422.71C211.544 422.473 211.378 422.302 211.159 422.197C210.941 422.088 210.672 422.033 210.353 422.033C210.038 422.033 209.751 422.099 209.491 422.231C209.236 422.364 209.015 422.546 208.828 422.778C208.646 423.011 208.502 423.277 208.398 423.578C208.297 423.874 208.247 424.189 208.247 424.521ZM217.982 427.598C218.282 427.598 218.56 427.536 218.816 427.413C219.071 427.29 219.28 427.121 219.445 426.907C219.609 426.688 219.702 426.44 219.725 426.162H220.928C220.905 426.6 220.757 427.007 220.484 427.386C220.215 427.759 219.861 428.062 219.424 428.295C218.986 428.523 218.506 428.637 217.982 428.637C217.426 428.637 216.94 428.539 216.526 428.343C216.115 428.147 215.774 427.878 215.5 427.536C215.231 427.194 215.028 426.802 214.892 426.36C214.76 425.914 214.694 425.442 214.694 424.945V424.658C214.694 424.161 214.76 423.692 214.892 423.25C215.028 422.803 215.231 422.409 215.5 422.067C215.774 421.726 216.115 421.457 216.526 421.261C216.94 421.065 217.426 420.967 217.982 420.967C218.56 420.967 219.066 421.085 219.499 421.322C219.932 421.555 220.272 421.874 220.518 422.279C220.768 422.68 220.905 423.136 220.928 423.646H219.725C219.702 423.341 219.615 423.065 219.465 422.819C219.319 422.573 219.119 422.377 218.863 422.231C218.613 422.081 218.319 422.006 217.982 422.006C217.594 422.006 217.268 422.083 217.004 422.238C216.744 422.389 216.537 422.594 216.382 422.854C216.232 423.109 216.122 423.394 216.054 423.708C215.99 424.018 215.958 424.335 215.958 424.658V424.945C215.958 425.269 215.99 425.588 216.054 425.902C216.118 426.217 216.225 426.502 216.375 426.757C216.53 427.012 216.737 427.217 216.997 427.372C217.262 427.522 217.59 427.598 217.982 427.598ZM225.419 428.637C224.904 428.637 224.437 428.55 224.018 428.377C223.603 428.199 223.245 427.951 222.945 427.632C222.648 427.313 222.42 426.935 222.261 426.497C222.101 426.06 222.022 425.581 222.022 425.062V424.774C222.022 424.173 222.111 423.637 222.288 423.168C222.466 422.694 222.708 422.293 223.013 421.965C223.318 421.637 223.665 421.388 224.052 421.22C224.439 421.051 224.84 420.967 225.255 420.967C225.784 420.967 226.239 421.058 226.622 421.24C227.01 421.423 227.326 421.678 227.572 422.006C227.819 422.329 228.001 422.712 228.119 423.154C228.238 423.592 228.297 424.07 228.297 424.59V425.157H222.774V424.125H227.032V424.029C227.014 423.701 226.946 423.382 226.827 423.072C226.713 422.762 226.531 422.507 226.28 422.307C226.03 422.106 225.688 422.006 225.255 422.006C224.968 422.006 224.704 422.067 224.462 422.19C224.221 422.309 224.013 422.487 223.84 422.724C223.667 422.961 223.532 423.25 223.437 423.592C223.341 423.934 223.293 424.328 223.293 424.774V425.062C223.293 425.412 223.341 425.743 223.437 426.053C223.537 426.358 223.681 426.627 223.867 426.859C224.059 427.092 224.289 427.274 224.558 427.406C224.831 427.538 225.141 427.604 225.487 427.604C225.934 427.604 226.312 427.513 226.622 427.331C226.932 427.149 227.203 426.905 227.436 426.6L228.201 427.208C228.042 427.45 227.839 427.68 227.593 427.898C227.347 428.117 227.044 428.295 226.684 428.432C226.328 428.568 225.907 428.637 225.419 428.637ZM231.148 418V428.5H229.876V418H231.148Z" fill="#7D86A9"/>
<path d="M211.871 129.498L206.457 146H202.096L209.492 126.094H212.268L211.871 129.498ZM216.369 146L210.941 129.498L210.504 126.094H213.307L220.744 146H216.369ZM216.123 138.59V141.803H205.609V138.59H216.123ZM231.08 142.773V125H235.045V146H231.477L231.08 142.773ZM221.729 138.781V138.494C221.729 137.364 221.856 136.339 222.111 135.418C222.367 134.488 222.74 133.691 223.232 133.025C223.725 132.36 224.331 131.845 225.051 131.48C225.771 131.116 226.591 130.934 227.512 130.934C228.378 130.934 229.134 131.116 229.781 131.48C230.438 131.845 230.993 132.365 231.449 133.039C231.914 133.704 232.288 134.493 232.57 135.404C232.853 136.307 233.058 137.296 233.186 138.371V139C233.058 140.03 232.853 140.987 232.57 141.871C232.288 142.755 231.914 143.53 231.449 144.195C230.993 144.852 230.438 145.362 229.781 145.727C229.125 146.091 228.359 146.273 227.484 146.273C226.564 146.273 225.743 146.087 225.023 145.713C224.312 145.339 223.711 144.815 223.219 144.141C222.736 143.466 222.367 142.673 222.111 141.762C221.856 140.85 221.729 139.857 221.729 138.781ZM225.666 138.494V138.781C225.666 139.392 225.712 139.962 225.803 140.49C225.903 141.019 226.062 141.488 226.281 141.898C226.509 142.299 226.801 142.614 227.156 142.842C227.521 143.061 227.963 143.17 228.482 143.17C229.157 143.17 229.713 143.02 230.15 142.719C230.588 142.409 230.921 141.985 231.148 141.447C231.385 140.91 231.522 140.29 231.559 139.588V137.797C231.531 137.223 231.449 136.708 231.312 136.252C231.185 135.787 230.993 135.391 230.738 135.062C230.492 134.734 230.182 134.479 229.809 134.297C229.444 134.115 229.011 134.023 228.51 134.023C227.999 134.023 227.562 134.142 227.197 134.379C226.833 134.607 226.536 134.921 226.309 135.322C226.09 135.723 225.926 136.197 225.816 136.744C225.716 137.282 225.666 137.865 225.666 138.494ZM246.857 142.773V125H250.822V146H247.254L246.857 142.773ZM237.506 138.781V138.494C237.506 137.364 237.633 136.339 237.889 135.418C238.144 134.488 238.518 133.691 239.01 133.025C239.502 132.36 240.108 131.845 240.828 131.48C241.548 131.116 242.368 130.934 243.289 130.934C244.155 130.934 244.911 131.116 245.559 131.48C246.215 131.845 246.771 132.365 247.227 133.039C247.691 133.704 248.065 134.493 248.348 135.404C248.63 136.307 248.835 137.296 248.963 138.371V139C248.835 140.03 248.63 140.987 248.348 141.871C248.065 142.755 247.691 143.53 247.227 144.195C246.771 144.852 246.215 145.362 245.559 145.727C244.902 146.091 244.137 146.273 243.262 146.273C242.341 146.273 241.521 146.087 240.801 145.713C240.09 145.339 239.488 144.815 238.996 144.141C238.513 143.466 238.144 142.673 237.889 141.762C237.633 140.85 237.506 139.857 237.506 138.781ZM241.443 138.494V138.781C241.443 139.392 241.489 139.962 241.58 140.49C241.68 141.019 241.84 141.488 242.059 141.898C242.286 142.299 242.578 142.614 242.934 142.842C243.298 143.061 243.74 143.17 244.26 143.17C244.934 143.17 245.49 143.02 245.928 142.719C246.365 142.409 246.698 141.985 246.926 141.447C247.163 140.91 247.299 140.29 247.336 139.588V137.797C247.309 137.223 247.227 136.708 247.09 136.252C246.962 135.787 246.771 135.391 246.516 135.062C246.27 134.734 245.96 134.479 245.586 134.297C245.221 134.115 244.788 134.023 244.287 134.023C243.777 134.023 243.339 134.142 242.975 134.379C242.61 134.607 242.314 134.921 242.086 135.322C241.867 135.723 241.703 136.197 241.594 136.744C241.493 137.282 241.443 137.865 241.443 138.494ZM265.479 126.094V146H261.391V126.094H265.479ZM276.32 131.207V133.996H267.707V131.207H276.32ZM269.84 127.557H273.777V141.543C273.777 141.971 273.832 142.299 273.941 142.527C274.06 142.755 274.233 142.915 274.461 143.006C274.689 143.088 274.976 143.129 275.322 143.129C275.568 143.129 275.787 143.12 275.979 143.102C276.179 143.074 276.348 143.047 276.484 143.02L276.498 145.918C276.161 146.027 275.796 146.114 275.404 146.178C275.012 146.242 274.579 146.273 274.105 146.273C273.24 146.273 272.483 146.132 271.836 145.85C271.198 145.558 270.706 145.093 270.359 144.455C270.013 143.817 269.84 142.979 269.84 141.939V127.557ZM285.371 146.273C284.223 146.273 283.193 146.091 282.281 145.727C281.37 145.353 280.595 144.838 279.957 144.182C279.328 143.525 278.845 142.764 278.508 141.898C278.171 141.023 278.002 140.094 278.002 139.109V138.562C278.002 137.441 278.161 136.416 278.48 135.486C278.799 134.557 279.255 133.75 279.848 133.066C280.449 132.383 281.178 131.859 282.035 131.494C282.892 131.12 283.858 130.934 284.934 130.934C285.982 130.934 286.911 131.107 287.723 131.453C288.534 131.799 289.213 132.292 289.76 132.93C290.316 133.568 290.735 134.333 291.018 135.227C291.3 136.111 291.441 137.095 291.441 138.18V139.82H279.684V137.195H287.572V136.895C287.572 136.348 287.472 135.86 287.271 135.432C287.08 134.994 286.788 134.648 286.396 134.393C286.005 134.137 285.503 134.01 284.893 134.01C284.373 134.01 283.926 134.124 283.553 134.352C283.179 134.579 282.874 134.898 282.637 135.309C282.409 135.719 282.236 136.202 282.117 136.758C282.008 137.305 281.953 137.906 281.953 138.562V139.109C281.953 139.702 282.035 140.249 282.199 140.75C282.372 141.251 282.614 141.684 282.924 142.049C283.243 142.413 283.626 142.696 284.072 142.896C284.528 143.097 285.043 143.197 285.617 143.197C286.328 143.197 286.989 143.061 287.6 142.787C288.219 142.505 288.753 142.081 289.199 141.516L291.113 143.594C290.803 144.04 290.38 144.469 289.842 144.879C289.313 145.289 288.675 145.626 287.928 145.891C287.18 146.146 286.328 146.273 285.371 146.273ZM297.621 134.27V146H293.67V131.207H297.375L297.621 134.27ZM297.074 138.084H295.98C295.98 137.054 296.104 136.106 296.35 135.24C296.605 134.365 296.974 133.609 297.457 132.971C297.949 132.324 298.555 131.822 299.275 131.467C299.995 131.111 300.829 130.934 301.777 130.934C302.434 130.934 303.035 131.034 303.582 131.234C304.129 131.426 304.598 131.731 304.99 132.15C305.391 132.561 305.701 133.098 305.92 133.764C306.139 134.42 306.248 135.208 306.248 136.129V146H302.311V136.566C302.311 135.892 302.219 135.372 302.037 135.008C301.855 134.643 301.595 134.388 301.258 134.242C300.93 134.096 300.533 134.023 300.068 134.023C299.558 134.023 299.111 134.128 298.729 134.338C298.355 134.548 298.045 134.839 297.799 135.213C297.553 135.577 297.37 136.006 297.252 136.498C297.133 136.99 297.074 137.519 297.074 138.084ZM305.879 137.633L304.471 137.811C304.471 136.844 304.589 135.947 304.826 135.117C305.072 134.288 305.432 133.559 305.906 132.93C306.389 132.301 306.986 131.813 307.697 131.467C308.408 131.111 309.229 130.934 310.158 130.934C310.869 130.934 311.516 131.038 312.1 131.248C312.683 131.449 313.18 131.772 313.59 132.219C314.009 132.656 314.328 133.23 314.547 133.941C314.775 134.652 314.889 135.523 314.889 136.553V146H310.938V136.553C310.938 135.869 310.846 135.35 310.664 134.994C310.491 134.63 310.236 134.379 309.898 134.242C309.57 134.096 309.178 134.023 308.723 134.023C308.249 134.023 307.834 134.119 307.479 134.311C307.123 134.493 306.827 134.748 306.59 135.076C306.353 135.404 306.175 135.787 306.057 136.225C305.938 136.653 305.879 137.122 305.879 137.633Z" fill="#505D6E"/>
<path d="M146.812 191.047V201H145.485L140.475 193.323V201H139.155V191.047H140.475L145.506 198.744V191.047H146.812ZM153.319 199.735V195.928C153.319 195.636 153.26 195.383 153.142 195.169C153.028 194.95 152.854 194.782 152.622 194.663C152.39 194.545 152.103 194.485 151.761 194.485C151.442 194.485 151.161 194.54 150.92 194.649C150.683 194.759 150.496 194.902 150.359 195.08C150.227 195.258 150.161 195.449 150.161 195.654H148.896C148.896 195.39 148.965 195.128 149.102 194.868C149.238 194.608 149.434 194.374 149.689 194.164C149.949 193.95 150.259 193.781 150.619 193.658C150.984 193.531 151.389 193.467 151.836 193.467C152.374 193.467 152.848 193.558 153.258 193.74C153.673 193.923 153.996 194.198 154.229 194.567C154.465 194.932 154.584 195.39 154.584 195.941V199.387C154.584 199.633 154.604 199.895 154.646 200.173C154.691 200.451 154.757 200.69 154.844 200.891V201H153.524C153.461 200.854 153.41 200.66 153.374 200.419C153.338 200.173 153.319 199.945 153.319 199.735ZM153.538 196.516L153.552 197.404H152.273C151.913 197.404 151.592 197.434 151.31 197.493C151.027 197.548 150.79 197.632 150.599 197.746C150.407 197.86 150.261 198.004 150.161 198.177C150.061 198.345 150.011 198.544 150.011 198.771C150.011 199.004 150.063 199.216 150.168 199.407C150.273 199.599 150.43 199.751 150.64 199.865C150.854 199.975 151.116 200.029 151.426 200.029C151.813 200.029 152.155 199.947 152.451 199.783C152.747 199.619 152.982 199.419 153.155 199.182C153.333 198.945 153.429 198.715 153.442 198.491L153.982 199.1C153.951 199.291 153.864 199.503 153.723 199.735C153.581 199.968 153.392 200.191 153.155 200.405C152.923 200.615 152.645 200.79 152.321 200.932C152.002 201.068 151.642 201.137 151.241 201.137C150.74 201.137 150.3 201.039 149.922 200.843C149.548 200.647 149.257 200.385 149.047 200.057C148.842 199.724 148.739 199.353 148.739 198.942C148.739 198.546 148.817 198.197 148.972 197.896C149.127 197.591 149.35 197.338 149.642 197.138C149.933 196.933 150.284 196.778 150.694 196.673C151.104 196.568 151.562 196.516 152.068 196.516H153.538ZM157.831 195.073V201H156.56V193.604H157.763L157.831 195.073ZM157.571 197.021L156.983 197.001C156.988 196.495 157.054 196.028 157.182 195.6C157.309 195.167 157.498 194.791 157.749 194.472C158 194.153 158.312 193.907 158.686 193.733C159.059 193.556 159.492 193.467 159.984 193.467C160.331 193.467 160.65 193.517 160.941 193.617C161.233 193.713 161.486 193.866 161.7 194.075C161.914 194.285 162.081 194.554 162.199 194.882C162.318 195.21 162.377 195.606 162.377 196.071V201H161.112V196.133C161.112 195.745 161.046 195.436 160.914 195.203C160.786 194.971 160.604 194.802 160.367 194.697C160.13 194.588 159.852 194.533 159.533 194.533C159.16 194.533 158.847 194.599 158.597 194.731C158.346 194.864 158.146 195.046 157.995 195.278C157.845 195.511 157.735 195.777 157.667 196.078C157.603 196.374 157.571 196.689 157.571 197.021ZM162.363 196.324L161.516 196.584C161.52 196.178 161.586 195.789 161.714 195.415C161.846 195.041 162.035 194.709 162.281 194.417C162.532 194.125 162.84 193.895 163.204 193.727C163.569 193.553 163.986 193.467 164.455 193.467C164.852 193.467 165.202 193.519 165.508 193.624C165.818 193.729 166.077 193.891 166.287 194.109C166.501 194.324 166.663 194.599 166.772 194.937C166.882 195.274 166.937 195.675 166.937 196.14V201H165.665V196.126C165.665 195.711 165.599 195.39 165.467 195.162C165.339 194.93 165.157 194.768 164.92 194.677C164.688 194.581 164.41 194.533 164.086 194.533C163.808 194.533 163.562 194.581 163.348 194.677C163.133 194.772 162.953 194.905 162.808 195.073C162.662 195.237 162.55 195.426 162.473 195.641C162.4 195.855 162.363 196.083 162.363 196.324ZM171.92 201.137C171.405 201.137 170.938 201.05 170.519 200.877C170.104 200.699 169.746 200.451 169.445 200.132C169.149 199.813 168.921 199.435 168.762 198.997C168.602 198.56 168.522 198.081 168.522 197.562V197.274C168.522 196.673 168.611 196.137 168.789 195.668C168.967 195.194 169.208 194.793 169.514 194.465C169.819 194.137 170.165 193.888 170.553 193.72C170.94 193.551 171.341 193.467 171.756 193.467C172.285 193.467 172.74 193.558 173.123 193.74C173.51 193.923 173.827 194.178 174.073 194.506C174.319 194.829 174.502 195.212 174.62 195.654C174.739 196.092 174.798 196.57 174.798 197.09V197.657H169.274V196.625H173.533V196.529C173.515 196.201 173.447 195.882 173.328 195.572C173.214 195.262 173.032 195.007 172.781 194.807C172.531 194.606 172.189 194.506 171.756 194.506C171.469 194.506 171.204 194.567 170.963 194.69C170.721 194.809 170.514 194.987 170.341 195.224C170.168 195.461 170.033 195.75 169.938 196.092C169.842 196.434 169.794 196.828 169.794 197.274V197.562C169.794 197.912 169.842 198.243 169.938 198.553C170.038 198.858 170.181 199.127 170.368 199.359C170.56 199.592 170.79 199.774 171.059 199.906C171.332 200.038 171.642 200.104 171.988 200.104C172.435 200.104 172.813 200.013 173.123 199.831C173.433 199.649 173.704 199.405 173.937 199.1L174.702 199.708C174.543 199.95 174.34 200.18 174.094 200.398C173.848 200.617 173.545 200.795 173.185 200.932C172.829 201.068 172.408 201.137 171.92 201.137Z" fill="#48485D"/>
<rect x="122.25" y="177.25" width="279.5" height="37.5" rx="3.75" stroke="#8EA6C1" stroke-width="0.5"/>
<path d="M142.826 259.097H140.167V258.023H142.826C143.341 258.023 143.758 257.941 144.077 257.777C144.396 257.613 144.629 257.385 144.774 257.094C144.925 256.802 145 256.469 145 256.096C145 255.754 144.925 255.433 144.774 255.132C144.629 254.831 144.396 254.59 144.077 254.407C143.758 254.22 143.341 254.127 142.826 254.127H140.475V263H139.155V253.047H142.826C143.578 253.047 144.214 253.177 144.733 253.437C145.253 253.696 145.647 254.056 145.916 254.517C146.185 254.972 146.319 255.494 146.319 256.082C146.319 256.72 146.185 257.265 145.916 257.716C145.647 258.167 145.253 258.511 144.733 258.748C144.214 258.98 143.578 259.097 142.826 259.097ZM152.321 261.291V255.604H153.593V263H152.383L152.321 261.291ZM152.561 259.732L153.087 259.719C153.087 260.211 153.035 260.667 152.93 261.086C152.829 261.501 152.665 261.861 152.438 262.166C152.21 262.471 151.911 262.711 151.542 262.884C151.173 263.052 150.724 263.137 150.195 263.137C149.835 263.137 149.505 263.084 149.204 262.979C148.908 262.875 148.653 262.713 148.438 262.494C148.224 262.275 148.058 261.991 147.939 261.64C147.826 261.289 147.769 260.867 147.769 260.375V255.604H149.033V260.389C149.033 260.721 149.07 260.997 149.143 261.216C149.22 261.43 149.323 261.601 149.45 261.729C149.582 261.852 149.728 261.938 149.888 261.988C150.052 262.038 150.22 262.063 150.394 262.063C150.931 262.063 151.357 261.961 151.672 261.756C151.986 261.546 152.212 261.266 152.349 260.915C152.49 260.56 152.561 260.165 152.561 259.732ZM155.514 252.5H156.785V261.564L156.676 263H155.514V252.5ZM161.782 259.24V259.384C161.782 259.922 161.718 260.421 161.591 260.881C161.463 261.337 161.276 261.733 161.03 262.07C160.784 262.408 160.483 262.67 160.128 262.856C159.772 263.043 159.365 263.137 158.904 263.137C158.435 263.137 158.022 263.057 157.667 262.897C157.316 262.733 157.02 262.499 156.778 262.193C156.537 261.888 156.343 261.519 156.197 261.086C156.056 260.653 155.958 260.165 155.903 259.623V258.994C155.958 258.447 156.056 257.957 156.197 257.524C156.343 257.091 156.537 256.722 156.778 256.417C157.02 256.107 157.316 255.872 157.667 255.713C158.018 255.549 158.426 255.467 158.891 255.467C159.355 255.467 159.768 255.558 160.128 255.74C160.488 255.918 160.789 256.173 161.03 256.506C161.276 256.839 161.463 257.237 161.591 257.702C161.718 258.162 161.782 258.675 161.782 259.24ZM160.511 259.384V259.24C160.511 258.871 160.477 258.525 160.408 258.201C160.34 257.873 160.23 257.586 160.08 257.34C159.93 257.089 159.731 256.893 159.485 256.752C159.239 256.606 158.936 256.533 158.576 256.533C158.257 256.533 157.979 256.588 157.742 256.697C157.51 256.807 157.312 256.955 157.147 257.142C156.983 257.324 156.849 257.534 156.744 257.771C156.644 258.003 156.569 258.244 156.519 258.495V260.143C156.591 260.462 156.71 260.769 156.874 261.065C157.043 261.357 157.266 261.596 157.544 261.783C157.826 261.97 158.175 262.063 158.59 262.063C158.932 262.063 159.223 261.995 159.465 261.858C159.711 261.717 159.909 261.523 160.06 261.277C160.215 261.031 160.328 260.746 160.401 260.423C160.474 260.099 160.511 259.753 160.511 259.384ZM164.756 252.5V263H163.484V252.5H164.756ZM168.16 255.604V263H166.889V255.604H168.16ZM166.793 253.642C166.793 253.437 166.854 253.263 166.978 253.122C167.105 252.981 167.292 252.91 167.538 252.91C167.78 252.91 167.964 252.981 168.092 253.122C168.224 253.263 168.29 253.437 168.29 253.642C168.29 253.838 168.224 254.006 168.092 254.147C167.964 254.284 167.78 254.353 167.538 254.353C167.292 254.353 167.105 254.284 166.978 254.147C166.854 254.006 166.793 253.838 166.793 253.642ZM173.15 262.098C173.451 262.098 173.729 262.036 173.984 261.913C174.24 261.79 174.449 261.621 174.613 261.407C174.777 261.188 174.871 260.94 174.894 260.662H176.097C176.074 261.1 175.926 261.507 175.652 261.886C175.383 262.259 175.03 262.562 174.593 262.795C174.155 263.023 173.674 263.137 173.15 263.137C172.594 263.137 172.109 263.039 171.694 262.843C171.284 262.647 170.942 262.378 170.669 262.036C170.4 261.694 170.197 261.302 170.061 260.86C169.928 260.414 169.862 259.942 169.862 259.445V259.158C169.862 258.661 169.928 258.192 170.061 257.75C170.197 257.303 170.4 256.909 170.669 256.567C170.942 256.226 171.284 255.957 171.694 255.761C172.109 255.565 172.594 255.467 173.15 255.467C173.729 255.467 174.235 255.585 174.668 255.822C175.101 256.055 175.44 256.374 175.687 256.779C175.937 257.18 176.074 257.636 176.097 258.146H174.894C174.871 257.841 174.784 257.565 174.634 257.319C174.488 257.073 174.287 256.877 174.032 256.731C173.782 256.581 173.488 256.506 173.15 256.506C172.763 256.506 172.437 256.583 172.173 256.738C171.913 256.889 171.706 257.094 171.551 257.354C171.4 257.609 171.291 257.894 171.223 258.208C171.159 258.518 171.127 258.835 171.127 259.158V259.445C171.127 259.769 171.159 260.088 171.223 260.402C171.286 260.717 171.394 261.002 171.544 261.257C171.699 261.512 171.906 261.717 172.166 261.872C172.43 262.022 172.758 262.098 173.15 262.098ZM188.839 253.047V263H187.513L182.502 255.323V263H181.183V253.047H182.502L187.533 260.744V253.047H188.839ZM195.347 261.735V257.928C195.347 257.636 195.287 257.383 195.169 257.169C195.055 256.95 194.882 256.782 194.649 256.663C194.417 256.545 194.13 256.485 193.788 256.485C193.469 256.485 193.189 256.54 192.947 256.649C192.71 256.759 192.523 256.902 192.387 257.08C192.255 257.258 192.188 257.449 192.188 257.654H190.924C190.924 257.39 190.992 257.128 191.129 256.868C191.266 256.608 191.462 256.374 191.717 256.164C191.977 255.95 192.286 255.781 192.646 255.658C193.011 255.531 193.417 255.467 193.863 255.467C194.401 255.467 194.875 255.558 195.285 255.74C195.7 255.923 196.023 256.198 196.256 256.567C196.493 256.932 196.611 257.39 196.611 257.941V261.387C196.611 261.633 196.632 261.895 196.673 262.173C196.718 262.451 196.785 262.69 196.871 262.891V263H195.552C195.488 262.854 195.438 262.66 195.401 262.419C195.365 262.173 195.347 261.945 195.347 261.735ZM195.565 258.516L195.579 259.404H194.301C193.941 259.404 193.619 259.434 193.337 259.493C193.054 259.548 192.817 259.632 192.626 259.746C192.435 259.86 192.289 260.004 192.188 260.177C192.088 260.345 192.038 260.544 192.038 260.771C192.038 261.004 192.09 261.216 192.195 261.407C192.3 261.599 192.457 261.751 192.667 261.865C192.881 261.975 193.143 262.029 193.453 262.029C193.84 262.029 194.182 261.947 194.479 261.783C194.775 261.619 195.009 261.419 195.183 261.182C195.36 260.945 195.456 260.715 195.47 260.491L196.01 261.1C195.978 261.291 195.891 261.503 195.75 261.735C195.609 261.968 195.42 262.191 195.183 262.405C194.95 262.615 194.672 262.79 194.349 262.932C194.03 263.068 193.67 263.137 193.269 263.137C192.767 263.137 192.327 263.039 191.949 262.843C191.576 262.647 191.284 262.385 191.074 262.057C190.869 261.724 190.767 261.353 190.767 260.942C190.767 260.546 190.844 260.197 190.999 259.896C191.154 259.591 191.377 259.338 191.669 259.138C191.961 258.933 192.312 258.778 192.722 258.673C193.132 258.568 193.59 258.516 194.096 258.516H195.565ZM199.858 257.073V263H198.587V255.604H199.79L199.858 257.073ZM199.599 259.021L199.011 259.001C199.015 258.495 199.081 258.028 199.209 257.6C199.337 257.167 199.526 256.791 199.776 256.472C200.027 256.153 200.339 255.907 200.713 255.733C201.087 255.556 201.52 255.467 202.012 255.467C202.358 255.467 202.677 255.517 202.969 255.617C203.26 255.713 203.513 255.866 203.728 256.075C203.942 256.285 204.108 256.554 204.227 256.882C204.345 257.21 204.404 257.606 204.404 258.071V263H203.14V258.133C203.14 257.745 203.074 257.436 202.941 257.203C202.814 256.971 202.632 256.802 202.395 256.697C202.158 256.588 201.88 256.533 201.561 256.533C201.187 256.533 200.875 256.599 200.624 256.731C200.373 256.864 200.173 257.046 200.022 257.278C199.872 257.511 199.763 257.777 199.694 258.078C199.631 258.374 199.599 258.689 199.599 259.021ZM204.391 258.324L203.543 258.584C203.548 258.178 203.614 257.789 203.741 257.415C203.873 257.041 204.062 256.709 204.309 256.417C204.559 256.125 204.867 255.895 205.231 255.727C205.596 255.553 206.013 255.467 206.482 255.467C206.879 255.467 207.23 255.519 207.535 255.624C207.845 255.729 208.105 255.891 208.314 256.109C208.529 256.324 208.69 256.599 208.8 256.937C208.909 257.274 208.964 257.675 208.964 258.14V263H207.692V258.126C207.692 257.711 207.626 257.39 207.494 257.162C207.367 256.93 207.184 256.768 206.947 256.677C206.715 256.581 206.437 256.533 206.113 256.533C205.835 256.533 205.589 256.581 205.375 256.677C205.161 256.772 204.981 256.905 204.835 257.073C204.689 257.237 204.577 257.426 204.5 257.641C204.427 257.855 204.391 258.083 204.391 258.324ZM213.947 263.137C213.432 263.137 212.965 263.05 212.546 262.877C212.131 262.699 211.773 262.451 211.473 262.132C211.176 261.813 210.949 261.435 210.789 260.997C210.63 260.56 210.55 260.081 210.55 259.562V259.274C210.55 258.673 210.639 258.137 210.816 257.668C210.994 257.194 211.236 256.793 211.541 256.465C211.846 256.137 212.193 255.888 212.58 255.72C212.967 255.551 213.368 255.467 213.783 255.467C214.312 255.467 214.768 255.558 215.15 255.74C215.538 255.923 215.854 256.178 216.101 256.506C216.347 256.829 216.529 257.212 216.647 257.654C216.766 258.092 216.825 258.57 216.825 259.09V259.657H211.302V258.625H215.561V258.529C215.542 258.201 215.474 257.882 215.355 257.572C215.242 257.262 215.059 257.007 214.809 256.807C214.558 256.606 214.216 256.506 213.783 256.506C213.496 256.506 213.232 256.567 212.99 256.69C212.749 256.809 212.541 256.987 212.368 257.224C212.195 257.461 212.061 257.75 211.965 258.092C211.869 258.434 211.821 258.828 211.821 259.274V259.562C211.821 259.912 211.869 260.243 211.965 260.553C212.065 260.858 212.209 261.127 212.396 261.359C212.587 261.592 212.817 261.774 213.086 261.906C213.359 262.038 213.669 262.104 214.016 262.104C214.462 262.104 214.84 262.013 215.15 261.831C215.46 261.649 215.731 261.405 215.964 261.1L216.729 261.708C216.57 261.95 216.367 262.18 216.121 262.398C215.875 262.617 215.572 262.795 215.212 262.932C214.856 263.068 214.435 263.137 213.947 263.137Z" fill="#48485D"/>
<rect x="122.25" y="239.25" width="279.5" height="37.5" rx="3.75" stroke="#8EA6C1" stroke-width="0.5"/>
<path d="M142.833 315.047V325H141.534V315.047H142.833ZM146.032 315.047V316.127H138.342V315.047H146.032ZM148.903 324.234L150.961 317.604H152.314L149.348 326.142C149.279 326.324 149.188 326.52 149.074 326.729C148.965 326.944 148.824 327.146 148.65 327.338C148.477 327.529 148.268 327.684 148.021 327.803C147.78 327.926 147.491 327.987 147.153 327.987C147.053 327.987 146.925 327.974 146.771 327.946C146.616 327.919 146.506 327.896 146.442 327.878L146.436 326.853C146.472 326.857 146.529 326.862 146.606 326.866C146.688 326.875 146.745 326.88 146.777 326.88C147.064 326.88 147.308 326.841 147.509 326.764C147.709 326.691 147.878 326.565 148.015 326.388C148.156 326.215 148.277 325.975 148.377 325.67L148.903 324.234ZM147.393 317.604L149.313 323.346L149.642 324.679L148.732 325.144L146.012 317.604H147.393ZM154.721 319.025V327.844H153.449V317.604H154.611L154.721 319.025ZM159.704 321.24V321.384C159.704 321.922 159.64 322.421 159.513 322.881C159.385 323.337 159.198 323.733 158.952 324.07C158.711 324.408 158.412 324.67 158.057 324.856C157.701 325.043 157.293 325.137 156.833 325.137C156.364 325.137 155.949 325.059 155.589 324.904C155.229 324.749 154.924 324.524 154.673 324.228C154.422 323.931 154.222 323.576 154.071 323.161C153.925 322.746 153.825 322.279 153.771 321.76V320.994C153.825 320.447 153.928 319.957 154.078 319.524C154.229 319.091 154.427 318.722 154.673 318.417C154.924 318.107 155.227 317.872 155.582 317.713C155.938 317.549 156.348 317.467 156.812 317.467C157.277 317.467 157.69 317.558 158.05 317.74C158.41 317.918 158.713 318.173 158.959 318.506C159.205 318.839 159.39 319.237 159.513 319.702C159.64 320.162 159.704 320.675 159.704 321.24ZM158.433 321.384V321.24C158.433 320.871 158.394 320.525 158.316 320.201C158.239 319.873 158.118 319.586 157.954 319.34C157.795 319.089 157.59 318.893 157.339 318.752C157.088 318.606 156.79 318.533 156.443 318.533C156.124 318.533 155.846 318.588 155.609 318.697C155.377 318.807 155.179 318.955 155.015 319.142C154.851 319.324 154.716 319.534 154.611 319.771C154.511 320.003 154.436 320.244 154.386 320.495V322.266C154.477 322.585 154.604 322.885 154.769 323.168C154.933 323.446 155.151 323.672 155.425 323.845C155.698 324.013 156.042 324.098 156.457 324.098C156.799 324.098 157.093 324.027 157.339 323.886C157.59 323.74 157.795 323.542 157.954 323.291C158.118 323.04 158.239 322.753 158.316 322.43C158.394 322.102 158.433 321.753 158.433 321.384ZM164.387 325.137C163.872 325.137 163.405 325.05 162.985 324.877C162.571 324.699 162.213 324.451 161.912 324.132C161.616 323.813 161.388 323.435 161.229 322.997C161.069 322.56 160.989 322.081 160.989 321.562V321.274C160.989 320.673 161.078 320.137 161.256 319.668C161.434 319.194 161.675 318.793 161.98 318.465C162.286 318.137 162.632 317.888 163.02 317.72C163.407 317.551 163.808 317.467 164.223 317.467C164.751 317.467 165.207 317.558 165.59 317.74C165.977 317.923 166.294 318.178 166.54 318.506C166.786 318.829 166.968 319.212 167.087 319.654C167.205 320.092 167.265 320.57 167.265 321.09V321.657H161.741V320.625H166V320.529C165.982 320.201 165.913 319.882 165.795 319.572C165.681 319.262 165.499 319.007 165.248 318.807C164.997 318.606 164.656 318.506 164.223 318.506C163.936 318.506 163.671 318.567 163.43 318.69C163.188 318.809 162.981 318.987 162.808 319.224C162.634 319.461 162.5 319.75 162.404 320.092C162.309 320.434 162.261 320.828 162.261 321.274V321.562C162.261 321.912 162.309 322.243 162.404 322.553C162.505 322.858 162.648 323.127 162.835 323.359C163.026 323.592 163.257 323.774 163.525 323.906C163.799 324.038 164.109 324.104 164.455 324.104C164.902 324.104 165.28 324.013 165.59 323.831C165.9 323.649 166.171 323.405 166.403 323.1L167.169 323.708C167.009 323.95 166.807 324.18 166.561 324.398C166.314 324.617 166.011 324.795 165.651 324.932C165.296 325.068 164.874 325.137 164.387 325.137Z" fill="#48485D"/>
<rect x="122.25" y="301.25" width="279.5" height="37.5" rx="3.75" stroke="#8EA6C1" stroke-width="0.5"/>
<path d="M386.814 318.165C386.694 318.056 386.537 317.997 386.375 318H377.625C377.463 317.997 377.306 318.056 377.186 318.165C377.127 318.212 377.08 318.271 377.048 318.339C377.015 318.406 376.998 318.48 376.998 318.555C376.998 318.63 377.015 318.705 377.048 318.772C377.08 318.84 377.127 318.899 377.186 318.946L381.561 322.835C381.682 322.941 381.838 323 382 323C382.161 323 382.317 322.941 382.439 322.835L386.814 318.946C386.873 318.899 386.92 318.84 386.952 318.772C386.985 318.705 387.002 318.63 387.002 318.555C387.002 318.48 386.985 318.406 386.952 318.339C386.92 318.271 386.873 318.212 386.814 318.165Z" fill="#6667AB"/>
<path opacity="0.1" d="M262 104C284.091 104 302 86.0914 302 64C302 41.9086 284.091 24 262 24C239.909 24 222 41.9086 222 64C222 86.0914 239.909 104 262 104Z" fill="#8EA6C1"/>
<g clip-path="url(#clip0_1_1749)">
<path d="M278.92 51.38L262.72 44.18C262.18 44 261.82 44 261.28 44.18L245.08 51.38C244.36 51.56 244 52.28 244 53C244 53.72 244.36 54.44 245.08 54.62L261.28 61.82C261.46 62 261.82 62 262 62C262.18 62 262.54 62 262.72 61.82L278.92 54.62C279.64 54.44 280 53.72 280 53C280 52.28 279.64 51.56 278.92 51.38Z" fill="#6667AB"/>
<path d="M262 71C261.82 71 261.46 71 261.28 70.82L245.08 63.62C244.18 63.26 243.82 62.18 244.18 61.28C244.54 60.38 245.62 60.02 246.52 60.38L262 67.22L277.48 60.38C278.38 60.02 279.46 60.38 279.82 61.28C280.18 62.18 279.82 63.26 278.92 63.62L262.72 70.82C262.54 71 262.18 71 262 71Z" fill="#6667AB"/>
<path d="M262 80C261.82 80 261.46 80 261.28 79.82L245.08 72.62C244.18 72.26 243.82 71.18 244.18 70.28C244.54 69.38 245.62 69.02 246.52 69.38L262 76.22L277.48 69.38C278.38 69.02 279.46 69.38 279.82 70.28C280.18 71.18 279.82 72.26 278.92 72.62L262.72 79.82C262.54 80 262.18 80 262 80Z" fill="#6667AB"/>
</g>
<defs>
<clipPath id="clip0_1_1749">
<rect width="36" height="36" fill="white" transform="translate(244 44)"/>
</clipPath>
</defs>
</svg>
