<svg viewBox="0 0 24 24" fill="none" xmlns="http://www.w3.org/2000/svg">
<path d="M5.72495 7.85939H11.4112V6.29688H12.5877V7.85939H18.2739C18.5988 7.85939 18.8622 7.59704 18.8622 7.27345V5.71094C18.8622 5.38735 18.5988 5.12501 18.2739 5.12501H15.4883C15.6392 4.83176 15.7249 4.5 15.7249 4.14844C15.7249 2.96379 14.7574 2 13.5681 2C12.9504 2 12.393 2.26035 11.9994 2.67617C11.6059 2.26035 11.0485 2 10.4308 2C9.24153 2 8.27397 2.96379 8.27397 4.14844C8.27397 4.5 8.35973 4.83176 8.51063 5.12501H5.72495C5.40009 5.12501 5.13672 5.38735 5.13672 5.71094V7.27345C5.13672 7.59704 5.40009 7.85939 5.72495 7.85939ZM13.5681 3.17188C14.1087 3.17188 14.5485 3.60996 14.5485 4.14844C14.5485 4.68692 14.1087 5.12501 13.5681 5.12501H12.5877V4.14844C12.5877 3.60996 13.0275 3.17188 13.5681 3.17188ZM9.45043 4.14844C9.45043 3.60996 9.89024 3.17188 10.4308 3.17188C10.9714 3.17188 11.4112 3.60996 11.4112 4.14844V5.12501H10.4308C9.89024 5.12501 9.45043 4.68692 9.45043 4.14844Z" fill="#505D6E"/>
<path d="M21.6313 14.0907C21.0999 13.4953 20.1862 13.4373 19.5833 13.9608L17.2389 15.9963C17.2399 16.0261 17.2411 16.0558 17.2411 16.0859C17.2411 17.5394 16.054 18.7219 14.5947 18.7219H11.4418C11.117 18.7219 10.8536 18.4596 10.8536 18.136C10.8536 17.8124 11.117 17.5501 11.4418 17.5501H13.0193H14.5953C15.4068 17.5501 16.0647 16.8947 16.0647 16.0863C16.0647 15.2776 15.4063 14.6221 14.5943 14.6226L11.5242 14.6245C10.6851 13.674 9.5255 13.0982 8.25809 13.0031C6.98813 12.9079 5.7528 13.3058 4.77936 14.1236L4.50391 14.355L7.39605 21.077H14.8652C15.5917 21.077 16.2896 20.8107 16.8301 20.3272L21.5157 16.1365C22.1128 15.6025 22.1645 14.6882 21.6313 14.0907Z" fill="#505D6E"/>
<path d="M12.5879 13.4516L14.5935 13.4504C15.5664 13.4504 16.4179 13.9748 16.878 14.7546L18.0781 13.7127V9.03125H12.5879V13.4516Z" fill="#505D6E"/>
<path d="M7.88944 11.817C8.04116 11.817 8.19508 11.8228 8.34693 11.8342C9.46814 11.9183 10.5216 12.3052 11.4121 12.9472V9.03125H5.92188V12.1495C6.55074 11.9314 7.21571 11.817 7.88944 11.817Z" fill="#505D6E"/>
<path d="M2.35655 15.4068C2.21318 15.468 2.10004 15.5834 2.04208 15.7277C1.98412 15.872 1.98612 16.0333 2.04757 16.1761L4.4005 21.6449C4.49611 21.8671 4.71325 22.0002 4.94144 22.0002C5.01874 22.0002 5.09732 21.9849 5.17289 21.9526L6.2883 21.4765L3.472 14.9307L2.35655 15.4068Z" fill="#505D6E"/>
</svg>
