<svg width="40" height="40" viewBox="0 0 40 40" fill="none" xmlns="http://www.w3.org/2000/svg">
<circle cx="20" cy="20" r="20" fill="#D4D5E2"/>
<path d="M27.7083 13H12.2917C11.0275 13 10 14.0275 10 15.2917V25.7083C10 26.9725 11.0275 28 12.2917 28H27.7083C28.9725 28 30 26.9725 30 25.7083V15.2917C30 14.0275 28.9725 13 27.7083 13V13ZM16.25 16.3333C17.3984 16.3333 18.3333 17.2683 18.3333 18.4167C18.3333 19.5649 17.3984 20.5 16.25 20.5C15.1016 20.5 14.1667 19.5649 14.1667 18.4167C14.1667 17.2683 15.1016 16.3333 16.25 16.3333ZM20 24.0417C20 24.3867 19.72 24.6667 19.375 24.6667H13.125C12.78 24.6667 12.5 24.3867 12.5 24.0417V23.625C12.5 22.3608 13.5275 21.3333 14.7917 21.3333H17.7083C18.9725 21.3333 20 22.3608 20 23.625V24.0417ZM26.875 24.6667H22.2917C21.9467 24.6667 21.6667 24.3867 21.6667 24.0417C21.6667 23.6967 21.9467 23.4167 22.2917 23.4167H26.875C27.22 23.4167 27.5 23.6967 27.5 24.0417C27.5 24.3867 27.22 24.6667 26.875 24.6667ZM26.875 21.3333H22.2917C21.9467 21.3333 21.6667 21.0533 21.6667 20.7083C21.6667 20.3633 21.9467 20.0833 22.2917 20.0833H26.875C27.22 20.0833 27.5 20.3633 27.5 20.7083C27.5 21.0533 27.22 21.3333 26.875 21.3333ZM26.875 18H22.2917C21.9467 18 21.6667 17.72 21.6667 17.375C21.6667 17.03 21.9467 16.75 22.2917 16.75H26.875C27.22 16.75 27.5 17.03 27.5 17.375C27.5 17.72 27.22 18 26.875 18Z" fill="#6667AB"/>
</svg>
