<svg viewBox="0 0 13 13" fill="none" xmlns="http://www.w3.org/2000/svg">
    <path d="M1.90369 1.90369C-0.634565 4.44195 -0.634565 8.55805 1.90369 11.0963C4.44195 13.6346 8.55805 13.6346 11.0963 11.0963C13.6346 8.55805 13.6346 4.44195 11.0963 1.90369C8.55805 -0.634565 4.44195 -0.634565 1.90369 1.90369ZM6.76069 2.72696C7.30945 2.72696 7.74855 3.17973 7.74855 3.72852C7.74855 4.27728 7.29578 4.73008 6.76069 4.73008C6.21192 4.73008 5.75913 4.27731 5.75913 3.71475C5.75913 3.16606 6.21183 2.72699 6.76069 2.72699V2.72696ZM8.17388 9.4362C8.14641 9.5185 8.09157 9.61459 8.03664 9.66943C7.67993 10.0399 7.24086 10.2594 6.71944 10.2594C6.47252 10.2594 6.23918 10.2594 5.99226 10.2182C5.59442 10.1634 5.08669 9.66944 5.15532 9.14802C5.21016 8.79131 5.2651 8.43454 5.31994 8.07783C5.42971 7.46044 5.53948 6.82926 5.64925 6.21187C5.64925 6.17071 5.66293 6.12956 5.66293 6.08841C5.66293 5.8277 5.58063 5.7317 5.31992 5.70424C5.21015 5.69055 5.10038 5.67677 4.99061 5.6494C4.86715 5.60825 4.79853 5.49847 4.81222 5.40248C4.82591 5.29271 4.89453 5.22409 5.03177 5.19672C5.10039 5.18303 5.18269 5.18303 5.265 5.18303H6.18426H7.15845C7.39169 5.18303 7.52893 5.29281 7.52893 5.52604C7.52893 5.71812 7.50146 5.91021 7.4603 6.10229C7.33684 6.81577 7.19959 7.51548 7.07614 8.22897C7.03498 8.4622 6.98005 8.69543 6.95268 8.92868C6.93899 9.03845 6.95268 9.16191 6.98014 9.27169C7.0213 9.42261 7.13107 9.50492 7.28199 9.49123C7.40545 9.47755 7.52891 9.43639 7.65246 9.38146C7.74855 9.3403 7.83086 9.27168 7.92684 9.24422C8.09155 9.18928 8.21502 9.28527 8.17386 9.4362L8.17388 9.4362Z" fill="#f9a500" />
</svg>