<svg width="50" height="23" fill="none" xmlns="http://www.w3.org/2000/svg"><path d="M48.822 0c.382-.024.847 1.36 1.178 3.286h-2c.002-.59.07-1.176.2-1.748.147-.643.346-1.52.622-1.538z" fill="#B2B2B4"/><path d="M49.194.995c.179.507.355 1.212.508 2.04h-1.447c.018-.485.081-.968.19-1.441.073-.325.157-.692.255-.98.049-.144.096-.254.14-.323l.006-.009c.018.02.04.049.066.088.086.131.182.34.282.625zm-.312-.759v.001z" stroke="#000" stroke-opacity=".5" stroke-width=".5"/><mask id="a" fill="#fff"><path d="M49 0H1c.12.292.206.537.259.702.386 1.195.47 2.217.468 2.705v13.474S16.67 22.993 25.314 23c8.645.007 22.957-6.119 22.957-6.119V3.407c0-.488.082-1.51.469-2.705A8.66 8.66 0 0 1 49 0z"/></mask><path d="M49 0H1c.12.292.206.537.259.702.386 1.195.47 2.217.468 2.705v13.474S16.67 22.993 25.314 23c8.645.007 22.957-6.119 22.957-6.119V3.407c0-.488.082-1.51.469-2.705A8.66 8.66 0 0 1 49 0z" fill="#D6D7D9" fill-opacity=".5"/><path d="m49 0 .46.194.293-.694H49V0zM1 0v-.5H.252l.286.691L1 0zm.259.702L.783.856l.476-.154zm.468 2.705-.5-.001v.001h.5zm0 13.474h-.5v.336l.311.127.19-.463zm46.544 0 .197.46.303-.13v-.33h-.5zM48.74.702l.475.155V.856L48.74.702zM49-.5H48.91v1H49v-1zm-.09 0H48.823v1H48.91v-1zm-.087 0H1.177v1h47.646v-1zM1.177-.5H1.09v1H1.177v-1zm-.087 0H1v1H1.09v-1zM.538.191c.115.277.195.51.245.665l.952-.307a9.773 9.773 0 0 0-.273-.74L.538.19zm.245.665c.369 1.14.446 2.109.444 2.55l1 .003c.002-.536-.088-1.61-.492-2.86L.782.856zm.444 2.551v.628h1v-.628h-1zm0 .628V16.88h1V4.035h-1zm.5 12.846-.189.463.003.001.009.004.033.013a37.346 37.346 0 0 0 .62.247 131.728 131.728 0 0 0 7.924 2.805c4.818 1.53 10.78 3.083 15.187 3.086v-1c-4.237-.003-10.069-1.51-14.884-3.038a130.759 130.759 0 0 1-7.86-2.784 74.271 74.271 0 0 1-.612-.243l-.031-.012-.008-.003-.002-.001-.19.462zM25.314 23.5c4.41.003 10.215-1.55 14.877-3.082a118.984 118.984 0 0 0 7.638-2.811c.205-.084.364-.15.472-.196l.124-.052.031-.013.008-.004h.003l-.196-.46-.197-.46h-.002l-.008.004-.03.013a29.452 29.452 0 0 1-.585.243 117.972 117.972 0 0 1-7.57 2.786c-4.656 1.53-10.329 3.035-14.564 3.032l-.001 1zm23.457-6.619V4.035h-1V16.88h1zm0-12.846V3.407h-1V4.034h1zm0-.628c0-.442.076-1.411.444-2.55l-.95-.309c-.406 1.251-.494 2.326-.494 2.86h1zm.445-2.551c.05-.156.13-.388.245-.662l-.922-.388c-.13.309-.219.569-.275.743l.952.307z" fill="#000" fill-opacity=".5" mask="url(#a)"/><path d="M1.178 0C.795-.024.331 1.36 0 3.286h2a8.013 8.013 0 0 0-.2-1.748C1.653.895 1.454.018 1.178 0z" fill="#B2B2B4"/><path d="M1.745 3.036H.298c.153-.83.33-1.534.507-2.041.1-.285.197-.494.283-.625a.708.708 0 0 1 .066-.088A1.624 1.624 0 0 1 1.3.614c.097.287.18.651.255.975v.005c.109.473.172.956.19 1.442zm-.628-2.8.002.001h-.002z" stroke="#000" stroke-opacity=".5" stroke-width=".5"/></svg>