<svg width="80" height="80" viewBox="0 0 80 80" fill="none" xmlns="http://www.w3.org/2000/svg">
<path opacity="0.1" d="M40 80C62.0914 80 80 62.0914 80 40C80 17.9086 62.0914 0 40 0C17.9086 0 0 17.9086 0 40C0 62.0914 17.9086 80 40 80Z" fill="#D30000"/>
<path d="M51.5625 49.8438V41.3125H39.668C39.3199 41.3125 38.986 41.1742 38.7399 40.9281C38.4937 40.6819 38.3555 40.3481 38.3555 40C38.3555 39.6519 38.4937 39.3181 38.7399 39.0719C38.986 38.8258 39.3199 38.6875 39.668 38.6875H51.5625V30.1562C51.5612 28.9383 51.0768 27.7706 50.2156 26.9094C49.3544 26.0482 48.1867 25.5638 46.9688 25.5625H31.2188C30.0008 25.5638 28.8331 26.0482 27.9719 26.9094C27.1107 27.7706 26.6263 28.9383 26.625 30.1562V49.8438C26.6263 51.0617 27.1107 52.2294 27.9719 53.0906C28.8331 53.9518 30.0008 54.4362 31.2188 54.4375H46.9688C48.1867 54.4362 49.3544 53.9518 50.2156 53.0906C51.0768 52.2294 51.5612 51.0617 51.5625 49.8438V49.8438Z" fill="#D30000"/>
<path d="M58.8936 41.3122L54.5722 45.6344C54.3365 45.8825 54.207 46.213 54.2114 46.5552C54.2157 46.8975 54.3537 47.2245 54.5957 47.4665C54.8377 47.7085 55.1647 47.8464 55.507 47.8508C55.8492 47.8552 56.1796 47.7257 56.4278 47.4899L62.9903 40.9274C63.2362 40.6813 63.3744 40.3476 63.3744 39.9997C63.3744 39.6517 63.2362 39.318 62.9903 39.0719L56.4278 32.5094C56.1796 32.2737 55.8492 32.1442 55.507 32.1485C55.1647 32.1529 54.8377 32.2908 54.5957 32.5329C54.3537 32.7749 54.2157 33.1019 54.2114 33.4441C54.207 33.7864 54.3365 34.1168 54.5722 34.3649L58.8936 38.6872H51.5625V41.3122H58.8936Z" fill="#D30000"/>
</svg>
