<svg id="Component_193_6" data-name="Component 193 – 6" xmlns="http://www.w3.org/2000/svg" width="24" height="24"
  viewBox="0 0 24 24">
  <rect id="Rectangle_918" data-name="Rectangle 918" width="24" height="24" fill="none" />
  <g id="off-button" transform="translate(5 5)">
    <g id="Group_2179" data-name="Group 2179">
      <path id="Path_3510" data-name="Path 3510"
        d="M7,0a7,7,0,1,0,7,7A7.008,7.008,0,0,0,7,0ZM6.364,3.182a.636.636,0,0,1,1.273,0V5.909a.636.636,0,0,1-1.273,0ZM7,11.455A4.046,4.046,0,0,1,3.979,4.718a.636.636,0,1,1,.95.847,2.773,2.773,0,1,0,4.141,0,.636.636,0,0,1,.95-.847A4.046,4.046,0,0,1,7,11.455Z"
        fill="#505d6e" />
    </g>
  </g>
</svg>