<svg xmlns="http://www.w3.org/2000/svg" xml:space="preserve" id="Layer_1" x="0" y="0"
    style="enable-background:new 0 0 20.5 24" version="1.1" viewBox="0 0 20.5 24">
    <path
        d="M20.4 20.4s-2.7-4.6-3.1-5.4c.5-.2 1.1-.3 1.4-.7.4-.7-.3-1.8-.1-2.6.2-.8 1.3-1.4 1.3-2.2 0-.8-1.2-1.6-1.4-2.4-.2-.7.5-1.9.1-2.6-.4-.7-1.7-.6-2.3-1.2-.6-.5-.6-1.9-1.3-2.2-.7-.4-1.8.4-2.6.2-.7-.2-1.3-1.3-2.1-1.3S8.2 1.3 8 1.3c-.8.2-1.9-.5-2.6-.2-.7.4-.7 1.7-1.2 2.3-.6.5-1.9.5-2.3 1.2-.4.7.3 1.8.1 2.5C1.8 7.9.6 8.6.6 9.5c0 .8 1.1 1.4 1.3 2.2.2.7-.5 1.9-.1 2.6.2.4.7.5 1.2.7.1 0 .2.1.1.2-.3.6-3.1 5.3-3.1 5.3-.2.4 0 .7.4.7l2.1.1c.4 0 1 .3 1.2.7l1.1 1.8c.2.4.6.4.8 0l3.2-5.5c.1-.1.1-.1.2 0 .3.3.8.6 1.2.6.4 0 .8-.3 1.1-.6 0 0 .1-.1.2 0l3.2 5.4c.2.4.6.4.8 0l1.1-1.8c.2-.4.8-.7 1.2-.7l2.1-.1c.6 0 .7-.3.5-.7zm-6.6-4.9c-2.3 1.4-5.2 1.2-7.3-.1-3.1-2-4.2-6.2-2.3-9.5 1.9-3.3 6.1-4.5 9.5-2.7h.2c1 .6 1.9 1.5 2.6 2.6 1.8 3.4.6 7.7-2.7 9.7z"
        fill="#6667ab" />
    <path
        d="M13.2 4.3c-1.8-1-4.1-1.1-6 0-2.8 1.6-3.8 5.3-2.1 8.1.5.9 1.2 1.5 2 2 .1 0 .1.1.2.1 2.8 1.6 6.5.7 8.1-2.2 1.6-2.7.7-6.4-2.2-8zm.7 4.6-1 1c-.3.3-.5.9-.4 1.3l.2 1.4c.1.4-.2.6-.6.4l-1.1-.7c-.4-.2-1-.2-1.4 0l-1.2.6c-.4.2-.6 0-.6-.4l.2-1.3c.1-.4-.1-1-.4-1.3l-1-1c-.3-.3-.2-.6.2-.6l1.4-.2c.4-.1.9-.5 1.1-.9L9.9 6c.2-.4.5-.4.7 0l.6 1.2c.2.4.7.7 1.1.8l1.4.2c.4.1.5.4.2.7z"
        fill="#6667ab" />
</svg>