<svg width="22" height="24" viewBox="0 0 22 24" fill="none" xmlns="http://www.w3.org/2000/svg">
<path d="M21.1594 20.3921C21.1594 20.3921 18.4956 15.8139 18.0178 14.9928C18.5614 14.827 19.1405 14.6805 19.3811 14.265C19.7822 13.5727 19.0683 12.4371 19.2558 11.695C19.4489 10.9313 20.5887 10.2705 20.5887 9.49422C20.5887 8.73791 19.4103 7.85435 19.2171 7.09512C19.0283 6.35322 19.74 5.21632 19.3377 4.52487C18.9354 3.83336 17.5954 3.89017 17.0437 3.35938C16.4762 2.81314 16.4779 1.47668 15.7933 1.11063C15.106 0.743206 13.9889 1.48576 13.2257 1.30987C12.4712 1.13599 11.7971 0 11.009 0C10.2093 0 8.93722 1.2886 8.73771 1.33497C7.97492 1.51229 6.85638 0.771549 6.16973 1.14053C5.48581 1.50782 5.49002 2.84441 4.92349 3.39155C4.37278 3.92332 3.03269 3.86897 2.63161 4.56126C2.23059 5.25342 2.94442 6.38882 2.75704 7.13125C2.56915 7.87556 1.38964 8.62973 1.38964 9.49052C1.38964 10.2669 2.53231 10.9256 2.72656 11.6889C2.91536 12.4309 2.20367 13.5676 2.60599 14.2593C2.82501 14.6358 3.32195 14.7904 3.81825 14.939C3.87616 14.9563 3.98571 15.0211 3.91151 15.1292C3.57198 15.7153 0.839194 20.4316 0.839194 20.4316C0.621791 20.8068 0.798334 21.1284 1.23139 21.1466L3.35114 21.235C3.7842 21.2532 4.32744 21.5679 4.5586 21.9345L5.68972 23.7294C5.92087 24.0961 6.28764 24.0892 6.50498 23.7141C6.50498 23.7141 9.66985 18.2501 9.67115 18.2485C9.73464 18.1743 9.79846 18.1896 9.82901 18.2155C10.1753 18.5104 10.658 18.8045 11.0609 18.8045C11.456 18.8045 11.8219 18.5276 12.1838 18.2188C12.2133 18.1937 12.2849 18.1423 12.3373 18.2491C12.3382 18.2507 15.4995 23.6849 15.4995 23.6849C15.7175 24.0595 16.0843 24.0658 16.3147 23.6987L17.4427 21.9017C17.6732 21.5348 18.2158 21.2189 18.6489 21.2L20.7685 21.1077C21.2013 21.0887 21.3773 20.7666 21.1594 20.3921ZM14.5122 15.4771C12.1685 16.8406 9.35529 16.6945 7.20655 15.3391C4.05803 13.3224 3.02205 9.15047 4.9148 5.88364C6.82914 2.57914 11.0373 1.41312 14.3716 3.22908C14.3891 3.23861 14.4064 3.24847 14.4238 3.2582C14.4485 3.27188 14.4732 3.28576 14.4977 3.29977C15.5264 3.89283 16.4184 4.75356 17.0571 5.85141C19.0092 9.2069 17.8676 13.525 14.5122 15.4771Z" fill="#6667AB"/>
<path d="M13.9759 4.28678C13.9661 4.28114 13.9563 4.27588 13.9465 4.2703C12.1654 3.23945 9.89526 3.16409 7.99265 4.27102C5.16926 5.91361 4.20852 9.54688 5.85111 12.3702C6.35233 13.2318 7.03918 13.9195 7.83161 14.4131C7.899 14.4558 7.96716 14.4977 8.03682 14.5381C10.8633 16.1755 14.4946 15.2083 16.132 12.3819C17.7693 9.55551 16.8023 5.92424 13.9759 4.28678ZM14.6829 8.90732L13.6933 9.87195C13.3867 10.1707 13.1952 10.7604 13.2676 11.1823L13.5012 12.5444C13.5736 12.9663 13.3229 13.1484 12.944 12.9493L11.7207 12.3061C11.3418 12.1069 10.7218 12.1069 10.3429 12.3061L9.11969 12.9493C8.74079 13.1484 8.48998 12.9663 8.56236 12.5444L8.79598 11.1823C8.86836 10.7604 8.67677 10.1707 8.37025 9.87195L7.38065 8.90732C7.07407 8.60858 7.16993 8.31374 7.59352 8.25212L8.96111 8.0534C9.3847 7.99185 9.88631 7.62741 10.0758 7.24358L10.6874 6.00434C10.8768 5.62052 11.1868 5.62052 11.3762 6.00434L11.9879 7.24358C12.1773 7.62741 12.6789 7.99185 13.1025 8.0534L14.4701 8.25212C14.8937 8.31374 14.9895 8.60858 14.6829 8.90732Z" fill="#6667AB"/>
</svg>
