<svg viewBox="0 0 22 22" fill="currentColor" xmlns="http://www.w3.org/2000/svg">
    <path d="M21.3554 7.77698H18.7344C18.3781 7.77698 18.0898 8.06525 18.0898 8.42151C18.0898 8.77776 18.3781 9.06604 18.7344 9.06604H21.3554C21.7117 9.06604 22 8.77776 22 8.42151C22 8.06525 21.7117 7.77698 21.3554 7.77698Z" fill="currentColorC2C2DD" />
    <path d="M21.9322 4.26613C21.773 3.94764 21.3859 3.81925 21.0674 3.97785L18.4463 5.26691C18.1279 5.42615 17.9988 5.81326 18.1581 6.13174C18.3164 6.44752 18.7012 6.57974 19.0229 6.42002L21.6439 5.13096C21.9624 4.97172 22.0915 4.58461 21.9322 4.26613Z" fill="currentColorC2C2DD" />
    <path d="M21.6439 11.7122L19.0229 10.4231C18.7044 10.2657 18.3186 10.3922 18.1581 10.7114C17.9988 11.0299 18.1279 11.417 18.4463 11.5762L21.0674 12.8653C21.3891 13.025 21.7738 12.8928 21.9322 12.577C22.0915 12.2585 21.9624 11.8714 21.6439 11.7122Z" fill="currentColorC2C2DD" />
    <path d="M15.5117 1.33179C14.7998 1.33179 14.2227 1.9089 14.2227 2.62085V15.5113C14.2227 16.2232 14.7998 16.8004 15.5117 16.8004C16.2237 16.8004 16.8008 16.2232 16.8008 15.5113V2.62085C16.8007 1.90886 16.2237 1.33179 15.5117 1.33179Z" fill="currentColorC2C2DD" />
    <path d="M7.75834 14.9645C7.70939 15.2717 7.4545 15.5112 7.13357 15.5112H6.34428C6.28872 15.5112 6.23909 15.5296 6.1877 15.5428L6.08273 14.406L5.53105 14.2222H2.14258L2.67977 19.2034C2.9433 20.2553 4.00789 20.8668 5.02432 20.6096C6.05845 20.3515 6.68979 19.2997 6.44809 18.3619L6.30307 16.792C6.31738 16.793 6.32958 16.8003 6.34423 16.8003H7.13357C8.02272 16.8003 8.76582 16.1938 8.99064 15.3753L7.75834 14.9645Z" fill="currentColorC2C2DD" />
    <path d="M6.48828 4.94946V13.1827L12.9335 15.3311V2.80115L6.48828 4.94946Z" fill="currentColorC2C2DD" />
    <path d="M1.93355 5.19897C0.867367 5.19897 0 6.06634 0 7.13253V10.9997C0 12.0659 0.867367 12.9332 1.93355 12.9332H5.19913V5.19897H1.93355Z" fill="currentColorC2C2DD" />
</svg>