<svg xmlns="http://www.w3.org/2000/svg" xml:space="preserve" id="Layer_1" x="0" y="0"
    style="enable-background:new 0 0 23.4 12" version="1.1" viewBox="0 0 23.4 12">
    <path
        d="M17.7 6c0-3.3-2.7-6-6-6s-6 2.7-6 6 2.7 6 6 6 6-2.7 6-6zm-6-.6c1 0 1.8.8 1.8 1.8 0 .8-.5 1.4-1.2 1.7v.7h-1.2v-.7c-.7-.3-1.2-.9-1.2-1.7h1.2c0 .3.3.6.6.6s.6-.3.6-.6-.3-.6-.6-.6c-1 0-1.8-.8-1.8-1.8 0-.8.5-1.5 1.2-1.7v-.7h1.2v.7c.7.2 1.2.9 1.2 1.7h-1.2c0-.3-.3-.6-.6-.6s-.6.3-.6.6.3.6.6.6zM2.8 7.1V3.4H1.6v3.7l-.7-.8-.9.9 2.2 2.2 2.2-2.2-.8-.9-.8.8zM19.9 6.5l.8-.8v3.7h1.2V5.7l.8.8.8-.9-2.2-2.2L19 5.6l.9.9z"
        fill="currentColor" />
</svg>