<svg width="20" height="20" viewBox="0 0 20 20" fill="none" xmlns="http://www.w3.org/2000/svg">
<circle cx="17" cy="9" r="3" fill="#6667ab"/>
<path d="M15.5 9.87501V10.5H16.125L17.9692 8.65584L17.3442 8.03084L15.5 9.87501ZM18.4508 8.17418C18.5158 8.10918 18.5158 8.00334 18.4508 7.93834L18.0617 7.54918C17.9967 7.48418 17.8908 7.48418 17.8258 7.54918L17.5208 7.85418L18.1458 8.47918L18.4508 8.17418Z" fill="white"/>
<path d="M3.22981 3.66868C5.03233 3.51154 5.99119 4.16398 6.36728 4.51923C7.26196 4.97413 8.24863 5.21493 9.25062 5.22291C10.283 5.22094 11.2977 4.95284 12.1983 4.44408C12.6185 4.08541 13.5672 3.52179 15.2545 3.66868C15.4162 3.68231 15.5768 3.63083 15.7009 3.52548C15.8251 3.42013 15.9029 3.26948 15.9172 3.10649C15.9316 2.9435 15.8813 2.78141 15.7774 2.65568C15.6735 2.52995 15.5245 2.4508 15.3629 2.43554C14.101 2.26994 12.8215 2.55648 11.7477 3.2451L12.4152 1.13067C12.4559 1.00036 12.4656 0.862216 12.4435 0.727426C12.4214 0.592636 12.3681 0.465 12.2879 0.35487C12.2077 0.244739 12.1029 0.155216 11.9819 0.0935601C11.861 0.0319045 11.7274 -0.000146996 11.5919 5.13756e-06H6.89583C6.7584 -0.000471581 6.62286 0.0322345 6.50053 0.0953882C6.37821 0.158542 6.27266 0.250307 6.19272 0.363009C6.11277 0.47571 6.06076 0.606072 6.04102 0.743191C6.02129 0.88031 6.03441 1.0202 6.07928 1.15116L6.80435 3.29293C6.11655 2.80445 4.93407 2.27499 3.12478 2.43554C2.96258 2.44958 2.81256 2.52801 2.70772 2.65357C2.60288 2.77912 2.5518 2.94153 2.56573 3.10505C2.57966 3.26858 2.65745 3.41983 2.78199 3.52553C2.90653 3.63122 3.06762 3.68272 3.22981 3.66868Z" fill="#6667ab"/>
<path d="M17.2671 14.2204C17.051 13.7599 16.9242 13.2619 16.8933 12.7534C16.1415 12.699 15.4235 12.4169 14.8334 11.944C14.2434 11.4711 13.8088 10.8295 13.5866 10.1033C13.3645 9.37715 13.3651 8.60023 13.5885 7.87442C13.8119 7.14861 14.2475 6.50777 14.8384 6.03589C14.3408 5.56195 13.7461 5.20396 13.0962 4.98721C11.9625 5.7277 10.642 6.12484 9.29122 6.13154C7.91995 6.11918 6.57693 5.73704 5.40159 5.02479C1.9829 6.25793 1.68474 10.5415 1.7254 12.4065C1.73789 13.0335 1.60444 13.6548 1.33576 14.2204L0.234598 16.5466C0.0599629 16.9143 -0.0193737 17.3206 0.00400047 17.7276C0.0273746 18.1346 0.152697 18.529 0.368259 18.8739C0.58382 19.2188 0.882587 19.5031 1.23665 19.7C1.59071 19.8969 1.9885 20.0002 2.39287 20.0001H16.2099C16.6144 20.0003 17.0123 19.8972 17.3666 19.7004C17.7209 19.5035 18.0199 19.2194 18.2358 18.8746C18.4516 18.5297 18.5773 18.1353 18.601 17.7282C18.6248 17.3211 18.5458 16.9146 18.3716 16.5466L17.2671 14.2204ZM9.88477 16.1806H9.75107V17.3112C9.75107 17.4471 9.69752 17.5775 9.60221 17.6736C9.5069 17.7697 9.37763 17.8236 9.24284 17.8236C9.10805 17.8236 8.97878 17.7697 8.88347 17.6736C8.78816 17.5775 8.73461 17.4471 8.73461 17.3112V16.1806H7.2493C7.18256 16.1806 7.11647 16.1673 7.05481 16.1416C6.99315 16.1158 6.93712 16.0781 6.88993 16.0305C6.84273 15.9829 6.8053 15.9264 6.77976 15.8643C6.75422 15.8021 6.74107 15.7355 6.74107 15.6682C6.74107 15.6009 6.75422 15.5343 6.77976 15.4721C6.8053 15.41 6.84273 15.3535 6.88993 15.3059C6.93712 15.2583 6.99315 15.2206 7.05481 15.1948C7.11647 15.1691 7.18256 15.1558 7.2493 15.1558H9.88477C10.1085 15.1558 10.3231 15.0662 10.4813 14.9067C10.6395 14.7472 10.7284 14.5308 10.7284 14.3053C10.7284 14.0797 10.6395 13.8633 10.4813 13.7038C10.3231 13.5443 10.1085 13.4547 9.88477 13.4547H8.70253C8.1823 13.4547 7.68338 13.2464 7.31552 12.8755C6.94766 12.5046 6.741 12.0016 6.741 11.4771C6.741 10.9527 6.94766 10.4497 7.31552 10.0788C7.68338 9.70793 8.1823 9.49958 8.70253 9.49958H8.73461V8.24813C8.73461 8.11224 8.78816 7.98191 8.88347 7.88582C8.97878 7.78973 9.10805 7.73574 9.24284 7.73574C9.37763 7.73574 9.5069 7.78973 9.60221 7.88582C9.69752 7.98191 9.75107 8.11224 9.75107 8.24813V9.49975H11.001C11.1358 9.49975 11.265 9.55373 11.3603 9.64982C11.4557 9.74591 11.5092 9.87624 11.5092 10.0121C11.5092 10.148 11.4557 10.2784 11.3603 10.3744C11.265 10.4705 11.1358 10.5245 11.001 10.5245H8.70253C8.45188 10.5245 8.2115 10.6249 8.03426 10.8036C7.85703 10.9823 7.75746 11.2246 7.75746 11.4773C7.75746 11.73 7.85703 11.9724 8.03426 12.151C8.2115 12.3297 8.45188 12.4301 8.70253 12.4301H9.88477C10.3781 12.4301 10.8512 12.6277 11.2001 12.9794C11.5489 13.3311 11.7449 13.8081 11.7449 14.3054C11.7449 14.8028 11.5489 15.2798 11.2001 15.6315C10.8512 15.9832 10.3781 16.1808 9.88477 16.1808V16.1806Z" fill="#6667ab"/>
</svg>
