<svg xmlns="http://www.w3.org/2000/svg" width="210" height="164" viewBox="0 0 210 164">
  <g id="undraw_instant_support_elxh" transform="translate(-0.009 -0.017)">
    <path id="Path_43093" data-name="Path 43093" d="M172.5,138.286a.831.831,0,0,1-.83.828h-1.178a.828.828,0,1,1,0,1.657h1.659a.828.828,0,1,1,0,1.657h-7.795a81.771,81.771,0,0,0,28.439,37.7.828.828,0,0,1,.465-.145h9.6a.828.828,0,1,1,0,1.657H201.69a.828.828,0,1,1,0,1.657h1.661a.828.828,0,1,1,0,1.657h-3.414a99.181,99.181,0,0,0,51.681,14.219,101.327,101.327,0,0,0,33.394-5.591q2.14-.75,4.23-1.586,3.639-1.467,7.108-3.2,1.5-.746,2.958-1.543l.045-.024.22-.121.571-.315q1.729-.963,3.406-1.993l.687-.425q.872-.546,1.725-1.11,1.7-1.118,3.349-2.311l.393-.29.316-.233q2.214-1.633,4.307-3.386l.059-.049q1.025-.86,2.02-1.749l.059-.053a85.815,85.815,0,0,0,6.185-6.11,82.253,82.253,0,0,0,8-10.257h-3.828a.828.828,0,1,1,0-1.657h-1.659a.828.828,0,1,1,0-1.657h1.178a.828.828,0,1,1,0-1.655h7.32a73.6,73.6,0,0,0,5.435-60.32H322.807a1.751,1.751,0,0,1,0-3.5H319.3a1.749,1.749,0,1,1,0-3.5h2.5a1.751,1.751,0,0,1,0-3.5h12.742C319.933,55.319,288.294,36.12,251.618,36.12a98.52,98.52,0,0,0-56.73,17.522h4.083a1.751,1.751,0,0,1,0,3.5h-2.5a1.749,1.749,0,1,1,0,3.5h3.506a1.751,1.751,0,1,1,0,3.5H182.532c-14,14.319-22.482,33.03-22.482,53.505a73.272,73.272,0,0,0,2.731,19.829l8.892-.015a.833.833,0,0,1,.83.828Z" transform="translate(-141.403 -35.153)" fill="#6c63ff" opacity="0.1"/>
    <path id="Path_43097" data-name="Path 43097" d="M620.669,409.882c-.648.276-1.076.429-1.076.429l-.453-2.836s.285-.229.744-.576Z" transform="translate(-510.375 -333.325)" opacity="0.1"/>
    <path id="Path_43098" data-name="Path 43098" d="M513.31,410.625s8.59-.77,8.816-.807,3.025-.979,3.3-1.118a6.767,6.767,0,0,1,4.7-1.506,12.8,12.8,0,0,0,4.5-.484l1.011,3.838-20.4,2.309Z" transform="translate(-425.319 -333.172)" fill="#e1e7ef"/>
    <path id="Path_43099" data-name="Path 43099" d="M513.31,410.625s8.59-.77,8.816-.807,3.025-.979,3.3-1.118a6.767,6.767,0,0,1,4.7-1.506,12.8,12.8,0,0,0,4.5-.484l1.011,3.838-20.4,2.309Z" transform="translate(-425.319 -333.172)" opacity="0.05"/>
    <path id="Path_43112" data-name="Path 43112" d="M559.61,492.072a14.93,14.93,0,0,0,2.159-1.04C562.914,490.348,559.61,492.072,559.61,492.072Z" transform="translate(-462.531 -400.853)" opacity="0.1"/>
    <path id="Path_43118" data-name="Path 43118" d="M497.786,441.38s.124.352-1.146,1.116" transform="translate(-411.921 -361.053)" opacity="0.1"/>
    <path id="Path_43119" data-name="Path 43119" d="M512.267,444a1.4,1.4,0,0,1-.927,1.661" transform="translate(-423.736 -363.16)" opacity="0.1"/>
    <path id="Path_43128" data-name="Path 43128" d="M684.39,439.1s1.533,2.742,1.207,3.2S684.39,439.1,684.39,439.1Z" transform="translate(-562.817 -359.22)" opacity="0.1"/>
    <path id="Path_43129" data-name="Path 43129" d="M710.07,435s.966,1.686.77,2.021" transform="translate(-583.456 -355.923)" opacity="0.1"/>
    <path id="Path_43130" data-name="Path 43130" d="M739.55,415.09s1.117.783.7,1.292" transform="translate(-607.149 -339.911)" opacity="0.1"/>
    <path id="Path_43131" data-name="Path 43131" d="M745.28,412.9s1.419,1.731.948,2.2" transform="translate(-611.754 -338.15)" opacity="0.1"/>
    <path id="Path_43132" data-name="Path 43132" d="M844.7,388.67s.216,2.9,1.07,2.65S844.7,388.67,844.7,388.67Z" transform="translate(-691.658 -318.665)" opacity="0.1"/>
    <path id="Path_43133" data-name="Path 43133" d="M805.626,701.305s1.191-4.036-.224-7.007a6.349,6.349,0,0,1-.516-4,10.628,10.628,0,0,1,.567-1.876" transform="translate(-659.563 -559.717)" fill="none" stroke="#535461" stroke-width="2"/>
    <path id="Path_43134" data-name="Path 43134" d="M803.78,675.339a7.1,7.1,0,0,0,.9,1.929,7.11,7.11,0,0,0,.9-1.929.9.9,0,0,0-1.8,0Z" transform="translate(-658.771 -548.51)" fill="#6c63ff"/>
    <path id="Path_43135" data-name="Path 43135" d="M795.623,687.168a7.141,7.141,0,0,0,1.806,1.132,7.106,7.106,0,0,0-.3-2.105.9.9,0,0,0-1.508.979Z" transform="translate(-652.098 -557.6)" fill="#6c63ff"/>
    <path id="Path_43136" data-name="Path 43136" d="M794.678,709.859a7.118,7.118,0,0,0,2.132.069,7.1,7.1,0,0,0-1.323-1.668.9.9,0,0,0-.809,1.6Z" transform="translate(-651.088 -575.608)" fill="#6c63ff"/>
    <path id="Path_43137" data-name="Path 43137" d="M799.391,728.148a7.106,7.106,0,0,0,2.089.427,7.177,7.177,0,0,0-1.021-1.866.9.9,0,1,0-1.068,1.439Z" transform="translate(-654.951 -590.366)" fill="#6c63ff"/>
    <path id="Path_43138" data-name="Path 43138" d="M806.762,692.8a7.116,7.116,0,0,1-2.012.7,7.036,7.036,0,0,1,.762-1.986.9.9,0,1,1,1.25,1.285Z" transform="translate(-659.551 -561.999)" fill="#6c63ff"/>
    <path id="Path_43139" data-name="Path 43139" d="M811.082,713.378a7.187,7.187,0,0,1-2.132.068,7.094,7.094,0,0,1,1.323-1.668.9.9,0,0,1,.809,1.6Z" transform="translate(-662.926 -578.438)" fill="#6c63ff"/>
    <path id="Path_43140" data-name="Path 43140" d="M813.089,734.737a7.107,7.107,0,0,1-2.089.427,7.216,7.216,0,0,1,1.021-1.868.9.9,0,1,1,1.068,1.441Z" transform="translate(-664.574 -595.646)" fill="#6c63ff"/>
    <path id="Path_43141" data-name="Path 43141" d="M953.788,680.3s1.192-4.036-.224-7.007a6.364,6.364,0,0,1-.516-4,10.648,10.648,0,0,1,.567-1.878" transform="translate(-778.642 -542.821)" fill="none" stroke="#535461" stroke-width="2"/>
    <path id="Path_43142" data-name="Path 43142" d="M951.936,654a7.1,7.1,0,0,0,.9,1.929,7.11,7.11,0,0,0,.9-1.929.9.9,0,1,0-1.8,0Z" transform="translate(-777.844 -531.286)" fill="#6c63ff"/>
    <path id="Path_43143" data-name="Path 43143" d="M943.783,666.178a7.143,7.143,0,0,0,1.806,1.132,7.041,7.041,0,0,0-.3-2.105.9.9,0,0,0-1.508.979Z" transform="translate(-771.175 -540.72)" fill="#6c63ff"/>
    <path id="Path_43144" data-name="Path 43144" d="M942.609,688.749a7.12,7.12,0,0,0,2.13.07,7.054,7.054,0,0,0-1.323-1.668.9.9,0,1,0-.807,1.6Z" transform="translate(-769.934 -558.61)" fill="#6c63ff"/>
    <path id="Path_43145" data-name="Path 43145" d="M947.627,707.237a7.106,7.106,0,0,0,2.089.427,7.213,7.213,0,0,0-1.021-1.868.9.9,0,0,0-1.068,1.441Z" transform="translate(-774.111 -573.566)" fill="#6c63ff"/>
    <path id="Path_43146" data-name="Path 43146" d="M954.942,671.806a7.117,7.117,0,0,1-2.012.7,7.1,7.1,0,0,1,.762-1.986.9.9,0,1,1,1.25,1.285Z" transform="translate(-778.643 -545.119)" fill="#6c63ff"/>
    <path id="Path_43147" data-name="Path 43147" d="M959.272,692.313a7.117,7.117,0,0,1-2.132.069,7.105,7.105,0,0,1,1.323-1.667.9.9,0,1,1,.809,1.6Z" transform="translate(-782.027 -561.485)" fill="#6c63ff"/>
    <path id="Path_43148" data-name="Path 43148" d="M961.249,713.838a7.106,7.106,0,0,1-2.089.427,7.182,7.182,0,0,1,1.021-1.866.9.9,0,1,1,1.068,1.439Z" transform="translate(-783.65 -578.858)" fill="#6c63ff"/>
    <path id="Path_43149" data-name="Path 43149" d="M837.078,678.307s1.192-4.036-.224-7.007a6.363,6.363,0,0,1-.516-4,10.643,10.643,0,0,1,.567-1.876" transform="translate(-684.841 -541.221)" fill="none" stroke="#535461" stroke-width="2"/>
    <path id="Path_43150" data-name="Path 43150" d="M835.23,652.349a7.1,7.1,0,0,0,.9,1.929,7.109,7.109,0,0,0,.9-1.929.9.9,0,0,0-1.8,0Z" transform="translate(-684.047 -530.022)" fill="#6c63ff"/>
    <path id="Path_43151" data-name="Path 43151" d="M827.073,664.178a7.142,7.142,0,0,0,1.806,1.132,7.038,7.038,0,0,0-.3-2.105.9.9,0,0,0-1.508.979Z" transform="translate(-677.375 -539.112)" fill="#6c63ff"/>
    <path id="Path_43152" data-name="Path 43152" d="M825.976,686.8a7.107,7.107,0,0,0,2.13.069,7.093,7.093,0,0,0-1.323-1.668.9.9,0,1,0-.807,1.6Z" transform="translate(-676.212 -557.048)" fill="#6c63ff"/>
    <path id="Path_43153" data-name="Path 43153" d="M830.841,705.158a7.107,7.107,0,0,0,2.089.427,7.181,7.181,0,0,0-1.021-1.866.9.9,0,1,0-1.068,1.439Z" transform="translate(-680.228 -571.878)" fill="#6c63ff"/>
    <path id="Path_43154" data-name="Path 43154" d="M838.232,669.806a7.119,7.119,0,0,1-2.012.7,7.1,7.1,0,0,1,.762-1.986.9.9,0,1,1,1.25,1.285Z" transform="translate(-684.843 -543.511)" fill="#6c63ff"/>
    <path id="Path_43155" data-name="Path 43155" d="M842.532,690.389a7.187,7.187,0,0,1-2.132.069,7.145,7.145,0,0,1,1.323-1.668.9.9,0,0,1,.809,1.6Z" transform="translate(-688.203 -559.95)" fill="#6c63ff"/>
    <path id="Path_43156" data-name="Path 43156" d="M844.539,711.747a7.106,7.106,0,0,1-2.089.427,7.216,7.216,0,0,1,1.021-1.868.9.9,0,1,1,1.068,1.441Z" transform="translate(-689.85 -577.157)" fill="#6c63ff"/>
    <path id="Path_43157" data-name="Path 43157" d="M946,707.652v.509l.059-.049q1.025-.86,2.02-1.749l.059-.053a85.819,85.819,0,0,0,6.185-6.11c-2.094-3.635-7-3.654-7.881-3.627H946.3S945.987,703.116,946,707.652Z" transform="translate(-773.072 -566.271)" fill="#a8a8a8"/>
    <path id="Path_43158" data-name="Path 43158" d="M946,707.652v.509l.059-.049q1.025-.86,2.02-1.749l.059-.053a85.819,85.819,0,0,0,6.185-6.11c-2.094-3.635-7-3.654-7.881-3.627H946.3S945.987,703.116,946,707.652Z" transform="translate(-773.072 -566.271)" fill="#fff" opacity="0.1"/>
    <path id="Path_43159" data-name="Path 43159" d="M839.48,635.652l.165,1.085h0l1.68,11.023.55,3.615.536,3.513q1.5-.746,2.958-1.543l.045-.023.22-.121.571-.315q1.729-.964,3.406-1.994l.687-.425q.872-.546,1.725-1.11,1.7-1.118,3.349-2.311l.393-.29.316-.233q2.214-1.633,4.307-3.386l.059-.049q1.025-.86,2.02-1.749l-.981-5.042q-.295-1.531-.487-3.074-.106-.834-.177-1.672c-.014-.133-.025-.268-.035-.4-.338-4.2-1.374-12.938-4.281-14.992a2.2,2.2,0,0,0-1.963-.347,8.075,8.075,0,0,0-.85.29,16.859,16.859,0,0,0-5.569,4.112,29.028,29.028,0,0,0-5.5,8.272l-2.944,6.621-.01.022-.028.061Z" transform="translate(-687.463 -501.248)" fill="#a8a8a8"/>
    <path id="Path_43160" data-name="Path 43160" d="M876,646.953l3.414-11.648s3.2,8.567,5.71,11.452l.316-.233-4.532-11.172s-1.484-6.366-.3-8.685c.942-1.841,4.036-8.029,5.271-10.512a2.2,2.2,0,0,0-1.963-.347,8.056,8.056,0,0,0-.85.29c-1.57,2.483-4.476,7.441-4.691,10.518a38.467,38.467,0,0,0,.346,8.058Z" transform="translate(-716.814 -501.248)" fill="#fff" opacity="0.1"/>
    <path id="Path_43161" data-name="Path 43161" d="M796.65,737.545q2.14-.75,4.23-1.586,3.639-1.467,7.108-3.2,1.5-.746,2.958-1.543l.045-.023-.114-.719h0l-.124-.783-.406-2.6s-1.89-8.154-3.889-12.268a7.669,7.669,0,0,0-1.16-1.847c-.029-.033-.061-.063-.092-.092h0a2.217,2.217,0,0,0-1.374-.333,2.906,2.906,0,0,0-1.69.793c-.981.871-2.051,2.616-2.97,5.955C797.757,724.423,797.021,731.991,796.65,737.545Z" transform="translate(-653.041 -579.119)" fill="#a8a8a8"/>
    <path id="Path_43162" data-name="Path 43162" d="M818.2,804.357q3.639-1.467,7.108-3.2,1.5-.746,2.958-1.543c-.01-.243-.033-.49-.069-.742h0s-.249-1.371-2.886-1.267a4.521,4.521,0,0,0-.54.043,7.5,7.5,0,0,0-6.138,4.925A7.88,7.88,0,0,0,818.2,804.357Z" transform="translate(-670.36 -647.518)" fill="#fff" opacity="0.1"/>
    <path id="Path_43163" data-name="Path 43163" d="M826.834,716.733c.088-2.326-1.178-3.123-2.224-3.39a2.894,2.894,0,0,1,1.69-.793,4.475,4.475,0,0,1,1.474,2.35l2.672,12.979S826.685,720.632,826.834,716.733Z" transform="translate(-675.512 -579.121)" fill="#fff" opacity="0.1"/>
    <path id="Path_43164" data-name="Path 43164" d="M891.82,787.1l-.73,1,.687-.425q.872-.546,1.725-1.11l-1.117-.233Z" transform="translate(-728.942 -638.454)" fill="#a8a8a8"/>
    <path id="Path_43165" data-name="Path 43165" d="M894.59,775.5q.871-.546,1.725-1.11,1.7-1.118,3.349-2.311a3.67,3.67,0,0,0-2.016-.883s-2.617.178-3.015,3.732C894.614,775.11,894.6,775.3,894.59,775.5Z" transform="translate(-731.755 -626.28)" fill="#fff" opacity="0.1"/>
    <path id="Path_43166" data-name="Path 43166" d="M840.22,714.25l.059.18,5.5,16.629.457,1.383.571-.315a42.148,42.148,0,0,0-5.324-15.932c-.565-.96-1-1.58-1.178-1.825-.043-.063-.071-.1-.082-.114Z" transform="translate(-688.058 -580.489)" opacity="0.1"/>
    <path id="Path_43167" data-name="Path 43167" d="M944.8,707.692c.018.153.039.305.061.46q1.025-.86,2.02-1.749l.059-.053-1.519-8.064-.314-1.666A35.739,35.739,0,0,0,944.8,707.692Z" transform="translate(-771.878 -566.311)" opacity="0.1"/>
    <path id="Path_43168" data-name="Path 43168" d="M573.243,91.629h2.5a1.751,1.751,0,0,1,0-3.5h20.289a1.751,1.751,0,0,1,0,3.5h-2.5a1.749,1.749,0,1,1,0,3.5h3.506a1.751,1.751,0,0,1,0,3.5H576.749a1.751,1.751,0,0,1,0-3.5h-3.506a1.749,1.749,0,1,1,0-3.5Z" transform="translate(-472.079 -76.978)" fill="#6c63ff" opacity="0.1"/>
    <path id="Path_43169" data-name="Path 43169" d="M720.573,228.507h2.5a1.749,1.749,0,1,1,0-3.5h20.289a1.749,1.749,0,1,1,0,3.5h-2.5a1.749,1.749,0,1,1,0,3.5h3.512a1.751,1.751,0,0,1,0,3.5h-20.3a1.751,1.751,0,0,1,0-3.5h-3.506a1.749,1.749,0,1,1,0-3.5Z" transform="translate(-590.488 -187.054)" fill="#6c63ff" opacity="0.1"/>
    <path id="Path_43185" data-name="Path 43185" d="M720.573,228.507h2.5a1.749,1.749,0,1,1,0-3.5h20.289a1.749,1.749,0,1,1,0,3.5h-2.5a1.749,1.749,0,1,1,0,3.5h3.512a1.751,1.751,0,0,1,0,3.5h-20.3a1.751,1.751,0,0,1,0-3.5h-3.506a1.749,1.749,0,1,1,0-3.5Z" transform="translate(-672.631 -153.834)" fill="#6c63ff" opacity="0.1"/>
    <path id="Path_43186" data-name="Path 43186" d="M720.573,228.507h2.5a1.749,1.749,0,1,1,0-3.5h20.289a1.749,1.749,0,1,1,0,3.5h-2.5a1.749,1.749,0,1,1,0,3.5h3.512a1.751,1.751,0,0,1,0,3.5h-20.3a1.751,1.751,0,0,1,0-3.5h-3.506a1.749,1.749,0,1,1,0-3.5Z" transform="translate(-580.153 -143.022)" fill="#6c63ff" opacity="0.1"/>
    <path id="Path_43170" data-name="Path 43170" d="M574.6,663.477h1.178a.828.828,0,1,1,0-1.657H585.4a.828.828,0,1,1,0,1.657h-1.178a.828.828,0,1,1,0,1.657h1.659a.828.828,0,1,1,0,1.657h-9.617a.828.828,0,1,1,0-1.657H574.6a.828.828,0,1,1,0-1.657Z" transform="translate(-473.911 -538.326)" fill="#6c63ff" opacity="0.1"/>
    <path id="Path_43171" data-name="Path 43171" d="M440.394,736.742h.946a.662.662,0,0,1,0-1.322h7.667a.662.662,0,0,1,0,1.322h-.946a.662.662,0,0,1,0,1.322h1.325a.662.662,0,0,1,0,1.322h-7.675a.662.662,0,1,1,0-1.322h-1.325a.662.662,0,1,1,0-1.322Z" transform="translate(-366.147 -597.513)" fill="#6c63ff" opacity="0.1"/>
    <path id="Path_43172" data-name="Path 43172" d="M274.78,609.567h1.188a.828.828,0,1,1,0-1.657h9.6a.828.828,0,1,1,0,1.657h-1.178a.828.828,0,1,1,0,1.657h1.661a.828.828,0,1,1,0,1.657h-9.615a.828.828,0,1,1,0-1.657H274.78a.828.828,0,1,1,0-1.657Z" transform="translate(-232.945 -494.973)" fill="#6c63ff" opacity="0.1"/>
    <path id="Path_43173" data-name="Path 43173" d="M701.6,741.8h1.178a.828.828,0,1,1,0-1.657H712.4a.828.828,0,1,1,0,1.657h-1.178a.828.828,0,1,1,0,1.657h1.661a.828.828,0,0,1,0,1.655h-9.622a.828.828,0,1,1,0-1.655H701.6a.828.828,0,1,1,0-1.657Z" transform="translate(-575.981 -601.309)" fill="#6c63ff" opacity="0.1"/>
    <path id="Path_43174" data-name="Path 43174" d="M771.769,332.862a.555.555,0,0,0-.181-.719.239.239,0,0,1-.047-.041h0a.28.28,0,0,1,.275-.46h0a.261.261,0,0,1,.059.023.56.56,0,0,0,.722-.178.248.248,0,0,1,.041-.049h0a.281.281,0,0,1,.459.276h0a.365.365,0,0,1-.024.059.555.555,0,0,0,.181.719.326.326,0,0,1,.049.041h0a.28.28,0,0,1-.277.458h0a.2.2,0,0,1-.059-.023.562.562,0,0,0-.722.18.241.241,0,0,1-.039.049h0a.281.281,0,0,1-.461-.276h0a.371.371,0,0,1,.023-.059Z" transform="translate(-632.802 -272.584)" fill="#6c63ff" opacity="0.3"/>
    <path id="Path_43175" data-name="Path 43175" d="M1088.447,164.182a.553.553,0,0,0-.181-.719.314.314,0,0,1-.047-.041h0a.28.28,0,0,1,.277-.46h0a.288.288,0,0,1,.057.023.558.558,0,0,0,.722-.18.307.307,0,0,1,.041-.047h0a.281.281,0,0,1,.459.276h0a.193.193,0,0,1-.024.057.559.559,0,0,0,.181.721.324.324,0,0,1,.049.041h0a.28.28,0,0,1-.277.458h0a.243.243,0,0,1-.059-.024.56.56,0,0,0-.72.18.5.5,0,0,1-.041.049h0a.281.281,0,0,1-.461-.276h0A.363.363,0,0,1,1088.447,164.182Z" transform="translate(-887.317 -136.935)" fill="#6c63ff" opacity="0.3"/>
    <path id="Path_43176" data-name="Path 43176" d="M1093.313,617.233a.555.555,0,0,0-.181-.719.239.239,0,0,1-.047-.041h0a.278.278,0,0,1,.275-.458h0a.2.2,0,0,1,.059.023.562.562,0,0,0,.722-.18.237.237,0,0,1,.039-.049h0a.281.281,0,0,1,.461.276h0a.367.367,0,0,1-.024.059.555.555,0,0,0,.181.719.242.242,0,0,1,.047.041h0a.278.278,0,0,1-.267.45h0a.2.2,0,0,1-.059-.022.56.56,0,0,0-.722.178.252.252,0,0,1-.041.049h0a.281.281,0,0,1-.459-.276h0A.386.386,0,0,1,1093.313,617.233Z" transform="translate(-891.227 -501.266)" fill="#6c63ff" opacity="0.3"/>
    <path id="Path_43177" data-name="Path 43177" d="M113.143,63.124a.557.557,0,0,0-.181-.721.237.237,0,0,1-.047-.041h0a.278.278,0,0,1,.275-.458h0a.264.264,0,0,1,.059.023.56.56,0,0,0,.722-.18.322.322,0,0,1,.041-.049h0a.281.281,0,0,1,.459.276h0a.262.262,0,0,1-.024.059.557.557,0,0,0,.181.721.307.307,0,0,1,.049.039h0a.28.28,0,0,1-.277.46h0a.263.263,0,0,1-.059-.023.56.56,0,0,0-.722.18.228.228,0,0,1-.039.047h0a.281.281,0,0,1-.461-.274h0A.262.262,0,0,1,113.143,63.124Z" transform="translate(-103.46 -55.665)" fill="#6c63ff" opacity="0.3"/>
    <path id="Path_43178" data-name="Path 43178" d="M65.4,32.761a.555.555,0,0,0-.181-.719A.237.237,0,0,1,65.172,32h0a.28.28,0,0,1,.275-.46h0a.263.263,0,0,1,.059.023.56.56,0,0,0,.722-.178.331.331,0,0,1,.039-.049h0a.281.281,0,0,1,.461.268h0a.289.289,0,0,1-.024.057.557.557,0,0,0,.181.727.237.237,0,0,1,.047.041h0a.278.278,0,0,1-.283.46h0a.2.2,0,0,1-.059-.024.562.562,0,0,0-.722.18.248.248,0,0,1-.041.049h0a.281.281,0,0,1-.459-.276h0A.368.368,0,0,1,65.4,32.761Z" transform="translate(-65.09 -31.25)" fill="#6c63ff" opacity="0.3"/>
    <path id="Path_43179" data-name="Path 43179" d="M445.769,253.3a.555.555,0,0,0-.181-.719.237.237,0,0,1-.047-.041h0a.28.28,0,0,1,.275-.46h0a.264.264,0,0,1,.059.023.56.56,0,0,0,.722-.178.239.239,0,0,1,.039-.049h0a.281.281,0,0,1,.461.276h0a.289.289,0,0,1-.024.057.557.557,0,0,0,.181.721.236.236,0,0,1,.047.041h0a.278.278,0,0,1-.275.458h0a.2.2,0,0,1-.059-.023.562.562,0,0,0-.722.18.249.249,0,0,1-.041.049h0a.281.281,0,0,1-.459-.276h0A.368.368,0,0,1,445.769,253.3Z" transform="translate(-370.795 -208.602)" fill="#6c63ff" opacity="0.3"/>
    <path id="Path_43180" data-name="Path 43180" d="M269.393,370.793a.555.555,0,0,0-.181-.719.238.238,0,0,1-.047-.041h0a.278.278,0,0,1,.275-.458h0a.2.2,0,0,1,.059.024.562.562,0,0,0,.722-.18.332.332,0,0,1,.039-.049h0a.281.281,0,0,1,.461.276h0a.371.371,0,0,1-.024.059.555.555,0,0,0,.181.719.236.236,0,0,1,.047.041h0a.278.278,0,0,1-.275.458h0a.2.2,0,0,1-.059-.024.562.562,0,0,0-.722.18.328.328,0,0,1-.039.049h0a.281.281,0,0,1-.461-.276h0A.369.369,0,0,1,269.393,370.793Z" transform="translate(-229.039 -303.085)" fill="#6c63ff" opacity="0.3"/>
    <path id="Path_43181" data-name="Path 43181" d="M544.931,216.677a.555.555,0,0,0-.263-.693.252.252,0,0,1-.053-.035h0a.278.278,0,0,1,.22-.488h0a.215.215,0,0,1,.061.016.562.562,0,0,0,.7-.262.311.311,0,0,1,.035-.053h0a.281.281,0,0,1,.489.221h0a.357.357,0,0,1-.018.061.557.557,0,0,0,.265.693.3.3,0,0,1,.051.035h0a.28.28,0,0,1-.22.488h0a.309.309,0,0,1-.061-.016.558.558,0,0,0-.695.262.411.411,0,0,1-.035.053h0a.281.281,0,0,1-.489-.221h0A.235.235,0,0,1,544.931,216.677Z" transform="translate(-450.4 -179.058)" fill="#6c63ff" opacity="0.3"/>
    <path id="Path_43182" data-name="Path 43182" d="M995.622,526.394a.771.771,0,0,0,.432-.934.422.422,0,0,1-.016-.086h0a.393.393,0,0,1,.7-.257h0a.37.37,0,0,1,.043.076.774.774,0,0,0,.936.431.43.43,0,0,1,.086-.018h0a.392.392,0,0,1,.257.7h0a.375.375,0,0,1-.077.043.783.783,0,0,0-.432.934.319.319,0,0,1,.018.086h0a.393.393,0,0,1-.7.257h0a.288.288,0,0,1-.041-.076.774.774,0,0,0-.936-.431.447.447,0,0,1-.086.018h0a.392.392,0,0,1-.257-.7h0A.41.41,0,0,1,995.622,526.394Z" transform="translate(-812.777 -428.277)" fill="#6c63ff" opacity="0.3"/>
    <path id="Path_43183" data-name="Path 43183" d="M386.674,564.264a.783.783,0,0,0,.432-.934.323.323,0,0,1-.018-.084h0a.393.393,0,0,1,.7-.259h0a.428.428,0,0,1,.043.076.772.772,0,0,0,.936.431.306.306,0,0,1,.084-.016h0a.391.391,0,0,1,.257.7h0a.354.354,0,0,1-.075.043.771.771,0,0,0-.432.934.418.418,0,0,1,.016.086h0a.393.393,0,0,1-.7.257h0a.364.364,0,0,1-.043-.076.786.786,0,0,0-.936-.431.426.426,0,0,1-.086.018h0a.392.392,0,0,1-.257-.7h0A.364.364,0,0,1,386.674,564.264Z" transform="translate(-323.362 -458.728)" fill="#6c63ff" opacity="0.3"/>
    <path id="Path_43184" data-name="Path 43184" d="M577.024,573.974a.771.771,0,0,0,.432-.934.442.442,0,0,1-.018-.086h0a.393.393,0,0,1,.7-.257h0a.364.364,0,0,1,.043.076.774.774,0,0,0,.936.429.415.415,0,0,1,.086-.016h0a.392.392,0,0,1,.257.7h0a.367.367,0,0,1-.077.043.771.771,0,0,0-.432.934.442.442,0,0,1,.018.086h0a.393.393,0,0,1-.7.257h0a.37.37,0,0,1-.043-.076.786.786,0,0,0-.936-.431.319.319,0,0,1-.086.018h0a.392.392,0,0,1-.257-.7h0A.367.367,0,0,1,577.024,573.974Z" transform="translate(-476.349 -466.537)" fill="#6c63ff" opacity="0.3"/>
    <ellipse id="Ellipse_226" data-name="Ellipse 226" cx="3.239" cy="3.231" rx="3.239" ry="3.231" transform="translate(20.691 17.009)" fill="#6c63ff" opacity="0.1"/>
    <ellipse id="Ellipse_227" data-name="Ellipse 227" cx="3.239" cy="3.231" rx="3.239" ry="3.231" transform="translate(182.199 20.24)" fill="#6c63ff" opacity="0.1"/>
    <ellipse id="Ellipse_228" data-name="Ellipse 228" cx="1.767" cy="1.762" rx="1.767" ry="1.762" transform="translate(37.474 2.436)" fill="#6c63ff" opacity="0.1"/>
    <ellipse id="Ellipse_229" data-name="Ellipse 229" cx="1.767" cy="1.762" rx="1.767" ry="1.762" transform="translate(206.475 53.724)" fill="#6c63ff" opacity="0.1"/>
    <ellipse id="Ellipse_230" data-name="Ellipse 230" cx="1.767" cy="1.762" rx="1.767" ry="1.762" transform="translate(25.402 143.942)" fill="#6c63ff" opacity="0.1"/>
    <ellipse id="Ellipse_231" data-name="Ellipse 231" cx="1.767" cy="1.762" rx="1.767" ry="1.762" transform="translate(32.174 151.879)" fill="#6c63ff" opacity="0.1"/>
    <ellipse id="Ellipse_232" data-name="Ellipse 232" cx="1.767" cy="1.762" rx="1.767" ry="1.762" transform="translate(18.924 156.663)" fill="#6c63ff" opacity="0.1"/>
  </g>
</svg>
