<svg xmlns="http://www.w3.org/2000/svg" viewBox="0 0 14 14" style="enable-background:new 0 0 14 14" xml:space="preserve"><path d="M1 0C.5 0 0 .5 0 1v11.9c0 .6.5 1.1 1 1.1h8c-.4-.3-.8-.8-1.1-1.3-.5-1.1-.4-2.6.3-3.7.6-1 1.7-1.7 2.9-1.7h.4V4.2h-3c-.6 0-1-.5-1-1V0H1zm7.1.2v2.9c0 .2.1.3.3.3h2.8L8.1.2zM2.9 3.5h3c.1 0 .2 0 .2.1.1.1.1.2.1.2 0 .1 0 .2-.1.2 0 .2-.1.2-.2.2h-3c-.1 0-.2 0-.2-.1-.1-.1-.2-.2-.2-.3 0-.1 0-.2.1-.2.1-.1.2-.1.3-.1zm0 2.1h5.6c.1 0 .2 0 .2.1.1.1.1.2.1.2 0 .1 0 .2-.1.2-.1.2-.2.2-.3.2H2.9c-.1 0-.2 0-.2-.1-.1-.1-.2-.2-.2-.3 0-.1 0-.2.1-.2.1-.1.2-.1.3-.1zm0 2.1h4.3s.1 0 .1.1l.1.1V8c0 .1 0 .2-.1.2 0 .2-.1.2-.2.2H2.9c-.1 0-.2 0-.2-.1l-.2-.2V8s0-.1.1-.1l.1-.1c.1-.1.1-.1.2-.1zm8.2.4c-1.6 0-2.9 1.3-2.9 3s1.3 3 2.9 3c1.6 0 2.9-1.3 2.9-3s-1.3-3-2.9-3zM2.9 9.8h3.6s.1 0 .1.1l.1.1v.1c0 .1 0 .2-.1.2-.1.1-.1.1-.2.1H2.9c-.1 0-.2 0-.2-.1-.1-.1-.1-.2-.1-.2V10s0-.1.1-.1l.1-.1h.1zm9.2.4c.1 0 .2 0 .2.1l.1.1v.2s0 .1-.1.1L11.2 12l-.1.1h-.2s-.1 0-.1-.1l-.9-.9c-.1-.1-.1-.2-.1-.2 0-.1 0-.2.1-.2.1-.1.1-.1.2-.1s.2 0 .2.1l.6.7.9-1c.2-.2.3-.2.3-.2z" style="fill:#505d6e"/></svg>