<svg xmlns="http://www.w3.org/2000/svg" viewBox="0 0 80 80" style="enable-background:new 0 0 80 80" xml:space="preserve"><path d="M40 80c22.1 0 40-17.9 40-40S62.1 0 40 0 0 17.9 0 40s17.9 40 40 40z" style="opacity:.1;fill:#00b21e;enable-background:new"/><path d="M29.3 24C28 24 27 25.1 27 26.4v27.2c0 1.3 1 2.4 2.3 2.4h18.4c-1-.8-1.8-1.7-2.4-2.9-1.4-2.6-1.2-6 .4-8.4 1.4-2.3 4-3.8 6.6-3.8h.9v-7.2h-6.9c-1.3 0-2.3-1.1-2.3-2.4V24H29.3zm16.2.5v6.7c0 .5.3.8.8.8h6.5l-7.3-7.5zM33.6 32h6.9c.2 0 .4.1.5.2.1.2.2.4.2.6s-.1.4-.2.6-.3.2-.5.2h-6.9c-.2 0-.4-.1-.5-.2s-.2-.4-.2-.6.1-.4.2-.6c.1-.1.2-.2.5-.2zm0 4.8h12.7c.2 0 .4.1.5.2.1.1.2.4.2.6s0 .4-.2.6c-.1.2-.3.2-.5.2H33.6c-.2 0-.4-.1-.5-.2-.1-.1-.2-.4-.2-.6s.1-.4.2-.6c.1-.1.2-.2.5-.2zm0 4.8h9.6c.1 0 .2 0 .3.1.1 0 .2.1.3.2.1.1.1.2.2.3 0 .1.1.2.1.3 0 .2-.1.4-.2.6-.1.2-.3.2-.5.2h-9.6c-.2 0-.4-.1-.5-.2-.1-.1-.2-.4-.2-.6 0-.1 0-.2.1-.3 0-.1.1-.2.2-.3.1-.1.2-.1.3-.2-.3-.1-.2-.1-.1-.1zm18.8.8c-3.6 0-6.6 3.1-6.6 6.8 0 3.7 2.9 6.8 6.6 6.8 3.6 0 6.6-3.1 6.6-6.8 0-3.7-2.9-6.8-6.6-6.8zm-18.8 4h8.1c.1 0 .2 0 .3.1.1 0 .2.1.3.2.1.1.1.2.2.3 0 .1.1.2.1.3 0 .2-.1.4-.2.6-.1.1-.3.2-.5.2h-8.1c-.2 0-.4-.1-.5-.2-.1-.2-.2-.4-.2-.6 0-.1 0-.2.1-.3 0-.1.1-.2.2-.3.1-.1.2-.1.3-.2-.3-.1-.2-.1-.1-.1zm21.2.9c.2 0 .4.1.5.2.1.1.1.2.2.3 0 .1.1.2.1.3 0 .1 0 .2-.1.3 0 .1-.1.2-.2.3l-2.6 2.7c-.1.1-.2.1-.3.2-.1 0-.2.1-.3.1s-.2 0-.3-.1c-.1 0-.2-.1-.3-.2l-2-2.1c-.1-.2-.2-.4-.2-.6 0-.2.1-.4.2-.6.1-.2.3-.2.5-.2s.4.1.5.2l1.4 1.5 2.1-2.2c.4-.1.6-.1.8-.1z" style="fill:#00b21e"/></svg>