<svg viewBox="0 0 20 20" fill="none" xmlns="http://www.w3.org/2000/svg">
    <path
        d="M0.615284 0.449257C0.0551776 0.650321 -0.17461 1.36841 0.146135 1.91894C0.284965 2.15351 0.462093 2.25404 1.28071 2.53649C1.73071 2.69447 2.03709 2.82372 2.05145 2.86681C2.06103 2.90511 2.43922 4.85351 2.88922 7.19926C3.33443 9.545 3.75571 11.6562 3.82273 11.9003C4.35411 13.8918 5.34986 15.1652 6.74294 15.6392L7.12592 15.7684L10.9557 15.7828C13.0621 15.7923 14.8573 15.7828 14.9435 15.7684C15.1972 15.7205 15.4653 15.4429 15.5562 15.1365C15.7094 14.6051 15.4988 14.112 15.0249 13.8966C14.9722 13.8727 13.2775 13.8439 11.1711 13.8296L7.41316 13.8056L7.12592 13.6907C6.79082 13.5567 6.34082 13.1306 6.13018 12.7381L5.99614 12.4892H10.702H15.4078L15.652 12.3743C16.0924 12.1684 16.4084 11.6897 16.6525 10.8423C16.7195 10.6126 16.7722 10.3828 16.7722 10.3397C16.7722 10.1721 16.686 10.1578 15.9201 10.1769C14.5749 10.22 13.5552 9.93755 12.4924 9.22426C12.0376 8.92266 11.1903 8.03224 10.8935 7.55351C10.2472 6.50032 9.93603 5.16468 10.0701 4.05404C10.185 3.14447 10.185 3.13968 10.0749 3.00564C9.90252 2.78064 9.74933 2.77106 6.78124 2.77106H4.00943L3.82752 2.20617C3.59773 1.49766 3.48762 1.30617 3.24826 1.16734C3.09507 1.07638 0.936029 0.372661 0.835497 0.377448C0.821135 0.382236 0.720603 0.410959 0.615284 0.449257Z"
        fill="#6667AB" />
    <path
        d="M7.74823 16.884C7.14982 17.0899 6.76685 17.6356 6.76685 18.2771C6.76685 18.6697 6.88174 18.9617 7.15461 19.2585C7.46099 19.5936 7.77216 19.7324 8.22695 19.7372C8.51419 19.742 8.60993 19.7181 8.8828 19.584C9.41419 19.3255 9.69185 18.8755 9.69185 18.2771C9.69663 17.2574 8.70568 16.5537 7.74823 16.884Z"
        fill="#6667AB" />
    <path
        d="M13.6749 16.8647C13.2296 17.0083 12.8084 17.4583 12.703 17.9083C12.478 18.8466 13.1578 19.7323 14.1153 19.7371C14.7185 19.7466 15.1733 19.4642 15.4413 18.9185C15.5754 18.6456 15.5945 18.5498 15.5945 18.253C15.5897 17.6786 15.2929 17.2142 14.752 16.9365C14.4935 16.8025 13.9669 16.769 13.6749 16.8647Z"
        fill="#6667AB" />
    <g clip-path="url(#clip0_320_16268)">
        <path
            d="M19.5265 4.30005C19.5265 1.92502 17.6013 0 15.2266 0C12.8517 0 10.9265 1.92502 10.9265 4.30005C10.9265 6.67472 12.8517 8.5999 15.2266 8.5999C17.6013 8.5999 19.5265 6.67472 19.5265 4.30005Z"
            fill="#6667AB" />
        <path
            d="M13.3223 3.00896C13.3223 2.76777 13.3997 2.52337 13.5546 2.27582C13.7094 2.02826 13.9354 1.82325 14.2325 1.66073C14.5296 1.49827 14.8762 1.41699 15.2722 1.41699C15.6404 1.41699 15.9654 1.48496 16.2472 1.62074C16.5291 1.7566 16.7467 1.94132 16.9004 2.17489C17.054 2.40852 17.1308 2.66238 17.1308 2.93659C17.1308 3.15243 17.087 3.34162 16.9994 3.50406C16.9118 3.66658 16.8077 3.80686 16.6871 3.9249C16.5665 4.04297 16.35 4.24166 16.0377 4.52095C15.9514 4.59968 15.8822 4.66889 15.8302 4.72853C15.7781 4.78821 15.7394 4.84279 15.714 4.89228C15.6886 4.9418 15.6689 4.9913 15.655 5.04082C15.641 5.09031 15.62 5.17732 15.5921 5.30171C15.5439 5.56579 15.3928 5.6978 15.1389 5.6978C15.0069 5.6978 14.8958 5.65466 14.8057 5.56831C14.7155 5.48201 14.6705 5.35378 14.6705 5.18365C14.6705 4.97037 14.7034 4.78565 14.7695 4.62951C14.8355 4.47334 14.9231 4.33623 15.0323 4.21819C15.1414 4.10012 15.2887 3.95986 15.4741 3.79734C15.6365 3.65517 15.754 3.54788 15.8264 3.47552C15.8987 3.40315 15.9597 3.32259 16.0092 3.23367C16.0587 3.14482 16.0835 3.04836 16.0835 2.94422C16.0835 2.74111 16.0079 2.56974 15.8568 2.43007C15.7058 2.29046 15.5109 2.22059 15.2722 2.22059C14.9929 2.22059 14.7872 2.29105 14.6552 2.43197C14.5232 2.57289 14.4115 2.78046 14.3201 3.05467C14.2337 3.34162 14.07 3.48503 13.8288 3.48503C13.6865 3.48503 13.5666 3.43492 13.4689 3.3346C13.3711 3.23431 13.3223 3.12577 13.3223 3.00896ZM15.1808 7.18314C15.0259 7.18314 14.8907 7.13296 14.7752 7.03269C14.6597 6.93243 14.6019 6.79215 14.6019 6.61185C14.6019 6.45188 14.6577 6.31734 14.7695 6.20815C14.8812 6.099 15.0183 6.04438 15.1808 6.04438C15.3408 6.04438 15.4753 6.099 15.5845 6.20815C15.6937 6.31734 15.7483 6.45188 15.7483 6.61185C15.7483 6.7896 15.6912 6.92926 15.5769 7.0308C15.4626 7.13233 15.3306 7.18314 15.1808 7.18314Z"
            fill="white" />
    </g>
    <defs>
        <clipPath id="clip0_320_16268">
            <rect width="8.6" height="8.6" fill="white" transform="translate(10.9265)" />
        </clipPath>
    </defs>
</svg>