<?xml version="1.0" encoding="utf-8"?>
<!-- Generator: Adobe Illustrator 25.0.0, SVG Export Plug-In . SVG Version: 6.00 Build 0)  -->
<svg version="1.1" id="Layer_1" xmlns="http://www.w3.org/2000/svg" xmlns:xlink="http://www.w3.org/1999/xlink" x="0px"
	y="0px" viewBox="0 0 50 23" fill='currentColor' style="enable-background:new 0 0 50 23;" xml:space="preserve">
	<path class="st0" d="M8,0h34c4.4,0,8,3.6,8,8v7c0,4.4-3.6,8-8,8H8c-4.4,0-8-3.6-8-8V8C0,3.6,3.6,0,8,0z" />
	<path class="st1"
		d="M8,0.2h34c4.3,0,7.8,3.5,7.8,7.8v7c0,4.3-3.5,7.8-7.8,7.8H8c-4.3,0-7.8-3.5-7.8-7.8V8C0.2,3.7,3.7,0.2,8,0.2z" />
</svg>