<svg width="16" height="16" viewBox="0 0 16 16" fill="none" xmlns="http://www.w3.org/2000/svg">
<path d="M14.542 0.655273C14.2571 0.655273 14.0259 0.886237 14.0259 1.17139C14.0259 1.45623 14.2571 1.68751 14.542 1.68751C14.7768 1.68751 14.9678 1.87847 14.9678 2.11299V13.8863C14.9678 14.1208 14.7768 14.3117 14.542 14.3117C14.2571 14.3117 14.0259 14.543 14.0259 14.8279C14.0259 15.113 14.2571 15.344 14.542 15.344C15.3458 15.344 16 14.6901 16 13.8863V2.11299C16 1.30913 15.3458 0.655273 14.542 0.655273ZM12.1501 0.655273C11.8653 0.655273 11.634 0.886237 11.634 1.17139C11.634 1.45623 11.8653 1.68751 12.1501 1.68751C12.3849 1.68751 12.5759 1.87847 12.5759 2.11299V13.8863C12.5759 14.1208 12.3849 14.3117 12.1501 14.3117C11.8653 14.3117 11.634 14.543 11.634 14.8279C11.634 15.113 11.8653 15.344 12.1501 15.344C12.9543 15.344 13.6081 14.6901 13.6081 13.8863V2.11299C13.6081 1.30913 12.9543 0.655273 12.1501 0.655273ZM11.2162 2.11299V13.8863C11.2162 14.6902 10.5624 15.344 9.7582 15.344H4.92797C4.6425 15.344 4.41153 15.1124 4.41186 14.8269C4.41315 14.3663 4.41121 13.4486 4.41121 11.5799C4.41121 11.2228 4.12154 10.9335 3.76477 10.9335C1.8961 10.9335 0.978376 10.9315 0.517418 10.9328C0.231939 10.9331 0.000331199 10.7022 0.000331199 10.4167V2.11299C0.000331199 1.30784 0.652899 0.655273 1.45804 0.655273H9.7582C10.5624 0.655273 11.2162 1.30913 11.2162 2.11299ZM3.91703 11.9438V14.8279C3.91703 15.2787 3.3722 15.5217 3.03575 15.193C-0.0796672 12.0773 0.0511366 12.2574 0.0100084 12.0431C-0.0530226 11.7278 0.189521 11.4276 0.51645 11.4276H3.40091C3.68574 11.4276 3.91703 11.6586 3.91703 11.9438Z" fill="#9C9CC8"/>
</svg>
