<svg xmlns="http://www.w3.org/2000/svg" viewBox="0 0 20 15" xml:space="preserve"><path fill="currentColor" d="M20 1.842v6.3s-1.3.3-1.6.3c-.6.2-1.2.1-1.7-.3-.9-.9-4.3-4.4-4.3-4.4-.4-.4-1-.4-1.5-.1-.8.5-2.1 1.1-2.6 1.4-.6.3-1.3.1-1.6-.4-.1-.2-.2-.4-.2-.6 0-.5.3-.9.7-1.1 1.2-.7 3.7-2.2 4.7-2.8.6-.4 1.1-.4 2 .4 1.1.9 2 1.8 2 1.8.2.2.5.2.8.2 1.4-.2 3.3-.7 3.3-.7zm-13.2 10.7c.2-.4.1-.9-.2-1.2-.3-.3-.7-.4-1.1-.3.1-.4 0-.8-.2-1.1-.3-.3-.7-.4-1.1-.3.1-.4 0-.8-.2-1.1-.5-.5-1.2-.4-1.7 0-.5.5-.8 1.4-.4 1.9s.9.2 1.3.1c-.1.4-.4.8 0 1.3s.9.2 1.3.1c-.1.4-.4.8 0 1.3s1 .2 1.4.1c-.2.4-.5.9-.1 1.4s1.5.3 2-.2.5-1.2.1-1.7c-.3-.4-.7-.5-1.1-.3zm9-3.3c-3.6-3.7-1.9-2-3.8-4-.4-.3-.9-.4-1.3-.3-.5.2-1.2.6-1.7.8-.4.2-.8.4-1.2.4-1.1 0-2-.9-2-2.1 0-.7.4-1.4.9-1.8.8-.6 2.6-1.6 2.6-1.6-.5-.5-1.1-.8-1.8-.7-1.2 0-3.8 1.7-3.8 1.7-.5.3-1.2.3-1.8 0l-2-.7v7.4s.6.2 1.1.4c.1-.3.3-.7.6-.9.8-.8 2.2-.8 3 0 .2.2.4.6.5.9.3.1.6.3.8.5.2.2.4.5.5.9.4 0 .6.2.9.4.3.3.4.6.5 1 .3.1.6.3.9.5.4.5.6 1.2.5 1.8l.5.5c.3.3.9.4 1.2 0 .3-.4.3-.9 0-1.3 0 0-1.2-1.3-1.1-1.4s1.7 1.6 1.7 1.6c.3.3.9.4 1.2 0 .3-.4.3-.9 0-1.3l-.1-.1s-1.5-1.4-1.4-1.5 2 1.7 2 1.7c.3.3.9.3 1.2 0 .3-.3.3-.9 0-1.2 0 0-1.5-1.6-1.3-1.7s1.6 1.4 1.6 1.4c.3.3.9.4 1.2 0 .3-.4.3-.9-.1-1.3z"/></svg>