<svg id="Partner_Management" data-name="Partner Management" xmlns="http://www.w3.org/2000/svg" width="24" height="24" viewBox="0 0 24 24">
  <g id="hand-shake-svgrepo-com" transform="translate(2 -63.658)">
    <path id="Path_43196" data-name="Path 43196" d="M20,70.517V76.8s-1.3.265-1.563.3a1.8,1.8,0,0,1-1.708-.289c-.935-.929-4.255-4.355-4.255-4.355a1.228,1.228,0,0,0-1.492-.079c-.844.461-2.095,1.138-2.617,1.4A1.2,1.2,0,0,1,6.558,72.8a1.275,1.275,0,0,1,.747-1.113c1.191-.749,3.7-2.212,4.748-2.788.636-.351,1.094-.381,1.967.382,1.075.938,2.032,1.793,2.032,1.793a.968.968,0,0,0,.81.161C18.084,70.962,20,70.517,20,70.517ZM6.783,81.159a1.182,1.182,0,0,0-.2-1.237,1.087,1.087,0,0,0-1.067-.28,1.163,1.163,0,0,0-.23-1.117,1.088,1.088,0,0,0-1.067-.28,1.162,1.162,0,0,0-.231-1.116,1.174,1.174,0,0,0-1.687.046c-.493.491-.809,1.381-.369,1.9s.944.2,1.329.113c-.107.4-.428.765-.033,1.283s.944.2,1.33.114c-.107.395-.414.8-.034,1.281s1.011.225,1.426.092c-.16.427-.5.887-.063,1.4s1.455.279,1.951-.212a1.26,1.26,0,0,0,.107-1.735A1.1,1.1,0,0,0,6.783,81.159Zm9.053-3.268c-3.587-3.721-1.9-1.97-3.83-3.977a1.227,1.227,0,0,0-1.345-.251c-.537.244-1.228.576-1.748.83a2.81,2.81,0,0,1-1.176.406,2.043,2.043,0,0,1-2-2.073,2.085,2.085,0,0,1,.947-1.756c.8-.572,2.631-1.584,2.631-1.584a2.271,2.271,0,0,0-1.783-.735c-1.224,0-3.781,1.738-3.781,1.738a1.936,1.936,0,0,1-1.759.048L0,69.817V77s.569.171,1.08.388a2.377,2.377,0,0,1,.56-.918,2.148,2.148,0,0,1,3.026-.022,2,2,0,0,1,.478.88,1.922,1.922,0,0,1,.819.518,2,2,0,0,1,.478.878,1.93,1.93,0,0,1,.819.519,2.054,2.054,0,0,1,.506.962,1.948,1.948,0,0,1,.855.531,2.143,2.143,0,0,1,.529,1.812,0,0,0,0,1,0,0c.008.01.287.334.462.516a.859.859,0,0,0,1.243,0,.94.94,0,0,0,0-1.29c-.012-.013-1.234-1.338-1.135-1.441s1.654,1.578,1.683,1.608a.859.859,0,0,0,1.243,0,.938.938,0,0,0,0-1.289c-.017-.017-.087-.086-.113-.114,0,0-1.543-1.426-1.425-1.548s2.035,1.733,2.038,1.733a.854.854,0,0,0,1.207-.025.93.93,0,0,0,.043-1.22c-.006-.019-1.461-1.6-1.347-1.715s1.554,1.417,1.557,1.42a.859.859,0,0,0,1.243,0,.941.941,0,0,0,0-1.291Z" fill="currentColor"/>
  </g>
  <rect id="Rectangle_11169" data-name="Rectangle 11169" width="24" height="24" fill="none"/>
</svg>
