<svg width="40" height="40" viewBox="0 0 40 40" fill="none" xmlns="http://www.w3.org/2000/svg">
<circle cx="20" cy="20" r="20" fill="#D4D5E2"/>
<path d="M19.8751 23C20.3763 23 21.0813 21.6445 21.1701 19.5H18.5801C18.6688 21.6445 19.3738 23 19.8751 23Z" fill="#6667AB"/>
<path d="M15.9817 18.625H17.6964C17.7449 17.4333 17.991 16.2481 18.4183 15.4117C17.0988 15.9402 16.1462 17.1623 15.9817 18.625Z" fill="#6667AB"/>
<path d="M21.3318 15.4117C21.759 16.2481 22.0052 17.4333 22.0536 18.625H23.7684C23.6038 17.1623 22.6512 15.9402 21.3318 15.4117Z" fill="#6667AB"/>
<path d="M19.8751 15.1249C19.3738 15.1249 18.6688 16.4804 18.5801 18.6249H21.1701C21.0813 16.4804 20.3764 15.1249 19.8751 15.1249Z" fill="#6667AB"/>
<path d="M15.9817 19.5C16.1462 20.9627 17.0988 22.1848 18.4183 22.7132C17.991 21.8769 17.7449 20.6918 17.6964 19.5H15.9817Z" fill="#6667AB"/>
<path d="M26 11.625H25.125V10.7198C25.125 9.62731 24.0945 8.7732 22.9841 9.05391L13.6502 11.6351C12.7323 11.6881 12 12.444 12 13.375V28.25C12 29.2152 12.7849 30 13.75 30H26C26.9652 30 27.75 29.2152 27.75 28.25V13.375C27.75 12.4099 26.9652 11.625 26 11.625ZM23.2088 9.89945C23.7194 9.76914 24.25 10.1827 24.25 10.7198V11.625H16.9696L23.2088 9.89945ZM22.0625 27.375H17.25C17.0082 27.375 16.8125 27.1794 16.8125 26.9375C16.8125 26.6957 17.0082 26.5 17.25 26.5H22.0625C22.3043 26.5 22.5 26.6957 22.5 26.9375C22.5 27.1794 22.3043 27.375 22.0625 27.375ZM23.8125 25.6254H15.5C15.2582 25.6254 15.0625 25.4297 15.0625 25.1879C15.0625 24.9461 15.2582 24.7504 15.5 24.7504H23.8125C24.0543 24.7504 24.25 24.9461 24.25 25.1879C24.25 25.4297 24.0543 25.6254 23.8125 25.6254ZM19.875 23.875C17.2214 23.875 15.0625 21.7161 15.0625 19.0625C15.0625 16.4089 17.2214 14.25 19.875 14.25C22.5286 14.25 24.6875 16.4089 24.6875 19.0625C24.6875 21.7161 22.5286 23.875 19.875 23.875Z" fill="#6667AB"/>
<path d="M21.3318 22.7132C22.6512 22.1848 23.6038 20.9627 23.7684 19.5H22.0536C22.0052 20.6918 21.759 21.8769 21.3318 22.7132Z" fill="#6667AB"/>
</svg>
