<svg viewBox="0 0 24 22" fill="currentColor" xmlns="http://www.w3.org/2000/svg">
    <path fill-rule="evenodd" clip-rule="evenodd" d="M23.2963 8.88818H22.3824C21.2935 3.52854 16.1142 -0.171541 10.5802 0.545972C6.89945 1.08729 4.0134 3.34338 2.51978 6.36007C3.43449 5.91147 4.68076 6.12883 5.27124 7.01514L6.19506 8.40086C7.00515 6.62805 8.66049 5.269 10.6202 4.82993C13.9071 4.14002 16.9698 5.96088 18.0122 8.88818H17.6716C17.109 8.88818 16.7764 9.5174 17.0866 9.9813L19.8989 14.1997C20.177 14.6168 20.7909 14.6168 21.0689 14.1997L23.8812 9.9813C24.1926 9.5136 23.8557 8.88818 23.2963 8.88818ZM20.4839 15.9184C19.7774 15.9184 19.121 15.5675 18.7289 14.9791L17.8088 13.599C16.9831 15.4085 15.2775 16.7876 13.2661 17.1975C13.2503 17.2002 13.2352 17.2037 13.2201 17.2078C12.425 17.3644 11.5949 17.3657 10.7614 17.2064C8.54639 16.7622 6.71981 15.1933 5.98584 13.106H6.3285C6.88795 13.106 7.22475 12.4806 6.91345 12.013L4.10114 7.7945C3.84023 7.40314 3.19205 7.40314 2.93119 7.7945L0.118873 12.013C-0.191346 12.4768 0.141326 13.1061 0.703826 13.1061H1.6184C2.57981 17.8207 6.83269 21.5431 12.0422 21.5431C14.8927 21.5431 17.7074 20.3644 19.7246 18.2245C20.433 17.4663 21.0264 16.599 21.4928 15.6598C21.1878 15.8261 20.8428 15.9184 20.4839 15.9184ZM12 10.2937C12.5644 10.2937 13.0945 10.5134 13.492 10.9123C14.3159 11.7333 14.3179 13.0706 13.4907 13.895C13.266 14.1203 12.9957 14.2812 12.7031 14.3846V15.2153C12.7031 15.6039 12.3886 15.9183 12 15.9183C11.6114 15.9183 11.297 15.6039 11.297 15.2153V14.3844C11.0042 14.2808 10.7335 14.1198 10.5081 13.8936C10.2341 13.6189 10.2341 13.1733 10.5094 12.8994C10.7841 12.6254 11.229 12.6254 11.5036 12.9007C11.7673 13.1657 12.2328 13.1657 12.4965 12.9007C12.7764 12.6222 12.7674 12.1747 12.4979 11.9065C12.3647 11.7726 12.1882 11.6998 12.0001 11.6998C11.4357 11.6998 10.9056 11.4801 10.5081 11.0812C9.68428 10.2602 9.68226 8.92295 10.5095 8.0986C10.732 7.87534 11.006 7.73077 11.297 7.63276V6.77827C11.297 6.38968 11.6115 6.0752 12.0001 6.0752C12.3887 6.0752 12.7032 6.38968 12.7032 6.77823V7.6329C12.9945 7.73096 13.2688 7.87595 13.4921 8.09996C13.7661 8.3746 13.7661 8.8202 13.4907 9.0942C13.2154 9.3675 12.7705 9.3689 12.4965 9.0928C12.2328 8.82779 11.7673 8.82779 11.5036 9.0928C11.2237 9.3713 11.2327 9.8189 11.5023 10.087C11.6354 10.2209 11.8119 10.2937 12 10.2937Z" fill="currentColor" />
</svg>