<svg version="1.1" id="Layer_1" xmlns="http://www.w3.org/2000/svg" x="0" y="0" viewBox="0 0 98.9 37" style="enable-background:new 0 0 98.9 37" xml:space="preserve"><style>.st0{fill:gray;fill-opacity:.5}</style><path class="st0" d="M34.5 10.4V23c0 3.4-2.5 6.2-5.6 6.2H4.6v4.1c0 2.1 1.5 3.8 3.4 3.8h25.5c1.9 0 3.4-1.7 3.4-3.8V14c.1-1.7-.9-3.2-2.4-3.6z"/><path class="st0" d="M32.4 23V10.1H0V23c0 2.1 1.5 3.8 3.4 3.8h25.5c1.9-.1 3.5-1.7 3.5-3.8zm-4.8-1.6H23c-.6 0-1.1-.5-1.1-1.2S22.4 19 23 19h4.6c.6 0 1.1.5 1.1 1.2s-.5 1.2-1.1 1.2zM32.4 3.8C32.4 1.7 30.9 0 29 0H3.4C1.5 0 0 1.7 0 3.8v3.9h32.4V3.8zM48.3 11.5h-2V9.8h2c.3 0 .5-.1.7-.2.2-.1.3-.3.4-.5.1-.2.1-.5.1-.8 0-.3 0-.6-.1-.8-.1-.3-.2-.5-.4-.6-.2-.2-.4-.2-.7-.2h-1.4V15h-2V5h3.4c.7 0 1.3.2 1.7.5.5.3.9.7 1.1 1.2.3.5.4 1.1.4 1.7s-.1 1.2-.4 1.7c-.3.5-.6.8-1.1 1.1-.4.2-1 .3-1.7.3zm7-4.7L53.1 15H51l3.1-10h1.3l-.1 1.8zM57 15l-2.2-8.2-.2-1.8H56l3.1 10H57zm0-3.7V13h-4.5v-1.7H57zM60.5 5 62 9.5 63.5 5h2.2L63 11.4V15h-2v-3.6L58.3 5h2.2zm6.8 0h1.8l2 6.8 2-6.8h1.6l-2.8 10h-1.5L67.3 5zm-.7 0h1.7l.3 6.6V15h-1.9V5zm7.3 0h1.7v10h-1.9v-3.4l.2-6.6zm9.1 8.3V15h-4.3v-1.7H83zM79.3 5v10h-2V5h2zm3.1 4.1v1.6h-3.7V9.1h3.7zM83 5v1.7h-4.3V5H83zm8.1 0v10h-1.9L86 8.8V15h-1.9V5H86l3.2 6.3V5h1.9zm5.4 0v10h-2V5h2zm2.4 0v1.7H92V5h6.9zM62.2 29.3V31H58v-1.7h4.2zM58.6 21v10h-2V21h2zm11.3 4.3V27c0 .7-.1 1.3-.3 1.8-.2.5-.4 1-.7 1.3-.3.4-.7.6-1.1.8-.4.2-.9.3-1.5.3-.5 0-1-.1-1.5-.3-.4-.2-.8-.4-1.1-.8-.3-.4-.6-.8-.7-1.3-.2-.5-.3-1.1-.3-1.8v-1.7c0-.7.1-1.3.3-1.9.2-.5.4-1 .7-1.4.3-.4.7-.6 1.1-.8.4-.2.9-.3 1.5-.3s1 .1 1.5.3c.4.2.8.5 1.1.8.3.4.6.8.7 1.4.2.5.3 1.1.3 1.9zm-2 1.6v-1.7c0-.5 0-.9-.1-1.2-.1-.3-.2-.6-.3-.8-.1-.2-.3-.4-.5-.5-.2-.1-.4-.2-.7-.2-.3 0-.5.1-.7.2-.2.1-.4.3-.5.5-.1.2-.2.5-.3.8-.1.3-.1.7-.1 1.2v1.7c0 .5 0 .8.1 1.2.1.3.2.6.3.8.1.2.3.4.5.5.2.1.4.1.7.1.3 0 .5 0 .7-.1.2-.1.4-.3.5-.5.1-.2.2-.5.3-.8 0-.3.1-.7.1-1.2zm10.2-1.1v4.1c-.1.2-.3.3-.6.5s-.6.4-1.1.5c-.4.1-1 .2-1.6.2-.6 0-1.1-.1-1.5-.3-.4-.2-.8-.4-1.2-.8-.3-.4-.6-.8-.7-1.3-.2-.5-.3-1.2-.3-1.9v-1.7c0-.7.1-1.3.2-1.9.2-.5.4-1 .7-1.3.3-.4.7-.6 1.1-.8.4-.2.9-.3 1.5-.3.7 0 1.4.1 1.8.4.5.3.8.6 1.1 1.1.3.5.4 1.1.5 1.8h-1.9c0-.4-.1-.7-.2-1-.1-.2-.3-.4-.4-.5-.2-.1-.4-.2-.7-.2-.3 0-.5 0-.7.1-.2.1-.4.2-.5.5-.1.2-.2.5-.3.8s-.1.7-.1 1.2v1.7c0 .5 0 .9.1 1.2.1.3.2.6.3.8.1.2.3.4.5.5.2.1.5.1.8.1.2 0 .4 0 .6-.1.1-.1.3-.1.3-.2.1-.1.2-.1.2-.1v-1.8h-1.4v-1.5h3.5zm8.4-.5V27c0 .7-.1 1.3-.3 1.8-.2.5-.4 1-.7 1.3-.3.4-.7.6-1.1.8-.4.1-.9.2-1.4.2-.5 0-1-.1-1.5-.3-.4-.2-.8-.4-1.1-.8-.3-.4-.6-.8-.7-1.3-.2-.5-.3-1.1-.3-1.8v-1.7c0-.7.1-1.3.3-1.9.2-.5.4-1 .7-1.4.3-.4.7-.6 1.1-.8.4-.2.9-.3 1.5-.3.5 0 1 .1 1.5.3.4.2.8.5 1.1.8.3.4.6.8.7 1.4.1.6.2 1.2.2 2zm-2 1.6v-1.7c0-.5 0-.9-.1-1.2-.1-.3-.2-.6-.3-.8-.1-.2-.3-.4-.5-.5-.2-.1-.4-.2-.7-.2-.3 0-.5.1-.7.2-.2.1-.4.3-.5.5-.1.2-.2.5-.3.8-.1.3-.1.7-.1 1.2v1.7c0 .5 0 .8.1 1.2.1.3.2.6.3.8.1.2.3.4.5.5.2.1.4.1.7.1.3 0 .5 0 .7-.1.2-.1.4-.3.5-.5.1-.2.2-.5.3-.8.1-.3.1-.7.1-1.2z"/></svg>