<svg xmlns="http://www.w3.org/2000/svg" xml:space="preserve" id="Layer_1" x="0" y="0"
    style="enable-background:new 0 0 24 21.3" version="1.1" viewBox="0 0 24 21.3">
    <style>
        .payment-sidebar {
            fill: currentColor
        }
    </style>
    <path
        d="M24 11.8 22.2 1.5C22 .6 21.2 0 20.3 0 20.2 0 4.4 2.8 4.4 2.8c-1 .2-1.7 1.1-1.5 2.1l.2 1h14.2c1.8 0 3.3 1.5 3.3 3.3v5.1l1.9-.3c1-.2 1.7-1.1 1.5-2.2zM19.2 15.1H0v4.3c0 1 .8 1.9 1.9 1.9h15.5c1 0 1.9-.8 1.9-1.9v-4.3zM5.6 19.6H2.4c-.4 0-.7-.3-.7-.7 0-.4.3-.7.7-.7h3.2c.4 0 .7.3.7.7 0 .4-.3.7-.7.7z"
        class="payment-sidebar" />
    <path class="payment-sidebar" d="M0 9.1h19.2c0-1-.9-1.8-1.9-1.8H1.9c-1 0-1.9.8-1.9 1.8zM0 10.5h19.2v3.2H0v-3.2z" />
</svg>