<svg width="10" height="10" viewBox="0 0 10 10" fill="none" xmlns="http://www.w3.org/2000/svg">
<path d="M6.17585 1.66907L0.675648 7.16833C0.647766 7.19616 0.627902 7.23099 0.618146 7.26915L0.00645705 9.71882C-0.00151622 9.75074 -0.0021135 9.78406 0.00471053 9.81624C0.0115346 9.84843 0.0256006 9.87863 0.0458416 9.90457C0.0660825 9.93051 0.0919665 9.9515 0.12153 9.96595C0.151093 9.9804 0.183559 9.98792 0.216465 9.98795C0.234173 9.9879 0.251807 9.98566 0.268967 9.98128L2.71656 9.37137C2.75477 9.36173 2.78964 9.34185 2.81739 9.31388L8.31759 3.81461L6.17585 1.66907Z" fill="#505D6E"/>
<path d="M9.68266 0.919203L9.07015 0.306785C8.86381 0.10987 8.58952 0 8.30428 0C8.01904 0 7.74475 0.10987 7.53841 0.306785L6.78839 1.05668L8.93263 3.20056L9.68266 2.45066C9.88571 2.24754 9.99977 1.97212 9.99977 1.68493C9.99977 1.39775 9.88571 1.12232 9.68266 0.919203V0.919203Z" fill="#505D6E"/>
</svg>
