<svg  viewBox="0 0 20 24" fill="none" xmlns="http://www.w3.org/2000/svg">
<path d="M10 7.03125C7.28608 7.03125 5.07812 9.2392 5.07812 11.9531C5.07812 14.667 7.28608 16.875 10 16.875C12.7139 16.875 14.9219 14.667 14.9219 11.9531C14.9219 9.2392 12.714 7.03125 10 7.03125ZM13.3097 11.0441L9.5597 14.7941C9.42241 14.9313 9.24245 15 9.0625 15C8.88255 15 8.70259 14.9313 8.56534 14.794L6.69034 12.919C6.41575 12.6445 6.41575 12.1993 6.69034 11.9247C6.96489 11.6501 7.41011 11.6501 7.6847 11.9247L9.0625 13.3025L12.3153 10.0497C12.5899 9.77513 13.0351 9.77513 13.3097 10.0497C13.5843 10.3243 13.5843 10.7695 13.3097 11.0441Z" fill="#6667AB"/>
<path d="M18.4375 3.74998C15.6025 3.74998 12.9372 2.64598 10.9326 0.641367L10.4972 0.205945C10.2227 -0.0686953 9.77744 -0.0686016 9.50284 0.205945L9.06738 0.641367C7.06277 2.64598 4.3975 3.74998 1.5625 3.74998C1.17419 3.74998 0.859375 4.06479 0.859375 4.4531V11.4666C0.859375 17.1043 4.44067 22.1257 9.77102 23.9617C9.84522 23.9872 9.92256 24 10 24C10.0774 24 10.1548 23.9872 10.229 23.9617C15.5593 22.1257 19.1406 17.1043 19.1406 11.4666V4.4531C19.1406 4.06479 18.8258 3.74998 18.4375 3.74998ZM10 18.2812C6.51067 18.2812 3.67188 15.4424 3.67188 11.9531C3.67188 8.46377 6.51067 5.62498 10 5.62498C13.4893 5.62498 16.3281 8.46377 16.3281 11.9531C16.3281 15.4424 13.4894 18.2812 10 18.2812Z" fill="#6667AB"/>
</svg>
