<svg id="Layer_1" fill='currentColor' data-name="Layer 1" xmlns="http://www.w3.org/2000/svg" viewBox="0 0 19.89 20.02">
    <path d="M10.43,16.26l2,2.13a.9.9,0,0,0,.15.59.82.82,0,0,0,.49.34l2,.47a1,1,0,0,0,.42.21A1,1,0,0,0,16,20l3.2-.42a.82.82,0,0,0,.55-.33.83.83,0,0,0,.17-.63l-.67-5.34a.91.91,0,0,0-.32-.57.82.82,0,0,0-.62-.17l-1.53.2-1.3-1.38a.74.74,0,0,0-.27-.19.71.71,0,0,0-.32-.07.87.87,0,0,0-.32.06.8.8,0,0,0-.27.18l-3.81,3.73a.88.88,0,0,0-.25.6.93.93,0,0,0,.23.61Zm3.73-2.33.67,5.3-1.65-.38a.33.33,0,0,1-.13-.07.32.32,0,0,1-.11-.12.42.42,0,0,1,0-.15.3.3,0,0,1,0-.16l1.18-5.2a.35.35,0,0,1,.16-.23.34.34,0,0,1,.28-.05l.39.09a.75.75,0,0,0-.33.1.78.78,0,0,0-.26.22,1.08,1.08,0,0,0-.16.3A.82.82,0,0,0,14.16,13.93Zm1.06.94-.47-1a.23.23,0,0,1,0-.18.24.24,0,0,1,.12-.14.23.23,0,0,1,.18,0,.28.28,0,0,1,.14.12l.17.36.08-.39a.23.23,0,0,1,.1-.15.23.23,0,0,1,.18,0,.25.25,0,0,1,.15.1.28.28,0,0,1,0,.18l-.22,1.08a.19.19,0,0,1-.07.12.21.21,0,0,1-.13.07l-.14,0a.32.32,0,0,1-.1-.1Zm3.25,2.79.17.36.08-.39a.32.32,0,0,1,0-.09l.07-.06.08,0H19l.08,0a.23.23,0,0,1,.07.07l0,.09a.27.27,0,0,1,0,.09L19,18.8a.21.21,0,0,1-.07.13.31.31,0,0,1-.13.06.17.17,0,0,1-.14,0,.19.19,0,0,1-.1-.1l-.48-1a.31.31,0,0,1,0-.19.24.24,0,0,1,.12-.14.28.28,0,0,1,.18,0,.28.28,0,0,1,.14.12ZM17,14.81,18.1,16a.26.26,0,0,1,.06.13.32.32,0,0,1,0,.14l-.74,1.42a.3.3,0,0,1-.08.08.18.18,0,0,1-.1,0,.21.21,0,0,1-.11,0,.18.18,0,0,1-.09-.06l-1.07-1.18a.18.18,0,0,1-.06-.13.26.26,0,0,1,0-.15l.74-1.4a.24.24,0,0,1,.08-.09l.1,0h.11l.1.07Z" />
    <path d="M10,8.54a5.18,5.18,0,0,1-6.63,0A6.82,6.82,0,0,0,0,14.42v2.45a.52.52,0,0,0,.52.53H12.77a.52.52,0,0,0,.51-.53V14.42A6.83,6.83,0,0,0,10,8.54Z" />
    <path d="M10.9,4.34A4.31,4.31,0,0,0,6.64,0,4.3,4.3,0,0,0,2.39,4.34,4.31,4.31,0,0,0,6.64,8.69,4.31,4.31,0,0,0,10.9,4.34Z" />
</svg>