<svg viewBox="0 0 14 14" fill="none" xmlns="http://www.w3.org/2000/svg">
    <g clip-path="url(#clip0_3102_49052)">
        <path d="M6.59808 7.39149C4.6634 7.30848 2.71184 7.7349 0.950699 8.6708C0.634894 8.83863 0.4375 9.16704 0.4375 9.52468V11.6666C0.4375 12.2304 0.894542 12.6874 1.45833 12.6874H9.31834C7.47279 12.6794 5.97917 11.1808 5.97917 9.33329C5.97917 8.60961 6.20836 7.93948 6.59808 7.39149Z" fill="#505D6E" />
        <path fill-rule="evenodd" clip-rule="evenodd" d="M3.0625 3.5C3.0625 1.80863 4.43363 0.4375 6.125 0.4375C7.81637 0.4375 9.1875 1.80863 9.1875 3.5C9.1875 5.19137 7.81637 6.5625 6.125 6.5625C4.43363 6.5625 3.0625 5.19137 3.0625 3.5Z" fill="#505D6E" />
        <path fill-rule="evenodd" clip-rule="evenodd" d="M9.33333 7.4375C8.28631 7.4375 7.4375 8.28631 7.4375 9.33333C7.4375 10.3804 8.28631 11.2292 9.33333 11.2292C10.3804 11.2292 11.2292 10.3804 11.2292 9.33333C11.2292 8.28631 10.3804 7.4375 9.33333 7.4375ZM6.5625 9.33333C6.5625 7.80302 7.80302 6.5625 9.33333 6.5625C10.8636 6.5625 12.1042 7.80302 12.1042 9.33333C12.1042 10.8636 10.8636 12.1042 9.33333 12.1042C7.80302 12.1042 6.5625 10.8636 6.5625 9.33333Z" fill="#505D6E" />
        <path fill-rule="evenodd" clip-rule="evenodd" d="M10.7739 10.7739C10.9448 10.603 11.2217 10.603 11.3926 10.7739L13.4342 12.8156C13.6051 12.9864 13.6051 13.2634 13.4342 13.4342C13.2634 13.6051 12.9864 13.6051 12.8156 13.4342L10.7739 11.3926C10.603 11.2217 10.603 10.9448 10.7739 10.7739Z" fill="#505D6E" />
    </g>
    <defs>
        <clipPath id="clip0_3102_49052">
            <rect width="14" height="14" fill="white" />
        </clipPath>
    </defs>
</svg>