<svg version="1.1" id="Layer_1" xmlns="http://www.w3.org/2000/svg" xmlns:xlink="http://www.w3.org/1999/xlink" x="0"
    y="0" viewBox="0 0 14 14" style="enable-background:new 0 0 14 14" xml:space="preserve">
    <defs>
        <path id="SVGID_1_" d="M0 0h14v14H0z" />
    </defs>
    <clipPath id="SVGID_2_">
        <use xlink:href="#SVGID_1_" style="overflow:visible" />
    </clipPath>
    <g style="clip-path:url(#SVGID_2_)">
        <path fill="#6667AB"
            d="M7 0C3.1 0 0 3.1 0 7s3.1 7 7 7 7-3.1 7-7-3.1-7-7-7zm0 12.9c-3.3 0-5.9-2.7-5.9-5.9 0-3.3 2.7-5.9 5.9-5.9 3.3 0 5.9 2.7 5.9 5.9 0 3.3-2.6 5.9-5.9 5.9z" />
        <path fill="#6667AB"
            d="M9.7 6.4H7.5V4.2c0-.3-.2-.5-.5-.5s-.5.2-.5.5v2.2H4.3c-.3 0-.6.3-.6.6s.2.5.5.5h2.2v2.2c0 .3.2.5.5.5s.6-.2.6-.5V7.5h2.2c.3 0 .5-.2.5-.5.1-.3-.2-.6-.5-.6z" />
    </g>
</svg>