<svg xmlns="http://www.w3.org/2000/svg" viewBox="0 0 80 80" style="enable-background:new 0 0 80 80" xml:space="preserve"><path d="M40 80c22.1 0 40-17.9 40-40S62.1 0 40 0 0 17.9 0 40s17.9 40 40 40z" style="opacity:.1;fill:#00b21e;enable-background:new"/><path d="M40 24c-3.2 0-6.3.9-8.9 2.7-2.6 1.8-4.7 4.3-5.9 7.2-1.2 2.9-1.5 6.1-.9 9.2.6 3.1 2.1 6 4.4 8.2 2.2 2.2 5.1 3.8 8.2 4.4 3.1.6 6.3.3 9.2-.9 2.9-1.2 5.4-3.3 7.2-5.9 1.8-2.6 2.7-5.7 2.7-8.9 0-4.2-1.7-8.3-4.7-11.3S44.2 24 40 24zm-1.5 7.3c0-.4.2-.8.4-1s.6-.4 1-.4.8.2 1 .4c.3.3.4.6.4 1v6.2c0 .4-.2.8-.4 1-.3.3-.6.4-1 .4s-.8-.2-1-.4c-.3-.3-.4-.6-.4-1v-6.2zM40 50.2c-1.8 0-3.5-.5-5-1.5s-2.7-2.4-3.4-4c-.7-1.6-1-3.4-.7-5.2.3-1.8 1-3.4 2.2-4.7.3-.3.6-.5 1-.5s.8.1 1.1.4c.3.3.5.6.5 1s-.1.8-.4 1.1c-.8.9-1.3 2-1.5 3.2-.2 1.2 0 2.4.5 3.6.5 1.1 1.3 2.1 2.3 2.7 1 .7 2.2 1 3.4 1s2.4-.4 3.4-1c1-.7 1.8-1.6 2.3-2.7.5-1.1.7-2.4.5-3.6-.2-1.2-.7-2.3-1.5-3.2-.3-.3-.4-.7-.4-1.1 0-.4.2-.7.5-1 .3-.3.7-.4 1.1-.4.4 0 .7.2 1 .5 1.2 1.3 2 3 2.2 4.7.3 1.8 0 3.6-.7 5.2s-1.9 3-3.4 4-3.2 1.5-5 1.5z" style="fill:#00b21e"/></svg>