<svg xmlns="http://www.w3.org/2000/svg" xml:space="preserve" id="Layer_1" x="0" y="0"
    style="enable-background:new 0 0 14 14" version="1.1" viewBox="0 0 14 14">
    <path
        d="M13.4 0H7.6c-.3 0-.6.3-.6.6v3.5c0 .3.3.6.6.6h5.8c.3 0 .6-.3.6-.6V.6c0-.3-.3-.6-.6-.6zM6.4 9.3H.6c-.3 0-.6.3-.6.6v3.5c0 .3.3.6.6.6h5.8c.3 0 .6-.3.6-.6V9.9c0-.3-.3-.6-.6-.6zM4.1 2.9h1.7V1.8H4.1c-1.3 0-2.3 1-2.3 2.3v2.1l-1-.9-.8.8L1.9 8c.2.2.6.2.8 0l1.9-1.9-.8-.8-.9.9V4.1c0-.7.5-1.2 1.2-1.2zM12.1 6c-.2-.2-.6-.2-.8 0l-2 1.9.8.8.9-.9v2.1c0 .6-.5 1.2-1.2 1.2H8.2v1.2h1.7c1.3 0 2.3-1 2.3-2.3V7.8l.9.9.9-.8L12.1 6z"
        fill="currentColor" />
</svg>