<svg viewBox="0 0 14 14" fill="none" xmlns="http://www.w3.org/2000/svg">
    <path d="M7 0C5.61553 0 4.26216 0.410543 3.11101 1.17971C1.95987 1.94888 1.06266 3.04213 0.532846 4.32122C0.00303304 5.6003 -0.13559 7.00777 0.134506 8.36563C0.404603 9.7235 1.07129 10.9708 2.05026 11.9497C3.02922 12.9287 4.2765 13.5954 5.63437 13.8655C6.99224 14.1356 8.3997 13.997 9.67879 13.4672C10.9579 12.9373 12.0511 12.0401 12.8203 10.889C13.5895 9.73785 14 8.38447 14 7C13.9979 5.14413 13.2597 3.36489 11.9474 2.05259C10.6351 0.740295 8.85587 0.00211736 7 0V0ZM6.364 3.182C6.364 3.01319 6.43106 2.85129 6.55043 2.73193C6.6698 2.61256 6.83169 2.5455 7.0005 2.5455C7.16931 2.5455 7.33121 2.61256 7.45058 2.73193C7.56994 2.85129 7.637 3.01319 7.637 3.182V5.909C7.637 6.07781 7.56994 6.23971 7.45058 6.35907C7.33121 6.47844 7.16931 6.5455 7.0005 6.5455C6.83169 6.5455 6.6698 6.47844 6.55043 6.35907C6.43106 6.23971 6.364 6.07781 6.364 5.909V3.182ZM7 11.455C6.21971 11.4549 5.45608 11.2292 4.80112 10.8051C4.14616 10.381 3.62782 9.77647 3.30855 9.06448C2.98928 8.35249 2.8827 7.56337 3.00166 6.79219C3.12061 6.02102 3.46003 5.30069 3.979 4.718C4.09132 4.59202 4.24909 4.51582 4.41759 4.50616C4.58609 4.49651 4.75153 4.55418 4.8775 4.6665C5.00348 4.77882 5.07968 4.93658 5.08934 5.10508C5.099 5.27359 5.04132 5.43902 4.929 5.565C4.57322 5.96435 4.34053 6.45806 4.25895 6.98665C4.17737 7.51523 4.2504 8.05613 4.46923 8.54416C4.68805 9.03219 5.04335 9.44652 5.49229 9.73723C5.94123 10.0279 6.46466 10.1826 6.9995 10.1826C7.53435 10.1826 8.05778 10.0279 8.50672 9.73723C8.95566 9.44652 9.31095 9.03219 9.52978 8.54416C9.74861 8.05613 9.82163 7.51523 9.74006 6.98665C9.65848 6.45806 9.42578 5.96435 9.07 5.565C8.95768 5.43902 8.90001 5.27359 8.90967 5.10508C8.91933 4.93658 8.99553 4.77882 9.1215 4.6665C9.24748 4.55418 9.41292 4.49651 9.58142 4.50616C9.74992 4.51582 9.90768 4.59202 10.02 4.718C10.5389 5.30063 10.8783 6.02086 10.9973 6.79195C11.1163 7.56303 11.0098 8.35207 10.6907 9.06402C10.3715 9.77598 9.85332 10.3805 9.19852 10.8047C8.54371 11.2289 7.78021 11.4547 7 11.455V11.455Z" fill="#505D6E" />
</svg>
    