<svg width="14" height="15" viewBox="0 0 14 15" fill="none" xmlns="http://www.w3.org/2000/svg">
<path d="M13.4167 0H7.58328C7.26267 0 7 0.262671 7 0.583276V4.08328C7 4.40405 7.26267 4.66672 7.58328 4.66672H13.4167C13.7373 4.66672 14 4.40405 14 4.08328V0.583276C14 0.262671 13.7373 0 13.4167 0Z" fill="#505D6E"/>
<path d="M6.41672 9.33398H0.583276C0.262671 9.33398 0 9.59666 0 9.91743V13.4174C0 13.738 0.262671 14.0007 0.583276 14.0007H6.41672C6.73733 14.0007 7 13.738 7 13.4174V9.91743C7 9.59666 6.73733 9.33398 6.41672 9.33398Z" fill="#505D6E"/>
<path d="M4.08396 2.91672H5.83328V1.75H4.08396C2.79545 1.75 1.75 2.79422 1.75 4.08276V6.17507L0.824961 5.25055L0 6.07547L1.92097 7.99576C2.1483 8.2236 2.51788 8.2236 2.74593 7.99576L4.66689 6.07479L3.84176 5.25L2.91672 6.17504L2.91724 4.08273C2.91724 3.43841 3.43964 2.91672 4.08396 2.91672Z" fill="#505D6E"/>
<path d="M12.0773 6.00487C11.85 5.77702 11.4804 5.77702 11.2524 6.00487L9.33159 7.92566L10.1566 8.75062L11.0816 7.82558L11.0811 9.91789C11.0811 10.5622 10.5587 11.0839 9.91436 11.0839H8.16504V12.2506H9.91436C11.2029 12.2506 12.2483 11.2064 12.2483 9.91786V7.82555L13.1734 8.75008L13.9983 7.92511L12.0773 6.00487Z" fill="#505D6E"/>
</svg>
