<svg width="40" height="40" viewBox="0 0 40 40" fill="none" xmlns="http://www.w3.org/2000/svg">
<circle opacity="0.1" cx="20" cy="20" r="20" fill="#6C63FF"/>
<g clip-path="url(#clip0_142_2878)">
<path d="M19.4872 7.69039C19.3017 7.79293 18.8817 8.03219 18.5595 8.21774L17.9735 8.55465L17.9589 12.8418C17.954 15.1953 17.9638 17.1142 17.9833 17.1045C18.0077 17.0947 20.1269 15.8691 22.7001 14.3847C26.4745 12.207 27.3681 11.6748 27.3144 11.6259C27.246 11.5625 20.7079 7.78317 20.3563 7.6025C20.0634 7.45602 19.8827 7.47067 19.4872 7.69039Z" fill="#6C63FF"/>
<path d="M12.9442 11.46C11.04 12.5586 9.42374 13.4961 9.36515 13.5352C9.30167 13.5791 9.20401 13.7061 9.15519 13.8232C9.07218 14.0137 9.06241 14.1406 9.07218 15.0488L9.08683 16.0645L11.9921 17.7441C13.5888 18.6621 15.2538 19.624 15.6933 19.8779L16.4843 20.3369V14.8975C16.4843 11.9043 16.4696 9.45313 16.4501 9.45313C16.4257 9.45313 14.8534 10.3564 12.9442 11.46Z" fill="#6C63FF"/>
<path d="M25.1659 14.6436C23.1591 15.8057 21.5233 16.7725 21.5282 16.792C21.5331 16.8115 23.6473 18.0469 26.2255 19.5361L30.913 22.2412L30.9276 18.1543C30.9374 14.5508 30.9325 14.043 30.8641 13.8672C30.8202 13.7549 30.7518 13.6328 30.703 13.5889C30.5858 13.4814 28.9208 12.5293 28.8622 12.5342C28.8378 12.5342 27.1727 13.4863 25.1659 14.6436Z" fill="#6C63FF"/>
<path d="M9.06238 21.8701V25.9863L9.17468 26.2012C9.27234 26.3965 9.35046 26.46 9.9657 26.8213C10.3417 27.041 10.7616 27.2803 10.8934 27.3535L11.1376 27.4854L14.8143 25.3662C16.8309 24.1992 18.4764 23.2275 18.4716 23.208C18.4618 23.1738 9.6825 18.0762 9.1991 17.8223L9.06238 17.749V21.8701Z" fill="#6C63FF"/>
<path d="M23.5155 25.1123C23.5155 29.9707 23.5253 30.5566 23.5887 30.5273C23.6815 30.4931 30.3075 26.6748 30.5614 26.5088C30.9032 26.2939 30.9423 26.123 30.9276 24.9463L30.913 23.9306L28.3495 22.4511C26.9384 21.6357 25.2733 20.6787 24.6532 20.3174L23.5155 19.6631V25.1123Z" fill="#6C63FF"/>
<path d="M17.3241 25.6006C13.6034 27.749 12.6366 28.3301 12.6855 28.374C12.7489 28.4326 19.3896 32.2705 19.6923 32.4219C19.8925 32.5195 20.1073 32.5195 20.3075 32.4219C20.7128 32.2168 22.0165 31.4502 22.0312 31.4014C22.0409 31.377 22.0458 29.4482 22.0409 27.1191L22.0263 22.8857L17.3241 25.6006Z" fill="#6C63FF"/>
</g>
<defs>
<clipPath id="clip0_142_2878">
<rect width="25" height="25" fill="white" transform="translate(7.49988 7.5)"/>
</clipPath>
</defs>
</svg>
