<svg version="1.1" id="Layer_1" xmlns="http://www.w3.org/2000/svg" xmlns:xlink="http://www.w3.org/1999/xlink" x="0px"
	y="0px" viewBox="0 0 16 17" style="enable-background:new 0 0 16 17;" xml:space="preserve">
	<path fill="currentColor" d="M11.3,3.9C11.3,3.9,11.3,3.9,11.3,3.9c-0.6,0-1.2-0.1-1.8-0.2c-0.8-0.2-1.2-0.5-1.3-1C8.2,2.4,8.3,1.8,9.5,1
	c0.7-0.5,1.5-0.8,2.1-1C11.8,0,12,0,12.3,0c1,0,1.6,0.5,1.8,1.5c0.1,0.6,0,1-0.2,1.4c-0.3,0.4-0.8,0.7-1.5,0.9
	C12,3.9,11.7,3.9,11.3,3.9z M9.8,2.3C9.8,2.4,9.8,2.4,9.8,2.3c0.4,0.2,0.9,0.3,1.5,0.3c0.3,0,0.5,0,0.7-0.1c0.4-0.1,0.6-0.2,0.7-0.3
	c0,0,0.1-0.1,0-0.4c-0.1-0.4-0.2-0.5-0.6-0.5c-0.1,0-0.3,0-0.4,0C11.1,1.5,10.3,2,9.8,2.3z" />
	<path fill="currentColor" d="M4.7,3.9c-0.4,0-0.7,0-1-0.1C3,3.7,2.5,3.4,2.2,2.9C1.9,2.5,1.8,2.1,2,1.5C2.1,0.5,2.8,0,3.8,0
	C4,0,4.2,0,4.4,0.1c0.6,0.1,1.4,0.5,2.1,1c1.2,0.8,1.2,1.3,1.2,1.6c-0.1,0.5-0.5,0.8-1.3,1C5.9,3.8,5.3,3.9,4.7,3.9z M3.8,1.3
	c-0.4,0-0.5,0.1-0.6,0.5c-0.1,0.3,0,0.4,0,0.4C3.3,2.4,3.6,2.5,4,2.5c0.2,0,0.5,0.1,0.7,0.1c0.6,0,1.1-0.1,1.5-0.2c0,0,0.1,0,0-0.1
	c-0.5-0.4-1.3-0.9-2-1C4,1.3,3.9,1.3,3.8,1.3z" />
	<path fill="currentColor" d="M7.3,4.7c0,0,0-0.3-0.3-0.3c-1.6,0-6.3,0-6.3,0C0.4,4.5,0,4.8,0,5.3v2.5c0,0.4,0.4,0.8,0.8,0.8c0,0,4.8,0,6.3,0
	c0.2,0,0.2-0.2,0.2-0.2V4.7z" />
	<path fill="currentColor" d="M15.2,4.5c0,0-4.7,0-6.3,0c-0.2,0-0.2,0.2-0.2,0.2v3.6c0,0,0,0.2,0.3,0.2c1.6,0,6.3,0,6.3,0
	c0.4,0,0.8-0.4,0.8-0.8V5.3C16,4.8,15.6,4.5,15.2,4.5z" />
	<path fill="currentColor" d="M7.1,9.4c-1.4,0-5.4,0-5.4,0c-0.4,0-0.8,0.4-0.8,0.8v6c0,0.4,0.4,0.8,0.8,0.8c0,0,4.1,0,5.5,0
	c0.2,0,0.2-0.2,0.2-0.2V9.7C7.3,9.7,7.3,9.4,7.1,9.4z" />
	<path fill="currentColor" d="M14.3,9.4c0,0-4.1,0-5.4,0c-0.3,0-0.3,0.3-0.3,0.3v7c0,0,0,0.2,0.2,0.2c1.4,0,5.5,0,5.5,0
	c0.4,0,0.8-0.4,0.8-0.8v-6C15.1,9.8,14.8,9.4,14.3,9.4z" />
</svg>