<svg fill="gray" fill-opacity=".5"  version="1.1" id="Layer_1" xmlns="http://www.w3.org/2000/svg" x="0" y="0" viewBox="0 0 100.4 37" style="enable-background:new 0 0 100.4 37" xml:space="preserve"><style></style><path 

d="M34.5 10.4V23c0 3.4-2.5 6.2-5.6 6.2H4.6v4.1c0 2.1 1.5 3.8 3.4 3.8h25.5c1.9 0 3.4-1.7 3.4-3.8V14c.1-1.7-.9-3.2-2.4-3.6z"/><path d="M32.4 23V10.1H0V23c0 2.1 1.5 3.8 3.4 3.8h25.5c1.9-.1 3.5-1.7 3.5-3.8zm-4.8-1.6H23c-.6 0-1.1-.5-1.1-1.2S22.4 19 23 19h4.6c.6 0 1.1.5 1.1 1.2s-.5 1.2-1.1 1.2zM32.4 3.8C32.4 1.7 30.9 0 29 0H3.4C1.5 0 0 1.7 0 3.8v3.9h32.4V3.8zM46.5 11.5h-2V9.8h2c.3 0 .5-.1.7-.2.2-.1.3-.3.4-.5.1-.2.1-.5.1-.8 0-.3 0-.6-.1-.8-.1-.3-.2-.5-.4-.6-.2-.2-.4-.2-.7-.2h-1.4V15h-2V5h3.4c.7 0 1.2.1 1.7.4.5.3.9.7 1.1 1.2.3.5.4 1.1.4 1.7s-.1 1.2-.4 1.7c-.3.5-.6.8-1.1 1.1-.5.3-1 .4-1.7.4zM51.1 5h3.2c.7 0 1.2.1 1.7.3.5.2.8.6 1.1 1 .3.4.4 1 .4 1.7 0 .5-.1 1-.2 1.4-.1.4-.4.7-.6 1-.3.3-.6.5-1 .6l-.7.3h-2.6V9.6h1.8c.3 0 .5-.1.7-.2.2-.1.3-.3.4-.5.1-.2.1-.5.1-.8 0-.3 0-.6-.1-.8-.1-.2-.2-.4-.4-.5-.2-.1-.4-.2-.7-.2H53V15h-2V5zm4.5 10-1.8-4.4h2.1l1.9 4.3v.1h-2.2zm10.2-5.7V11c0 .7-.1 1.3-.3 1.8-.2.5-.4 1-.7 1.3-.3.4-.7.6-1.1.8-.4.2-.9.3-1.5.3-.5 0-1-.1-1.5-.3-.4-.2-.8-.4-1.1-.8-.3-.4-.6-.8-.7-1.3-.2-.5-.3-1.1-.3-1.8V9.3c0-.7.1-1.3.3-1.9.2-.5.4-1 .7-1.4.3-.4.7-.6 1.1-.8.4-.2.9-.3 1.5-.3s1 .1 1.5.3c.4.2.8.5 1.1.8.3.4.6.8.7 1.4.2.5.3 1.1.3 1.9zm-2 1.6V9.2c0-.5 0-.9-.1-1.2-.1-.3-.2-.6-.3-.8-.1-.2-.3-.4-.5-.5-.2-.1-.4-.2-.7-.2-.3 0-.5.1-.7.2-.2.1-.3.3-.5.5-.1.2-.2.5-.3.8-.1.3-.1.7-.1 1.2v1.7c0 .5 0 .8.1 1.2.1.3.2.6.3.8s.3.4.5.5c.2.1.4.1.7.1.3 0 .5 0 .7-.1.2-.1.4-.3.5-.5.1-.2.2-.5.3-.8.1-.3.1-.7.1-1.2zm6.4 2L72.1 5h2.2l-2.9 10h-1.5l.3-2.1zM68.6 5l1.9 7.8.3 2.1h-1.5L66.4 5h2.2zm8.7 0v10h-2V5h2zm4.3 10h-1.8v-1.7h1.7c.5 0 .9-.1 1.1-.3.3-.2.5-.4.6-.8.1-.4.2-.9.2-1.5V9.2c0-.5 0-.8-.1-1.2-.1-.3-.2-.6-.3-.8-.1-.2-.3-.3-.6-.4-.2-.1-.5-.1-.9-.1h-1.8V5h1.8c.6 0 1.1.1 1.6.3s.9.5 1.2.8c.3.4.6.8.8 1.3.2.5.3 1.1.3 1.8v1.5c0 .7-.1 1.3-.3 1.8-.2.5-.4 1-.8 1.3-.3.4-.7.6-1.2.8-.4.3-.9.4-1.5.4zM81 5v10h-2V5h2zm11.6 8.3V15h-4.3v-1.7h4.3zM88.9 5v10h-2V5h2zM92 9.1v1.6h-3.7V9.1H92zm.6-4.1v1.7h-4.3V5h4.3zm1.2 0H97c.7 0 1.2.1 1.7.3.5.2.8.6 1.1 1 .3.4.4 1 .4 1.7 0 .5-.1 1-.2 1.4-.1.4-.4.7-.6 1-.3.3-.6.5-1 .6l-.6.4h-2.6V9.7H97c.3 0 .5-.1.7-.2.1-.1.2-.3.3-.5.1-.2.1-.5.1-.8 0-.3 0-.6-.1-.8-.1-.2-.2-.4-.4-.5-.2-.1-.4-.2-.7-.2h-1.2V15h-2V5zm4.5 10-1.8-4.4h2.1l1.9 4.3v.1h-2.2zM62.2 29.3V31H58v-1.7h4.2zM58.6 21v10h-2V21h2zm11.3 4.3V27c0 .7-.1 1.3-.3 1.8-.2.5-.4 1-.7 1.3-.3.4-.7.6-1.1.8-.4.2-.9.3-1.5.3-.5 0-1-.1-1.5-.3-.4-.2-.8-.4-1.1-.8-.3-.4-.6-.8-.7-1.3-.2-.5-.3-1.1-.3-1.8v-1.7c0-.7.1-1.3.3-1.9.2-.5.4-1 .7-1.4.3-.4.7-.6 1.1-.8.4-.2.9-.3 1.5-.3s1 .1 1.5.3c.4.2.8.5 1.1.8.3.4.6.8.7 1.4.2.5.3 1.1.3 1.9zm-2 1.6v-1.7c0-.5 0-.9-.1-1.2-.1-.3-.2-.6-.3-.8-.1-.2-.3-.4-.5-.5-.2-.1-.4-.2-.7-.2-.3 0-.5.1-.7.2-.2.1-.4.3-.5.5-.1.2-.2.5-.3.8-.1.3-.1.7-.1 1.2v1.7c0 .5 0 .8.1 1.2.1.3.2.6.3.8.1.2.3.4.5.5.2.1.4.1.7.1.3 0 .5 0 .7-.1.2-.1.4-.3.5-.5.1-.2.2-.5.3-.8 0-.3.1-.7.1-1.2zm10.2-1.1v4.1c-.1.2-.3.3-.6.5s-.6.4-1.1.5c-.4.1-1 .2-1.6.2-.6 0-1.1-.1-1.5-.3-.4-.2-.8-.4-1.2-.8-.3-.4-.6-.8-.7-1.3-.2-.5-.3-1.2-.3-1.9v-1.7c0-.7.1-1.3.2-1.9.2-.5.4-1 .7-1.3.3-.4.7-.6 1.1-.8.4-.2.9-.3 1.5-.3.7 0 1.4.1 1.8.4.5.3.8.6 1.1 1.1.3.5.4 1.1.5 1.8h-1.9c0-.4-.1-.7-.2-1-.1-.2-.3-.4-.4-.5-.2-.1-.4-.2-.7-.2-.3 0-.5 0-.7.1-.2.1-.4.2-.5.5-.1.2-.2.5-.3.8s-.1.7-.1 1.2v1.7c0 .5 0 .9.1 1.2.1.3.2.6.3.8.1.2.3.4.5.5.2.1.5.1.8.1.2 0 .4 0 .6-.1.1-.1.3-.1.3-.2.1-.1.2-.1.2-.1v-1.8h-1.4v-1.5h3.5zm8.4-.5V27c0 .7-.1 1.3-.3 1.8-.2.5-.4 1-.7 1.3-.3.4-.7.6-1.1.8-.4.1-.9.2-1.4.2-.5 0-1-.1-1.5-.3-.4-.2-.8-.4-1.1-.8-.3-.4-.6-.8-.7-1.3-.2-.5-.3-1.1-.3-1.8v-1.7c0-.7.1-1.3.3-1.9.2-.5.4-1 .7-1.4.3-.4.7-.6 1.1-.8.4-.2.9-.3 1.5-.3.5 0 1 .1 1.5.3.4.2.8.5 1.1.8.3.4.6.8.7 1.4.1.6.2 1.2.2 2zm-2 1.6v-1.7c0-.5 0-.9-.1-1.2-.1-.3-.2-.6-.3-.8-.1-.2-.3-.4-.5-.5-.2-.1-.4-.2-.7-.2-.3 0-.5.1-.7.2-.2.1-.4.3-.5.5-.1.2-.2.5-.3.8-.1.3-.1.7-.1 1.2v1.7c0 .5 0 .8.1 1.2.1.3.2.6.3.8.1.2.3.4.5.5.2.1.4.1.7.1.3 0 .5 0 .7-.1.2-.1.4-.3.5-.5.1-.2.2-.5.3-.8.1-.3.1-.7.1-1.2z"/></svg>