<svg viewBox="0 0 10 10" fill="none" xmlns="http://www.w3.org/2000/svg">
    <path
        d="M5 10C4.29167 10 3.63333 9.87292 3.025 9.61875C2.41667 9.36458 1.8875 9.0125 1.4375 8.5625C0.9875 8.1125 0.635417 7.58333 0.38125 6.975C0.127083 6.36667 0 5.70833 0 5C0 4.3 0.127083 3.64583 0.38125 3.0375C0.635417 2.42917 0.9875 1.9 1.4375 1.45C1.8875 1 2.41667 0.645833 3.025 0.3875C3.63333 0.129167 4.29167 0 5 0C5.7 0 6.35417 0.129167 6.9625 0.3875C7.57083 0.645833 8.1 1 8.55 1.45C9 1.9 9.35417 2.42917 9.6125 3.0375C9.87083 3.64583 10 4.3 10 5C10 5.70833 9.87083 6.36667 9.6125 6.975C9.35417 7.58333 9 8.1125 8.55 8.5625C8.1 9.0125 7.57083 9.36458 6.9625 9.61875C6.35417 9.87292 5.7 10 5 10ZM3.125 7.4L5 5.525L6.875 7.4L7.4 6.875L5.525 5L7.4 3.125L6.875 2.6L5 4.475L3.125 2.6L2.6 3.125L4.475 5L2.6 6.875L3.125 7.4Z"
        fill="#505D6E" />
</svg>