<svg xmlns="http://www.w3.org/2000/svg" xmlns:xlink="http://www.w3.org/1999/xlink" xml:space="preserve" id="Layer_1"
	x="0" y="0" style="enable-background:new 0 0 16 16" version="1.1" viewBox="0 0 16 16">
	<defs>
		<path id="SVGID_1_" d="M0 0h16v16H0z" />
	</defs>
	<clipPath id="SVGID_2_">
		<use xlink:href="#SVGID_1_" style="overflow:visible" />
	</clipPath>
	<g style="clip-path:url(#SVGID_2_)">
		<path
			d="M15.3 0H8.7c-.4 0-.7.3-.7.7v4c0 .3.3.6.7.6h6.7c.3 0 .6-.3.6-.6v-4c0-.4-.3-.7-.7-.7zM7.3 10.7H.7c-.4 0-.7.3-.7.6v4c0 .4.3.7.7.7h6.7c.3 0 .6-.3.6-.7v-4c0-.3-.3-.6-.7-.6zM4.7 3.3h2V2h-2C3.2 2 2 3.2 2 4.7v2.4L.9 6l-.9.9 2.2 2.2c.3.3.7.3.9 0l2.2-2.2-.9-.9-1.1 1.1V4.7c0-.8.6-1.4 1.4-1.4zM13.8 6.9c-.3-.3-.7-.3-.9 0l-2.2 2.2.9.9 1.1-1.1v2.4c0 .7-.6 1.3-1.3 1.3h-2V14h2c1.5 0 2.7-1.2 2.7-2.7V8.9l1.1 1.1.8-.9-2.2-2.2z"
			fill="currentColor" />
	</g>
</svg>