<svg width="24" height="24" viewBox="0 0 24 24" fill="none" xmlns="http://www.w3.org/2000/svg">
<path d="M17 2.5H7C5.067 2.5 3.5 4.067 3.5 6V20C3.5 21.933 5.067 23.5 7 23.5H17C18.933 23.5 20.5 21.933 20.5 20V6C20.5 4.067 18.933 2.5 17 2.5Z" fill="white"/>
<path d="M9.95491 8.39595C9.7994 8.39595 9.65024 8.33424 9.54019 8.22437C9.43013 8.11451 9.36817 7.96546 9.36791 7.80995L9.35991 5.02295C8.69276 5.02729 8.04183 5.2291 7.48922 5.60291C6.93662 5.97672 6.50707 6.5058 6.25477 7.12342C6.00247 7.74104 5.9387 8.41954 6.07152 9.07335C6.20433 9.72716 6.52778 10.327 7.00107 10.7972C7.47435 11.2674 8.07628 11.587 8.73094 11.7156C9.3856 11.8441 10.0637 11.776 10.6796 11.5197C11.2956 11.2633 11.8219 10.8304 12.1921 10.2754C12.5623 9.72034 12.7599 9.06811 12.7599 8.40095L9.95491 8.39595Z" fill="#6667AB"/>
<path d="M13.317 7.61196C13.2634 6.79055 12.9117 6.01699 12.328 5.43659C11.7443 4.85619 10.9687 4.5089 10.147 4.45996H10.136C10.0859 4.45996 10.0378 4.47987 10.0024 4.51532C9.96692 4.55076 9.94702 4.59884 9.94702 4.64896L9.95601 7.80796H13.129C13.1547 7.80801 13.1802 7.80278 13.2038 7.79259C13.2275 7.7824 13.2487 7.76747 13.2664 7.74872C13.284 7.72998 13.2976 7.70781 13.3063 7.6836C13.315 7.65938 13.3187 7.63364 13.317 7.60796V7.61196Z" fill="#6667AB"/>
<path d="M17.5 16H6.5C6.22386 16 6 16.2239 6 16.5C6 16.7761 6.22386 17 6.5 17H17.5C17.7761 17 18 16.7761 18 16.5C18 16.2239 17.7761 16 17.5 16Z" fill="#6667AB"/>
<path d="M6.5 16.5H17.5H6.5Z" stroke="#6667AB"/>
<path d="M17.5 19H6.5C6.22386 19 6 19.2239 6 19.5C6 19.7761 6.22386 20 6.5 20H17.5C17.7761 20 18 19.7761 18 19.5C18 19.2239 17.7761 19 17.5 19Z" fill="#6667AB"/>
</svg>
