<?xml version="1.0" encoding="utf-8"?>
<!-- Generator: Adobe Illustrator 25.0.0, SVG Export Plug-In . SVG Version: 6.00 Build 0)  -->
<svg version="1.1" id="Layer_1" xmlns="http://www.w3.org/2000/svg" xmlns:xlink="http://www.w3.org/1999/xlink" x="0px" y="0px"
	 viewBox="0 0 12.5 14.8" fill='currentColor' style="enable-background:new 0 0 12.5 14.8;" xml:space="preserve">
<path class="st0" d="M6.5,14.8l1.4-1.4c0.5,0.3,1,0.5,1.7,0.5c1.6,0,2.9-1.3,2.9-2.9S11.2,8,9.6,8s-2.9,1.3-2.9,2.9
	c0,0.6,0.2,1.2,0.5,1.7L5.8,14L6.5,14.8z M7.7,10.9c0-1,0.8-1.9,1.9-1.9c1,0,1.9,0.8,1.9,1.9c0,1-0.8,1.9-1.9,1.9
	C8.6,12.8,7.7,12,7.7,10.9z"/>
<path class="st0" d="M4.7,13.6l1.2-1.2c-0.2-0.5-0.3-1-0.3-1.5c0-2.2,1.8-4,4-4c0.8,0,1.5,0.2,2.1,0.6v-7c0-0.3-0.2-0.5-0.5-0.5H0.5
	C0.2,0,0,0.2,0,0.5v12.5c0,0.3,0.2,0.5,0.5,0.5H4.7z M9.9,4.8h-8V3.7h8V4.8z M9.9,2.7h-8V1.6h8V2.7z"/>
</svg>
