<svg fill="currentColor" xmlns="http://www.w3.org/2000/svg" viewBox="0 0 17 21">
  <path
    d="M13.5,0H3.5A3.5,3.5,0,0,0,0,3.5v14A3.5,3.5,0,0,0,3.5,21h10A3.5,3.5,0,0,0,17,17.5V3.5A3.5,3.5,0,0,0,13.5,0Zm-7,2.89a.29.29,0,0,1,0-.13.2.2,0,0,1,.15,0A3.39,3.39,0,0,1,9.82,5.87l-.05.06v.14H6.5ZM2.75,5.38A3.57,3.57,0,0,1,4,3.86a3.33,3.33,0,0,1,1.83-.58V6.07A.58.58,0,0,0,6,6.48a.63.63,0,0,0,.45.18H9.23a3.15,3.15,0,0,1-.06.61,3.36,3.36,0,0,1-6.6.11A3.42,3.42,0,0,1,2.75,5.38ZM14,18.26H3a.51.51,0,0,1-.5-.5.5.5,0,0,1,.5-.5H14a.5.5,0,0,1,.5.5A.5.5,0,0,1,14,18.26Zm0-3H3a.51.51,0,0,1-.5-.5.5.5,0,0,1,.5-.5H14a.5.5,0,0,1,.5.5A.5.5,0,0,1,14,15.26Z"
    transform="translate(0 0)"
  />
</svg>
