<svg version="1.1" id="Layer_1" xmlns="http://www.w3.org/2000/svg" xmlns:xlink="http://www.w3.org/1999/xlink" x="0px"
	y="0px" viewBox="0 0 18 16" style="enable-background:new 0 0 18 16;" xml:space="preserve">
	<path fill-rule="evenodd" clip-rule="evenodd" fill="currentColor" class="st0"
		d="M11.4,1.4l6.2,10.5c0.5,0.9,0.5,1.9,0,2.8c-0.5,0.9-1.4,1.4-2.4,1.4H2.8c-1,0-1.9-0.5-2.4-1.4
	c-0.5-0.9-0.5-1.9,0-2.8L6.6,1.4C7.1,0.5,8,0,9,0S10.9,0.5,11.4,1.4z M9,12.1c-0.5,0-0.9,0.4-0.9,0.9C8.1,13.6,8.5,14,9,14
	c0.5,0,0.9-0.4,0.9-0.9C9.9,12.6,9.5,12.1,9,12.1z M9,10.5c0.4,0,0.7-0.3,0.7-0.7l0.2-5.1c0-0.2-0.1-0.4-0.2-0.5
	C9.6,4.1,9.4,4,9.2,4C8.9,4,9.1,4,8.8,4C8.6,4,8.4,4.1,8.3,4.2C8.1,4.4,8.1,4.5,8.1,4.7l0.2,5.1C8.3,10.2,8.6,10.5,9,10.5z" />
</svg>