<svg viewBox="0 0 22 22" fill="none" xmlns="http://www.w3.org/2000/svg">
<path d="M10.5 11.2439C13.5376 11.2439 16 8.78146 16 5.7439C16 2.70633 13.5376 0.243896 10.5 0.243896C7.46243 0.243896 5 2.70633 5 5.7439C5 8.78146 7.46243 11.2439 10.5 11.2439Z" fill="#6667AB"/>
<path fill-rule="evenodd" clip-rule="evenodd" d="M11.925 20.756C10.886 19.64 10.25 18.144 10.25 16.5C10.25 14.817 10.917 13.288 12.001 12.164C11.511 12.126 11.01 12.106 10.5 12.106C7.178 12.106 4.237 12.937 2.411 14.182C1.018 15.132 0.25 16.339 0.25 17.606V19.056C0.25 19.507 0.429 19.94 0.748 20.258C1.067 20.577 1.499 20.756 1.95 20.756H11.925Z" fill="#6667AB"/>
<path fill-rule="evenodd" clip-rule="evenodd" d="M16.5 11.25C13.602 11.25 11.25 13.602 11.25 16.5C11.25 19.398 13.602 21.75 16.5 21.75C19.398 21.75 21.75 19.398 21.75 16.5C21.75 13.602 19.398 11.25 16.5 11.25ZM14.084 17.374L15.584 18.374C15.881 18.572 16.278 18.533 16.53 18.28L19.03 15.78C19.323 15.488 19.323 15.012 19.03 14.72C18.738 14.427 18.262 14.427 17.97 14.72L15.904 16.785L14.916 16.126C14.572 15.896 14.106 15.99 13.876 16.334C13.646 16.678 13.74 17.144 14.084 17.374Z" fill="#6667AB"/>
</svg>
