<svg  viewBox="0 0 80 80" fill="none" xmlns="http://www.w3.org/2000/svg">
<path opacity="0.1" d="M40 80C62.0914 80 80 62.0914 80 40C80 17.9086 62.0914 0 40 0C17.9086 0 0 17.9086 0 40C0 62.0914 17.9086 80 40 80Z" fill="#8EA6C1"/>
<g clip-path="url(#clip0_1_18038)">
<mask id="mask0_1_18038" style="mask-type:alpha" maskUnits="userSpaceOnUse" x="24" y="24" width="32" height="32">
<path d="M56 24H24V56H56V24Z" fill="#D9D9D9"/>
</mask>
<g mask="url(#mask0_1_18038)">
<path d="M52.8053 37.6576C52.8038 37.3042 52.5871 36.9918 52.2674 36.882L49.0475 35.7915C48.9217 35.4206 48.7753 35.0552 48.6089 34.6971L50.0851 31.5572C50.2339 31.2408 50.1737 30.8594 49.9342 30.611L47.7133 28.3019C47.4745 28.0536 47.1097 27.9927 46.8106 28.1529L43.8359 29.7353C43.4957 29.5646 43.1455 29.414 42.7907 29.285L41.7197 26.6624C41.6127 26.3284 41.3143 26.104 40.9794 26.104C40.9779 26.104 40.9771 26.104 40.9757 26.104L40.2607 26.1078V33.6878C42.9022 34.0912 44.9482 36.4513 44.9482 39.3353C44.9482 42.2193 42.9022 44.5793 40.2607 44.9828V52.4085L41.1083 52.4044C41.4441 52.4028 41.7409 52.176 41.8461 51.8411L42.8837 49.4167C43.2378 49.2845 43.5871 49.1299 43.9274 48.9552L46.9174 50.5055C47.2179 50.6617 47.5811 50.5984 47.8185 50.3469L50.0173 48.0147C50.2538 47.7639 50.311 47.3824 50.1591 47.0668L48.6523 43.9429C48.8157 43.5848 48.9582 43.2171 49.0811 42.8437L52.2902 41.7204C52.6083 41.6067 52.8143 41.2925 52.8129 40.9392L52.8053 37.6576Z" fill="#6667AB"/>
<path d="M40.2607 34.6747V43.8431C42.0415 43.462 43.3858 41.3426 43.3858 39.3616C43.3858 37.3808 42.0415 35.0559 40.2607 34.6747Z" fill="#6667AB"/>
<path d="M35.3652 34.8893C34.9338 34.8893 34.584 34.5443 34.584 34.1187C34.584 33.693 34.9338 33.348 35.3652 33.348C35.7967 33.348 36.1465 33.693 36.1465 34.1187C36.1465 34.5443 35.7967 34.8893 35.3652 34.8893Z" fill="#6667AB"/>
<path d="M26.667 36.1737C26.667 33.7221 28.5087 31.687 30.8992 31.3439C30.8902 31.2244 30.8858 31.1046 30.8858 30.9847C30.8858 28.2935 33.1054 26.104 35.8337 26.104C37.1421 26.104 38.3334 26.6076 39.2192 27.4285V33.5536H37.5222C37.1997 32.6566 36.3313 32.0636 35.3128 32.0636C34.0205 32.0636 33.2295 32.8439 33.2295 34.1187C33.2295 35.3935 34.0205 36.1737 35.3128 36.1737C36.3313 36.1737 37.1997 35.5808 37.5222 34.6838H39.2192V38.6912H35.4389C35.1164 37.7941 34.248 37.2013 33.2295 37.2013C31.9372 37.2013 31.1462 37.9815 31.1462 39.2563C31.1462 40.5311 31.9372 41.3113 33.2295 41.3113C34.248 41.3113 35.1164 40.7184 35.4389 39.8215H39.2192V43.8288H37.5222C37.1997 42.9317 36.3313 42.3389 35.3128 42.3389C34.0205 42.3389 33.2295 43.1191 33.2295 44.3939C33.2295 45.6687 34.0205 46.4489 35.3128 46.4489C36.3313 46.4489 37.1997 45.856 37.5222 44.9591H39.2192V51.084C38.3334 51.9051 37.1421 52.4085 35.8337 52.4085C33.1054 52.4085 30.8858 50.2191 30.8858 47.5279C30.8858 47.408 30.8902 47.2881 30.8992 47.1687C28.5087 46.8256 26.667 44.7905 26.667 42.3389C26.667 41.2089 27.0655 40.1213 27.7801 39.2563C27.0655 38.3913 26.667 37.3037 26.667 36.1737Z" fill="#6667AB"/>
<path d="M35.3652 45.1645C34.9338 45.1645 34.584 44.8194 34.584 44.3938C34.584 43.9682 34.9338 43.6232 35.3652 43.6232C35.7967 43.6232 36.1465 43.9682 36.1465 44.3938C36.1465 44.8194 35.7967 45.1645 35.3652 45.1645Z" fill="#6667AB"/>
<path d="M33.334 40.0269C32.9025 40.0269 32.5527 39.6819 32.5527 39.2563C32.5527 38.8307 32.9025 38.4857 33.334 38.4857C33.7655 38.4857 34.1152 38.8307 34.1152 39.2563C34.1152 39.6819 33.7655 40.0269 33.334 40.0269Z" fill="#6667AB"/>
</g>
</g>
<defs>
<clipPath id="clip0_1_18038">
<rect width="32" height="32" fill="white" transform="translate(24 24)"/>
</clipPath>
</defs>
</svg>
