<svg viewBox="0 0 24 24" fill="currentColor" xmlns="http://www.w3.org/2000/svg">
    <g>
        <mask>
            <rect fill="currentColor" />
        </mask>
        <g>
            <path d="M21.6037 10.2432C21.6026 9.97817 21.4401 9.74382 21.2003 9.66149L18.7854 8.84365C18.691 8.56544 18.5812 8.29142 18.4564 8.02282L19.5636 5.66791C19.6752 5.43056 19.63 5.14452 19.4504 4.95824L17.7847 3.22645C17.6056 3.04017 17.332 2.99451 17.1077 3.11467L14.8767 4.30145C14.6215 4.17347 14.3589 4.06049 14.0928 3.96376L13.2895 1.99679C13.2093 1.74627 12.9855 1.578 12.7343 1.578C12.7332 1.578 12.7326 1.578 12.7315 1.578L12.1953 1.58087V7.26581C14.1764 7.56842 15.7109 9.33845 15.7109 11.5015C15.7109 13.6645 14.1764 15.4345 12.1953 15.7371V21.3064L12.831 21.3033C13.0828 21.3021 13.3054 21.132 13.3843 20.8808L14.1625 19.0625C14.4281 18.9634 14.6901 18.8474 14.9453 18.7164L17.1878 19.8791C17.4132 19.9963 17.6856 19.9488 17.8636 19.7602L19.5127 18.011C19.6901 17.8229 19.733 17.5368 19.6191 17.3001L18.489 14.9572C18.6115 14.6886 18.7184 14.4128 18.8106 14.1328L21.2174 13.2903C21.456 13.205 21.6105 12.9694 21.6094 12.7044L21.6037 10.2432Z" fill="currentColor" />
            <path d="M12.1953 8.00598V14.8823C13.5309 14.5965 14.5391 13.0069 14.5391 11.5212C14.5391 10.0356 13.5309 8.29186 12.1953 8.00598Z" fill="currentColor" />
            <path d="M8.52344 8.16695C8.19983 8.16695 7.9375 7.90818 7.9375 7.58897C7.9375 7.26976 8.19983 7.01099 8.52344 7.01099C8.84704 7.01099 9.10938 7.26976 9.10938 7.58897C9.10938 7.90818 8.84704 8.16695 8.52344 8.16695Z" fill="currentColor" />
            <path d="M1.99998 9.1303C1.99998 7.29158 3.38128 5.76521 5.17417 5.50793C5.16741 5.41831 5.16405 5.32845 5.16405 5.23855C5.16405 3.22013 6.82878 1.578 8.875 1.578C9.85629 1.578 10.7498 1.95569 11.4141 2.5714V7.16516H10.1414C9.89953 6.49243 9.24824 6.04773 8.48437 6.04773C7.51511 6.04773 6.92187 6.63292 6.92187 7.58901C6.92187 8.54511 7.51511 9.1303 8.48437 9.1303C9.24824 9.1303 9.89953 8.6856 10.1414 8.01287H11.4141V11.0184H8.5789C8.33703 10.3456 7.68574 9.90094 6.92187 9.90094C5.95261 9.90094 5.35936 10.4861 5.35936 11.4422C5.35936 12.3983 5.95261 12.9835 6.92187 12.9835C7.68574 12.9835 8.33703 12.5388 8.5789 11.8661H11.4141V14.8716H10.1414C9.89953 14.1988 9.24824 13.7542 8.48437 13.7542C7.51511 13.7542 6.92187 14.3393 6.92187 15.2954C6.92187 16.2515 7.51511 16.8367 8.48437 16.8367C9.24824 16.8367 9.89953 16.392 10.1414 15.7193H11.4141V20.313C10.7498 20.9288 9.85629 21.3064 8.875 21.3064C6.82878 21.3064 5.16405 19.6643 5.16405 17.6459C5.16405 17.556 5.16741 17.4661 5.17417 17.3765C3.38128 17.1192 1.99998 15.5929 1.99998 13.7542C1.99998 12.9067 2.29885 12.091 2.83483 11.4422C2.29885 10.7935 1.99998 9.97777 1.99998 9.1303Z" fill="currentColor" />
            <path d="M8.52344 15.8734C8.19983 15.8734 7.9375 15.6146 7.9375 15.2954C7.9375 14.9762 8.19983 14.7174 8.52344 14.7174C8.84704 14.7174 9.10938 14.9762 9.10938 15.2954C9.10938 15.6146 8.84704 15.8734 8.52344 15.8734Z" fill="currentColor" />
            <path d="M7 12.0202C6.67639 12.0202 6.41406 11.7614 6.41406 11.4422C6.41406 11.123 6.67639 10.8643 7 10.8643C7.3236 10.8643 7.58594 11.123 7.58594 11.4422C7.58594 11.7614 7.3236 12.0202 7 12.0202Z" fill="currentColor" />
        </g>
    </g>
</svg>