<svg viewBox="0 0 24 24" fill="currentColor" xmlns="http://www.w3.org/2000/svg">
    <g clip-path="url(#clip0_4737_61292)">
        <path d="M23.1578 11.04C23.1509 10.9904 23.1308 10.9436 23.0996 10.9044C23.0684 10.8652 23.0273 10.8351 22.9806 10.8172L21.631 10.28C21.5699 10.2556 21.5158 10.2165 21.4735 10.1662C21.4311 10.1159 21.4018 10.0559 21.3882 9.99159C21.1452 8.85027 20.6944 7.76338 20.0582 6.78519C20.0224 6.7302 20.0007 6.66725 19.995 6.60189C19.9892 6.53652 19.9997 6.47076 20.0254 6.41039L20.5974 5.07119C20.6194 5.02648 20.6283 4.97646 20.623 4.92691C20.6178 4.87736 20.5986 4.83031 20.5678 4.79119C20.3862 4.57119 20.1806 4.34559 19.917 4.07519C19.6538 3.81839 19.4282 3.61319 19.2134 3.43519C19.1743 3.40307 19.1268 3.38278 19.0766 3.37668C19.0263 3.37059 18.9754 3.37895 18.9298 3.40079L17.5902 3.97279C17.5298 3.99854 17.4641 4.00905 17.3987 4.0034C17.3334 3.99775 17.2704 3.97611 17.2154 3.94039C16.237 3.30462 15.1499 2.85432 14.0086 2.61199C13.9443 2.59828 13.8844 2.56896 13.8342 2.52661C13.784 2.48427 13.7449 2.4302 13.7206 2.36919L13.181 1.01759C13.1628 0.97131 13.1327 0.93069 13.0937 0.8999C13.0547 0.869111 13.0082 0.84926 12.959 0.842388C12.6718 0.813988 12.3602 0.799988 12.0002 0.799988C11.6402 0.799988 11.3286 0.813988 11.0458 0.839988C10.9953 0.846231 10.9475 0.866099 10.9075 0.897458C10.8674 0.928817 10.8367 0.970484 10.8186 1.01799L10.2802 2.36919C10.2558 2.4302 10.2168 2.48427 10.1665 2.52661C10.1163 2.56896 10.0564 2.59828 9.99217 2.61199C8.85069 2.85481 7.76365 3.30566 6.78537 3.94199C6.73034 3.97771 6.66738 3.99935 6.60202 4.005C6.53666 4.01065 6.47091 4.00014 6.41057 3.97439L5.07097 3.40279C5.02624 3.38089 4.97624 3.37205 4.92671 3.37729C4.87718 3.38252 4.83014 3.40162 4.79097 3.43239C4.57137 3.61439 4.34577 3.81959 4.07617 4.08319C3.81897 4.34679 3.61337 4.57239 3.43617 4.78639C3.40387 4.82547 3.38343 4.87298 3.37726 4.9233C3.37109 4.97363 3.37946 5.02467 3.40137 5.07039L3.97337 6.40999C3.99906 6.47036 4.00951 6.53612 4.00379 6.60148C3.99807 6.66685 3.97636 6.7298 3.94057 6.78479C3.30491 7.76309 2.85462 8.84998 2.61217 9.99119C2.59852 10.0555 2.56923 10.1155 2.52688 10.1658C2.48453 10.2161 2.43043 10.2552 2.36937 10.2796L1.01817 10.8192C0.971765 10.8373 0.931027 10.8674 0.90016 10.9065C0.869292 10.9456 0.849412 10.9922 0.842571 11.0416C0.812217 11.3601 0.798065 11.68 0.800171 12C0.797363 12.3186 0.810713 12.6371 0.840171 12.9544C0.846414 13.0049 0.866281 13.0527 0.897641 13.0927C0.929 13.1327 0.970667 13.1634 1.01817 13.1816L2.36937 13.72C2.43038 13.7444 2.48445 13.7834 2.52679 13.8336C2.56914 13.8838 2.59846 13.9437 2.61217 14.008C2.85516 15.1495 3.30599 16.2367 3.94217 17.2152C3.97796 17.2702 3.99967 17.3331 4.00539 17.3985C4.01111 17.4639 4.00066 17.5296 3.97497 17.59L3.40297 18.9288C3.38107 18.9735 3.37224 19.0235 3.37747 19.073C3.38271 19.1226 3.4018 19.1696 3.43257 19.2088C3.61377 19.4276 3.81897 19.6532 4.08337 19.924C4.34777 20.182 4.57337 20.3872 4.78657 20.564C4.82574 20.5961 4.87326 20.6165 4.92356 20.6225C4.97386 20.6286 5.02486 20.6203 5.07057 20.5984L6.40977 20.0264C6.45952 20.0054 6.51296 19.9945 6.56697 19.9944C6.64424 19.9945 6.71982 20.017 6.78457 20.0592C7.76316 20.6953 8.85026 21.1462 9.99177 21.3896C10.056 21.4033 10.1158 21.4325 10.1661 21.4748C10.2163 21.5171 10.2553 21.5711 10.2798 21.632L10.8194 22.9832C10.8375 23.0296 10.8676 23.0703 10.9067 23.1012C10.9458 23.1321 10.9924 23.1519 11.0418 23.1588C11.3603 23.1885 11.6802 23.2023 12.0002 23.2C12.3602 23.2 12.6718 23.1864 12.9546 23.16C13.005 23.1537 13.0528 23.1339 13.0929 23.1025C13.1329 23.0712 13.1636 23.0295 13.1818 22.982L13.7202 21.6308C13.7446 21.5699 13.7836 21.5159 13.8339 21.4736C13.8841 21.4313 13.944 21.4021 14.0082 21.3884C15.1497 21.145 16.2368 20.6941 17.2154 20.058C17.2704 20.0224 17.3334 20.0008 17.3987 19.9951C17.464 19.9894 17.5298 19.9997 17.5902 20.0252L18.929 20.5972C18.9737 20.6191 19.0237 20.6279 19.0732 20.6227C19.1228 20.6175 19.1698 20.5984 19.209 20.5676C19.4278 20.3864 19.6534 20.1812 19.9242 19.9168C20.1822 19.6524 20.3874 19.4268 20.5642 19.2136C20.5964 19.1744 20.6167 19.1269 20.6228 19.0766C20.6289 19.0263 20.6205 18.9753 20.5986 18.9296L20.0266 17.5904C20.0009 17.53 19.9904 17.4643 19.9962 17.3989C20.0019 17.3335 20.0236 17.2706 20.0594 17.2156C20.6956 16.2371 21.1464 15.1499 21.3894 14.0084C21.4031 13.9441 21.4324 13.8842 21.4747 13.834C21.5171 13.7838 21.5712 13.7448 21.6322 13.7204L22.9834 13.1808C23.0298 13.1627 23.0705 13.1325 23.1014 13.0934C23.1323 13.0543 23.1521 13.0077 23.159 12.9584C23.1889 12.6398 23.2027 12.3199 23.2002 12C23.203 11.6814 23.1896 11.3628 23.1602 11.0456L23.1578 11.04ZM12.0002 20.4C10.3388 20.4 8.71475 19.9073 7.33338 18.9843C5.95201 18.0613 4.87536 16.7494 4.23958 15.2145C3.60381 13.6796 3.43746 11.9907 3.76157 10.3612C4.08569 8.73179 4.88571 7.23505 6.06047 6.06029C7.23523 4.88553 8.73197 4.08551 10.3614 3.76139C11.9909 3.43728 13.6798 3.60362 15.2147 4.2394C16.7496 4.87518 18.0615 5.95182 18.9845 7.3332C19.9075 8.71457 20.4002 10.3386 20.4002 12C20.3976 14.227 19.5118 16.3621 17.9371 17.9369C16.3623 19.5116 14.2272 20.3974 12.0002 20.4Z" fill="currentColor" />
        <g clip-path="url(#clip1_4737_61292)">
            <path d="M5.03125 13.6667V10.3767H6.50125C6.87034 10.3767 7.15511 10.4622 7.35557 10.6334C7.5592 10.8045 7.66102 11.0425 7.66102 11.3474C7.66102 11.5496 7.61489 11.7222 7.52261 11.8654C7.43352 12.0085 7.30466 12.1189 7.13602 12.1967C6.96739 12.2714 6.76852 12.3087 6.53943 12.3087L6.60625 12.22H6.76852C6.90216 12.22 7.02148 12.2542 7.12648 12.3227C7.23148 12.3911 7.31739 12.4954 7.3842 12.6354L7.8758 13.6667H7.19807L6.7017 12.598C6.65716 12.4891 6.58875 12.4176 6.49648 12.3834C6.40739 12.3491 6.2992 12.332 6.17193 12.332H5.64693V13.6667H5.03125ZM5.64693 11.8887H6.40102C6.61739 11.8887 6.78125 11.8451 6.89261 11.758C7.00716 11.6678 7.06443 11.5371 7.06443 11.366C7.06443 11.1949 7.00716 11.0658 6.89261 10.9787C6.78125 10.8916 6.61739 10.848 6.40102 10.848H5.64693V11.8887ZM9.7856 13.7134C9.30513 13.7134 8.94717 13.5967 8.71174 13.3634C8.47944 13.1269 8.36332 12.7785 8.36332 12.318V10.3767H8.97901V12.3134C8.97901 12.6058 9.04262 12.8267 9.16992 12.976C9.30035 13.1254 9.50558 13.2 9.7856 13.2C10.0529 13.2 10.2533 13.1254 10.387 12.976C10.5238 12.8267 10.5922 12.6058 10.5922 12.3134V10.3767H11.1983V12.318C11.1983 12.7785 11.079 13.1269 10.8404 13.3634C10.6049 13.5967 10.2533 13.7134 9.7856 13.7134ZM11.9154 13.6667V10.3767H12.531V13.158H14.1156V13.6667H11.9154ZM14.586 13.6667V10.3767H16.8531V10.848H15.1778V11.758H16.7433V12.234H15.1778V13.1907H16.8531V13.6667H14.586ZM18.552 13.7134C18.2815 13.7134 18.0317 13.6807 17.8027 13.6154C17.5767 13.5469 17.3827 13.4536 17.2204 13.3354L17.4113 12.864C17.5195 12.9387 17.6324 13.0025 17.7502 13.0554C17.8679 13.1051 17.9936 13.144 18.1272 13.172C18.2608 13.1969 18.4024 13.2094 18.552 13.2094C18.8033 13.2094 18.9847 13.1689 19.0961 13.088C19.2074 13.0071 19.2631 12.9014 19.2631 12.7707C19.2631 12.6556 19.2249 12.5685 19.1486 12.5094C19.0722 12.4471 18.9354 12.3958 18.7381 12.3554L18.1988 12.248C17.8902 12.1858 17.6595 12.0816 17.5067 11.9354C17.354 11.7891 17.2777 11.5931 17.2777 11.3474C17.2777 11.142 17.3333 10.9631 17.4447 10.8107C17.5561 10.6582 17.712 10.54 17.9124 10.456C18.1129 10.372 18.3468 10.33 18.614 10.33C18.8527 10.33 19.0738 10.3642 19.2774 10.4327C19.4811 10.498 19.6513 10.5929 19.7881 10.7174L19.5972 11.1654C19.4604 11.0534 19.3108 10.9709 19.1486 10.918C18.9863 10.862 18.8049 10.834 18.6045 10.834C18.3786 10.834 18.202 10.8776 18.0747 10.9647C17.9506 11.0487 17.8886 11.1654 17.8886 11.3147C17.8886 11.4298 17.9268 11.5216 18.0031 11.59C18.0826 11.6585 18.2163 11.7114 18.404 11.7487L18.9386 11.8514C19.2567 11.9136 19.4922 12.0162 19.6449 12.1594C19.7977 12.2994 19.874 12.4891 19.874 12.7287C19.874 12.9247 19.8199 13.0974 19.7118 13.2467C19.6036 13.3929 19.4509 13.508 19.2536 13.592C19.0563 13.6729 18.8224 13.7134 18.552 13.7134Z" fill="currentColor" />
        </g>
    </g>
    <defs>
        <clipPath id="clip0_4737_61292">
            <rect width="24" height="24" fill="currentColor" />
        </clipPath>
        <clipPath id="clip1_4737_61292">
            <rect width="15" height="4" fill="currentColor" transform="translate(5 10)" />
        </clipPath>
    </defs>
</svg>