<svg xmlns="http://www.w3.org/2000/svg" viewBox="0 0 12 12" style="enable-background:new 0 0 12 12" xml:space="preserve"><path d="m8.2 7.1 3.6 3.6c.1.1.1.2.2.2 0 .1.1.2.1.3 0 .1 0 .2-.1.3 0 .1-.1.2-.2.2-.1.1-.2.1-.2.2-.1 0-.2.1-.3.1-.1 0-.2 0-.3-.1-.1 0-.2-.1-.2-.2L7.1 8.2c-.9.6-2 .9-3.2.8-1.1-.2-2.1-.7-2.8-1.6C.3 6.5 0 5.4 0 4.3s.5-2.2 1.3-3C2.1.5 3.2 0 4.3 0s2.2.3 3.1 1.1c.9.7 1.4 1.7 1.6 2.8.1 1.2-.2 2.3-.8 3.2zm-1.5-.5.3-.4c.4-.6.6-1.4.5-2.1-.1-.7-.5-1.4-1.1-1.9-.5-.5-1.3-.7-2-.7s-1.5.3-2 .9-.8 1.2-.9 2c0 .7.2 1.5.7 2.1.5.6 1.2.9 1.9 1 .7.1 1.5-.1 2.1-.5l.5-.4z" fill="currentColor" style="opacity:.4;fill-rule:evenodd;clip-rule:evenodd;enable-background:new"/></svg>