<svg viewBox="0 0 280 171" fill="none" xmlns="http://www.w3.org/2000/svg">
<path d="M274.4 0H5.6C2.50721 0 0 2.25174 0 5.02941V165.971C0 168.748 2.50721 171 5.6 171H274.4C277.493 171 280 168.748 280 165.971V5.02941C280 2.25174 277.493 0 274.4 0Z" fill="#F6F8FE"/>
<path d="M274.4 0.628662H5.59995C2.89376 0.628662 0.699951 2.59894 0.699951 5.0294V165.971C0.699951 168.401 2.89376 170.371 5.59995 170.371H274.4C277.106 170.371 279.3 168.401 279.3 165.971V5.0294C279.3 2.59894 277.106 0.628662 274.4 0.628662Z" stroke="#6667AB"/>
<path d="M117.628 54.728C117.297 54.7568 116.992 54.9154 116.778 55.1692C116.564 55.423 116.459 55.7513 116.487 56.082L116.6 57.436C116.628 57.7486 116.773 58.0393 117.005 58.2505C117.237 58.4618 117.54 58.5783 117.854 58.577H117.966C118.131 58.5628 118.291 58.5161 118.438 58.4397C118.585 58.3632 118.715 58.2585 118.821 58.1315C118.927 58.0046 119.007 57.8578 119.056 57.6999C119.105 57.5419 119.122 57.3757 119.107 57.211L118.982 55.87C118.954 55.5392 118.795 55.2331 118.541 55.0191C118.287 54.805 117.959 54.7003 117.628 54.728V54.728Z" fill="#6667AB"/>
<path d="M161.812 49.1266C157.931 45.2461 152.987 42.6035 147.604 41.533C142.221 40.4625 136.642 41.0122 131.571 43.1124C126.501 45.2127 122.167 48.7692 119.118 53.3324C116.069 57.8956 114.441 63.2604 114.441 68.7486C114.441 69.0668 114.567 69.3721 114.793 69.5971C115.018 69.8222 115.323 69.9486 115.641 69.9486C115.959 69.9486 116.265 69.8222 116.49 69.5971C116.715 69.3721 116.841 69.0668 116.841 68.7486C116.841 68.2546 118.28 66.6486 124.411 65.3016C124.32 66.4446 124.273 67.6016 124.273 68.7486C124.273 69.5486 124.295 70.3566 124.339 71.1486C124.356 71.4551 124.49 71.7434 124.713 71.9541C124.937 72.1649 125.232 72.2821 125.539 72.2816H125.606C125.923 72.2638 126.221 72.1208 126.433 71.884C126.645 71.6472 126.754 71.336 126.737 71.0186C126.695 70.2666 126.674 69.5026 126.674 68.7476C126.674 67.4376 126.738 66.1226 126.863 64.8266C129.263 64.4156 131.972 64.1016 134.81 63.9036C134.741 65.4976 134.71 67.1206 134.71 68.7476C134.71 69.6156 134.72 70.4926 134.74 71.3476C134.748 71.6608 134.877 71.9586 135.102 72.1774C135.326 72.3962 135.627 72.5187 135.94 72.5186H135.968C136.282 72.5074 136.58 72.3733 136.796 72.1451C137.012 71.9169 137.13 71.613 137.125 71.2986C137.106 70.4566 137.096 69.5986 137.096 68.7486C137.096 67.0746 137.136 65.4046 137.21 63.7686C140.485 63.6196 143.896 63.6196 147.171 63.7686C147.246 65.4056 147.285 67.0746 147.285 68.7486C147.285 69.5986 147.275 70.4566 147.256 71.2986C147.249 71.6164 147.368 71.9239 147.588 72.1538C147.808 72.3836 148.109 72.517 148.427 72.5246H148.455C148.768 72.5247 149.069 72.4022 149.293 72.1834C149.518 71.9646 149.647 71.6668 149.655 71.3536C149.675 70.4936 149.685 69.6176 149.685 68.7536C149.685 67.1266 149.649 65.5036 149.585 63.9096C152.424 64.1096 155.132 64.4216 157.532 64.8326C157.657 66.1326 157.721 67.4436 157.721 68.7536C157.721 70.0636 157.657 71.3786 157.532 72.6756C155.569 73.0116 153.426 73.2816 151.145 73.4756C150.842 73.5078 150.562 73.6542 150.363 73.8852C150.164 74.1161 150.06 74.4143 150.073 74.719C150.085 75.0237 150.214 75.3121 150.432 75.5257C150.649 75.7392 150.94 75.8618 151.245 75.8686C151.279 75.8686 151.314 75.8686 151.345 75.8686C153.417 75.6906 155.381 75.4526 157.209 75.1606C156.843 77.4876 156.243 79.7715 155.417 81.9776C153.337 82.7543 151.188 83.3306 148.999 83.6986C148.838 83.7189 148.683 83.7716 148.543 83.8534C148.403 83.9353 148.282 84.0447 148.185 84.1749C148.089 84.3052 148.02 84.4536 147.982 84.6113C147.945 84.7689 147.939 84.9326 147.967 85.0923C147.994 85.2521 148.054 85.4046 148.142 85.5407C148.23 85.6768 148.344 85.7937 148.479 85.8842C148.613 85.9748 148.765 86.0372 148.924 86.0677C149.083 86.0982 149.247 86.0961 149.405 86.0616C150.991 85.7906 152.559 85.4202 154.099 84.9526C151.152 90.7296 146.823 94.0986 142.19 94.0986C141.872 94.0986 141.567 94.225 141.342 94.4501C141.116 94.6751 140.99 94.9803 140.99 95.2986C140.99 95.6168 141.116 95.9221 141.342 96.1471C141.567 96.3722 141.872 96.4986 142.19 96.4986C147.678 96.4985 153.044 94.8709 157.607 91.8217C162.17 88.7725 165.727 84.4386 167.827 79.368C169.928 74.2974 170.477 68.7179 169.406 63.3349C168.336 57.952 165.693 53.0075 161.812 49.1266ZM165.635 59.0986C163.231 56.7521 160.384 54.9078 157.26 53.6736C156.026 50.5493 154.182 47.7023 151.835 45.2986C158.083 47.8867 163.047 52.8507 165.635 59.0986ZM134.935 61.4876C132.162 61.6716 129.562 61.9566 127.174 62.3386C127.54 60.0109 128.141 57.7263 128.967 55.5196C131.174 54.6934 133.458 54.0927 135.786 53.7266C135.403 56.1196 135.118 58.7196 134.934 61.4926L134.935 61.4876ZM138.447 44.1476C137.405 46.4056 136.662 48.7896 136.235 51.2396C134.219 51.516 132.228 51.9507 130.28 52.5396C132.415 48.3626 135.273 45.4416 138.447 44.1476ZM142.19 43.3986C142.684 43.3986 144.29 44.8376 145.637 50.9686C143.343 50.7876 141.037 50.7876 138.743 50.9686C140.086 44.8356 141.696 43.3986 142.19 43.3986ZM154.099 52.5476C152.151 51.9587 150.16 51.524 148.144 51.2476C147.718 48.7973 146.974 46.4129 145.932 44.1546C149.107 45.4416 151.965 48.3626 154.099 52.5456V52.5476ZM149.441 61.4926C149.257 58.7196 148.972 56.1196 148.59 53.7316C150.918 54.0977 153.202 54.6984 155.409 55.5246C156.235 57.7313 156.836 60.0159 157.202 62.3436C154.819 61.9616 152.219 61.6766 149.441 61.4926ZM158.389 56.8396C162.572 58.9736 165.489 61.8326 166.789 65.0056C164.531 63.9655 162.147 63.2237 159.698 62.7986C159.42 60.7811 158.984 58.7886 158.393 56.8396H158.389ZM167.541 68.7486C167.541 69.2426 166.102 70.8486 159.971 72.1956C160.062 71.0526 160.109 69.8956 160.109 68.7486C160.109 67.6016 160.062 66.4486 159.971 65.3016C166.103 66.6446 167.541 68.2546 167.541 68.7486ZM166.789 72.4916C165.495 75.6656 162.575 78.5236 158.389 80.6576C158.978 78.7098 159.413 76.7186 159.689 74.7026C162.142 74.2771 164.53 73.5339 166.791 72.4916H166.789ZM132.541 45.3036C130.194 47.7073 128.35 50.5543 127.116 53.6786C123.992 54.9127 121.145 56.757 118.741 59.1036C121.329 52.8557 126.293 47.8917 132.541 45.3036ZM125.987 56.8396C125.398 58.7874 124.963 60.7786 124.687 62.7946C122.237 63.2209 119.853 63.9641 117.595 65.0056C118.883 61.8316 121.804 58.9736 125.987 56.8396ZM137.341 61.3616C137.541 58.5226 137.853 55.8146 138.264 53.4146C140.872 53.1659 143.499 53.1659 146.107 53.4146C146.518 55.8146 146.832 58.5236 147.03 61.3616C143.841 61.2246 140.535 61.2246 137.341 61.3616ZM151.835 92.1936C154.182 89.7899 156.026 86.9428 157.26 83.8186C160.384 82.5844 163.231 80.7402 165.635 78.3936C163.047 84.6415 158.083 89.6055 151.835 92.1936Z" fill="#6667AB"/>
<path d="M116.68 91.4577C116.727 91.7372 116.872 91.9911 117.089 92.1741C117.305 92.3572 117.579 92.4576 117.863 92.4577H137.6C137.834 92.4575 138.062 92.3891 138.258 92.2609C138.453 92.1326 138.607 91.9501 138.7 91.7357L144.467 78.4157C144.546 78.2333 144.578 78.0342 144.56 77.8363C144.543 77.6384 144.477 77.448 144.368 77.2819C144.259 77.1159 144.111 76.9796 143.936 76.8851C143.761 76.7906 143.566 76.741 143.367 76.7407H116.688L116.205 73.8016C116.158 73.5239 116.015 73.2716 115.801 73.0888C115.586 72.9059 115.315 72.8043 115.033 72.8016L111.214 72.7647H111.205C110.887 72.7633 110.581 72.8885 110.355 73.1126C110.129 73.3367 110.001 73.6414 110 73.9597C109.999 74.2779 110.124 74.5837 110.348 74.8096C110.572 75.0356 110.877 75.1633 111.195 75.1647L114.005 75.1867L116.68 91.4577ZM136.812 90.0646H118.881L118.539 87.9887H132.529C132.847 87.9887 133.152 87.8622 133.378 87.6372C133.603 87.4121 133.729 87.1069 133.729 86.7886C133.729 86.4704 133.603 86.1652 133.378 85.9401C133.152 85.7151 132.847 85.5887 132.529 85.5887H118.144L117.828 83.6707H131.648C131.806 83.6707 131.962 83.6396 132.107 83.5793C132.253 83.519 132.385 83.4306 132.497 83.3192C132.608 83.2078 132.696 83.0755 132.757 82.9299C132.817 82.7843 132.848 82.6282 132.848 82.4707C132.848 82.3131 132.817 82.157 132.757 82.0114C132.696 81.8658 132.608 81.7336 132.497 81.6221C132.385 81.5107 132.253 81.4223 132.107 81.362C131.962 81.3017 131.806 81.2707 131.648 81.2707H117.434L117.083 79.1367H141.541L136.812 90.0646Z" fill="#6667AB"/>
<path d="M117.945 93.7217C117.338 93.7217 116.745 93.9015 116.241 94.2386C115.737 94.5756 115.344 95.0546 115.112 95.615C114.879 96.1754 114.819 96.7921 114.937 97.387C115.055 97.982 115.347 98.5284 115.776 98.9574C116.205 99.3863 116.752 99.6784 117.347 99.7968C117.942 99.9151 118.558 99.8544 119.119 99.6222C119.679 99.3901 120.158 98.997 120.495 98.4926C120.832 97.9882 121.012 97.3953 121.012 96.7887C121.011 95.9755 120.688 95.1959 120.113 94.6208C119.538 94.0458 118.758 93.7225 117.945 93.7217ZM117.945 97.4577C117.813 97.4577 117.683 97.4185 117.573 97.3449C117.463 97.2714 117.378 97.167 117.327 97.0447C117.276 96.9225 117.263 96.7879 117.289 96.6582C117.315 96.5284 117.378 96.4092 117.472 96.3156C117.566 96.2221 117.685 96.1584 117.815 96.1325C117.944 96.1067 118.079 96.12 118.201 96.1706C118.323 96.2212 118.428 96.307 118.501 96.417C118.575 96.527 118.614 96.6564 118.614 96.7887C118.614 96.966 118.543 97.136 118.418 97.2614C118.292 97.3868 118.122 97.4574 117.945 97.4577Z" fill="#6667AB"/>
<path d="M135.57 93.7217C134.963 93.7217 134.37 93.9015 133.866 94.2386C133.362 94.5756 132.969 95.0546 132.737 95.615C132.504 96.1754 132.444 96.7921 132.562 97.387C132.68 97.982 132.972 98.5284 133.401 98.9574C133.83 99.3863 134.377 99.6784 134.972 99.7968C135.567 99.9151 136.183 99.8544 136.744 99.6222C137.304 99.3901 137.783 98.997 138.12 98.4926C138.457 97.9882 138.637 97.3953 138.637 96.7887C138.636 95.9755 138.313 95.1959 137.738 94.6208C137.163 94.0458 136.383 93.7225 135.57 93.7217ZM135.57 97.4577C135.438 97.4577 135.308 97.4185 135.198 97.3449C135.088 97.2714 135.003 97.167 134.952 97.0447C134.901 96.9225 134.888 96.7879 134.914 96.6582C134.94 96.5284 135.003 96.4092 135.097 96.3156C135.191 96.2221 135.31 96.1584 135.44 96.1325C135.569 96.1067 135.704 96.12 135.826 96.1706C135.948 96.2212 136.053 96.307 136.126 96.417C136.2 96.527 136.239 96.6564 136.239 96.7887C136.239 96.966 136.168 97.136 136.043 97.2614C135.917 97.3868 135.747 97.4574 135.57 97.4577Z" fill="#6667AB"/>
<path d="M135.758 83.6747H136.774C137.092 83.6747 137.397 83.5482 137.623 83.3232C137.848 83.0981 137.974 82.7929 137.974 82.4747C137.974 82.1564 137.848 81.8512 137.623 81.6261C137.397 81.4011 137.092 81.2747 136.774 81.2747H135.758C135.44 81.2747 135.134 81.4011 134.909 81.6261C134.684 81.8512 134.558 82.1564 134.558 82.4747C134.558 82.7929 134.684 83.0981 134.909 83.3232C135.134 83.5482 135.44 83.6747 135.758 83.6747Z" fill="#6667AB"/>
<path d="M107.479 120.703V121.776H102.208V120.703H107.479ZM102.475 111.823V121.776H101.155V111.823H102.475ZM106.781 116.103V117.176H102.208V116.103H106.781ZM107.41 111.823V112.903H102.208V111.823H107.41ZM118.594 118.611H119.906C119.838 119.24 119.658 119.803 119.366 120.3C119.075 120.797 118.662 121.191 118.129 121.482C117.596 121.77 116.93 121.913 116.133 121.913C115.549 121.913 115.019 121.804 114.54 121.585C114.066 121.366 113.658 121.056 113.316 120.655C112.975 120.25 112.71 119.764 112.523 119.199C112.341 118.63 112.25 117.996 112.25 117.299V116.308C112.25 115.61 112.341 114.979 112.523 114.414C112.71 113.844 112.977 113.357 113.323 112.951C113.674 112.546 114.096 112.233 114.588 112.015C115.08 111.796 115.634 111.687 116.249 111.687C117.001 111.687 117.637 111.828 118.156 112.11C118.676 112.393 119.079 112.785 119.366 113.286C119.658 113.783 119.838 114.359 119.906 115.016H118.594C118.53 114.551 118.411 114.152 118.238 113.819C118.065 113.482 117.819 113.222 117.5 113.04C117.181 112.858 116.764 112.767 116.249 112.767C115.807 112.767 115.417 112.851 115.08 113.02C114.747 113.188 114.467 113.427 114.239 113.737C114.016 114.047 113.847 114.419 113.733 114.852C113.619 115.285 113.562 115.765 113.562 116.294V117.299C113.562 117.786 113.613 118.244 113.713 118.673C113.818 119.101 113.975 119.477 114.185 119.801C114.394 120.124 114.661 120.38 114.984 120.566C115.308 120.749 115.691 120.84 116.133 120.84C116.693 120.84 117.14 120.751 117.473 120.573C117.805 120.396 118.056 120.14 118.225 119.808C118.398 119.475 118.521 119.076 118.594 118.611ZM121.178 118.16V118.003C121.178 117.47 121.255 116.975 121.41 116.52C121.565 116.059 121.788 115.66 122.08 115.323C122.372 114.981 122.725 114.717 123.14 114.53C123.554 114.339 124.019 114.243 124.534 114.243C125.054 114.243 125.521 114.339 125.936 114.53C126.355 114.717 126.71 114.981 127.002 115.323C127.298 115.66 127.524 116.059 127.679 116.52C127.834 116.975 127.911 117.47 127.911 118.003V118.16C127.911 118.693 127.834 119.188 127.679 119.644C127.524 120.099 127.298 120.498 127.002 120.84C126.71 121.177 126.357 121.441 125.942 121.633C125.532 121.82 125.067 121.913 124.548 121.913C124.028 121.913 123.561 121.82 123.146 121.633C122.732 121.441 122.376 121.177 122.08 120.84C121.788 120.498 121.565 120.099 121.41 119.644C121.255 119.188 121.178 118.693 121.178 118.16ZM122.442 118.003V118.16C122.442 118.529 122.486 118.878 122.572 119.206C122.659 119.53 122.789 119.817 122.962 120.067C123.14 120.318 123.361 120.516 123.625 120.662C123.889 120.803 124.197 120.874 124.548 120.874C124.894 120.874 125.197 120.803 125.457 120.662C125.721 120.516 125.94 120.318 126.113 120.067C126.286 119.817 126.416 119.53 126.503 119.206C126.594 118.878 126.64 118.529 126.64 118.16V118.003C126.64 117.638 126.594 117.294 126.503 116.971C126.416 116.643 126.284 116.353 126.106 116.103C125.933 115.847 125.715 115.647 125.45 115.501C125.19 115.355 124.885 115.282 124.534 115.282C124.188 115.282 123.882 115.355 123.618 115.501C123.358 115.647 123.14 115.847 122.962 116.103C122.789 116.353 122.659 116.643 122.572 116.971C122.486 117.294 122.442 117.638 122.442 118.003ZM130.755 115.85V121.776H129.483V114.38H130.687L130.755 115.85ZM130.495 117.798L129.907 117.777C129.912 117.271 129.978 116.804 130.105 116.376C130.233 115.943 130.422 115.567 130.673 115.248C130.924 114.929 131.236 114.683 131.609 114.51C131.983 114.332 132.416 114.243 132.908 114.243C133.255 114.243 133.574 114.293 133.865 114.394C134.157 114.489 134.41 114.642 134.624 114.852C134.838 115.061 135.005 115.33 135.123 115.658C135.242 115.986 135.301 116.383 135.301 116.848V121.776H134.036V116.909C134.036 116.522 133.97 116.212 133.838 115.979C133.71 115.747 133.528 115.578 133.291 115.474C133.054 115.364 132.776 115.31 132.457 115.31C132.083 115.31 131.771 115.376 131.521 115.508C131.27 115.64 131.069 115.822 130.919 116.055C130.769 116.287 130.659 116.554 130.591 116.854C130.527 117.151 130.495 117.465 130.495 117.798ZM135.287 117.101L134.439 117.36C134.444 116.955 134.51 116.565 134.638 116.191C134.77 115.818 134.959 115.485 135.205 115.193C135.456 114.902 135.763 114.672 136.128 114.503C136.493 114.33 136.91 114.243 137.379 114.243C137.775 114.243 138.126 114.296 138.432 114.4C138.742 114.505 139.001 114.667 139.211 114.886C139.425 115.1 139.587 115.376 139.696 115.713C139.806 116.05 139.86 116.451 139.86 116.916V121.776H138.589V116.902C138.589 116.488 138.523 116.166 138.391 115.938C138.263 115.706 138.081 115.544 137.844 115.453C137.611 115.357 137.333 115.31 137.01 115.31C136.732 115.31 136.486 115.357 136.271 115.453C136.057 115.549 135.877 115.681 135.731 115.85C135.586 116.014 135.474 116.203 135.396 116.417C135.324 116.631 135.287 116.859 135.287 117.101ZM143.032 115.85V121.776H141.761V114.38H142.964L143.032 115.85ZM142.772 117.798L142.185 117.777C142.189 117.271 142.255 116.804 142.383 116.376C142.51 115.943 142.7 115.567 142.95 115.248C143.201 114.929 143.513 114.683 143.887 114.51C144.26 114.332 144.693 114.243 145.186 114.243C145.532 114.243 145.851 114.293 146.143 114.394C146.434 114.489 146.687 114.642 146.901 114.852C147.116 115.061 147.282 115.33 147.4 115.658C147.519 115.986 147.578 116.383 147.578 116.848V121.776H146.313V116.909C146.313 116.522 146.247 116.212 146.115 115.979C145.988 115.747 145.805 115.578 145.568 115.474C145.331 115.364 145.053 115.31 144.734 115.31C144.361 115.31 144.049 115.376 143.798 115.508C143.547 115.64 143.347 115.822 143.196 116.055C143.046 116.287 142.937 116.554 142.868 116.854C142.804 117.151 142.772 117.465 142.772 117.798ZM147.564 117.101L146.717 117.36C146.721 116.955 146.787 116.565 146.915 116.191C147.047 115.818 147.236 115.485 147.482 115.193C147.733 114.902 148.041 114.672 148.405 114.503C148.77 114.33 149.187 114.243 149.656 114.243C150.053 114.243 150.404 114.296 150.709 114.4C151.019 114.505 151.279 114.667 151.488 114.886C151.702 115.1 151.864 115.376 151.974 115.713C152.083 116.05 152.138 116.451 152.138 116.916V121.776H150.866V116.902C150.866 116.488 150.8 116.166 150.668 115.938C150.54 115.706 150.358 115.544 150.121 115.453C149.889 115.357 149.611 115.31 149.287 115.31C149.009 115.31 148.763 115.357 148.549 115.453C148.335 115.549 148.155 115.681 148.009 115.85C147.863 116.014 147.751 116.203 147.674 116.417C147.601 116.631 147.564 116.859 147.564 117.101ZM157.121 121.913C156.606 121.913 156.139 121.826 155.72 121.653C155.305 121.476 154.947 121.227 154.646 120.908C154.35 120.589 154.122 120.211 153.963 119.773C153.803 119.336 153.724 118.857 153.724 118.338V118.051C153.724 117.449 153.812 116.914 153.99 116.444C154.168 115.97 154.41 115.569 154.715 115.241C155.02 114.913 155.367 114.665 155.754 114.496C156.141 114.327 156.542 114.243 156.957 114.243C157.486 114.243 157.941 114.334 158.324 114.517C158.712 114.699 159.028 114.954 159.274 115.282C159.521 115.606 159.703 115.989 159.821 116.431C159.94 116.868 159.999 117.347 159.999 117.866V118.434H154.476V117.401H158.734V117.306C158.716 116.978 158.648 116.659 158.529 116.349C158.415 116.039 158.233 115.784 157.982 115.583C157.732 115.382 157.39 115.282 156.957 115.282C156.67 115.282 156.406 115.344 156.164 115.467C155.923 115.585 155.715 115.763 155.542 116C155.369 116.237 155.234 116.526 155.139 116.868C155.043 117.21 154.995 117.604 154.995 118.051V118.338C154.995 118.689 155.043 119.019 155.139 119.329C155.239 119.634 155.382 119.903 155.569 120.136C155.761 120.368 155.991 120.55 156.26 120.683C156.533 120.815 156.843 120.881 157.189 120.881C157.636 120.881 158.014 120.79 158.324 120.607C158.634 120.425 158.905 120.181 159.138 119.876L159.903 120.484C159.744 120.726 159.541 120.956 159.295 121.175C159.049 121.394 158.746 121.571 158.386 121.708C158.03 121.845 157.609 121.913 157.121 121.913ZM162.74 115.542V121.776H161.476V114.38H162.706L162.74 115.542ZM165.051 114.339L165.044 115.515C164.939 115.492 164.839 115.478 164.743 115.474C164.652 115.465 164.547 115.46 164.429 115.46C164.137 115.46 163.88 115.506 163.656 115.597C163.433 115.688 163.244 115.815 163.089 115.979C162.934 116.144 162.811 116.34 162.72 116.567C162.633 116.791 162.576 117.037 162.549 117.306L162.193 117.511C162.193 117.064 162.237 116.645 162.323 116.253C162.414 115.861 162.553 115.515 162.74 115.214C162.927 114.909 163.164 114.672 163.451 114.503C163.743 114.33 164.089 114.243 164.49 114.243C164.581 114.243 164.686 114.255 164.805 114.277C164.923 114.296 165.005 114.316 165.051 114.339ZM169.043 120.874C169.344 120.874 169.622 120.812 169.877 120.689C170.132 120.566 170.342 120.398 170.506 120.184C170.67 119.965 170.763 119.716 170.786 119.438H171.989C171.966 119.876 171.818 120.284 171.545 120.662C171.276 121.036 170.923 121.339 170.485 121.571C170.048 121.799 169.567 121.913 169.043 121.913C168.487 121.913 168.002 121.815 167.587 121.619C167.177 121.423 166.835 121.154 166.562 120.812C166.293 120.471 166.09 120.079 165.953 119.637C165.821 119.19 165.755 118.718 165.755 118.222V117.935C165.755 117.438 165.821 116.968 165.953 116.526C166.09 116.08 166.293 115.686 166.562 115.344C166.835 115.002 167.177 114.733 167.587 114.537C168.002 114.341 168.487 114.243 169.043 114.243C169.622 114.243 170.128 114.362 170.561 114.599C170.993 114.831 171.333 115.15 171.579 115.556C171.83 115.957 171.966 116.412 171.989 116.923H170.786C170.763 116.618 170.677 116.342 170.526 116.096C170.381 115.85 170.18 115.654 169.925 115.508C169.674 115.357 169.38 115.282 169.043 115.282C168.656 115.282 168.33 115.36 168.065 115.515C167.806 115.665 167.598 115.87 167.443 116.13C167.293 116.385 167.184 116.67 167.115 116.984C167.051 117.294 167.02 117.611 167.02 117.935V118.222C167.02 118.545 167.051 118.864 167.115 119.179C167.179 119.493 167.286 119.778 167.437 120.033C167.591 120.288 167.799 120.493 168.059 120.648C168.323 120.799 168.651 120.874 169.043 120.874ZM176.48 121.913C175.965 121.913 175.498 121.826 175.079 121.653C174.664 121.476 174.307 121.227 174.006 120.908C173.71 120.589 173.482 120.211 173.322 119.773C173.163 119.336 173.083 118.857 173.083 118.338V118.051C173.083 117.449 173.172 116.914 173.35 116.444C173.527 115.97 173.769 115.569 174.074 115.241C174.38 114.913 174.726 114.665 175.113 114.496C175.501 114.327 175.902 114.243 176.316 114.243C176.845 114.243 177.301 114.334 177.684 114.517C178.071 114.699 178.388 114.954 178.634 115.282C178.88 115.606 179.062 115.989 179.181 116.431C179.299 116.868 179.358 117.347 179.358 117.866V118.434H173.835V117.401H178.094V117.306C178.076 116.978 178.007 116.659 177.889 116.349C177.775 116.039 177.592 115.784 177.342 115.583C177.091 115.382 176.749 115.282 176.316 115.282C176.029 115.282 175.765 115.344 175.523 115.467C175.282 115.585 175.075 115.763 174.901 116C174.728 116.237 174.594 116.526 174.498 116.868C174.402 117.21 174.354 117.604 174.354 118.051V118.338C174.354 118.689 174.402 119.019 174.498 119.329C174.598 119.634 174.742 119.903 174.929 120.136C175.12 120.368 175.35 120.55 175.619 120.683C175.893 120.815 176.202 120.881 176.549 120.881C176.995 120.881 177.374 120.79 177.684 120.607C177.993 120.425 178.265 120.181 178.497 119.876L179.263 120.484C179.103 120.726 178.9 120.956 178.654 121.175C178.408 121.394 178.105 121.571 177.745 121.708C177.39 121.845 176.968 121.913 176.48 121.913Z" fill="#6667AB" fill-opacity="0.65"/>
</svg>
