<svg width="40" height="40" viewBox="0 0 40 40" fill="none" xmlns="http://www.w3.org/2000/svg">
<circle cx="20" cy="20" r="20" fill="#D4D5E2"/>
<g clip-path="url(#clip0_452_44)">
<path d="M15.6872 24.8984C14.4865 24.8984 13.4184 24.1296 13.0306 22.9851L13.0044 22.8988C12.9129 22.5957 12.8746 22.3408 12.8746 22.0858V16.9721L11.0551 23.0458C10.821 23.9391 11.3543 24.8653 12.249 25.1121L23.8466 28.218C23.9914 28.2555 24.1361 28.2735 24.2787 28.2735C25.0256 28.2735 25.7082 27.7777 25.8995 27.0471L26.5751 24.8984H15.6872Z" fill="#6667AB"/>
<path d="M17.7497 17.0232C18.577 17.0232 19.2497 16.3504 19.2497 15.5231C19.2497 14.6958 18.577 14.023 17.7497 14.023C16.9224 14.023 16.2496 14.6958 16.2496 15.5231C16.2496 16.3504 16.9224 17.0232 17.7497 17.0232Z" fill="#6667AB"/>
<path d="M27.1249 11.7729H15.8746C14.8412 11.7729 13.9996 12.6145 13.9996 13.6481V21.8982C13.9996 22.9318 14.8412 23.7733 15.8746 23.7733H27.1249C28.1585 23.7733 29 22.9318 29 21.8982V13.6481C29 12.6145 28.1585 11.7729 27.1249 11.7729ZM15.8746 13.273H27.1249C27.332 13.273 27.5 13.441 27.5 13.6481V18.9725L25.1307 16.2078C24.8794 15.9131 24.5156 15.7556 24.1249 15.7467C23.7364 15.7489 23.3719 15.9213 23.1229 16.2199L20.3373 19.5634L19.4298 18.6581C18.9168 18.1452 18.082 18.1452 17.5697 18.6581L15.4997 20.7274V13.6481C15.4997 13.441 15.6677 13.273 15.8746 13.273Z" fill="#6667AB"/>
</g>
<defs>
<clipPath id="clip0_452_44">
<rect width="18" height="18" fill="white" transform="translate(11 11)"/>
</clipPath>
</defs>
</svg>
