<?xml version="1.0" encoding="utf-8"?>
<!-- Generator: Adobe Illustrator 25.0.0, SVG Export Plug-In . SVG Version: 6.00 Build 0)  -->
<svg version="1.1" id="Layer_1" xmlns="http://www.w3.org/2000/svg" xmlns:xlink="http://www.w3.org/1999/xlink" x="0px" y="0px"
	 viewBox="0 0 14 14" fill="currentColor" style="enable-background:new 0 0 14 14;" xml:space="preserve">
<path class="st0" d="M4.6,4.4c0.9,0,1.7,0.2,2.4,0.6c0.7-0.4,1.5-0.6,2.4-0.6c0.8,0,1.5,0.2,2.2,0.5c0-0.1,0-0.2,0-0.3
	C11.6,2.1,9.5,0,7,0C4.5,0,2.4,2.1,2.4,4.6c0,0.1,0,0.2,0,0.3C3.1,4.6,3.8,4.4,4.6,4.4z"/>
<path class="st0" d="M6.7,5.3C6,5,5.3,4.8,4.6,4.8C3.8,4.8,3.1,5,2.4,5.3c0.2,1.3,1,2.5,2.1,3.2C4.8,7.2,5.6,6,6.7,5.3z"/>
<path class="st0" d="M7,5.5c-1.1,0.7-2,1.9-2.2,3.2C5.5,9,6.2,9.2,7,9.2c0.8,0,1.5-0.2,2.2-0.5C9,7.3,8.1,6.1,7,5.5z"/>
<path class="st0" d="M7.3,5.3C8.5,6,9.2,7.2,9.5,8.5c1.1-0.7,1.9-1.8,2.1-3.2C10.9,5,10.2,4.8,9.4,4.8C8.7,4.8,8,5,7.3,5.3z"/>
<path class="st0" d="M11.9,5.5c-0.3,1.4-1.1,2.6-2.3,3.4c0,0.2,0,0.3,0,0.5c0,1.7-0.9,3.3-2.2,4.1C8,13.8,8.7,14,9.4,14
	c2.5,0,4.6-2.1,4.6-4.6C14,7.8,13.2,6.3,11.9,5.5z"/>
<path class="st0" d="M9.2,9C8.5,9.4,7.8,9.6,7,9.6C6.2,9.6,5.5,9.4,4.8,9c0,0.1,0,0.2,0,0.3c0,1.7,0.9,3.1,2.2,3.9
	c1.3-0.8,2.2-2.3,2.2-3.9C9.2,9.3,9.2,9.2,9.2,9z"/>
<path class="st0" d="M6.7,13.5c-1.3-0.9-2.2-2.4-2.2-4.1c0-0.2,0-0.3,0-0.5C3.3,8.1,2.4,6.9,2.1,5.5C0.8,6.3,0,7.8,0,9.4
	C0,11.9,2.1,14,4.6,14C5.3,14,6,13.8,6.7,13.5z"/>
</svg>
