<svg width="14" height="14" viewBox="0 0 14 14" fill="none" xmlns="http://www.w3.org/2000/svg">
<path d="M13.5756 5.78746H12.2901C12.1684 5.28449 11.9772 4.80865 11.7268 4.37101L12.7357 3.36211C12.9014 3.19636 12.9014 2.92764 12.7357 2.76189L11.4134 1.43962C11.2476 1.27387 10.9789 1.27387 10.8132 1.43962L9.83169 2.42112C9.39318 2.15319 8.91378 1.94579 8.4051 1.80991V0.424414C8.4051 0.190019 8.21508 0 7.98068 0H6.11072C5.87632 0 5.6863 0.190019 5.6863 0.424414V1.78455C5.16095 1.91423 4.66574 2.1201 4.21285 2.38986L3.33853 1.51553C3.17277 1.34978 2.90406 1.34978 2.73831 1.51553L1.41604 2.8378C1.25029 3.00355 1.25029 3.27227 1.41604 3.43802L2.29621 4.31819C2.03058 4.77039 1.82813 5.26405 1.70151 5.78749H0.424414C0.190019 5.78746 0 5.97748 0 6.2119V8.08187C0 8.31627 0.190019 8.50628 0.424414 8.50628H1.73968C1.87565 9.0059 2.08067 9.47704 2.3443 9.90855L1.39711 10.8558C1.23135 11.0215 1.23135 11.2902 1.39711 11.456L2.71937 12.7782C2.88512 12.944 3.15384 12.944 3.31959 12.7782L4.2942 11.8036C4.70875 12.0409 5.15743 12.2253 5.63111 12.3475V13.5661C5.63111 13.8005 5.82113 13.9905 6.05552 13.9905H7.92549C8.15988 13.9905 8.3499 13.8005 8.3499 13.5661V12.3502C8.8479 12.2228 9.31822 12.0265 9.75059 11.7725L10.7658 12.7877C10.9315 12.9535 11.2002 12.9535 11.366 12.7877L12.6883 11.4655C12.854 11.2997 12.854 11.031 12.6883 10.8652L11.6789 9.85587C11.9273 9.43875 12.1215 8.9857 12.252 8.50628H13.5756C13.81 8.50628 14 8.31627 14 8.08187V6.2119C14 5.97748 13.81 5.78746 13.5756 5.78746ZM3.28232 5.76773C3.15335 5.56441 3.21363 5.29504 3.41695 5.16609C3.60733 5.04534 3.85547 5.09051 3.9922 5.2635C4.60185 4.21864 5.73598 3.54106 6.9863 3.54106C8.49636 3.54106 9.82136 4.50621 10.2834 5.9427C10.3571 6.1719 10.2311 6.41744 10.0019 6.49117C9.77258 6.56494 9.52712 6.43884 9.4534 6.20963C9.10774 5.13499 8.1163 4.41295 6.9863 4.41295C6.10706 4.41295 5.30498 4.86078 4.83294 5.56337C5.0311 5.55949 5.21311 5.69174 5.26375 5.89217C5.32272 6.12561 5.18131 6.36266 4.94787 6.4216L4.17572 6.61667C4.00573 6.6602 3.80144 6.59194 3.70081 6.4275L3.28232 5.76773ZM10.583 8.82438C10.3926 8.94513 10.1445 8.89998 10.0077 8.72696C9.39809 9.77179 8.26396 10.4494 7.01365 10.4494C5.50361 10.4494 4.17861 9.48428 3.71654 8.0478C3.64282 7.81859 3.76884 7.57302 3.99805 7.4993C4.22722 7.42549 4.47282 7.55163 4.54655 7.7808C4.89224 8.85544 5.88367 9.57748 7.01365 9.57748C7.89278 9.57748 8.6948 9.12976 9.16687 8.42731C9.16411 8.42737 9.16132 8.42756 9.15856 8.42756C8.96362 8.42756 8.78612 8.29591 8.7362 8.09829C8.67723 7.86485 8.81864 7.62781 9.05208 7.56887L9.82423 7.37382C9.99356 7.33128 10.2045 7.39869 10.3033 7.5695L10.7176 8.22273C10.8466 8.42606 10.7863 8.6954 10.583 8.82438Z" fill="#505D6E"/>
</svg>
