<?xml version="1.0" encoding="utf-8"?>
<!-- Generator: Adobe Illustrator 25.0.0, SVG Export Plug-In . SVG Version: 6.00 Build 0)  -->
<svg version="1.1" id="settings_black_24dp" xmlns="http://www.w3.org/2000/svg" xmlns:xlink="http://www.w3.org/1999/xlink"
	 x="0px" y="0px" viewBox="0 0 18 18" style="enable-background:new 0 0 18 18;" xml:space="preserve">
<path d="M17.8,11.4l-1.9-1.5c0-0.3,0.1-0.6,0.1-0.9c0-0.3,0-0.6-0.1-0.9l2-1.5c0.2-0.1,0.2-0.4,0.1-0.6L16.1,3
	c-0.1-0.2-0.4-0.3-0.6-0.2l-2.3,0.9c-0.5-0.4-1-0.7-1.6-0.9l-0.3-2.4c0-0.2-0.2-0.4-0.5-0.4H7.2C6.9,0,6.7,0.2,6.7,0.4L6.3,2.8
	C5.8,3,5.3,3.3,4.8,3.6L2.5,2.7C2.3,2.7,2,2.8,1.9,3L0.1,6.1C0,6.3,0,6.5,0.2,6.6l2,1.5C2,8.7,2,9.3,2.1,9.9l-2,1.5
	c-0.2,0.1-0.2,0.4-0.1,0.6L1.9,15c0.1,0.2,0.4,0.3,0.6,0.2l2.3-0.9c0.5,0.4,1,0.7,1.6,0.9l0.3,2.4c0,0.2,0.2,0.4,0.5,0.4h3.7
	c0.2,0,0.4-0.2,0.5-0.4l0.3-2.4c0.6-0.2,1.1-0.5,1.6-0.9l2.3,0.9c0.2,0.1,0.5,0,0.6-0.2l1.9-3.1C18.1,11.7,18,11.5,17.8,11.4z
	 M9,12.4c-1.9,0-3.4-1.5-3.5-3.4c0.1-1.9,1.7-3.4,3.6-3.4c1.8,0.1,3.3,1.5,3.4,3.4C12.4,10.9,10.9,12.4,9,12.4z"/>
</svg>
