<svg id="Layer_1" data-name="Layer 1" xmlns="http://www.w3.org/2000/svg" viewBox="0 0 50.31 23.25"><defs><style>.cls-1{opacity:0.5;}.cls-2{fill:#e5e6e7;}.cls-3{fill:none;stroke:#000;stroke-miterlimit:10;stroke-width:0.25px;}</style></defs><g class="cls-1"><path class="cls-2" d="M177.82,49.32c.69,0,1,1.4,1.63,4.27h-6.14a0,0,0,0,1,0,0V49.33h4.52Z" transform="translate(-129.29 -49.19)"/><path class="cls-3" d="M177.82,49.32c.69,0,1,1.4,1.63,4.27h-6.14a0,0,0,0,1,0,0V49.33h4.52Z" transform="translate(-129.29 -49.19)"/><path class="cls-2" d="M131.08,49.32c-.7,0-1,1.4-1.63,4.27h6.15V49.33h-4.52Z" transform="translate(-129.29 -49.19)"/><path class="cls-3" d="M131.08,49.32c-.7,0-1,1.4-1.63,4.27h6.15V49.33h-4.52Z" transform="translate(-129.29 -49.19)"/><path class="cls-2" d="M131.27,49.32c1.39.73,1.22,10.62,1.39,17.17l11.2,4a31.8,31.8,0,0,0,21.41,0l11.1-4c.18-6.63-.13-17.17,1.45-17.17H131.27Z" transform="translate(-129.29 -49.19)"/><path class="cls-3" d="M131.27,49.32c1.39.73,1.22,10.62,1.39,17.17l11.2,4a31.8,31.8,0,0,0,21.41,0l11.1-4c.18-6.63-.13-17.17,1.45-17.17H131.27Z" transform="translate(-129.29 -49.19)"/></g></svg>