<svg  viewBox="0 0 80 80" fill="none" xmlns="http://www.w3.org/2000/svg">
    <path opacity="0.1" d="M40 80C62.0914 80 80 62.0914 80 40C80 17.9086 62.0914 0 40 0C17.9086 0 0 17.9086 0 40C0 62.0914 17.9086 80 40 80Z" fill="#8EA6C1"/>
    <g clip-path="url(#clip0_0_1)">
    <path d="M56.92 27.38L40.72 20.18C40.18 20 39.82 20 39.28 20.18L23.08 27.38C22.36 27.56 22 28.28 22 29C22 29.72 22.36 30.44 23.08 30.62L39.28 37.82C39.46 38 39.82 38 40 38C40.18 38 40.54 38 40.72 37.82L56.92 30.62C57.64 30.44 58 29.72 58 29C58 28.28 57.64 27.56 56.92 27.38Z" fill="#6667AB"/>
    <path d="M40 47C39.82 47 39.46 47 39.28 46.82L23.08 39.62C22.18 39.26 21.82 38.18 22.18 37.28C22.54 36.38 23.62 36.02 24.52 36.38L40 43.22L55.48 36.38C56.38 36.02 57.46 36.38 57.82 37.28C58.18 38.18 57.82 39.26 56.92 39.62L40.72 46.82C40.54 47 40.18 47 40 47Z" fill="#6667AB"/>
    <path d="M40 56C39.82 56 39.46 56 39.28 55.82L23.08 48.62C22.18 48.26 21.82 47.18 22.18 46.28C22.54 45.38 23.62 45.02 24.52 45.38L40 52.22L55.48 45.38C56.38 45.02 57.46 45.38 57.82 46.28C58.18 47.18 57.82 48.26 56.92 48.62L40.72 55.82C40.54 56 40.18 56 40 56Z" fill="#6667AB"/>
    </g>
    <defs>
    <clipPath id="clip0_0_1">
    <rect width="36" height="36" fill="white" transform="translate(22 20)"/>
    </clipPath>
    </defs>
    </svg>
    