<svg  viewBox="0 0 36 36" fill="none" xmlns="http://www.w3.org/2000/svg">
<g clip-path="url(#clip0_1_1770)">
<path d="M34.92 7.38004L18.72 0.180044C18.18 4.3951e-05 17.82 4.3951e-05 17.28 0.180044L1.08 7.38004C0.36 7.56004 0 8.28004 0 9.00004C0 9.72004 0.36 10.44 1.08 10.62L17.28 17.82C17.46 18 17.82 18 18 18C18.18 18 18.54 18 18.72 17.82L34.92 10.62C35.64 10.44 36 9.72004 36 9.00004C36 8.28004 35.64 7.56004 34.92 7.38004Z" fill="#6667AB"/>
<path d="M18 27C17.82 27 17.46 27 17.28 26.82L1.08 19.62C0.18 19.26 -0.18 18.18 0.18 17.28C0.54 16.38 1.62 16.02 2.52 16.38L18 23.22L33.48 16.38C34.38 16.02 35.46 16.38 35.82 17.28C36.18 18.18 35.82 19.26 34.92 19.62L18.72 26.82C18.54 27 18.18 27 18 27Z" fill="#6667AB"/>
<path d="M18 36C17.82 36 17.46 36 17.28 35.82L1.08 28.62C0.18 28.26 -0.18 27.18 0.18 26.28C0.54 25.38 1.62 25.02 2.52 25.38L18 32.22L33.48 25.38C34.38 25.02 35.46 25.38 35.82 26.28C36.18 27.18 35.82 28.26 34.92 28.62L18.72 35.82C18.54 36 18.18 36 18 36Z" fill="#6667AB"/>
</g>
<defs>
<clipPath id="clip0_1_1770">
<rect width="36" height="36" fill="white"/>
</clipPath>
</defs>
</svg>
