<svg version="1.1" id="Layer_1" xmlns="http://www.w3.org/2000/svg" xmlns:xlink="http://www.w3.org/1999/xlink" x="0" y="0" viewBox="0 0 979 795" xml:space="preserve"><style>.st1,.st3{fill:none;stroke:#3c54b2;stroke-width:2;stroke-linecap:round;stroke-linejoin:round;stroke-opacity:.15}.st3{stroke-width:4;stroke-miterlimit:10}.st4{stroke-width:2;stroke-dasharray:12.05,12.05}.st11,.st4,.st5,.st6,.st7{fill:none;stroke:#3c54b2;stroke-linecap:round;stroke-linejoin:round;stroke-opacity:.15}.st5{stroke-width:2;stroke-dasharray:11.5,11.5}.st11,.st6,.st7{stroke-width:4}.st11,.st7{stroke-dasharray:11.4,11.4}.st11{stroke-dasharray:12.19,12.19}.st12{fill:#6667ab}.st13{fill:#3c54b2;fill-opacity:.8}.st14{fill:none;stroke:#6667ab;stroke-width:4;stroke-linecap:round;stroke-linejoin:round;stroke-miterlimit:10}</style><defs><path id="SVGID_1_" d="M0 0h979v795H0z"/></defs><clipPath id="SVGID_2_"><use xlink:href="#SVGID_1_" overflow="visible"/></clipPath><g clip-path="url(#SVGID_2_)"><path class="st1" d="m33.6 123.5 2.3-1.3"/><path d="m41 120 86-51" fill="none" stroke="#3c54b2" stroke-width="2" stroke-linecap="round" stroke-linejoin="round" stroke-opacity=".15" stroke-dasharray="12,12"/><path class="st3" d="m-63.2 388.9 93-53.7V227.8l-93-53.7-93 53.7m108.4 152.8 81.6 47.1 81.6-47.1v-94.2m159.9 171.4 117.5 67.8 117.5-67.8V322.1l-117.5-67.8"/><path class="st1" d="M369.5 135.3v2.7"/><path class="st4" d="M369.5 143.4v179.9m498.3 436.4L749 624.5"/><path class="st1" d="M369.5 326v2.7l2.3 1.3"/><path class="st5" d="m737.8 621.9-88 17.6M376.2 332.6l77.7 44.8"/><path class="st1" d="m456.2 378.7 2.3 1.3"/><path class="st6" d="m33.8 456.8-2.3 1.3"/><path class="st7" d="m27.1 460.7-77 44.4m2.2 108.4 77 44.4"/><path class="st6" d="m31.5 659.2 2.3 1.3 2.3-1.3"/><path class="st7" d="m40.5 656.6 77-44.4"/><path class="st6" d="m119.7 610.9 2.3-1.3"/><path class="st3" d="M53.5 584.7.7 554.2l-52.8 30.5v60.9L.7 676.1l52.8-30.5v-60.9h0z"/><path class="st3" d="M75.3 685 .9 642.1-73.4 685v85.8L.9 813.7l74.3-42.9c.1 0 .1-85.8.1-85.8z"/><path class="st3" d="m131.9 833.7 91.7-52.9V674.9L131.9 622l-91.7 52.9"/><path class="st3" d="M416.7 450.8 229.9 343 43.1 450.8v215.6l186.8 107.8 186.8-107.8V450.8z"/><path class="st3" d="M380.3 495.5v-98.4L295.1 348l-85.2 49.2v98.4"/><path d="m446.7 647.8-165.6 95.6v191.1" fill="none" stroke="#3c54b2" stroke-width="10" stroke-linecap="round" stroke-linejoin="round" stroke-miterlimit="10" stroke-opacity=".15"/><path class="st3" d="m262.5 386.2 69.7-40.3v-80.5"/><path d="m578.8 507.8-186-107.4-186 107.4v214.7l186 107.4 186-107.4V507.8h0z" fill="none" stroke="#3c54b2" stroke-width="5" stroke-linecap="round" stroke-linejoin="round" stroke-miterlimit="10" stroke-opacity=".15"/><path d="m495 420 124.1 71.6M12.8-.8l124.1 71.6m27.3-1-124 71.6v143.2l124.1 71.6 124-71.6" fill="none" stroke="#3c54b2" stroke-width="2" stroke-linecap="round" stroke-linejoin="round" stroke-miterlimit="10" stroke-opacity=".15"/><path class="st3" d="m524 392.9-94.9 54.8v109.6l94.9 54.8 94.9-54.8m-402.3 97.9v90.7l78.5 45.3 78.5-45.3v-90.7"/><path class="st6" d="M583.2 646.8v-2.7l-2.3-1.3"/><path class="st11" d="M576.1 640.1 352.6 511"/><path class="st6" d="m350.2 509.7-2.3-1.3-2.3 1.3"/><path class="st11" d="m340.9 512.4-223.6 129"/><path class="st6" d="m114.9 642.8-2.3 1.3v2.7"/><path class="st11" d="M112.6 652.3v258.1m470.6-2.8V649.5"/><path class="st3" d="m658.8 751.3-147.4-85.1L364 751.3v170.2l147.4 85.1 147.4-85.1V751.3h0z"/><path class="st3" d="m687.1 546.3-108.8 62.8v125.6l108.8 62.8L796 734.8"/><path class="st12" d="M398.2 254.3c0 3-2.4 5.4-5.4 5.4-3 0-5.4-2.4-5.4-5.4 0-3 2.4-5.4 5.4-5.4 3 0 5.4 2.4 5.4 5.4zm127 143.7c2.9-.7 4.6-3.5 4-6.4-.7-2.9-3.5-4.6-6.4-4-2.9.7-4.6 3.5-4 6.4.7 2.9 3.6 4.7 6.4 4zM692 546.3c0 2.7-2.2 4.9-4.9 4.9s-4.9-2.2-4.9-4.9 2.2-4.9 4.9-4.9 4.9 2.2 4.9 4.9zM40.7 679.6c2.6-.2 4.5-2.5 4.3-5-.2-2.6-2.5-4.5-5-4.3h-.2c-2.6.3-4.4 2.5-4.2 5.1s2.5 4.4 5.1 4.2zm233.8-216.2c3.7 0 6.6-2.9 6.6-6.6 0-3.7-2.9-6.6-6.6-6.6h-.2c-3.7 0-6.6 2.9-6.6 6.6 0 3.7 2.9 6.6 6.6 6.6h.2zM294 284.6c0 3.2-2.6 5.8-5.8 5.8-3.2 0-5.8-2.6-5.8-5.8 0-3.2 2.6-5.8 5.8-5.8 3.2 0 5.8 2.6 5.8 5.8z"/><path class="st13" d="M213.1 495.5c0 1.8-1.4 3.2-3.2 3.2-1.8 0-3.2-1.4-3.2-3.2 0-1.8 1.4-3.2 3.2-3.2 1.8 0 3.2 1.4 3.2 3.2zm6.7 159.7c0 1.8-1.4 3.2-3.2 3.2-1.8 0-3.2-1.4-3.2-3.2 0-1.8 1.4-3.2 3.2-3.2 1.7 0 3.2 1.4 3.2 3.2zm163.7-159.7c0 1.8-1.4 3.2-3.2 3.2-1.8 0-3.2-1.4-3.2-3.2 0-1.8 1.4-3.2 3.2-3.2 1.8 0 3.2 1.4 3.2 3.2z"/><path class="st12" d="M460.5 380c0 1.1-.9 2-2 2s-2-.9-2-2 .9-2 2-2 2 .9 2 2zM236.8 85.8c0 1.1-.9 2-2 2s-2-.9-2-2 .9-2 2-2 2 .8 2 2zm30.9 300.1c0 2.7-2.2 4.9-4.9 4.9s-4.9-2.2-4.9-4.9 2.2-4.9 4.9-4.9c2.8 0 4.9 2.2 4.9 4.9z"/><path class="st13" d="M119.4 286.4c0 2.2-1.8 4-4 4s-4-1.8-4-4 1.8-4 4-4 4 1.8 4 4z"/><path class="st12" d="M372.3 135.3c0 1.6-1.3 2.8-2.9 2.8-1.5 0-2.7-1.3-2.8-2.8 0-1.6 1.3-2.8 2.9-2.8 1.6.1 2.8 1.3 2.8 2.8zm249.6 355.9c0 1.6-1.3 2.9-2.9 2.9-1.6 0-2.9-1.3-2.9-2.9s1.3-2.9 2.9-2.9c1.6-.1 2.9 1.2 2.9 2.9zm114.9 207.9c0 1.5-1.2 2.7-2.7 2.7-1.5 0-2.7-1.2-2.7-2.7 0-1.5 1.2-2.7 2.7-2.7 1.5 0 2.7 1.2 2.7 2.7zM876 766c0 1.7-1.3 3-3 3s-3-1.3-3-3 1.3-3 3-3 3 1.3 3 3z"/><path class="st13" d="M377.1 655.2c0 1.9-1.5 3.4-3.4 3.4s-3.4-1.5-3.4-3.4 1.5-3.4 3.4-3.4c1.8 0 3.4 1.5 3.4 3.4z"/><path class="st12" d="M281.9 159.5c0 1.9-1.5 3.4-3.4 3.4s-3.4-1.5-3.4-3.4 1.5-3.4 3.4-3.4c1.9-.1 3.4 1.5 3.4 3.4zM122.5 615.8c3.4-.2 6.1-3.2 5.8-6.7s-3.2-6.1-6.7-5.8-6.1 3.2-5.8 6.7c.2 3.4 3.2 6 6.7 5.8zm-83.8-155c2.2-2.7 1.8-6.7-.9-8.9s-6.7-1.8-8.9.9-1.8 6.7.9 8.9 6.7 1.8 8.9-.9zm760.3 274c0 1.7-1.4 3.1-3.1 3.1s-3.1-1.4-3.1-3.1 1.4-3.1 3.1-3.1 3.1 1.4 3.1 3.1z"/><path class="st13" d="M452.4 647.8c0 3.1-2.5 5.6-5.6 5.6-3.1 0-5.6-2.5-5.6-5.6s2.5-5.6 5.6-5.6c3 0 5.6 2.5 5.6 5.6z"/><path class="st12" d="M334.8 269c2-1.4 2.4-4.2 1-6.2s-4.2-2.4-6.2-1-2.4 4.2-1 6.2 4.2 2.4 6.2 1zM38.2 123.6c0 2.4-2 4.4-4.4 4.4-2.4 0-4.4-2-4.4-4.4 0-2.4 2-4.4 4.4-4.4 2.4 0 4.4 2 4.4 4.4zm460.5 296c0 2.1-1.7 3.8-3.8 3.8-2.1 0-3.8-1.7-3.8-3.7 0-2.1 1.7-3.8 3.7-3.8 2.2-.1 3.9 1.6 3.9 3.7z"/><path class="st13" d="M16.5-1.2c0 2.1-1.7 3.8-3.8 3.8C10.7 2.5 9 .8 9-1.2 9-3.3 10.7-5 12.8-5c2 0 3.7 1.7 3.7 3.8z"/><path class="st12" d="M623.1 557.3c0 2.3-1.9 4.1-4.1 4.1-2.3 0-4.1-1.9-4.1-4.1 0-2.3 1.9-4.1 4.1-4.1 2.3-.1 4.1 1.8 4.1 4.1z"/><path class="st3" d="M624.4 493.8c1.5-3 .3-6.6-2.7-8 0 0 0 0 0 0-3-1.5-6.6-.3-8 2.7s-.3 6.6 2.7 8c2.9 1.5 6.5.3 8-2.7zM142.2 73c1.4-3 .2-6.6-2.8-8-2.9-1.4-6.4-.2-7.9 2.7-1.5 3-.3 6.6 2.7 8 0 0 0 0 0 0 2.9 1.5 6.5.2 8-2.7zm239.4 429.3c3.8-.7 6.3-4.3 5.6-8.1s-4.3-6.3-8.1-5.6-6.3 4.3-5.6 8.1 4.3 6.3 8.1 5.6h0zm-3.2 157.6c2.6-2.6 2.6-6.8 0-9.5 0 0 0 0 0 0-2.6-2.6-6.9-2.6-9.5 0-2.6 2.6-2.6 6.9 0 9.5 0 0 0 0 0 0 2.6 2.6 6.8 2.6 9.5 0zm-95.2-495.7c2.6-2.6 2.6-6.8 0-9.5 0 0 0 0 0 0-2.6-2.6-6.9-2.6-9.5 0-2.6 2.6-2.6 6.9 0 9.5 0 0 0 0 0 0 2.6 2.6 6.9 2.6 9.5 0z"/><path class="st14" d="M371.7 140.6c2.9-1.2 4.2-4.6 3-7.5 0 0 0 0 0 0-1.3-2.9-4.7-4.2-7.5-2.9-2.8 1.3-4.1 4.5-2.9 7.4 1.2 2.9 4.5 4.2 7.4 3h0z"/><path class="st3" d="M867.9 763.3c-1.4 2.8-.1 6.2 2.7 7.6 2.8 1.4 6.2.1 7.6-2.7h0c1.4-2.8.1-6.2-2.7-7.6 0 0 0 0 0 0-2.8-1.4-6.2-.2-7.6 2.7zM131.8 611.1c.8-5.4-2.8-10.5-8.2-11.3-5.4-.8-10.5 2.8-11.3 8.2s2.8 10.5 8.2 11.3c5.4.9 10.5-2.8 11.3-8.2zm-6.6-323.2c.8-5.4-2.9-10.5-8.4-11.3-5.4-.8-10.5 2.9-11.3 8.4s2.9 10.5 8.4 11.3c5.4.8 10.5-3 11.3-8.4zM215 495.5c0 2.8-2.3 5-5.1 5-2.7 0-5-2.3-5-5 0-2.8 2.3-5.1 5.1-5.1 2.7 0 5 2.3 5 5.1z"/><path class="st12" d="M307.1 268.7c2-.9 2.9-3.3 2-5.3-.9-2-3.3-2.9-5.3-2h-.1c-2 1-2.8 3.4-1.8 5.3 1 2 3.2 2.8 5.2 2z"/><path class="st4" d="M299.4 259.2 172.3 131.8"/><path class="st5" d="m161 130-86.7 23.2"/><path class="st13" d="M70.7 157.5c1.7-.8 2.4-2.7 1.6-4.4-.8-1.7-2.7-2.4-4.4-1.6-1.7.8-2.4 2.7-1.6 4.4.7 1.6 2.7 2.4 4.4 1.6z"/><path class="st3" d="M299.8 262.8c-1.2 2.9.3 6.2 3.2 7.4 0 0 0 0 0 0 2.9 1.1 6.2-.4 7.4-3.3 1.1-2.9-.3-6.1-3.1-7.3-3-1.2-6.3.2-7.5 3.2h0z"/><path class="st14" d="M65.9 157.9c-1.9-1.9-1.9-4.9 0-6.7 0 0 0 0 0 0 1.8-1.9 4.8-2 6.7-.1 1.9 1.8 2 4.8.1 6.7l-.1.1c-1.8 1.9-4.9 1.9-6.7 0 0 0 0 0 0 0h0z"/><path class="st3" d="M641.1 643.7c-1.7-2-1.5-5 .4-6.7 1.9-1.8 5-1.6 6.7.3s1.6 5-.3 6.7l-.1.1c-1.9 1.8-4.9 1.6-6.7-.4 0 0 0 0 0 0h0z"/><path class="st14" d="M463.3 380c0 2.6-2.1 4.8-4.8 4.8-2.6.1-4.8-2-4.9-4.7-.1-2.6 2-4.8 4.7-4.9h.2c2.6.1 4.8 2.2 4.8 4.8 0 0 0 0 0 0zM239.5 85.8c0 2.6-2.1 4.8-4.8 4.8 0 0 0 0 0 0-2.6.1-4.8-2-4.9-4.7-.1-2.6 2-4.8 4.7-4.9h.2c2.7 0 4.8 2.1 4.8 4.8 0 0 0 0 0 0z"/><path class="st3" d="M739.1 699.1c0 2.8-2.3 5.1-5.1 5.1-2.8.1-5.1-2.2-5.2-5-.1-2.8 2.2-5.1 5-5.2h.2c2.9 0 5.1 2.3 5.1 5.1h0z"/><path class="st14" d="M269.6 391.1c2.7-4 1.7-9.3-2.3-12 0 0 0 0 0 0-4-2.7-9.3-1.7-12.1 2.3-2.7 4-1.7 9.3 2.3 12 0 0 0 0 0 0 4 2.6 9.4 1.6 12.1-2.3h0z"/><path class="st3" d="M530.7 811.7c3.8-3.8 3.8-9.9 0-13.7 0 0 0 0 0 0-3.8-3.8-10-3.8-13.8 0-3.8 3.8-3.8 9.9 0 13.7 0 0 0 0 0 0 3.8 3.8 10 3.8 13.8 0zm90.6-248.9c3.1-1.3 4.5-4.8 3.3-7.9 0 0 0 0 0 0-1.3-3.1-4.9-4.5-7.9-3.1-3 1.3-4.4 4.7-3.2 7.7 1.2 3.1 4.7 4.6 7.8 3.3h0z"/></g></svg>