<svg version="1.1" id="Layer_1" xmlns="http://www.w3.org/2000/svg" xmlns:xlink="http://www.w3.org/1999/xlink" x="0"
    y="0" viewBox="0 0 15.9 16" style="enable-background:new 0 0 15.9 16" xml:space="preserve">
    <defs>
        <path id="SVGID_1_" d="M0 0h15.9v16H0z" />
    </defs>
    <clipPath id="SVGID_2_">
        <use xlink:href="#SVGID_1_" style="overflow:visible" />
    </clipPath>
    <g style="clip-path:url(#SVGID_2_)">
        <path d="M13.9 16H2c-1.1 0-2-.9-2-2V2C0 .9.9 0 2 0h11.9c1.1 0 2 .9 2 2v12c0 1.1-.9 2-2 2z"
            style="fill:#6667ab" />
        <path style="fill: #fff"
            d="M4.6 12.7c.4 0 .7-.3.7-.7s-.3-.7-.7-.7c-.3 0-.6.3-.6.7s.3.7.6.7zM5.1 8.2c.3.3.3.7 0 .9-.1.2-.3.2-.5.2s-.3-.1-.5-.2l-2-2c-.3-.3-.3-.7 0-.9l2-2c.3-.3.7-.3.9 0 .3.3.3.7 0 .9L3.6 6.7l1.5 1.5zM7.9 12.7c.4 0 .7-.3.7-.7s-.3-.7-.7-.7c-.4 0-.7.3-.7.7s.4.7.7.7zM11.2 12.7c.4 0 .7-.3.7-.7s-.3-.7-.7-.7c-.4 0-.7.3-.7.7s.4.7.7.7zM13.7 7.1l-2 2c-.1.1-.3.2-.5.2s-.3-.1-.5-.2c-.3-.3-.3-.7 0-.9l1.5-1.5-1.5-1.5c-.3-.3-.3-.7 0-.9s.7-.3.9 0l2 2c.3.2.3.6.1.8z" />
    </g>
</svg>