<svg viewBox="0 0 80 80" fill="none" xmlns="http://www.w3.org/2000/svg">
    <path opacity="0.1" d="M40 80C62.0914 80 80 62.0914 80 40C80 17.9086 62.0914 0 40 0C17.9086 0 0 17.9086 0 40C0 62.0914 17.9086 80 40 80Z" fill="#8EA6C1" />
    <g clip-path="url(#clip0_2409_71996)">
        <path d="M50.2752 53H29.4679C27.5559 53 26 51.4297 26 49.5V28.5C26 26.5703 27.5559 25 29.4679 25H50.2752C52.1872 25 53.7431 26.5703 53.7431 28.5V49.5C53.7431 51.4297 52.1872 53 50.2752 53Z" fill="#6667AB" />
        <path d="M34.0935 47.1654C34.7319 47.1654 35.2494 46.643 35.2494 45.9987C35.2494 45.3544 34.7319 44.832 34.0935 44.832C33.455 44.832 32.9375 45.3544 32.9375 45.9987C32.9375 46.643 33.455 47.1654 34.0935 47.1654Z" fill="white" />
        <path d="M34.9102 39.3421C35.3621 39.7983 35.3621 40.5356 34.9102 40.9918C34.6847 41.2193 34.3888 41.3336 34.0929 41.3336C33.797 41.3336 33.501 41.2193 33.2756 40.9918L29.8077 37.4918C29.3558 37.0356 29.3558 36.2983 29.8077 35.8421L33.2756 32.3421C33.7276 31.886 34.4582 31.886 34.9102 32.3421C35.3621 32.7983 35.3621 33.5356 34.9102 33.9918L32.2595 36.667L34.9102 39.3421Z" fill="white" />
        <path d="M39.8708 47.1654C40.5092 47.1654 41.0268 46.643 41.0268 45.9987C41.0268 45.3544 40.5092 44.832 39.8708 44.832C39.2324 44.832 38.7148 45.3544 38.7148 45.9987C38.7148 46.643 39.2324 47.1654 39.8708 47.1654Z" fill="white" />
        <path d="M45.6521 47.1654C46.2905 47.1654 46.808 46.643 46.808 45.9987C46.808 45.3544 46.2905 44.832 45.6521 44.832C45.0136 44.832 44.4961 45.3544 44.4961 45.9987C44.4961 46.643 45.0136 47.1654 45.6521 47.1654Z" fill="white" />
        <path d="M49.9375 37.4918L46.4696 40.9918C46.2442 41.2193 45.9483 41.3336 45.6523 41.3336C45.3564 41.3336 45.0605 41.2193 44.8351 40.9918C44.3831 40.5356 44.3831 39.7983 44.8351 39.3421L47.4857 36.667L44.8351 33.9918C44.3831 33.5356 44.3831 32.7983 44.8351 32.3421C45.2871 31.886 46.0176 31.886 46.4696 32.3421L49.9375 35.8421C50.3895 36.2983 50.3895 37.0356 49.9375 37.4918V37.4918Z" fill="white" />
    </g>
    <defs>
        <clipPath id="clip0_2409_71996">
            <rect width="27.7431" height="28" fill="white" transform="translate(26 25)" />
        </clipPath>
    </defs>
</svg>