<?xml version="1.0" encoding="utf-8"?>
<!-- Generator: Adobe Illustrator 25.0.0, SVG Export Plug-In . SVG Version: 6.00 Build 0)  -->
<svg fill="currentColor" version="1.1" id="Layer_1" xmlns="http://www.w3.org/2000/svg" xmlns:xlink="http://www.w3.org/1999/xlink" x="0px" y="0px"
	 viewBox="0 0 16 16" style="enable-background:new 0 0 16 16;" xml:space="preserve">
<path d="M8,3C7.9,3,7.8,3,7.7,2.9c-0.1,0-0.2-0.1-0.3-0.2C7.4,2.7,7.3,2.6,7.3,2.5c0-0.1-0.1-0.2-0.1-0.3V0.8
	c0-0.2,0.1-0.4,0.2-0.6C7.6,0.1,7.8,0,8,0c0.2,0,0.4,0.1,0.6,0.2c0.1,0.1,0.2,0.3,0.2,0.6v1.4c0,0.2-0.1,0.4-0.2,0.6
	C8.4,2.9,8.2,3,8,3z"/>
<path  d="M8,16c-0.1,0-0.2,0-0.3-0.1c-0.1,0-0.2-0.1-0.3-0.2c-0.1-0.1-0.1-0.2-0.2-0.3c0-0.1-0.1-0.2-0.1-0.3v-1.4
	c0-0.2,0.1-0.4,0.2-0.6C7.6,13.1,7.8,13,8,13c0.2,0,0.4,0.1,0.6,0.2c0.1,0.1,0.2,0.3,0.2,0.6v1.4c0,0.1,0,0.2-0.1,0.3
	c0,0.1-0.1,0.2-0.2,0.3s-0.2,0.1-0.3,0.2C8.2,16,8.1,16,8,16z"/>
<path d="M5.1,3.8c-0.1,0-0.3,0-0.4-0.1C4.6,3.6,4.5,3.5,4.4,3.4L3.7,2.2C3.6,2,3.6,1.8,3.6,1.6C3.7,1.4,3.8,1.2,4,1.1
	C4.2,1,4.4,1,4.6,1C4.8,1.1,5,1.2,5.1,1.4l0.7,1.2C5.9,2.8,5.9,3,5.8,3.2C5.8,3.4,5.7,3.6,5.5,3.7C5.4,3.7,5.2,3.8,5.1,3.8z"/>
<path d="M11.6,15c-0.1,0-0.3,0-0.4-0.1c-0.1-0.1-0.2-0.2-0.3-0.3l-0.7-1.2c-0.1-0.2-0.1-0.4-0.1-0.6
	c0.1-0.2,0.2-0.4,0.4-0.5c0.2-0.1,0.4-0.1,0.6-0.1c0.2,0.1,0.4,0.2,0.5,0.4l0.7,1.2c0.1,0.2,0.1,0.4,0.1,0.6
	c-0.1,0.2-0.2,0.4-0.4,0.5C11.9,15,11.7,15,11.6,15z"/>
<path d="M3,5.9c-0.1,0-0.3,0-0.4-0.1L1.4,5.1C1.2,5,1.1,4.8,1,4.6C1,4.4,1,4.2,1.1,4c0.1-0.2,0.3-0.3,0.5-0.4
	c0.2-0.1,0.4,0,0.6,0.1l1.2,0.7c0.2,0.1,0.3,0.3,0.4,0.5c0.1,0.2,0,0.4-0.1,0.6C3.6,5.6,3.5,5.7,3.4,5.8C3.3,5.8,3.1,5.9,3,5.9z"/>
<path d="M14.3,12.4c-0.1,0-0.3,0-0.4-0.1l-1.3-0.7c-0.1-0.1-0.2-0.1-0.2-0.2c-0.1-0.1-0.1-0.2-0.1-0.3s0-0.2,0-0.3
	c0-0.1,0-0.2,0.1-0.3c0.1-0.1,0.1-0.2,0.2-0.2c0.1-0.1,0.2-0.1,0.3-0.1c0.1,0,0.2,0,0.3,0c0.1,0,0.2,0,0.3,0.1l1.2,0.7
	c0.2,0.1,0.3,0.3,0.4,0.5c0.1,0.2,0,0.4-0.1,0.6c-0.1,0.1-0.2,0.2-0.3,0.3C14.5,12.4,14.4,12.4,14.3,12.4z"/>
<path d="M2.2,8.8H0.8c-0.2,0-0.4-0.1-0.6-0.2C0.1,8.4,0,8.2,0,8c0-0.2,0.1-0.4,0.2-0.6c0.1-0.1,0.3-0.2,0.6-0.2h1.4
	c0.1,0,0.2,0,0.3,0.1c0.1,0,0.2,0.1,0.3,0.2s0.1,0.2,0.2,0.3C3,7.8,3,7.9,3,8c0,0.2-0.1,0.4-0.2,0.6C2.6,8.7,2.4,8.8,2.2,8.8z"/>
<path d="M15.2,8.8h-1.4c-0.2,0-0.4-0.1-0.6-0.2C13.1,8.4,13,8.2,13,8c0-0.2,0.1-0.4,0.2-0.6c0.1-0.1,0.3-0.2,0.6-0.2
	h1.4c0.2,0,0.4,0.1,0.6,0.2C15.9,7.6,16,7.8,16,8c0,0.2-0.1,0.4-0.2,0.6C15.6,8.7,15.4,8.8,15.2,8.8z"/>
<path d="M1.7,12.4c-0.1,0-0.3,0-0.4-0.1c-0.1-0.1-0.2-0.2-0.3-0.3C1,11.8,0.9,11.6,1,11.4c0.1-0.2,0.2-0.4,0.4-0.5
	l1.2-0.7c0.2-0.1,0.4-0.1,0.6-0.1c0.2,0.1,0.4,0.2,0.5,0.4c0.1,0.2,0.1,0.4,0.1,0.6c-0.1,0.2-0.2,0.4-0.4,0.5l-1.2,0.7
	C2,12.4,1.9,12.4,1.7,12.4z"/>
<path d="M13,5.9c-0.1,0-0.3,0-0.4-0.1c-0.1-0.1-0.2-0.2-0.3-0.3c-0.1-0.2-0.1-0.4-0.1-0.6c0.1-0.2,0.2-0.4,0.4-0.5
	l1.2-0.7c0.2-0.1,0.4-0.1,0.6-0.1c0.2,0.1,0.4,0.2,0.5,0.4C15,4.2,15,4.4,15,4.6c-0.1,0.2-0.2,0.4-0.4,0.5l-1.2,0.7
	C13.3,5.8,13.1,5.9,13,5.9z"/>
<path  d="M4.4,15c-0.1,0-0.3,0-0.4-0.1c-0.2-0.1-0.3-0.3-0.4-0.5c-0.1-0.2,0-0.4,0.1-0.6l0.7-1.2
	c0.1-0.1,0.1-0.2,0.2-0.2c0.1-0.1,0.2-0.1,0.3-0.1c0.1,0,0.2,0,0.3,0c0.1,0,0.2,0,0.3,0.1c0.1,0.1,0.2,0.1,0.2,0.2
	c0.1,0.1,0.1,0.2,0.1,0.3c0,0.1,0,0.2,0,0.3c0,0.1,0,0.2-0.1,0.3l-0.7,1.2c-0.1,0.1-0.2,0.2-0.3,0.3C4.7,15,4.5,15,4.4,15z"/>
<path d="M10.9,3.8c-0.1,0-0.3,0-0.4-0.1c-0.2-0.1-0.3-0.3-0.4-0.5c-0.1-0.2,0-0.4,0.1-0.6l0.7-1.2
	c0.1-0.1,0.1-0.2,0.2-0.2C11.2,1.1,11.3,1,11.4,1c0.1,0,0.2,0,0.3,0c0.1,0,0.2,0,0.3,0.1c0.1,0.1,0.2,0.1,0.2,0.2
	c0.1,0.1,0.1,0.2,0.1,0.3c0,0.1,0,0.2,0,0.3c0,0.1,0,0.2-0.1,0.3l-0.7,1.2c-0.1,0.1-0.2,0.2-0.3,0.3C11.2,3.7,11,3.8,10.9,3.8z"/>
</svg>
