<svg viewBox="0 0 24 24" fill="currentColor" xmlns="http://www.w3.org/2000/svg">
<path d="M11.999 2C10.0212 2 8.08782 2.58649 6.44333 3.6853C4.79883 4.78412 3.51711 6.3459 2.76023 8.17317C2.00336 10.0004 1.80532 12.0111 2.19118 13.9509C2.57703 15.8907 3.52944 17.6725 4.92796 19.0711C6.32649 20.4696 8.10832 21.422 10.0481 21.8079C11.9879 22.1937 13.9986 21.9957 15.8259 21.2388C17.6531 20.4819 19.2149 19.2002 20.3137 17.5557C21.4125 15.9112 21.999 13.9778 21.999 12C21.999 9.34784 20.9455 6.8043 19.0701 4.92893C17.1947 3.05357 14.6512 2 11.999 2V2ZM16.98 4.6L16.343 5.542C15.4809 4.95955 14.5103 4.55686 13.489 4.358L13.713 3.243C14.8829 3.46982 15.9946 3.93145 16.981 4.6H16.98ZM12.517 16.438V17.6H11.573V16.444C10.9106 16.3837 10.2852 16.112 9.78903 15.669C9.5416 15.412 9.35285 15.1044 9.2358 14.7674C9.11875 14.4304 9.07618 14.072 9.11103 13.717L9.13503 13.687H10.799C10.7779 13.8891 10.799 14.0933 10.861 14.2868C10.923 14.4803 11.0245 14.6588 11.159 14.811C11.4075 15.0408 11.7368 15.163 12.075 15.151C12.2232 15.1612 12.3718 15.1413 12.5121 15.0925C12.6523 15.0437 12.7812 14.967 12.891 14.867C12.9878 14.7656 13.0628 14.6456 13.1116 14.5142C13.1605 14.3829 13.182 14.243 13.175 14.103C13.187 13.8203 13.0896 13.5438 12.903 13.331C12.6362 13.0794 12.3174 12.8896 11.969 12.775C11.2659 12.5491 10.6128 12.1903 10.045 11.718C9.82913 11.505 9.66131 11.2483 9.55282 10.9651C9.44433 10.6819 9.39769 10.3787 9.41603 10.076C9.40272 9.77969 9.45025 9.48379 9.55568 9.20655C9.6611 8.92931 9.8222 8.6766 10.029 8.464C10.4873 8.03281 11.0796 7.77164 11.707 7.724V6.468H12.651V7.735C13.2818 7.80831 13.8622 8.11511 14.278 8.595C14.6881 9.11427 14.8947 9.76529 14.859 10.426L14.846 10.448H13.179C13.2057 10.074 13.1072 9.70182 12.899 9.39C12.8099 9.26963 12.6927 9.1729 12.5576 9.10823C12.4225 9.04356 12.2737 9.01293 12.124 9.019C11.9854 9.00835 11.8461 9.02896 11.7164 9.07933C11.5868 9.1297 11.4701 9.20852 11.375 9.31C11.2025 9.52879 11.1151 9.80271 11.129 10.081C11.1169 10.3523 11.2101 10.6178 11.389 10.822C11.6651 11.0737 11.9912 11.2642 12.346 11.381C13.044 11.626 13.692 11.9949 14.259 12.47C14.4725 12.6801 14.6385 12.9335 14.7459 13.2131C14.8534 13.4927 14.8998 13.792 14.882 14.091C14.8931 14.392 14.8415 14.692 14.7307 14.9721C14.6198 15.2521 14.4521 15.5061 14.238 15.718C13.7654 16.1506 13.1569 16.4052 12.517 16.438V16.438ZM10.287 3.238L10.499 4.359C9.4792 4.5584 8.50994 4.96107 7.64903 5.543L7.01903 4.6C8.00544 3.93143 9.11717 3.46979 10.287 3.243V3.238ZM4.59903 7.019L5.54103 7.656C4.95878 8.51847 4.55643 9.48948 4.35803 10.511L3.24303 10.287C3.4696 9.11724 3.93088 8.00553 4.59903 7.019V7.019ZM4.59903 16.981C3.93142 15.994 3.47081 14.882 3.24503 13.712L4.35903 13.5C4.55792 14.5212 4.9606 15.4919 5.54303 16.354L4.59903 16.981ZM7.01903 19.4L7.65603 18.458C8.51864 19.0396 9.48966 19.4412 10.511 19.639L10.287 20.754C9.1174 20.5281 8.0057 20.0675 7.01903 19.4ZM13.713 20.754L13.499 19.641C14.5203 19.4421 15.4909 19.0395 16.353 18.457L16.983 19.403C15.9958 20.0707 14.8833 20.5314 13.713 20.757V20.754ZM19.399 16.981L18.457 16.344C19.0385 15.4814 19.4402 14.5104 19.638 13.489L20.753 13.713C20.5271 14.8826 20.0665 15.9943 19.399 16.981ZM19.641 10.5C19.4421 9.47877 19.0395 8.50811 18.457 7.646L19.403 7.016C20.0706 8.00297 20.5312 9.11503 20.757 10.285L19.641 10.5Z" fill="currentColor"/>
</svg>
