<svg xmlns="http://www.w3.org/2000/svg" viewBox="0 0 12 12" style="enable-background:new 0 0 12 12" xml:space="preserve"><path d="M6 0C4.8 0 3.7.4 2.7 1 1.7 1.7.9 2.6.5 3.7 0 4.8-.1 6 .1 7.2s.8 2.2 1.6 3.1c.8.8 1.9 1.4 3.1 1.6 1.2.2 2.4.1 3.5-.4s2-1.2 2.7-2.2c.7-1 1-2.1 1-3.3 0-1.6-.6-3.1-1.8-4.2C9.1.6 7.6 0 6 0zm-.5 2.7c0-.1.1-.3.2-.4 0-.1.2-.1.3-.1s.3.1.4.2c.1.1.2.2.2.4v2.3c0 .1-.1.3-.2.4-.1.1-.3.1-.4.1s-.3 0-.4-.1c-.1-.2-.1-.3-.1-.4V2.7zM6 9.8c-.7 0-1.3-.2-1.9-.6-.6-.4-1-.9-1.3-1.5-.2-.5-.3-1.2-.2-1.9S3 4.5 3.4 4c.1-.1.2-.2.4-.2.1 0 .3 0 .4.1.1.1.2.2.2.4 0 .1 0 .3-.1.4-.4.4-.6.8-.6 1.3-.1.5 0 .9.2 1.3s.5.8.9 1c.3.3.7.4 1.2.4s.9-.1 1.3-.4c.4-.2.7-.6.9-1 .2-.4.2-.9.1-1.3 0-.5-.2-.9-.5-1.2-.1-.1-.2-.3-.2-.4 0-.1.1-.3.2-.4.1-.1.2-.1.4-.1.1 0 .3.1.4.2.4.4.7 1.1.8 1.7s0 1.3-.3 1.9c-.2.7-.7 1.2-1.2 1.6-.6.3-1.2.5-1.9.5z" style="fill:#505d6e"/></svg>