<svg width="18" height="17" viewBox="0 0 22 17" fill="none" xmlns="http://www.w3.org/2000/svg">
<path d="M17.729 6.216C17.456 2.74275 14.5422 0 11 0C7.97 0 5.369 1.968 4.529 4.83825C2.13575 5.66925 0.5 7.93725 0.5 10.5C0.5 13.8082 3.19175 16.5 6.5 16.5H16.25C19.1443 16.5 21.5 14.1442 21.5 11.25C21.5 8.88825 19.9475 6.861 17.729 6.216ZM14.2197 11.7803L12.7197 10.2803C12.5052 10.0658 12.4408 9.74325 12.557 9.46275C12.6725 9.183 12.947 9 13.25 9H13.8935C13.5582 7.71 12.3942 6.75 11 6.75C10.5815 6.75 10.1772 6.834 9.7985 6.99975C9.4175 7.16475 8.9765 6.99225 8.81075 6.6135C8.64425 6.234 8.8175 5.7915 9.197 5.62575C9.76625 5.37675 10.3737 5.25 11 5.25C13.2253 5.25 15.0732 6.87525 15.4325 9H16.25C16.553 9 16.8275 9.183 16.943 9.46275C17.0592 9.74325 16.9948 10.0658 16.7803 10.2803L15.2803 11.7803C15.134 11.9265 14.942 12 14.75 12C14.558 12 14.366 11.9265 14.2197 11.7803ZM5.21975 9.21975L6.71975 7.71975C7.013 7.4265 7.487 7.4265 7.78025 7.71975L9.28025 9.21975C9.49475 9.43425 9.55925 9.75675 9.443 10.0372C9.3275 10.3177 9.053 10.5 8.75 10.5H8.1065C8.44175 11.7907 9.60575 12.75 11 12.75C11.417 12.75 11.8205 12.666 12.1993 12.501C12.578 12.333 13.0205 12.5092 13.1863 12.888C13.3528 13.2675 13.1788 13.71 12.7992 13.875C12.2308 14.124 11.6248 14.25 11 14.25C8.77475 14.25 6.92675 12.6248 6.5675 10.5H5.75C5.447 10.5 5.1725 10.3177 5.057 10.0372C4.94075 9.75675 5.00525 9.43425 5.21975 9.21975Z" fill="#505D6E"/>
</svg>
