<svg viewBox="0 0 20 20" fill="none" xmlns="http://www.w3.org/2000/svg">
    <path
        d="M16.3116 13.7798C16.2314 14.1777 16.0139 14.5347 15.697 14.7882C15.38 15.0418 14.984 15.1757 14.5783 15.1667H4.75678C4.35103 15.1757 3.95502 15.0418 3.63812 14.7882C3.32121 14.5347 3.10362 14.1777 3.02345 13.7798C2.9641 13.4296 3.01811 13.0695 3.17762 12.7521C3.33713 12.4346 3.59381 12.1764 3.91028 12.015C4.16135 11.8727 4.37313 11.6703 4.5266 11.426C4.68008 11.1816 4.77043 10.9029 4.78953 10.615L5.08645 7.64575C5.18608 6.6532 5.60544 5.71987 6.28138 4.98626C6.95732 4.25265 7.85327 3.75846 8.83437 3.57808V1.83333C8.83437 1.61232 8.92216 1.40036 9.07844 1.24408C9.23472 1.0878 9.44669 1 9.6677 1C9.88871 1 10.1007 1.0878 10.257 1.24408C10.4132 1.40036 10.501 1.61232 10.501 1.83333V3.5935C11.5011 3.80252 12.4073 4.32788 13.0857 5.09187C13.764 5.85585 14.1785 6.81789 14.2677 7.83567L14.5456 10.6152C14.5647 10.9032 14.6551 11.1819 14.8085 11.4262C14.962 11.6706 15.1738 11.873 15.4249 12.0152C15.7413 12.1767 15.9979 12.4349 16.1574 12.7522C16.3169 13.0696 16.3709 13.4296 16.3116 13.7798V13.7798ZM9.6677 18.5C10.1097 18.5 10.5337 18.3244 10.8462 18.0118C11.1588 17.6993 11.3344 17.2754 11.3344 16.8333H8.00103C8.00103 17.2754 8.17663 17.6993 8.48919 18.0118C8.80175 18.3244 9.22567 18.5 9.6677 18.5Z"
        fill="#6667AB" />
</svg>