<svg  viewBox="0 0 80 80" fill="none" xmlns="http://www.w3.org/2000/svg">
<path opacity="0.1" d="M40 80C62.0914 80 80 62.0914 80 40C80 17.9086 62.0914 0 40 0C17.9086 0 0 17.9086 0 40C0 62.0914 17.9086 80 40 80Z" fill="#8EA6C1"/>
<path d="M48.9303 28.625H47.875V27.75C47.875 27.5179 47.7828 27.2954 47.6187 27.1313C47.4546 26.9672 47.2321 26.875 47 26.875C46.7679 26.875 46.5454 26.9672 46.3813 27.1313C46.2172 27.2954 46.125 27.5179 46.125 27.75V28.625H40.875V27.75C40.875 27.5179 40.7828 27.2954 40.6187 27.1313C40.4546 26.9672 40.2321 26.875 40 26.875C39.7679 26.875 39.5454 26.9672 39.3813 27.1313C39.2172 27.2954 39.125 27.5179 39.125 27.75V28.625H33.875V27.75C33.875 27.5179 33.7828 27.2954 33.6187 27.1313C33.4546 26.9672 33.2321 26.875 33 26.875C32.7679 26.875 32.5454 26.9672 32.3813 27.1313C32.2172 27.2954 32.125 27.5179 32.125 27.75V28.625H31.0698C30.1897 28.6264 29.3461 28.9766 28.7239 29.5989C28.1016 30.2211 27.7514 31.0647 27.75 31.9448V49.8053C27.7514 50.6853 28.1016 51.5289 28.7239 52.1511C29.3461 52.7734 30.1897 53.1236 31.0698 53.125H48.9303C49.8103 53.1236 50.6539 52.7734 51.2761 52.1511C51.8984 51.5289 52.2486 50.6853 52.25 49.8053V31.9448C52.2486 31.0647 51.8984 30.2211 51.2761 29.5989C50.6539 28.9766 49.8103 28.6264 48.9303 28.625ZM37.9928 44.1186L35.3678 46.7436C35.2037 46.9077 34.9811 46.9998 34.7491 46.9998C34.5171 46.9998 34.2946 46.9077 34.1305 46.7436L32.3805 44.9936C32.2969 44.9129 32.2303 44.8164 32.1844 44.7096C32.1386 44.6028 32.1144 44.488 32.1134 44.3719C32.1124 44.2557 32.1345 44.1404 32.1785 44.0329C32.2225 43.9254 32.2875 43.8277 32.3697 43.7455C32.4518 43.6634 32.5495 43.5984 32.657 43.5544C32.7646 43.5104 32.8798 43.4883 32.996 43.4893C33.1122 43.4903 33.227 43.5144 33.3337 43.5603C33.4405 43.6061 33.537 43.6728 33.6178 43.7564L34.75 44.8878L36.7564 42.8814C36.9214 42.722 37.1424 42.6338 37.3719 42.6358C37.6013 42.6378 37.8207 42.7298 37.983 42.892C38.1452 43.0543 38.2372 43.2737 38.2392 43.5031C38.2412 43.7326 38.153 43.9536 37.9936 44.1186H37.9928ZM37.9928 36.2436L35.3678 38.8686C35.2037 39.0327 34.9811 39.1248 34.7491 39.1248C34.5171 39.1248 34.2946 39.0327 34.1305 38.8686L32.3805 37.1186C32.2969 37.0379 32.2303 36.9414 32.1844 36.8346C32.1386 36.7278 32.1144 36.613 32.1134 36.4969C32.1124 36.3807 32.1345 36.2654 32.1785 36.1579C32.2225 36.0504 32.2875 35.9527 32.3697 35.8705C32.4518 35.7884 32.5495 35.7234 32.657 35.6794C32.7646 35.6354 32.8798 35.6133 32.996 35.6143C33.1122 35.6153 33.227 35.6394 33.3337 35.6853C33.4405 35.7311 33.537 35.7978 33.6178 35.8814L34.75 37.0128L36.7564 35.0064C36.9214 34.847 37.1424 34.7588 37.3719 34.7608C37.6013 34.7628 37.8207 34.8548 37.983 35.017C38.1452 35.1793 38.2372 35.3987 38.2392 35.6281C38.2412 35.8576 38.153 36.0786 37.9936 36.2436H37.9928ZM47 46.125H40.875C40.6429 46.125 40.4204 46.0328 40.2563 45.8687C40.0922 45.7046 40 45.4821 40 45.25C40 45.0179 40.0922 44.7954 40.2563 44.6313C40.4204 44.4672 40.6429 44.375 40.875 44.375H47C47.2321 44.375 47.4546 44.4672 47.6187 44.6313C47.7828 44.7954 47.875 45.0179 47.875 45.25C47.875 45.4821 47.7828 45.7046 47.6187 45.8687C47.4546 46.0328 47.2321 46.125 47 46.125ZM47 38.25H40.875C40.6429 38.25 40.4204 38.1578 40.2563 37.9937C40.0922 37.8296 40 37.6071 40 37.375C40 37.1429 40.0922 36.9204 40.2563 36.7563C40.4204 36.5922 40.6429 36.5 40.875 36.5H47C47.2321 36.5 47.4546 36.5922 47.6187 36.7563C47.7828 36.9204 47.875 37.1429 47.875 37.375C47.875 37.6071 47.7828 37.8296 47.6187 37.9937C47.4546 38.1578 47.2321 38.25 47 38.25Z" fill="#6667AB"/>
</svg>
