<svg viewBox="0 0 18 20" fill="currentColor" xmlns="http://www.w3.org/2000/svg">
<path d="M15.561 1.3125H14.7857V0.65625C14.7857 0.482202 14.718 0.315282 14.5974 0.192211C14.4769 0.0691404 14.3134 0 14.1429 0C13.9724 0 13.8088 0.0691404 13.6883 0.192211C13.5677 0.315282 13.5 0.482202 13.5 0.65625V1.3125H9.64286V0.65625C9.64286 0.482202 9.57513 0.315282 9.45457 0.192211C9.33401 0.0691404 9.1705 0 9 0C8.8295 0 8.66599 0.0691404 8.54543 0.192211C8.42487 0.315282 8.35714 0.482202 8.35714 0.65625V1.3125H4.5V0.65625C4.5 0.482202 4.43227 0.315282 4.31171 0.192211C4.19115 0.0691404 4.02764 0 3.85714 0C3.68665 0 3.52313 0.0691404 3.40257 0.192211C3.28202 0.315282 3.21429 0.482202 3.21429 0.65625V1.3125H2.439C1.79245 1.31354 1.17267 1.57619 0.715493 2.0429C0.258313 2.5096 0.00102006 3.14229 0 3.80231V17.1977C0.00102006 17.8577 0.258313 18.4904 0.715493 18.9571C1.17267 19.4238 1.79245 19.6865 2.439 19.6875H15.561C16.2075 19.6865 16.8273 19.4238 17.2845 18.9571C17.7417 18.4904 17.999 17.8577 18 17.1977V3.80231C17.999 3.14229 17.7417 2.5096 17.2845 2.0429C16.8273 1.57619 16.2075 1.31354 15.561 1.3125V1.3125ZM7.52529 12.9327L5.59671 14.9015C5.47616 15.0245 5.31268 15.0936 5.14221 15.0936C4.97175 15.0936 4.80827 15.0245 4.68771 14.9015L3.402 13.589C3.3406 13.5284 3.29163 13.456 3.25793 13.376C3.22424 13.2959 3.20651 13.2098 3.20577 13.1226C3.20503 13.0355 3.22129 12.9491 3.25361 12.8684C3.28594 12.7878 3.33367 12.7145 3.39403 12.6529C3.45439 12.5913 3.52617 12.5426 3.60517 12.5096C3.68418 12.4766 3.76883 12.46 3.85419 12.4607C3.93954 12.4615 4.0239 12.4796 4.10233 12.514C4.18076 12.5484 4.2517 12.5984 4.311 12.661L5.14286 13.5096L6.61693 12.0048C6.73817 11.8852 6.90056 11.8191 7.06911 11.8206C7.23767 11.8221 7.39891 11.8911 7.5181 12.0128C7.63729 12.1344 7.7049 12.299 7.70636 12.4711C7.70783 12.6432 7.64303 12.8089 7.52593 12.9327H7.52529ZM7.52529 7.02647L5.59671 8.99522C5.47616 9.11825 5.31268 9.18736 5.14221 9.18736C4.97175 9.18736 4.80827 9.11825 4.68771 8.99522L3.402 7.68272C3.3406 7.62218 3.29163 7.54977 3.25793 7.4697C3.22424 7.38964 3.20651 7.30352 3.20577 7.21639C3.20503 7.12925 3.22129 7.04284 3.25361 6.96219C3.28594 6.88154 3.33367 6.80826 3.39403 6.74665C3.45439 6.68503 3.52617 6.6363 3.60517 6.6033C3.68418 6.57031 3.76883 6.5537 3.85419 6.55446C3.93954 6.55522 4.0239 6.57332 4.10233 6.60771C4.18076 6.64211 4.2517 6.6921 4.311 6.75478L5.14286 7.60331L6.61693 6.09853C6.73817 5.97899 6.90056 5.91284 7.06911 5.91434C7.23767 5.91583 7.39891 5.98485 7.5181 6.10653C7.63729 6.2282 7.7049 6.3928 7.70636 6.56486C7.70783 6.73693 7.64303 6.9027 7.52593 7.02647H7.52529ZM14.1429 14.4375H9.64286C9.47236 14.4375 9.30885 14.3684 9.18829 14.2453C9.06773 14.1222 9 13.9553 9 13.7812C9 13.6072 9.06773 13.4403 9.18829 13.3172C9.30885 13.1941 9.47236 13.125 9.64286 13.125H14.1429C14.3134 13.125 14.4769 13.1941 14.5974 13.3172C14.718 13.4403 14.7857 13.6072 14.7857 13.7812C14.7857 13.9553 14.718 14.1222 14.5974 14.2453C14.4769 14.3684 14.3134 14.4375 14.1429 14.4375ZM14.1429 8.53125H9.64286C9.47236 8.53125 9.30885 8.46211 9.18829 8.33904C9.06773 8.21597 9 8.04905 9 7.875C9 7.70095 9.06773 7.53403 9.18829 7.41096C9.30885 7.28789 9.47236 7.21875 9.64286 7.21875H14.1429C14.3134 7.21875 14.4769 7.28789 14.5974 7.41096C14.718 7.53403 14.7857 7.70095 14.7857 7.875C14.7857 8.04905 14.718 8.21597 14.5974 8.33904C14.4769 8.46211 14.3134 8.53125 14.1429 8.53125Z" fill="currentColor"/>
</svg>
