<svg width="20" height="20" viewBox="0 0 20 20" fill="none" xmlns="http://www.w3.org/2000/svg">
    <g clip-path="url(#clip0_186_13331)">
    <path d="M8.33325 0H0.833252C0.375244 0 0 0.375244 0 0.833252V10C0 10.4583 0.375244 10.8333 0.833252 10.8333H8.33325C8.7915 10.8333 9.16675 10.4583 9.16675 10V0.833252C9.16675 0.375244 8.7915 0 8.33325 0Z" fill="#6667AB"/>
    <path d="M19.1667 9.16699H11.6667C11.2085 9.16699 10.8333 9.54199 10.8333 10.0002V19.167C10.8333 19.625 11.2085 20.0002 11.6667 20.0002H19.1667C19.6248 20.0002 20 19.625 20 19.167V10.0002C20 9.54199 19.6248 9.16699 19.1667 9.16699Z" fill="#6667AB"/>
    <path d="M8.33325 12.5H0.833252C0.375244 12.5 0 12.8752 0 13.3333V19.1667C0 19.6248 0.375244 20 0.833252 20H8.33325C8.7915 20 9.16675 19.6248 9.16675 19.1667V13.3333C9.16675 12.8752 8.7915 12.5 8.33325 12.5Z" fill="#6667AB"/>
    <path d="M19.1667 0H11.6667C11.2085 0 10.8333 0.375244 10.8333 0.833252V6.66675C10.8333 7.12476 11.2085 7.5 11.6667 7.5H19.1667C19.6248 7.5 20 7.12476 20 6.66675V0.833252C20 0.375244 19.6248 0 19.1667 0Z" fill="#6667AB"/>
    </g>
    <defs>
    <clipPath id="clip0_186_13331">
    <rect width="20" height="20" fill="white"/>
    </clipPath>
    </defs>
    </svg>
    