<svg id="Layer_1" data-name="Layer 1" xmlns="http://www.w3.org/2000/svg" viewBox="0 0 19.99 24.99"><defs><style>.cls-1{fill:#eb8c1e}</style></defs><path class="cls-1" d="M2.84.08a.76.76 0 0 0-.24.23c-.15.3-1.33 3.91-1.33 4.09s.15.42.75 1l.47.46v6.64h-1c-1.11 0-1.25 0-1.41.34C0 13 0 13.23 0 17.24c0 4.66 0 4.76.3 5.45a3.77 3.77 0 0 0 4.18 2.23 3.45 3.45 0 0 0 1.92-1 3.27 3.27 0 0 0 .86-1.31c.25-.68.25-.75.26-5.31 0-4 0-4.26-.09-4.42-.16-.31-.3-.34-1.41-.34H5V5.88l.47-.46c.6-.6.75-.8.75-1S5 .54 4.9.3 4.59 0 3.75 0a2.42 2.42 0 0 0-.91.08ZM12.21.88a5.88 5.88 0 0 0-1.32 1.29 5 5 0 0 0 0 5.67 6.21 6.21 0 0 0 1.29 1.27l.31.19V16c0 5.55 0 6.74.07 7a2.49 2.49 0 0 0 2.27 2 2.52 2.52 0 0 0 2.56-1.73l.1-.33V9.33l.31-.21a6.41 6.41 0 0 0 1.3-1.3 5.87 5.87 0 0 0 .72-1.61A3.68 3.68 0 0 0 20 5a3.62 3.62 0 0 0-.13-1.2 6 6 0 0 0-.71-1.6A4 4 0 0 0 17.61.81a.62.62 0 0 0-.62.27c-.09.16-.1.24-.1 2V5h-3.76V3.15c0-2 0-2.07-.26-2.24a.61.61 0 0 0-.66-.03Z"/></svg>