<svg viewBox="0 0 5 6" fill="currentColor" xmlns="http://www.w3.org/2000/svg">
    <path d="M0.312756 2.45475H4.68753C4.77216 2.45475 4.84543 2.42778 4.90725 2.37379C4.96904 2.31982 5.00006 2.2559 5.00006 2.18203C5.00006 2.10815 4.96905 2.04427 4.90725 1.99022L2.71985 0.0809634C2.65805 0.0270475 2.58484 0 2.50015 0C2.41546 0 2.34225 0.0270475 2.2804 0.0809634L0.0930024 1.99022C0.0311465 2.04421 0.000244141 2.10815 0.000244141 2.18203C0.000244141 2.25588 0.0311465 2.31982 0.0930024 2.37379C0.154927 2.42778 0.228138 2.45475 0.312756 2.45475Z" fill="currentColor" />
    <path d="M4.68728 3.54541H0.312512C0.227826 3.54541 0.154614 3.5724 0.0927583 3.62633C0.0309023 3.68032 0 3.74422 0 3.81809C0 3.89197 0.0309023 3.95591 0.0927583 4.00988L2.28015 5.9191C2.34208 5.97309 2.41529 6.00012 2.49991 6.00012C2.58452 6.00012 2.6578 5.97309 2.71961 5.9191L4.907 4.00986C4.96879 3.95591 4.99981 3.89197 4.99981 3.81808C4.99981 3.74422 4.96881 3.68032 4.907 3.62631C4.8452 3.57234 4.77192 3.54541 4.68728 3.54541Z" fill="currentColor" />
</svg>