<svg fill="currentColor" id="Layer_1" data-name="Layer 1" xmlns="http://www.w3.org/2000/svg"
    xmlns:xlink="http://www.w3.org/1999/xlink" viewBox="0 0 20 20.02">
    <defs>
        <mask id="mask" x="-2" y="-2" width="24" height="24" maskUnits="userSpaceOnUse">
            <g id="mask0_150_1902" data-name="mask0 150 1902">
                <rect x="-2" y="-2" width="24" height="24" fill="#fff" />
            </g>
        </mask>
    </defs>
    <g mask="url(#mask)">
        <path d="M14.24,12.6l-.91,2.46h1.82Z" />
        <path
            d="M18.12,9.35H10.39a1.06,1.06,0,0,0-1.06,1.06v7.74a1,1,0,0,0,1.06,1h7.73a1.06,1.06,0,0,0,1.05-1V10.4A1.06,1.06,0,0,0,18.12,9.35Zm-1.56,8.16,0,0h0a.43.43,0,0,1-.54-.24h0l-.51-1.39H13l-.51,1.39a.4.4,0,0,1-.39.27H12a.4.4,0,0,1-.29-.49.16.16,0,0,1,0-.09l2.13-5.73a.43.43,0,0,1,.39-.29.41.41,0,0,1,.39.29L16.76,17A.4.4,0,0,1,16.56,17.51Z" />
        <path d="M4.58,5A3.91,3.91,0,0,0,5.73,7.4,3.91,3.91,0,0,0,6.88,5Z" />
        <path
            d="M9.61.84H1.86a1,1,0,0,0-1,1.06h0V9.63a1,1,0,0,0,1,1H8.49V10.4a1.9,1.9,0,0,1,1.9-1.89h.27V1.9A1.05,1.05,0,0,0,9.61.84ZM8.49,8.53A.42.42,0,0,1,8.91,9a.41.41,0,0,1-.4.42h0A4.78,4.78,0,0,1,5.73,8.5,4.75,4.75,0,0,1,3,9.37.41.41,0,0,1,2.56,9V9A.42.42,0,0,1,3,8.53a3.91,3.91,0,0,0,2.08-.6A4.75,4.75,0,0,1,3.72,5H3a.44.44,0,0,1-.44-.43A.44.44,0,0,1,3,4.13H5.32V2.56a.44.44,0,0,1,.43-.44.44.44,0,0,1,.44.44V4.17H8.53A.43.43,0,0,1,9,4.6.44.44,0,0,1,8.53,5H7.74A4.72,4.72,0,0,1,6.4,7.93,3.85,3.85,0,0,0,8.49,8.53Z" />
        <path
            d="M20,6.53A6.55,6.55,0,0,0,13.47,0a.42.42,0,0,0-.42.42.42.42,0,0,0,.42.42,5.7,5.7,0,0,1,5.69,5.43H17.71a.43.43,0,0,0-.42.4v0a.42.42,0,0,0,.42.42h1.85A.42.42,0,0,0,20,6.69a.11.11,0,0,0,0-.08S20,6.56,20,6.53Z" />
        <path
            d="M6.93,19.58a.42.42,0,0,0-.42-.39A5.71,5.71,0,0,1,.82,13.76H2.27a.41.41,0,0,0,.41-.42.4.4,0,0,0-.4-.41H.42a.41.41,0,0,0-.42.41v.14A6.55,6.55,0,0,0,6.51,20a.41.41,0,0,0,.43-.4S6.94,19.59,6.93,19.58Z" />
    </g>
</svg>