<svg version="1.1" id="Layer_1" xmlns="http://www.w3.org/2000/svg" x="0" y="0" viewBox="0 0 11.1 14" style="enable-background:new 0 0 11.1 14" xml:space="preserve" fill="currentColor">
<path class="st0" d="M10 1.8H7.7v-.5c0-.3-.1-.7-.4-.9C7 .1 6.7 0 6.4 0H4.7c-.4 0-.7.1-.9.4-.3.2-.4.6-.4.9v.4H1.1c-.3 0-.6.1-.8.3-.2.3-.3.6-.3.8v1.1c.1 0 .1.1.1.1l.1.1H10.8c.1 0 .1-.1.1-.1.1 0 .1-.1.1-.1V2.8c0-.3-.1-.6-.3-.8-.2-.1-.4-.2-.7-.2zm-5.7-.5c0-.1 0-.2.1-.3.1-.1.2-.1.3-.1h1.7c.1 0 .2 0 .3.1.1.1.1.2.1.3v.4H4.3v-.4zM.8 5c-.1.1-.1.1 0 0l-.1.1v.1l.3 7.6c0 .3.1.6.4.9.2.2.6.3.9.3h6.5c.3 0 .7-.1.9-.4.2-.2.4-.5.4-.9l.4-7.6V5H.8zm6.4 1.1c0-.1 0-.2.1-.3s.2-.1.3-.1c.1 0 .2 0 .3.1.1.1.2.2.2.3v5.7c0 .1 0 .2-.1.3-.1.1-.2.1-.3.1-.1 0-.2 0-.3-.1-.1-.1-.1-.2-.1-.3V6.1zm-2.1 0c0-.1 0-.2.1-.3s.2-.1.3-.1c.1 0 .2 0 .3.1.1.1.2.2.2.3V12c0 .1-.1.1-.1.1l-.1.1h-.4c-.1 0-.1-.1-.1-.1l-.1-.1V6.1zM3 6.1c0-.1 0-.2.1-.3s.2-.1.3-.1.2 0 .3.1c.1.1.1.2.1.3V12c0 .1-.1.1-.1.1l-.1.1h-.4c-.1 0-.1-.1-.1-.1L3 12V6.1z"/>
</svg>