<svg  viewBox="0 0 80 80" fill="none" xmlns="http://www.w3.org/2000/svg">
<g clip-path="url(#clip0_12_9247)">
<path opacity="0.1" d="M40 80C62.0914 80 80 62.0914 80 40C80 17.9086 62.0914 0 40 0C17.9086 0 0 17.9086 0 40C0 62.0914 17.9086 80 40 80Z" fill="#8EA6C1"/>
<path d="M25.8625 40.0004C24.8113 40.0004 23.9975 39.0797 24.1244 38.036C24.5538 34.506 26.1381 31.241 28.6919 28.6872C31.7138 25.6654 35.7319 24.001 40.005 24.001C44.9169 24.001 49.4919 26.246 52.4981 30.0029V27.2591C52.4981 26.3054 53.2456 25.4997 54.1988 25.4735C55.1875 25.4466 55.9981 26.2397 55.9981 27.2229V33.6354C55.9981 34.9291 54.9494 35.9779 53.6556 35.9779H47.3113C46.3575 35.9779 45.5519 35.2304 45.5256 34.2772C45.4988 33.2885 46.2919 32.4779 47.275 32.4779H49.9894C47.6469 29.3697 43.9663 27.501 40.0056 27.501C33.6313 27.501 28.3563 32.2972 27.5994 38.471C27.4919 39.346 26.7444 40.0004 25.8631 40.0004H25.8625Z" fill="#6667AB"/>
<path d="M54.1376 39.9971C53.2563 39.9971 52.5082 40.6514 52.4013 41.5264C51.6451 47.6996 46.3694 52.4964 39.9951 52.4964C36.0345 52.4964 32.3538 50.6277 30.0113 47.5196H32.6895C33.6432 47.5196 34.4488 46.7721 34.4751 45.8189C34.502 44.8302 33.7088 44.0196 32.7257 44.0196H26.3445C25.0507 44.0196 24.002 45.0683 24.002 46.3621V52.7383C24.002 53.6921 24.7495 54.4977 25.7026 54.5239C26.6557 54.5502 27.502 53.7577 27.502 52.7746V49.9946C30.5088 53.7514 35.0832 55.9964 39.9951 55.9964C44.2688 55.9964 48.2863 54.3321 51.3082 51.3102C53.862 48.7564 55.4463 45.4908 55.8757 41.9614C56.0026 40.9177 55.1888 39.9971 54.1376 39.9971Z" fill="#6667AB"/>
</g>
<defs>
<clipPath id="clip0_12_9247">
<rect width="80" height="80" fill="white"/>
</clipPath>
</defs>
</svg>
