<svg viewBox="0 0 14 14" fill="currentColor" xmlns="http://www.w3.org/2000/svg">
    <path d="M0.814084 7.0007C0.354109 7.0007 -0.00194874 6.59791 0.0535657 6.14115C0.24144 4.59659 0.934685 3.16795 2.05208 2.05053C3.37431 0.728266 5.13245 0 7.00214 0C9.15139 0 11.1532 0.982327 12.4686 2.62619V1.42563C12.4686 1.00831 12.7956 0.655795 13.2127 0.644307C13.6453 0.632551 14 0.97959 14 1.40977V4.21564C14 4.78173 13.5411 5.24063 12.975 5.24063H10.199C9.7817 5.24063 9.42921 4.91355 9.41772 4.4965C9.40599 4.06385 9.753 3.70916 10.1831 3.70916H11.3708C10.3459 2.34916 8.73543 1.53147 7.00243 1.53147C4.21332 1.53147 1.90523 3.63013 1.57406 6.33152C1.52702 6.71436 1.19995 7.0007 0.814358 7.0007H0.814084Z" fill="currentColor" />
    <path d="M13.1859 6.99927C12.8003 6.99927 12.4729 7.28561 12.4262 7.66845C12.0953 10.3695 9.78696 12.4685 6.99783 12.4685C5.26485 12.4685 3.65438 11.6508 2.62941 10.2908H3.80123C4.21855 10.2908 4.57105 9.96372 4.58254 9.5467C4.59429 9.11403 4.24726 8.75932 3.8171 8.75932H1.02497C0.458883 8.75932 0 9.21823 0 9.78432V12.5743C0 12.9916 0.32707 13.3442 0.744111 13.3556C1.16116 13.3671 1.53143 13.0204 1.53143 12.5902V11.3738C2.8471 13.0177 4.84862 14 6.99783 14C8.86781 14 10.6257 13.2717 11.9479 11.9494C13.0653 10.832 13.7585 9.40312 13.9464 7.85881C14.0019 7.40206 13.6459 6.99927 13.1859 6.99927Z" fill="currentColor" />
</svg>