<svg id="User_Management" data-name="User Management" xmlns="http://www.w3.org/2000/svg" width="24" height="24" viewBox="0 0 24 24">
  <g id="users-svgrepo-com" transform="translate(1.999 -0.477)">
    <path id="Path_43197" data-name="Path 43197" d="M6.477,8.005A3.524,3.524,0,1,1,10,11.534,3.526,3.526,0,0,1,6.477,8.005Zm13.509,6.641-.493-2.956a1.437,1.437,0,0,0-1.062-1.113,2.644,2.644,0,0,1-3.514,0,1.434,1.434,0,0,0-1.063,1.113l-.012.07a2.324,2.324,0,0,0-1.047-.59,4.2,4.2,0,0,1-5.589,0,2.324,2.324,0,0,0-1.047.59l-.012-.07a1.438,1.438,0,0,0-1.063-1.113,2.644,2.644,0,0,1-3.514,0A1.435,1.435,0,0,0,.509,11.691L.017,14.647A.96.96,0,0,0,.992,15.8H5.039l-.307,1.842a1.527,1.527,0,0,0,1.553,1.835h7.433a1.528,1.528,0,0,0,1.553-1.835L14.963,15.8h4.047A.961.961,0,0,0,19.985,14.647Zm-3.313-3.84a2.218,2.218,0,1,0-2.215-2.218A2.217,2.217,0,0,0,16.673,10.807Zm-13.345,0A2.218,2.218,0,1,0,1.112,8.589,2.216,2.216,0,0,0,3.328,10.807Z" transform="translate(0)" fill="currentColor"/>
  </g>
  <rect id="Rectangle_11170" data-name="Rectangle 11170" width="24" height="24" fill="none"/>
</svg>
