<svg xmlns="http://www.w3.org/2000/svg" viewBox="0 0 20 15" xml:space="preserve">
  <path
    d="M6.499 3.523c0-2 1.6-3.5 3.5-3.5s3.5 1.6 3.5 3.5c0 2-1.6 3.5-3.5 3.5s-3.5-1.6-3.5-3.5zm13.5 6.6-.5-3c-.1-.5-.5-1-1.1-1.1-1 .9-2.5.9-3.5 0-.5.1-1 .6-1.1 1.1v.1c-.3-.3-.7-.5-1-.6-1.6 1.4-4 1.4-5.6 0-.4.1-.8.3-1 .6v-.1c-.2-.5-.6-.9-1.1-1-1 .9-2.5.9-3.5 0-.5.1-1 .6-1.1 1.1l-.5 3c-.1.5.2 1 .7 1.1h4.2l-.3 1.8c-.2.8.4 1.6 1.2 1.8H13.599c.8 0 1.6-.6 1.6-1.5v-.4l-.2-1.7h4c.5 0 1-.4 1-.9v-.3zm-3.3-3.8c1.2 0 2.2-1 2.2-2.2 0-1.2-1-2.2-2.2-2.2-1.2 0-2.2 1-2.2 2.2 0 1.2 1 2.2 2.2 2.2zm-13.4 0c1.2 0 2.2-1 2.2-2.2s-1-2.2-2.2-2.2-2.2 1-2.2 2.2c0 1.2 1 2.2 2.2 2.2z" />
</svg>