<svg viewBox="0 0 20 18" fill="currentColor" xmlns="http://www.w3.org/2000/svg">
    <path fill-rule="evenodd" clip-rule="evenodd" d="M3.57822 0.700413C4.18553 0.965757 4.46274 1.67317 4.1974 2.28048C3.29901 4.33669 2.80002 6.60851 2.80002 9.00002C2.80002 11.3915 3.29901 13.6633 4.1974 15.7195C4.46274 16.3269 4.18553 17.0343 3.57822 17.2997C2.97093 17.565 2.2635 17.2878 1.99816 16.6805C0.969856 14.3269 0.400024 11.7285 0.400024 9.00002C0.400024 6.27161 0.969856 3.67311 1.99816 1.31959C2.2635 0.712281 2.97093 0.435069 3.57822 0.700413V0.700413ZM13.5536 5.40002C12.4599 5.40002 11.4256 5.89715 10.7423 6.75113L10.3493 7.24236L10.2159 6.90869C9.85145 5.9975 8.96896 5.40002 7.98759 5.40002H7.60002C6.93729 5.40002 6.40002 5.93729 6.40002 6.60002C6.40002 7.26276 6.93729 7.80002 7.60002 7.80002H7.98759L8.62614 9.39638L7.38357 10.9497C7.15584 11.2343 6.81106 11.4 6.44652 11.4H6.40002C5.73729 11.4 5.20002 11.9373 5.20002 12.6C5.20002 13.2628 5.73729 13.8 6.40002 13.8H6.44652C7.54014 13.8 8.57447 13.3029 9.25766 12.4489L9.65064 11.9577L9.78412 12.2914C10.1486 13.2025 11.0311 13.8 12.0124 13.8H12.4C13.0628 13.8 13.6 13.2628 13.6 12.6C13.6 11.9373 13.0628 11.4 12.4 11.4H12.0124L11.3739 9.80366L12.6165 8.25039C12.8443 7.96573 13.189 7.80002 13.5536 7.80002H13.6C14.2628 7.80002 14.8 7.26276 14.8 6.60002C14.8 5.93729 14.2628 5.40002 13.6 5.40002H13.5536ZM15.8026 2.28048C15.5373 1.67317 15.8145 0.965757 16.4218 0.700413C17.0291 0.435069 17.7365 0.712281 18.0019 1.31959C19.0301 3.67311 19.6 6.27161 19.6 9.00002C19.6 11.7285 19.0301 14.3269 18.0019 16.6805C17.7365 17.2878 17.0291 17.565 16.4218 17.2997C15.8145 17.0343 15.5373 16.3269 15.8026 15.7195C16.7011 13.6633 17.2 11.3915 17.2 9.00002C17.2 6.60851 16.7011 4.33669 15.8026 2.28048V2.28048Z" fill="currentColor" />
</svg>