<svg version="1.1" id="Layer_1" xmlns="http://www.w3.org/2000/svg" x="0" y="0" viewBox="0 0 24 24" style="enable-background:new 0 0 24 24" xml:space="preserve"><style>.st0{fill:#6667ab}</style><path class="st0" d="M0 18.6c0-3 2.4-5.4 5.4-5.4h3.2c.8 0 1.1 0 1.4.1.3.1.5.3.6.6.1.3.1.7.1 1.4v3.2c0 3-2.4 5.4-5.4 5.4C2.4 24 0 21.6 0 18.6zM13.2 5.4c0-3 2.4-5.4 5.4-5.4 3 0 5.4 2.4 5.4 5.4 0 3-2.4 5.4-5.4 5.4h-4.2c-.6-.1-1.1-.6-1.2-1.2V5.4z"/><g style="opacity:.5"><path class="st0" d="M0 5.4C0 2.4 2.4 0 5.4 0c3 0 5.4 2.4 5.4 5.4v4.4c-.1.5-.5.8-1 .9H5.4c-3 0-5.4-2.4-5.4-5.3zM13.2 14.9v-.8c.1-.5.5-.8 1-.9h4.4c3 0 5.4 2.4 5.4 5.4 0 3-2.4 5.4-5.4 5.4s-5.4-2.4-5.4-5.4v-3.7z"/></g></svg>