<svg version="1.1" id="Layer_1" xmlns="http://www.w3.org/2000/svg" x="0" y="0" viewBox="0 0 80 80" style="enable-background:new 0 0 80 80" xml:space="preserve"><style>.st1{fill:#6667ab}</style><path d="M40 80c22.1 0 40-17.9 40-40S62.1 0 40 0 0 17.9 0 40s17.9 40 40 40z" style="opacity:.1;fill:#8ea6c1;enable-background:new"/><path class="st1" d="M24 48.2c0-3.9 3.1-7 7-7h4.2c1 0 1.5 0 1.8.2.3.2.6.4.8.8.2.4.2.9.2 1.8v4.2c0 3.9-3.1 7-7 7s-7-3.1-7-7zM41 31c0-3.9 3.1-7 7-7s7 3.1 7 7-3.1 7-7 7h-5.4c-.8-.1-1.4-.7-1.5-1.5V31z"/><g style="opacity:.5"><path class="st1" d="M24 31c0-3.9 3.1-7 7-7s7 3.1 7 7v4.6c0 .5 0 .8-.1 1-.2.6-.6 1.1-1.2 1.2-.2.1-.5.1-1 .1H31c-3.9 0-7-3.1-7-6.9zM41 43.4c0-.5 0-.8.1-1 .2-.6.6-1.1 1.2-1.2.2-.1.5-.1 1-.1H48c3.9 0 7 3.1 7 7s-3.1 7-7 7-7-3.1-7-7v-4.7z"/></g></svg>