<svg viewBox="0 0 80 80" fill="none" xmlns="http://www.w3.org/2000/svg">
    <path opacity="0.1" d="M40 80C62.0914 80 80 62.0914 80 40C80 17.9086 62.0914 0 40 0C17.9086 0 0 17.9086 0 40C0 62.0914 17.9086 80 40 80Z" fill="#8EA6C1" />
    <path d="M46.5352 40.9844C42.9467 40.9844 40.0273 43.9038 40.0273 47.4922C40.0273 51.0806 42.9467 54 46.5352 54C50.1537 54 53.0977 51.0806 53.0977 47.4922C53.0977 43.9038 50.1537 40.9844 46.5352 40.9844ZM48.5325 46.7049L46.345 49.3299C46.1882 49.518 45.9567 49.625 45.7149 49.625C45.6835 49.625 45.6519 49.6232 45.6202 49.6195C45.3453 49.5876 45.1049 49.4192 44.9811 49.1715L44.1061 47.4215C43.9035 47.0164 44.0678 46.5236 44.4729 46.321C44.8781 46.1183 45.3709 46.2826 45.5735 46.6878L45.8876 47.316L47.2721 45.6545C47.5622 45.3065 48.0795 45.2596 48.4275 45.5495C48.7755 45.8395 48.8226 46.3568 48.5325 46.7049Z" fill="#6667AB" />
    <path d="M46.1816 30.6732L42.8532 27.2312C42.8516 27.2296 42.85 27.2279 42.8484 27.2263C42.0821 26.447 41.0157 26 39.9229 26H29.3633C28.0063 26 26.9023 27.104 26.9023 28.4609V49.7344C26.9023 51.0913 28.0063 52.1953 29.3633 52.1953H39.8846C38.9416 50.8657 38.3867 49.2426 38.3867 47.4922C38.3867 42.9991 42.0421 39.3438 46.5352 39.3438C46.812 39.3438 47.0856 39.3576 47.3555 39.3844V33.5458C47.3555 32.4647 46.9386 31.4447 46.1816 30.6732ZM35.5977 44.3203H31.2227C30.7696 44.3203 30.4023 43.953 30.4023 43.5C30.4023 43.047 30.7696 42.6797 31.2227 42.6797H35.5977C36.0507 42.6797 36.418 43.047 36.418 43.5C36.418 43.953 36.0507 44.3203 35.5977 44.3203ZM35.5977 39.9453H31.2227C30.7696 39.9453 30.4023 39.578 30.4023 39.125C30.4023 38.672 30.7696 38.3047 31.2227 38.3047H35.5977C36.0507 38.3047 36.418 38.672 36.418 39.125C36.418 39.578 36.0507 39.9453 35.5977 39.9453ZM35.5977 35.5703H31.2227C30.7696 35.5703 30.4023 35.203 30.4023 34.75C30.4023 34.297 30.7696 33.9297 31.2227 33.9297H35.5977C36.0507 33.9297 36.418 34.297 36.418 34.75C36.418 35.203 36.0507 35.5703 35.5977 35.5703ZM40.8477 39.9453H39.9727C39.5196 39.9453 39.1523 39.578 39.1523 39.125C39.1523 38.672 39.5196 38.3047 39.9727 38.3047H40.8477C41.3007 38.3047 41.668 38.672 41.668 39.125C41.668 39.578 41.3007 39.9453 40.8477 39.9453ZM40.8477 35.5703H39.9727C39.5196 35.5703 39.1523 35.203 39.1523 34.75C39.1523 34.297 39.5196 33.9297 39.9727 33.9297H40.8477C41.3007 33.9297 41.668 34.297 41.668 34.75C41.668 35.203 41.3007 35.5703 40.8477 35.5703Z" fill="#6667AB" />
</svg>