<svg viewBox="0 0 16 17" fill="none" xmlns="http://www.w3.org/2000/svg">
    <path d="M7.07066 9.4397C5.699 9.4397 1.66203 9.4397 1.66203 9.4397C1.23348 9.4397 0.882812 9.79758 0.882812 10.235V16.2047C0.882812 16.6421 1.23348 17 1.66203 17C1.66203 17 5.78347 17 7.1616 17C7.34491 17 7.34491 16.799 7.34491 16.799V9.70996C7.34485 9.70996 7.34485 9.4397 7.07066 9.4397Z" fill="#6667AB" />
    <path d="M14.3457 9.4397C14.3457 9.4397 10.2933 9.4397 8.94259 9.4397C8.6135 9.4397 8.66277 9.78952 8.66277 9.78952V16.8055C8.66277 16.8055 8.66011 16.9998 8.85806 16.9998C10.2299 16.9998 14.3456 16.9998 14.3456 16.9998C14.7741 16.9998 15.1248 16.642 15.1248 16.2045V10.235C15.1249 9.79758 14.7743 9.4397 14.3457 9.4397Z" fill="#6667AB" />
    <path d="M7.34196 4.74265C7.34196 4.74265 7.34196 4.47314 7.08105 4.47314C5.5187 4.47314 0.779214 4.47314 0.779214 4.47314C0.350663 4.47314 0 4.83108 0 5.26846V7.75119C0 8.18863 0.350663 8.54651 0.779214 8.54651C0.779214 8.54651 5.53994 8.54651 7.1024 8.54651C7.34196 8.54651 7.34196 8.33442 7.34196 8.33442V4.74265Z" fill="#6667AB" />
    <path d="M15.2189 4.47314C15.2189 4.47314 10.4775 4.47314 8.89701 4.47314C8.65625 4.47314 8.65625 4.70731 8.65625 4.70731V8.33935C8.65625 8.33935 8.65625 8.54651 8.94895 8.54651C10.5164 8.54651 15.2189 8.54651 15.2189 8.54651C15.6475 8.54651 15.9982 8.18863 15.9982 7.75119V5.26846C15.9982 4.83108 15.6475 4.47314 15.2189 4.47314Z" fill="#6667AB" />
    <path d="M4.69168 3.88475C4.33517 3.88475 4.00954 3.85589 3.72399 3.79893C2.99871 3.65429 2.50022 3.37279 2.20002 2.93842C1.93105 2.54913 1.84874 2.06922 1.95529 1.51195C2.14195 0.536934 2.78344 0 3.76146 0C3.96844 0 4.19575 0.0243956 4.43713 0.0725493C5.05114 0.194991 5.83649 0.554376 6.53799 1.03389C7.72815 1.84752 7.78702 2.35333 7.72776 2.66306C7.64062 3.11817 7.22387 3.44337 6.45368 3.65731C5.93334 3.80183 5.29111 3.88475 4.69168 3.88475ZM3.76152 1.27477C3.38275 1.27477 3.25258 1.38278 3.18111 1.75636C3.12264 2.0618 3.19638 2.16848 3.22056 2.20354C3.32184 2.35014 3.58565 2.47241 3.96345 2.54769C4.1673 2.58836 4.41919 2.60986 4.69162 2.60986C5.29071 2.60986 5.81849 2.51721 6.1687 2.41586C6.19419 2.4085 6.23376 2.37773 6.19135 2.35194C5.73351 1.97123 4.89588 1.46286 4.19768 1.32362C4.03503 1.29128 3.88823 1.27477 3.76152 1.27477Z" fill="#6667AB" />
    <path d="M11.3248 3.88481C11.3248 3.88481 11.3248 3.88481 11.3247 3.88481C10.7253 3.88481 10.0831 3.80189 9.56277 3.65737C8.79253 3.44349 8.37584 3.11823 8.2887 2.66318C8.22949 2.35345 8.28825 1.84764 9.47853 1.03401C10.1799 0.554498 10.9653 0.195113 11.5794 0.0726714C11.8208 0.0245176 12.0481 0.00012207 12.2549 0.00012207C13.2331 0.00012207 13.8746 0.537114 14.0611 1.51213C14.1677 2.06934 14.0855 2.54926 13.8164 2.93854C13.5162 3.37297 13.0178 3.65442 12.2923 3.79905C12.0069 3.8559 11.6813 3.88481 11.3248 3.88481ZM9.83509 2.34412C9.7945 2.36817 9.81415 2.40613 9.83521 2.41233C10.1852 2.51507 10.7186 2.60998 11.3247 2.60998C11.5973 2.60998 11.849 2.58849 12.053 2.54781C12.4307 2.47248 12.6946 2.35027 12.7958 2.20366C12.8201 2.1686 12.8939 2.06192 12.8353 1.75649C12.7639 1.3829 12.6336 1.27489 12.2548 1.27489C12.1282 1.27489 11.9815 1.29135 11.8187 1.3238C11.1205 1.46299 10.2929 1.96336 9.83509 2.34412Z" fill="#6667AB" />
</svg>