<svg xmlns="http://www.w3.org/2000/svg" xml:space="preserve" id="Layer_1" x="0" y="0" style="enable-background:new 0 0 80 80" version="1.1" viewBox="0 0 80 80"><style>.st1{fill:#6667ab}</style><path d="M40 80c22.1 0 40-17.9 40-40S62.1 0 40 0 0 17.9 0 40s17.9 40 40 40z" style="opacity:.1;fill:#8ea6c1;enable-background:new"/><path d="M26.4 37h.3c1.9 0 3.4-1.5 3.4-3.4V33h-2v.6c0 .8-.6 1.4-1.4 1.4h-.3c-.8 0-1.4-.6-1.4-1.4v-3.3c0-.8.6-1.4 1.4-1.4h.3c.8 0 1.4.6 1.4 1.4v.7h2v-.6c0-1.9-1.5-3.4-3.4-3.4h-.3c-1.9 0-3.4 1.5-3.4 3.4v3.3c0 1.8 1.5 3.3 3.4 3.3zM35.4 37h.3c1.9 0 3.4-1.5 3.4-3.4v-3.3c0-1.9-1.5-3.4-3.4-3.4h-.3c-1.9 0-3.4 1.5-3.4 3.4v3.3c0 1.9 1.5 3.4 3.4 3.4zM34 30.4c0-.8.6-1.4 1.4-1.4h.3c.8 0 1.4.6 1.4 1.4v3.3c0 .8-.6 1.4-1.4 1.4h-.3c-.8 0-1.4-.6-1.4-1.4v-3.3zM48 33.6v-3.3c0-1.9-1.5-3.4-3.4-3.4H41v10h3.6c1.9.1 3.4-1.4 3.4-3.3zM43 29h1.6c.8 0 1.4.6 1.4 1.4v3.3c0 .8-.6 1.4-1.4 1.4H43V29zM57 29v-2h-7v10h7v-2h-5v-2h3.7v-2H52v-2h5zM53 41h-2v-2h-4v2h-2v-2h-4v2h-2v-2h-4v2h-2v-2h-4v2h-2v-2h-4v4h2v2h-2v2h2v2h-2v4h4v-2h2v2h4v-2h2v2h4v-2h2v2h4v-2h2v2h4v-2h2v2h4v-4h-2v-2h2v-2h-2v-2h2v-4h-4v2zm-19.1 6.5-1.4 1.4-1.4-1.4-1.4 1.4-1.4-1.4 1.4-1.4-1.4-1.4 1.4-1.4 1.4 1.4 1.4-1.4 1.4 1.4-1.4 1.4 1.4 1.4zm9 0-1.4 1.4-1.5-1.4-1.4 1.4-1.4-1.4 1.4-1.4-1.4-1.4 1.4-1.4 1.4 1.4 1.4-1.4 1.4 1.4-1.4 1.4 1.5 1.4zm8.8 0-1.4 1.4-1.4-1.4-1.4 1.4-1.4-1.4 1.4-1.4-1.4-1.4 1.4-1.4 1.4 1.4 1.4-1.4 1.4 1.4-1.4 1.4 1.4 1.4z" class="st1"/></svg>