<svg id="Layer_1" data-name="Layer 1" xmlns="http://www.w3.org/2000/svg" viewBox="0 0 80 80"><defs><style>.cls-1,.cls-2{fill:#dda213;}.cls-1{opacity:0.1;isolation:isolate;}</style></defs><path class="cls-1" d="M40,80A40,40,0,1,0,0,40,40,40,0,0,0,40,80Z"/><path class="cls-2" d="M55.36,47.32,44.15,27.9a4.77,4.77,0,0,0-8.29,0L24.65,47.32a4.79,4.79,0,0,0,4.14,7.19H51.18A4.82,4.82,0,0,0,55.36,47.32ZM40,50.2a1.79,1.79,0,1,1,0-3.57,1.79,1.79,0,0,1,0,3.57Zm1.63-11.54c-.08,1.38-.17,2.76-.25,4.14,0,.45,0,.86,0,1.3A1.35,1.35,0,0,1,40,45.4a1.31,1.31,0,0,1-1.34-1.26c-.12-2.15-.25-4.27-.37-6.42L38.17,36a2,2,0,0,1,1.38-1.95,1.8,1.8,0,0,1,2.08,1,2.17,2.17,0,0,1,.16.89C41.75,36.88,41.67,37.77,41.63,38.66Z"/></svg>