<svg data-name="Слой 1" xmlns="http://www.w3.org/2000/svg" xmlns:xlink="http://www.w3.org/1999/xlink" viewBox="0 0 22.4 22.4">
    <defs>
        <clipPath id="clip-path" transform="translate(-0.8 -0.8)">
            <rect width="24" height="24" fill="currentColor" />
        </clipPath>
    </defs>
    <g clip-path="url(#clip-path)">
        <path fill="currentColor" d="M23.16,11a.35.35,0,0,0-.06-.14.36.36,0,0,0-.12-.08l-1.35-.54a.42.42,0,0,1-.16-.11.37.37,0,0,1-.08-.18,9.49,9.49,0,0,0-1.33-3.2A.44.44,0,0,1,20,6.6a.43.43,0,0,1,0-.19l.57-1.34a.22.22,0,0,0,0-.14.24.24,0,0,0-.05-.14c-.18-.22-.39-.44-.65-.71a9.08,9.08,0,0,0-.71-.64.18.18,0,0,0-.13-.06.26.26,0,0,0-.15,0L17.59,4a.32.32,0,0,1-.19,0,.28.28,0,0,1-.18-.06A9.42,9.42,0,0,0,14,2.61a.37.37,0,0,1-.18-.08.42.42,0,0,1-.11-.16L13.18,1A.27.27,0,0,0,13.09.9.31.31,0,0,0,13,.84a9.34,9.34,0,0,0-1,0,9,9,0,0,0-.95,0,.35.35,0,0,0-.14.06.27.27,0,0,0-.09.12l-.54,1.35a.42.42,0,0,1-.11.16.37.37,0,0,1-.18.08,9.49,9.49,0,0,0-3.2,1.33A.33.33,0,0,1,6.6,4a.32.32,0,0,1-.19,0L5.07,3.4a.22.22,0,0,0-.14,0,.24.24,0,0,0-.14.05c-.22.18-.44.39-.71.65a9.08,9.08,0,0,0-.64.71.18.18,0,0,0-.06.13.26.26,0,0,0,0,.15L4,6.41A.32.32,0,0,1,4,6.6a.28.28,0,0,1-.06.18A9.42,9.42,0,0,0,2.61,10a.37.37,0,0,1-.08.18.42.42,0,0,1-.16.11L1,10.82a.27.27,0,0,0-.12.09A.31.31,0,0,0,.84,11c0,.32,0,.64,0,1s0,.64,0,.95a.35.35,0,0,0,.06.14.27.27,0,0,0,.12.09l1.35.54a.42.42,0,0,1,.16.11.37.37,0,0,1,.08.18,9.63,9.63,0,0,0,1.33,3.21A.36.36,0,0,1,4,17.4a.43.43,0,0,1,0,.19L3.4,18.93a.22.22,0,0,0,0,.14.24.24,0,0,0,.05.14c.18.22.39.44.65.71a9.08,9.08,0,0,0,.71.64.18.18,0,0,0,.13.06.26.26,0,0,0,.15,0L6.41,20a.42.42,0,0,1,.16,0,.4.4,0,0,1,.21.07A9.42,9.42,0,0,0,10,21.39a.37.37,0,0,1,.18.08.42.42,0,0,1,.11.16L10.82,23a.27.27,0,0,0,.09.12.31.31,0,0,0,.13.06c.32,0,.64,0,1,0a9,9,0,0,0,.95,0,.35.35,0,0,0,.14-.06.27.27,0,0,0,.09-.12l.54-1.35a.42.42,0,0,1,.11-.16.37.37,0,0,1,.18-.08,9.63,9.63,0,0,0,3.21-1.33A.28.28,0,0,1,17.4,20a.32.32,0,0,1,.19,0l1.34.57a.22.22,0,0,0,.14,0,.24.24,0,0,0,.14-.05c.22-.18.44-.39.71-.65a9.08,9.08,0,0,0,.64-.71.18.18,0,0,0,.06-.13.26.26,0,0,0,0-.15L20,17.59a.32.32,0,0,1,0-.19.28.28,0,0,1,.06-.18A9.42,9.42,0,0,0,21.39,14a.37.37,0,0,1,.08-.18.42.42,0,0,1,.16-.11L23,13.18a.27.27,0,0,0,.12-.09.31.31,0,0,0,.06-.13c0-.32,0-.64,0-1s0-.64,0-.95ZM12,20.4a8.41,8.41,0,0,1-8.24-10,8.41,8.41,0,0,1,6.6-6.6A8.4,8.4,0,1,1,12,20.4Z" transform="translate(-0.8 -0.8)" />
        <path fill="currentColor" d="M14.8,10.4a2,2,0,0,0,2,2,1.19,1.19,0,0,1,1.11.74,1.25,1.25,0,0,1,.07.69,1.2,1.2,0,0,1-.95.95,1.25,1.25,0,0,1-.69-.07,1.19,1.19,0,0,1-.74-1.11.4.4,0,0,0-.8,0,2,2,0,1,0,2-2,1.19,1.19,0,0,1-1.11-.74,1.25,1.25,0,0,1-.07-.69,1.2,1.2,0,0,1,1-.95,1.25,1.25,0,0,1,.69.07A1.19,1.19,0,0,1,18,10.4a.4.4,0,0,0,.8,0,2,2,0,0,0-4,0Z" transform="translate(-0.8 -0.8)" />
        <path fill="currentColor" d="M13.53,8.42a.62.62,0,0,0-.4,0,.59.59,0,0,0-.28.28l-1,2.09L10.75,8.74a.59.59,0,0,0-.28-.28.62.62,0,0,0-.74.17A.65.65,0,0,0,9.6,9V15.2a.4.4,0,0,0,.8,0V9.82l.86,1.71a.54.54,0,0,0,.22.25.61.61,0,0,0,.64,0,.54.54,0,0,0,.22-.25l.86-1.71V15.2a.4.4,0,0,0,.8,0V9a.65.65,0,0,0-.13-.38A.58.58,0,0,0,13.53,8.42Z" transform="translate(-0.8 -0.8)" />
        <path fill="currentColor" d="M7.2,9.2H8.4a.4.4,0,0,0,0-.8H7.2a2,2,0,0,0-2,2v3.2a2,2,0,0,0,2,2H8.4a.4.4,0,0,0,0-.8H7.2A1.2,1.2,0,0,1,6,13.6V10.4A1.2,1.2,0,0,1,7.2,9.2Z" transform="translate(-0.8 -0.8)" />
    </g>
</svg>