<svg viewBox="0 0 32 32" fill="none" xmlns="http://www.w3.org/2000/svg">
    <path d="M29.5819 2.4171C28.0682 0.902118 25.9482 0.0177519 23.807 0.000252118C21.6095 -0.0172477 19.4595 0.877119 17.8989 2.4171L13.9827 6.33394C14.5383 6.24082 15.1039 6.19269 15.6752 6.19269C16.7908 6.19269 17.8895 6.37394 18.942 6.73019C19.2301 6.82769 19.5114 6.93768 19.787 7.05893L21.1639 5.68207C21.8063 5.0377 22.6982 4.65146 23.607 4.61833C24.6088 4.58146 25.6088 4.97333 26.3176 5.68207C27.7382 7.10331 27.7382 9.41454 26.3176 10.8358L23.4932 13.6589L18.8989 18.2538C18.0058 19.1469 16.6476 19.5188 15.4239 19.2076C14.357 18.9363 13.4327 18.1538 12.9889 17.1463C12.9364 17.027 12.8908 16.9051 12.8521 16.7807L9.43397 20.2207C9.75272 20.6976 10.1221 21.14 10.5315 21.5419C11.4483 22.4419 12.5696 23.1375 13.7921 23.5369C14.0121 23.6088 14.2352 23.6713 14.4608 23.7231C17.0933 24.3319 20.0026 23.5506 21.9732 21.7019C22.0376 21.6419 29.5819 14.1001 29.5819 14.1001C32.8031 10.8789 32.8031 5.63832 29.5819 2.4171V2.4171ZM13.0558 25.27C12.7677 25.1725 12.4864 25.0625 12.2108 24.9413C12.2108 24.9413 10.834 26.3181 10.834 26.3187C10.1877 26.965 9.29335 27.3512 8.38023 27.3825C7.38399 27.4162 6.38338 27.0262 5.68026 26.3181C4.25965 24.8975 4.25965 22.5857 5.68026 21.1644L13.4602 13.4639C13.6214 13.3007 13.8177 13.1764 14.0221 13.0732C14.9564 12.6008 16.097 12.557 17.0645 12.9564C18.0608 13.367 18.8808 14.2539 19.1714 15.297C19.1739 15.3057 19.1764 15.3145 19.1789 15.3232C19.1789 15.3232 22.632 11.8701 22.6338 11.8683C22.7251 11.7764 21.6345 10.6064 21.5232 10.4958C21.0864 10.0627 20.6007 9.67766 20.0801 9.34954C19.0389 8.69392 17.8539 8.26267 16.6301 8.12017C14.1683 7.83393 11.5827 8.72017 9.83459 10.482L2.41591 17.9001C-0.805305 21.1213 -0.805305 26.3619 2.41591 29.5831C3.93902 31.1068 6.074 31.9924 8.22773 31.9999C10.4021 32.0074 12.5608 31.1206 14.0989 29.5831L18.0151 25.6669C17.4595 25.76 16.8945 25.8075 16.3227 25.8075C15.2077 25.8075 14.1083 25.6269 13.0558 25.27V25.27Z" fill="#6667AB" />
</svg>