<svg version="1.1" id="Layer_1" xmlns="http://www.w3.org/2000/svg" xmlns:xlink="http://www.w3.org/1999/xlink" x="0" y="0" viewBox="0 0 14 14" style="enable-background:new 0 0 14 14" xml:space="preserve"><style>.st1{fill:#6667ab}</style><defs><path id="SVGID_1_" d="M0 0h14v14H0z"/></defs><clipPath id="SVGID_2_"><use xlink:href="#SVGID_1_" style="overflow:visible"/></clipPath><g style="clip-path:url(#SVGID_2_)"><path class="st1" d="M3.6 11.4c-.9 0-1.8-.6-2.1-1.5V5.2L0 9.9c-.2.7.2 1.4.9 1.6l9 2.4h.3c.6 0 1.1-.4 1.3-1l.5-1.7H3.6zM5.2 5.2c.6 0 1.2-.5 1.2-1.2 0-.6-.5-1.2-1.2-1.2C4.6 2.8 4 3.3 4 4c.1.7.6 1.2 1.2 1.2z"/><path class="st1" d="M12.5 1.2H3.8c-.8 0-1.5.6-1.5 1.4V9c0 .8.7 1.5 1.5 1.5h8.7c.8 0 1.5-.7 1.5-1.5V2.6c0-.8-.7-1.4-1.5-1.4zM3.8 2.3h8.7c.2 0 .3.1.3.3v4.1L11 4.6c-.2-.2-.5-.4-.8-.4-.3 0-.6.1-.8.4L7.3 7.2l-.7-.7c-.4-.4-1-.4-1.4 0L3.5 8.1V2.6c0-.1.1-.3.3-.3z"/></g></svg>