<svg viewBox="0 0 80 80" fill="none" xmlns="http://www.w3.org/2000/svg">
<path d="M40 80C62.0914 80 80 62.0914 80 40C80 17.9086 62.0914 0 40 0C17.9086 0 0 17.9086 0 40C0 62.0914 17.9086 80 40 80Z" fill="#FBE5E5"/>
<g clip-path="url(#clip0_344_38566)">
<path d="M43.8125 25H29.4375C27.5375 25 26 26.5375 26 28.4375V47.8125C26 49.7125 27.5375 51.25 29.4375 51.25H37.675C37 49.825 36.625 48.2375 36.625 46.5625C36.625 45.125 36.9 43.75 37.4125 42.4875C37.3625 42.5 37.3125 42.5 37.25 42.5H31C30.3125 42.5 29.75 41.9375 29.75 41.25C29.75 40.5625 30.3125 40 31 40H37.25C37.725 40 38.15 40.275 38.35 40.675C39.1625 39.4125 40.2125 38.3375 41.45 37.5H31C30.3125 37.5 29.75 36.9375 29.75 36.25C29.75 35.5625 30.3125 35 31 35H42.25C42.9375 35 43.5 35.5625 43.5 36.25C43.5 36.3125 43.5 36.3625 43.4875 36.4125C44.65 35.9375 45.925 35.6625 47.25 35.6375V28.4375C47.25 26.5375 45.7125 25 43.8125 25V25ZM36 32.5H31C30.3125 32.5 29.75 31.9375 29.75 31.25C29.75 30.5625 30.3125 30 31 30H36C36.6875 30 37.25 30.5625 37.25 31.25C37.25 31.9375 36.6875 32.5 36 32.5Z" fill="#D30000"/>
<path d="M47.5625 38.125C42.91 38.125 39.125 41.91 39.125 46.5625C39.125 51.215 42.91 55 47.5625 55C52.215 55 56 51.215 56 46.5625C56 41.91 52.215 38.125 47.5625 38.125ZM50.6338 47.8662C51.1225 48.355 51.1225 49.145 50.6338 49.6338C50.39 49.8775 50.07 50 49.75 50C49.43 50 49.11 49.8775 48.8662 49.6338L47.5625 48.33L46.2588 49.6338C46.015 49.8775 45.695 50 45.375 50C45.055 50 44.735 49.8775 44.4913 49.6338C44.0025 49.145 44.0025 48.355 44.4913 47.8662L45.795 46.5625L44.4913 45.2588C44.0025 44.77 44.0025 43.98 44.4913 43.4913C44.98 43.0025 45.77 43.0025 46.2588 43.4913L47.5625 44.795L48.8662 43.4913C49.355 43.0025 50.145 43.0025 50.6338 43.4913C51.1225 43.98 51.1225 44.77 50.6338 45.2588L49.33 46.5625L50.6338 47.8662Z" fill="#D30000"/>
</g>
<defs>
<clipPath id="clip0_344_38566">
<rect width="30" height="30" fill="white" transform="translate(26 25)"/>
</clipPath>
</defs>
</svg>
