<svg viewBox="0 0 20 24" fill="currentColor" xmlns="http://www.w3.org/2000/svg">
    <path d="M5.52326 11.9608C5.78775 11.9608 6.01795 11.7306 6.01795 11.4661V4.95184C6.01795 2.76245 7.79101 0.989388 9.9804 0.989388C12.1698 0.989388 13.9429 2.76245 13.9429 4.95184V11.4661C13.9429 11.7306 14.1731 11.9608 14.4375 11.9608C14.702 11.9608 14.9322 11.7306 14.9322 11.4661V4.95184C14.9322 2.22857 12.7037 0 9.9804 0C7.25714 0 5.02856 2.22857 5.02856 4.95184V11.4661C5.02856 11.7355 5.25877 11.9608 5.52326 11.9608Z" fill="currentColor" />
    <path d="M19.4089 21.884L17.9983 7.12646H15.9215V11.9167C15.9215 12.7444 15.2505 13.4105 14.4277 13.4105C13.5999 13.4105 12.9338 12.7395 12.9338 11.9167V7.12646H7.01214V11.8971C7.01214 12.7052 6.37541 13.391 5.56725 13.4105C4.72969 13.435 4.03908 12.7591 4.03908 11.9265V7.12646H2.00153L0.590918 21.884C0.478265 23.0252 1.36969 23.9999 2.49622 23.9999H17.484C18.6252 23.9999 19.5215 23.0252 19.4089 21.884ZM9.99995 22.6285C7.65872 22.6285 5.75342 20.7232 5.75342 18.382C5.75342 16.0408 7.65872 14.1354 9.99995 14.1354C12.3412 14.1354 14.2465 16.0408 14.2465 18.382C14.2465 20.7232 12.3411 22.6285 9.99995 22.6285Z" fill="currentColor" />
    <path d="M10.0001 15.125C8.21231 15.125 6.74292 16.5895 6.74292 18.3821C6.74292 20.1699 8.20741 21.6393 10.0001 21.6393C11.7878 21.6393 13.2572 20.1748 13.2572 18.3821C13.2572 16.5895 11.7878 15.125 10.0001 15.125ZM10.2841 20.0523V20.2532C10.2841 20.4099 10.1567 20.5372 10 20.5372C9.84328 20.5372 9.71593 20.4099 9.71593 20.2532V20.0523C9.5494 20.0034 9.39267 19.9103 9.27512 19.783C9.16736 19.6703 9.17226 19.4891 9.28981 19.3813C9.40246 19.2736 9.58369 19.2785 9.69144 19.396C9.76491 19.4744 9.86777 19.5234 9.97552 19.5283C9.98532 19.5283 9.99512 19.5283 10.0049 19.5283C10.0147 19.5283 10.0245 19.5283 10.0343 19.5283C10.2547 19.5136 10.431 19.3274 10.431 19.1021C10.431 18.867 10.24 18.676 10.0049 18.676C9.99512 18.676 9.98532 18.676 9.97552 18.676C9.43675 18.6613 9.00573 18.2205 9.00573 17.6768C9.00573 17.2262 9.3094 16.8442 9.72083 16.7217V16.5209C9.72083 16.3642 9.84818 16.2368 10.0049 16.2368C10.1616 16.2368 10.289 16.3642 10.289 16.5209V16.7217C10.4555 16.7707 10.6123 16.8638 10.7298 16.996C10.8376 17.1087 10.8327 17.2899 10.7151 17.3977C10.6025 17.5054 10.4212 17.5005 10.3135 17.383C10.24 17.3046 10.1372 17.2556 10.0294 17.2507C10.0196 17.2507 10.0098 17.2507 10 17.2507C9.99022 17.2507 9.98042 17.2507 9.97063 17.2507C9.75022 17.2654 9.57389 17.4515 9.57389 17.6768C9.57389 17.9119 9.76491 18.103 10 18.103C10.0098 18.103 10.0196 18.103 10.0294 18.103C10.5682 18.1177 10.9992 18.5585 10.9992 19.1021C10.9992 19.543 10.6956 19.9299 10.2841 20.0523Z" fill="currentColor" />
</svg>