<svg xmlns="http://www.w3.org/2000/svg" xml:space="preserve" id="Layer_1" x="0" y="0"
    style="enable-background:new 0 0 80 80" version="1.1" viewBox="0 0 80 80">
    <style>
        .st1 {
            fill: #6667ab
        }
    </style>
    <path d="M40 80c22.1 0 40-17.9 40-40S62.1 0 40 0 0 17.9 0 40s17.9 40 40 40z"
        style="opacity:.1;fill:#8ea6c1;enable-background:new" />
    <path
        d="m45.2 53.5 8.7-4.4c.4-.2.7-.7.7-1.1 0-.2 0-.4-.1-.5-.3-.6-1-.9-1.6-.6l-8.3 3.7c-.4.2-.8.4-1.2.4h-6c-.3 0-.5-.2-.5-.5s.2-.5.5-.5h6c.2 0 .4 0 .5-.1.1 0 .1-.1.2-.1s.1-.1.1-.1l.2-.2c.1-.2.2-.5.2-.7 0-.7-.6-1.3-1.3-1.3h-5c-.2 0-.4-.1-.6-.1h-.2c-.2 0-.3-.1-.5-.1-.1 0-.2 0-.3-.1-.2-.1-.4-.1-.6-.2-.1-.1-.3-.1-.4-.2-.2-.1-.3-.2-.5-.2-.9-.5-1.8-.8-2.8-.9v6.9l4.4 1.6c2.7.8 5.8.6 8.4-.7zM30.5 43.3h-4.2c-.5 0-.9.4-.9.9v8.6c0 .5.4.9.9.9h4.2c.5 0 .9-.4.9-.9v-8.6c0-.5-.4-.9-.9-.9zM44 29c-3.4 0-6.1 2.7-6.1 6.1 0 3.4 2.7 6.1 6.1 6.1 3.4 0 6.1-2.7 6.1-6.1 0-3.3-2.7-6.1-6.1-6.1zm3.8 6.3-1 1s-.1.1 0 .2l.2 1.4c.1.4-.1.8-.4 1.1-.2.1-.4.2-.7.2-.2 0-.4 0-.5-.1l-1.3-.7h-.2l-1.3.6c-.4.2-.8.2-1.2-.1-.3-.3-.5-.7-.4-1.1l.2-1.4v-.2l-1-1c-.3-.3-.4-.7-.3-1.2.1-.4.5-.7.9-.8l1.4-.2s.1 0 .1-.1l.6-1.3c.2-.4.6-.6 1-.6s.8.2 1 .6l.6 1.3c0 .1.1.1.1.1l1.4.2c.4.1.8.4.9.8.3.5.2 1-.1 1.3z"
        class="st1" />
    <path
        d="M44 25.4c-5.4 0-9.8 4.4-9.8 9.8S38.6 45 44 45s9.8-4.4 9.8-9.8-4.4-9.8-9.8-9.8zm0 16.8c-3.9 0-7.1-3.2-7.1-7.1 0-3.9 3.2-7.1 7.1-7.1 3.9 0 7.1 3.2 7.1 7.1 0 4-3.2 7.1-7.1 7.1z"
        class="st1" />
    <path
        d="m47 34.3-1.4-.2c-.4-.1-.7-.3-.8-.6l-.6-1.3c0-.1-.1-.1-.2-.1s-.1 0-.2.1l-.6 1.3c-.2.3-.5.6-.8.6l-1.4.2c-.1 0-.1.1-.1.1v.2l1 1c.3.3.4.6.3 1l-.3 1.4c0 .1 0 .1.1.2 0 0 .1.1.2 0l1.3-.7c.2-.1.3-.1.5-.1s.4 0 .5.1l1.3.7h.2s.1-.1.1-.2l-.2-1.4c-.1-.4.1-.7.3-1l1-1c.1-.1.1-.1 0-.2-.1 0-.1-.1-.2-.1z"
        class="st1" />
</svg>