<svg width="26" height="24" viewBox="0 0 26 24" fill="none" xmlns="http://www.w3.org/2000/svg">
<rect width="26" height="24" rx="12" fill="#00B21E" fill-opacity="0.1"/>
<path d="M17.8692 7.42621L13.5 6L9.1308 7.42621C8.80161 7.53368 8.51518 7.74058 8.31218 8.01751C8.10919 8.29444 7.99995 8.62732 8 8.96887V12.4951C8 16.5706 13.06 18.8212 13.2767 18.915L13.4714 19L13.6738 18.9339C13.8916 18.8624 19 17.141 19 12.4951V8.96887C19 8.62732 18.8908 8.29444 18.6878 8.01751C18.4848 7.74058 18.1984 7.53368 17.8692 7.42621ZM13.7442 13.5725C13.6481 13.6678 13.5336 13.7434 13.4076 13.7948C13.2815 13.8462 13.1464 13.8725 13.01 13.872H12.9918C12.8526 13.8699 12.7153 13.8401 12.5881 13.7842C12.461 13.7283 12.3466 13.6477 12.252 13.547L10.9838 12.247L11.7774 11.4985L13.0116 12.766L15.8612 9.95958L16.6389 10.7255L13.7442 13.5725Z" fill="#00B21E"/>
</svg>
