<svg version="1.1" id="Layer_1" xmlns="http://www.w3.org/2000/svg" x="0" y="0" viewBox="0 0 85 85" style="enable-background:new 0 0 85 85" xml:space="preserve"><style>.st1{fill:#c7c7ff}.st2{fill:#fff}</style><path d="M42.5 85C66 85 85 66 85 42.5S66 0 42.5 0 0 19 0 42.5 19 85 42.5 85z" style="fill:#6667ab"/><path class="st1" d="M44 28.1c-8 0-15.8 1.6-21.5 4.4-5.7 2.8-8.9 6.7-8.9 10.7 0 4 3.2 7.9 8.9 10.7 5.7 2.8 13.4 4.4 21.5 4.4 4 0 7.9-.4 11.6-1.2 3.7-.8 7-1.9 9.8-3.3 2.8-1.4 5.1-3.1 6.6-4.9 1.5-1.8 2.3-3.8 2.3-5.8s-.8-4-2.3-5.8c-1.5-1.8-3.8-3.5-6.6-4.9-2.8-1.4-6.2-2.5-9.8-3.3-3.7-.6-7.6-1-11.6-1zm0 2.5c7.3 0 14.2 1.3 19.3 3.7s8 5.6 8 9c0 1.7-.7 3.3-2.1 4.9-1.4 1.5-3.4 2.9-5.9 4.1-2.5 1.2-5.6 2.1-8.9 2.7s-6.9 1-10.5 1c-3.6 0-7.1-.3-10.5-1-3.3-.6-6.3-1.6-8.9-2.7-2.5-1.2-4.6-2.6-5.9-4.1-1.4-1.5-2.1-3.2-2.1-4.9 0-3.4 2.9-6.6 8-9 5.3-2.4 12.2-3.7 19.5-3.7z"/><path class="st1" d="M30.9 35.7c-4 7-6.5 14.4-6.9 20.8-.4 6.3 1.4 11 4.8 13.1 3.5 2 8.4 1.2 13.7-2.3 5.3-3.5 10.6-9.4 14.6-16.4 2-3.5 3.6-7.1 4.8-10.6 1.2-3.6 1.9-7 2.1-10.2s-.1-5.9-1-8.2c-.8-2.2-2.1-3.9-3.9-4.9-1.7-1-3.8-1.3-6.2-.9-2.4.4-4.9 1.5-7.6 3.2-2.6 1.7-5.3 4.1-7.8 6.9-2.3 2.8-4.7 6-6.6 9.5zm2.1 1.2c3.6-6.3 8.3-11.6 12.9-14.9 4.6-3.3 8.9-4.1 11.8-2.5 1.4.8 2.5 2.3 3.2 4.2.6 2 .8 4.4.6 7.2-.3 2.8-.9 5.9-2.1 9.1-1.1 3.2-2.6 6.4-4.4 9.5-1.8 3.1-3.9 6-6.1 8.6-2.2 2.6-4.5 4.7-6.8 6.3-2.3 1.6-4.5 2.7-6.5 3.1-2 .4-3.8.2-5.2-.6-2.9-1.7-4.3-5.8-3.8-11.4.5-5.6 2.8-12.3 6.4-18.6z"/><path class="st1" d="M30.9 50.8c4 7 9.3 12.9 14.6 16.4 5.3 3.5 10.2 4.3 13.7 2.3s5.2-6.7 4.8-13.1c-.4-6.3-2.9-13.8-6.9-20.8-2-3.5-4.3-6.7-6.8-9.5s-5.1-5.1-7.8-6.9c-2.6-1.7-5.2-2.8-7.6-3.2-2.4-.4-4.5-.1-6.2.9-1.7 1-3 2.7-3.9 4.9-.8 2.2-1.2 5-1 8.2.2 3.1.9 6.6 2.1 10.2 1.3 3.6 3 7.2 5 10.6zm2.1-1.2c-3.6-6.3-5.9-13-6.5-18.6-.5-5.6.8-9.7 3.8-11.4 1.4-.8 3.2-1 5.2-.6s4.2 1.5 6.5 3.1 4.6 3.8 6.8 6.3c2.2 2.6 4.3 5.5 6.1 8.6 1.8 3.1 3.3 6.4 4.4 9.5 1.1 3.2 1.8 6.3 2.1 9.1.3 2.8 0 5.2-.6 7.2s-1.7 3.4-3.2 4.2c-2.9 1.7-7.1.8-11.8-2.5-4.5-3.3-9.2-8.6-12.8-14.9z"/><path class="st1" d="M44 47c2 0 3.7-1.7 3.7-3.7S46 39.6 44 39.6s-3.7 1.7-3.7 3.7S41.9 47 44 47z"/><path class="st2" d="M42.5 27.3c-8 0-15.8 1.6-21.5 4.4-5.7 2.8-8.9 6.7-8.9 10.7 0 4 3.2 7.9 8.9 10.7 5.7 2.8 13.4 4.4 21.5 4.4 4 0 7.9-.4 11.6-1.2 3.7-.8 7-1.9 9.8-3.3 2.8-1.4 5.1-3.1 6.6-4.9 1.5-1.8 2.3-3.8 2.3-5.8s-.8-4-2.3-5.8c-1.5-1.8-3.8-3.5-6.6-4.9-2.8-1.4-6.2-2.5-9.8-3.3-3.7-.6-7.6-1-11.6-1zm0 2.5c7.3 0 14.2 1.3 19.3 3.7s8 5.6 8 9c0 1.7-.7 3.3-2.1 4.9-1.4 1.5-3.4 2.9-5.9 4.1-2.5 1.2-5.6 2.1-8.9 2.7-3.3.6-6.9 1-10.5 1-3.6 0-7.1-.3-10.5-1s-6.3-1.6-8.9-2.7c-2.5-1.2-4.6-2.6-5.9-4.1-1.4-1.5-2.1-3.2-2.1-4.9 0-3.4 2.9-6.6 8-9 5.3-2.3 12.2-3.7 19.5-3.7z"/><path class="st2" d="M29.4 34.9c-4 7-6.5 14.4-6.9 20.8-.4 6.3 1.4 11 4.8 13.1 3.5 2 8.4 1.2 13.7-2.3 5.3-3.5 10.6-9.4 14.6-16.4 2-3.5 3.6-7.1 4.8-10.6 1.2-3.6 1.9-7 2.1-10.2.2-3.1-.1-5.9-1-8.2-.8-2.2-2.1-3.9-3.9-4.9-1.7-1-3.8-1.3-6.2-.9-2.4.4-4.9 1.5-7.6 3.2-2.6 1.7-5.3 4.1-7.8 6.9-2.3 2.8-4.6 6.1-6.6 9.5zm2.1 1.3c3.6-6.3 8.3-11.6 12.9-14.9 4.6-3.3 8.9-4.1 11.8-2.5 1.4.8 2.5 2.3 3.2 4.2.6 2 .8 4.4.6 7.2-.3 2.8-.9 5.9-2.1 9.1-1.1 3.2-2.6 6.4-4.4 9.5-1.8 3.1-3.9 6-6.1 8.6-2.2 2.6-4.5 4.7-6.8 6.3-2.3 1.6-4.5 2.7-6.5 3.1-2 .4-3.8.2-5.2-.6-2.9-1.7-4.3-5.8-3.8-11.4.5-5.7 2.8-12.4 6.4-18.6z"/><path class="st2" d="M29.4 50.1c4 7 9.3 12.9 14.6 16.4 5.3 3.5 10.2 4.3 13.7 2.3s5.2-6.7 4.8-13.1c-.4-6.3-2.9-13.8-6.9-20.8-2-3.5-4.3-6.7-6.8-9.5s-5.1-5.1-7.8-6.9c-2.6-1.7-5.2-2.8-7.6-3.2-2.4-.4-4.5-.1-6.2.9-1.7 1-3 2.7-3.9 4.9-.8 2.2-1.2 5-1 8.2.2 3.1.9 6.6 2.1 10.2s3 7.1 5 10.6zm2.1-1.3c-3.6-6.3-5.9-13-6.5-18.6-.5-5.6.8-9.7 3.8-11.4 1.4-.8 3.2-1 5.2-.6s4.2 1.5 6.5 3.1 4.6 3.8 6.8 6.3c2.2 2.6 4.3 5.5 6.1 8.6 1.8 3.1 3.3 6.4 4.4 9.5 1.1 3.2 1.8 6.3 2.1 9.1.3 2.8 0 5.2-.6 7.2s-1.7 3.4-3.2 4.2c-2.9 1.7-7.1.8-11.8-2.5s-9.1-8.6-12.8-14.9z"/><path class="st2" d="M42.5 46.2c2 0 3.7-1.7 3.7-3.7s-1.7-3.7-3.7-3.7-3.7 1.7-3.7 3.7 1.7 3.7 3.7 3.7z"/></svg>