<?xml version="1.0" encoding="utf-8"?>
<!-- Generator: Adobe Illustrator 25.0.0, SVG Export Plug-In . SVG Version: 6.00 Build 0)  -->
<svg version="1.1" id="Layer_1" xmlns="http://www.w3.org/2000/svg" xmlns:xlink="http://www.w3.org/1999/xlink" x="0px" y="0px"
	 viewBox="0 0 24 17.1" style="enable-background:new 0 0 24 17.1;" xml:space="preserve">
<style type="text/css">
	.st0{fill:#6667AB;}
</style>
<path class="st0" d="M24,1.7C24,1.7,24,1.7,24,1.7l-7.3,7l7.3,6.8c0,0,0-0.1,0-0.1V1.7L24,1.7z"/>
<path class="st0" d="M15.6,9.8l-3,2.9c-0.2,0.1-0.3,0.2-0.5,0.2c-0.2,0-0.4-0.1-0.5-0.2l-3-2.8L1.1,17c0.2,0.1,0.4,0.1,0.6,0.1h20.6
	c0.3,0,0.6-0.1,0.8-0.2L15.6,9.8z"/>
<path class="st0" d="M12,11L23.2,0.3C22.9,0.1,22.6,0,22.3,0H1.7C1.3,0,0.9,0.2,0.6,0.4L12,11z"/>
<path class="st0" d="M0,2v13.4c0,0.2,0,0.3,0.1,0.4l7.3-7L0,2z"/>
</svg>
