<svg width="80" height="80" viewBox="0 0 80 80" fill="none" xmlns="http://www.w3.org/2000/svg">
<path opacity="0.1" d="M40 80C62.0914 80 80 62.0914 80 40C80 17.9086 62.0914 0 40 0C17.9086 0 0 17.9086 0 40C0 62.0914 17.9086 80 40 80Z" fill="#8EA6C1"/>
<g clip-path="url(#clip0_440_23277)">
<path d="M40 55C48.2822 55 55 48.2822 55 40C55 31.7178 48.2822 25 40 25C31.7178 25 25 31.7178 25 40C25 48.2822 31.7178 55 40 55ZM38.9285 31.4286C38.9285 30.8393 39.4107 30.3571 40 30.3571C40.5893 30.3571 41.0715 30.8393 41.0715 31.4286V39.4857L46.0268 43.45C46.4876 43.8197 46.5625 44.4946 46.1929 44.9554C45.9839 45.2178 45.6732 45.3571 45.3571 45.3571C45.1214 45.3571 44.8857 45.2821 44.6875 45.1214L39.3304 40.8357C39.0786 40.6321 38.9286 40.3268 38.9286 40V31.4286H38.9285Z" fill="#6667AB"/>
</g>
<defs>
<clipPath id="clip0_440_23277">
<rect width="30" height="30" fill="white" transform="translate(25 25)"/>
</clipPath>
</defs>
</svg>
