<svg viewBox="0 0 22 22" fill="currentColor" xmlns="http://www.w3.org/2000/svg">
    <g clip-path="url(#clip0_4299_63428)">
        <path d="M13.2155 11.117C13.1351 11.0419 13.0181 11.0044 12.8644 11.0044H12.3457V11.979H12.8644C13.0181 11.979 13.1351 11.9415 13.2155 11.8663C13.2958 11.7913 13.336 11.6665 13.336 11.4917C13.336 11.317 13.2958 11.1922 13.2155 11.117Z" fill="currentColor" />
        <path d="M0 4.84405V17.1559C0 18.1098 0.775973 18.8857 1.72984 18.8857H4.33013V3.11426H1.72984C0.775973 3.11426 0 3.89023 0 4.84405Z" fill="currentColor" />
        <path d="M20.2703 3.11426H5.62012V5.69036H22.0001V4.84409C22.0001 3.89023 21.2242 3.11426 20.2703 3.11426Z" fill="currentColor" />
        <path d="M5.62012 6.97998V18.8856H20.2703C21.2242 18.8856 22.0001 18.1096 22.0001 17.1558V6.97998H5.62012ZM9.83591 13.4407C9.93362 13.4407 10.0149 13.425 10.0795 13.3935C10.1441 13.3621 10.1904 13.3141 10.2184 13.2494C10.2463 13.1848 10.2647 13.1315 10.2734 13.0896C10.2821 13.0476 10.29 12.9901 10.297 12.9167C10.3109 12.7526 10.4454 12.6705 10.7004 12.6705C10.8506 12.6705 10.9571 12.6975 11.02 12.7517C11.0829 12.8059 11.1143 12.9081 11.1143 13.0582C11.1143 13.3971 10.9912 13.6643 10.7449 13.8599C10.4987 14.0556 10.1834 14.1533 9.79917 14.1533C9.42534 14.1533 9.12233 14.0538 8.89008 13.8546C8.65775 13.6555 8.54161 13.343 8.54161 12.9168V11.5283C8.54161 11.1021 8.65775 10.7894 8.89008 10.5904C9.12233 10.3913 9.42534 10.2918 9.79917 10.2918C10.1834 10.2918 10.4987 10.3843 10.7449 10.5695C10.9912 10.7547 11.1143 11.0096 11.1143 11.3344C11.1143 11.4847 11.0829 11.5868 11.02 11.641C10.9571 11.6952 10.8524 11.7222 10.7056 11.7222C10.4437 11.7222 10.3074 11.6402 10.297 11.4759C10.2865 11.1615 10.131 11.0043 9.83062 11.0043C9.51622 11.0043 9.35904 11.179 9.35904 11.5284V12.9168C9.35904 13.2661 9.51794 13.4407 9.83591 13.4407ZM14.0198 14.0171C13.9098 14.1079 13.7936 14.1533 13.6713 14.1533C13.549 14.1533 13.4617 14.1027 13.4094 14.0014L12.6916 12.6076H12.3457V13.8704C12.3457 13.9508 12.3055 14.0128 12.2252 14.0564C12.1448 14.1001 12.0488 14.1219 11.937 14.1219C11.8251 14.1219 11.7291 14.1001 11.6488 14.0564C11.5684 14.0127 11.5283 13.9508 11.5283 13.8704V10.5379C11.5283 10.4716 11.5518 10.414 11.599 10.3651C11.6462 10.3162 11.7064 10.2917 11.7798 10.2917H12.8644C13.7237 10.2917 14.1534 10.6655 14.1534 11.413C14.1534 11.9579 13.942 12.3125 13.5194 12.4766L14.1587 13.6346C14.1761 13.6591 14.1848 13.6906 14.1848 13.7289C14.1848 13.8303 14.1298 13.9263 14.0198 14.0171ZM17.6325 14.0564C17.5521 14.1001 17.4561 14.1219 17.3443 14.1219C17.2325 14.1219 17.1364 14.1001 17.0561 14.0564C16.9757 14.0127 16.9356 13.9508 16.9356 13.8704V11.9055L16.4326 12.7648C16.3731 12.8661 16.2823 12.9167 16.1601 12.9167C16.0413 12.9167 15.9557 12.8661 15.9034 12.7648L15.4056 11.8531V13.8704C15.4056 13.9508 15.3653 14.0128 15.285 14.0564C15.2046 14.1001 15.1086 14.1219 14.9968 14.1219C14.885 14.1219 14.789 14.1001 14.7087 14.0564C14.6283 14.0127 14.5881 13.9508 14.5881 13.8704V10.7004C14.5881 10.5607 14.6274 10.4577 14.706 10.3913C14.7846 10.3249 14.8816 10.2918 14.9968 10.2918C15.154 10.2918 15.2736 10.3153 15.3558 10.3625C15.4378 10.4097 15.5295 10.5223 15.6308 10.7004L16.1705 11.6436L16.7102 10.7004C16.8115 10.5223 16.9032 10.4096 16.9853 10.3625C17.0673 10.3153 17.187 10.2918 17.3442 10.2918C17.4595 10.2918 17.5564 10.3249 17.635 10.3913C17.7136 10.4577 17.7529 10.5607 17.7529 10.7004V13.8704H17.753C17.753 13.9508 17.7128 14.0128 17.6325 14.0564Z" fill="currentColor" />
    </g>
    <defs>
        <clipPath id="clip0_4299_63428">
            <rect width="22" height="22" fill="currentColor" />
        </clipPath>
    </defs>
</svg>