<svg xmlns="http://www.w3.org/2000/svg" xml:space="preserve" id="Layer_1" x="0" y="0" style="enable-background:new 0 0 80 80" version="1.1" viewBox="0 0 80 80"><style>.st1{fill-rule:evenodd;clip-rule:evenodd;fill:#6667ab}</style><path d="M40 80c22.1 0 40-17.9 40-40S62.1 0 40 0 0 17.9 0 40s17.9 40 40 40z" style="opacity:.1;fill:#8ea6c1;enable-background:new"/><path d="m30.7 35.1-4.4 4.4C24.8 40.9 24 42.9 24 45s.8 4 2.3 5.5l1.1 1.1c1.5 1.5 3.4 2.3 5.5 2.3s4-.8 5.5-2.3l4.4-4.4c.6-.6.6-1.6 0-2.2-.6-.6-1.6-.6-2.2 0l-4.4 4.4c-.9.9-2.1 1.4-3.3 1.4-1.2 0-2.4-.5-3.3-1.4l-1.1-1.1c-.9-.9-1.4-2.1-1.4-3.3 0-1.2.5-2.4 1.4-3.3l4.4-4.4c.6-.6.6-1.6 0-2.2-.6-.6-1.6-.6-2.2 0zM47.1 42.8l4.4-4.4c1.5-1.5 2.3-3.4 2.3-5.5s-.8-4-2.3-5.5l-1.1-1.1C49 24.8 47 24 45 24s-4 .8-5.5 2.3l-4.4 4.4c-.6.6-.6 1.6 0 2.2.6.6 1.6.6 2.2 0l4.4-4.4c.9-.9 2.1-1.4 3.3-1.4 1.2 0 2.4.5 3.3 1.4l1.1 1.1c.9.9 1.4 2.1 1.4 3.3 0 1.2-.5 2.4-1.4 3.3L45 40.6c-.6.6-.6 1.6 0 2.2.6.6 1.5.6 2.1 0z" class="st1"/><path d="m34.5 45.5 11-11c.6-.6.6-1.6 0-2.2-.6-.6-1.6-.6-2.2 0l-11 11c-.6.6-.6 1.6 0 2.2.6.6 1.6.6 2.2 0zM49 46.7v7.8c0 .9.7 1.6 1.6 1.6.9 0 1.6-.7 1.6-1.6v-7.8c0-.9-.7-1.6-1.6-1.6-.9 0-1.6.7-1.6 1.6z" class="st1"/><path d="M46.7 52.1h7.8c.9 0 1.6-.7 1.6-1.6 0-.9-.7-1.6-1.6-1.6h-7.8c-.9 0-1.6.7-1.6 1.6 0 .9.7 1.6 1.6 1.6z" class="st1"/></svg>