<svg viewBox="0 0 14 14" fill="none" xmlns="http://www.w3.org/2000/svg">
    <g clip-path="url(#clip0_3303_66992)">
        <path d="M7 0C3.13996 0 0 3.13996 0 7C0 10.86 3.13996 14 7 14C10.86 14 14 10.8595 14 7C14 3.14051 10.86 0 7 0ZM7 12.9156C3.73857 12.9156 1.08443 10.262 1.08443 7C1.08443 3.73803 3.73857 1.08443 7 1.08443C10.2614 1.08443 12.9156 3.73803 12.9156 7C12.9156 10.262 10.262 12.9156 7 12.9156Z" fill="#6667AB" />
        <path d="M9.71096 6.40901H7.54211V4.24016C7.54211 3.94086 7.29974 3.69794 6.99989 3.69794C6.70003 3.69794 6.45766 3.94086 6.45766 4.24016V6.40901H4.28881C3.98896 6.40901 3.74658 6.65194 3.74658 6.95124C3.74658 7.25055 3.98896 7.49347 4.28881 7.49347H6.45766V9.66232C6.45766 9.96162 6.70003 10.2045 6.99989 10.2045C7.29974 10.2045 7.54211 9.96162 7.54211 9.66232V7.49347H9.71096C10.0108 7.49347 10.2532 7.25055 10.2532 6.95124C10.2532 6.65194 10.0108 6.40901 9.71096 6.40901Z" fill="#6667AB" />
    </g>
    <defs>
        <clipPath id="clip0_3303_66992">
            <rect width="14" height="14" fill="white" />
        </clipPath>
    </defs>
</svg>