<svg fill="currentColor" xmlns="http://www.w3.org/2000/svg" xml:space="preserve" id="Layer_1" x="0" y="0" style="enable-background:new 0 0 14 14" version="1.1" viewBox="0 0 14 14"><style>.st0{fill:#48485d}</style><path d="M7.1 1.2h-.6C6.3.5 5.7 0 5 0S3.6.5 3.4 1.2h-.6c-.2 0-.4.2-.4.4v.9c0 .6.5 1 1 1h3.2c.6 0 1-.5 1-1v-.9c0-.2-.2-.4-.5-.4z" class="st0"/><path d="M8.3 1.8h-.1v.7c0 .9-.7 1.6-1.6 1.6H3.4c-.9 0-1.6-.7-1.6-1.6v-.7h-.2C.7 1.8 0 2.5 0 3.4v7.3c0 .9.7 1.6 1.6 1.6h3.8c-.3-.6-.5-1.3-.5-2H2.2c-.2 0-.4-.2-.4-.4s.2-.4.4-.4H5c.1-.4.1-.7.3-1H2.2c-.2 0-.4-.2-.4-.4s.2-.4.4-.4h3.5c.2-.4.5-.7.8-1H2.2c-.3-.3-.4-.5-.4-.7 0-.2.2-.4.4-.4h5.5c.7-.4 1.4-.6 2.2-.6V3.4c0-.9-.7-1.6-1.6-1.6z" class="st0"/><path d="M10.1 6.1c-2.2 0-3.9 1.8-3.9 3.9 0 2.2 1.8 3.9 3.9 3.9 2.2 0 3.9-1.8 3.9-3.9 0-2.1-1.8-3.9-3.9-3.9zm1.6 4.5h-1v1c0 .3-.3.6-.6.6s-.6-.2-.6-.5v-1h-1c-.3 0-.6-.3-.6-.6s.3-.6.6-.6h1v-1c0-.3.3-.6.6-.6s.6.3.6.6v1h1c.3 0 .6.3.6.6s-.3.5-.6.5z" class="st0"/></svg>