<svg width="16" height="16" viewBox="0 0 16 16" fill="none" xmlns="http://www.w3.org/2000/svg">
<g clip-path="url(#clip0_466_22123)">
<path d="M11.6851 11.4792L12.9101 11.0742L12.5001 12.2942L12.3051 11.8992C12.2551 11.8042 12.1751 11.7242 12.0801 11.6742L11.6851 11.4792Z" fill="#505D6E"/>
<path d="M12.2652 8C10.2051 8 8.53516 9.67 8.53516 11.735C8.53516 13.795 10.2052 15.465 12.2652 15.465C14.3301 15.465 16.0002 13.795 16.0002 11.735C16.0002 9.67005 14.3302 8 12.2652 8ZM14.1751 10.44L13.0701 13.755C13.0051 13.95 12.8301 14.08 12.6301 14.095C12.6151 14.095 12.6051 14.1 12.5951 14.1C12.4051 14.1 12.2301 13.99 12.1451 13.82L11.4851 12.495L10.1601 11.835C9.98011 11.745 9.87011 11.555 9.88511 11.35C9.90011 11.15 10.0351 10.975 10.2251 10.915L13.5401 9.81C13.7201 9.75 13.9201 9.795 14.0501 9.93C14.1851 10.065 14.2351 10.26 14.1751 10.44Z" fill="#505D6E"/>
<path d="M5.79274 4.1189C7.11329 5.08895 8.88699 5.08815 10.207 4.11915L15.0787 0.548003C15.0307 0.541353 14.9831 0.533203 14.9334 0.533203H1.06669C1.01694 0.533203 0.969337 0.541303 0.921387 0.548003L5.79274 4.1189Z" fill="#505D6E"/>
<path d="M9.45091 5.68555L10.6989 7.20025C8.82161 7.8509 7.46691 9.6376 7.46691 11.7336C7.46691 11.9149 7.47761 12.0909 7.49891 12.2669H1.13086L6.54956 5.68555C7.01891 5.8349 7.50956 5.9149 8.00021 5.9149C8.49086 5.9149 8.98156 5.8349 9.45091 5.68555Z" fill="#505D6E"/>
<path d="M16.0002 1.59949V8.72484C15.1202 7.63149 13.7762 6.93284 12.2669 6.93284C12.1335 6.93284 12.0055 6.93819 11.8776 6.94884L10.4482 5.22079C10.5816 5.14079 10.7149 5.07149 10.8375 4.98084L15.9362 1.24219C15.9736 1.35419 16.0002 1.47154 16.0002 1.59949Z" fill="#505D6E"/>
<path d="M5.54965 5.21914C5.41945 5.14119 5.2861 5.07074 5.1617 4.97939L0.06605 1.24414C0.02585 1.35614 0 1.47489 0 1.60024V11.2002C0 11.4065 0.0619 11.5981 0.1644 11.7618L5.54965 5.21914Z" fill="#505D6E"/>
</g>
<defs>
<clipPath id="clip0_466_22123">
<rect width="16" height="16" fill="white"/>
</clipPath>
</defs>
</svg>
