<svg width="80" height="80" viewBox="0 0 80 80" fill="none" xmlns="http://www.w3.org/2000/svg">
<path opacity="0.1" d="M40 80C62.0914 80 80 62.0914 80 40C80 17.9086 62.0914 0 40 0C17.9086 0 0 17.9086 0 40C0 62.0914 17.9086 80 40 80Z" fill="#8EA6C1"/>
<path d="M55.5825 27.2854C58.2514 26.9621 60.6771 28.8637 61.0004 31.5326C61.3237 34.2016 59.4222 36.6272 56.7532 36.9505C54.0843 37.2738 51.6586 35.3723 51.3353 32.7033C51.012 30.0344 52.9135 27.6087 55.5825 27.2854Z" fill="#6667AB"/>
<rect x="60.4941" y="40.0957" width="8.65161" height="17.34" transform="rotate(165.657 60.4941 40.0957)" fill="#F4F7F9"/>
<path d="M52.6867 20.9358C52.1003 21.0824 51.6166 21.2583 51.6166 21.3023C51.6166 21.4635 57.6123 43.7753 57.6709 43.8339C57.7296 43.9072 59.6646 43.3648 59.7819 43.2475C59.8699 43.1596 54.0354 21.1117 53.8302 20.8039C53.7715 20.7012 53.3757 20.7452 52.6867 20.9358Z" fill="#6667AB"/>
<path d="M42.4543 27.3421C38.7455 29.9954 35.5937 32.253 35.4325 32.3556C35.1832 32.5315 35.2272 32.7661 36.4586 37.3691C37.1623 40.0372 37.7633 42.2361 37.778 42.2654C37.8073 42.2801 41.4722 42.6612 45.9286 43.101C50.3851 43.5261 54.2846 43.9073 54.5924 43.9513C54.9442 43.9806 55.1348 43.9513 55.1348 43.8486C55.1495 43.3942 49.4762 22.4898 49.3443 22.5044C49.271 22.5044 46.1632 24.674 42.4543 27.3421Z" fill="#6667AB"/>
<path d="M29.2317 34.5252C27.0181 35.1262 25.3176 35.6686 24.9804 35.8739C22.3564 37.5304 21.9899 41.0047 24.1888 43.1743C25.171 44.1272 26.1239 44.523 27.4286 44.5083C28.2495 44.4936 34.9635 42.8225 35.2567 42.5586C35.374 42.456 33.2777 34.1587 33.0138 33.6896C32.9552 33.587 31.6945 33.8655 29.2317 34.5252Z" fill="#6667AB"/>
<path d="M33.8909 44.6193C33.0579 44.8358 32.3811 45.1244 32.3811 45.2447C32.3811 45.6536 36.0514 58.2329 36.3117 58.6418C36.4158 58.8582 36.8844 59.1709 37.3009 59.3393C38.29 59.7001 39.3833 59.2671 39.8779 58.3291C40.1903 57.7278 40.0341 57.0543 38.4983 51.7147C36.3117 44.0902 36.3377 44.1864 35.8171 44.2105C35.5829 44.2345 34.6978 44.4269 33.8909 44.6193Z" fill="#6667AB"/>
</svg>
