<?xml version="1.0" encoding="utf-8"?>
<!-- Generator: Adobe Illustrator 25.2.3, SVG Export Plug-In . SVG Version: 6.00 Build 0)  -->
<svg version="1.1" id="Layer_1" xmlns="http://www.w3.org/2000/svg" xmlns:xlink="http://www.w3.org/1999/xlink" x="0px" y="0px"
	 viewBox="0 0 56 50.2" style="enable-background:new 0 0 56 50.2;" xml:space="preserve">
<style type="text/css">
	.st0{opacity:0.1;fill:#6C63FF;enable-background:new    ;}
	.st1{opacity:0.1;enable-background:new    ;}
	.st2{fill:#E1E7EF;}
	.st3{opacity:5.000000e-02;enable-background:new    ;}
	.st4{fill:none;stroke:#535461;stroke-width:2;stroke-miterlimit:10;}
	.st5{fill:#6C63FF;}
	.st6{fill:#A8A8A8;}
	.st7{opacity:0.1;fill:#FFFFFF;enable-background:new    ;}
	.st8{opacity:0.3;fill:#6C63FF;enable-background:new    ;}
</style>
<path class="st0" d="M6.6,31.5c0,0.1,0,0.1-0.1,0.2c0,0-0.1,0.1-0.2,0.1H6.1c0.1,0,0.1,0,0.2,0.1c0,0,0.1,0.1,0.1,0.2
	c0,0.1,0,0.1-0.1,0.2c0,0-0.1,0.1-0.2,0.1h0.4c0.1,0,0.1,0,0.2,0.1c0,0,0.1,0.1,0.1,0.2s0,0.1-0.1,0.2c0,0-0.1,0.1-0.2,0.1H4.4
	c1.4,4.6,4.1,8.6,7.6,11.6c0,0,0.1,0,0.1,0h2.6c0.1,0,0.1,0,0.2,0.1c0,0,0.1,0.1,0.1,0.2s0,0.1-0.1,0.2c0,0-0.1,0.1-0.2,0.1h-0.3
	c0.1,0,0.1,0,0.2,0.1c0,0,0.1,0.1,0.1,0.2c0,0.1,0,0.1-0.1,0.2c0,0-0.1,0.1-0.2,0.1h0.4c0.1,0,0.1,0,0.2,0.1s0.1,0.1,0.1,0.2
	s0,0.1-0.1,0.2c0,0-0.1,0.1-0.2,0.1h-0.9c4.2,2.9,8.9,4.4,13.8,4.4c3,0,6-0.6,8.9-1.7c0.4-0.2,0.8-0.3,1.1-0.5
	c0.6-0.3,1.3-0.6,1.9-1c0.3-0.2,0.5-0.3,0.8-0.5l0,0l0.1,0l0.2-0.1c0.3-0.2,0.6-0.4,0.9-0.6l0.2-0.1c0.2-0.1,0.3-0.2,0.5-0.3
	c0.3-0.2,0.6-0.5,0.9-0.7l0.1-0.1l0.1-0.1c0.4-0.3,0.8-0.7,1.1-1l0,0c0.2-0.2,0.4-0.4,0.5-0.5l0,0c0.6-0.6,1.1-1.2,1.6-1.9
	c0.8-1,1.5-2,2.1-3.2h-1c-0.1,0-0.1,0-0.2-0.1c0,0-0.1-0.1-0.1-0.2s0-0.1,0.1-0.2c0,0,0.1-0.1,0.2-0.1h-0.4c-0.1,0-0.1,0-0.2-0.1
	c0,0-0.1-0.1-0.1-0.2c0-0.1,0-0.1,0.1-0.2c0,0,0.1-0.1,0.2-0.1h0.3c0,0-0.1,0-0.1,0c0,0-0.1,0-0.1-0.1c0,0,0-0.1-0.1-0.1
	c0,0,0-0.1,0-0.1s0-0.1,0-0.1c0,0,0-0.1,0.1-0.1c0,0,0,0,0.1-0.1c0,0,0.1,0,0.1,0h1.9c1.4-2.8,2.2-5.9,2.5-9.1
	c0.2-3.2-0.1-6.4-1-9.5h-4.3c-0.1,0-0.2-0.1-0.3-0.2c-0.1-0.1-0.1-0.2-0.1-0.4c0-0.1,0-0.3,0.1-0.4c0.1-0.1,0.2-0.2,0.3-0.2h-0.9
	c-0.1,0-0.2-0.1-0.3-0.2c-0.1-0.1-0.1-0.2-0.1-0.4c0-0.1,0-0.3,0.1-0.4c0.1-0.1,0.2-0.2,0.3-0.2h0.7c-0.1,0-0.2-0.1-0.3-0.2
	c-0.1-0.1-0.1-0.2-0.1-0.4c0-0.1,0-0.3,0.1-0.4c0.1-0.1,0.2-0.2,0.3-0.2h3.4C45.9,5.9,37.4,0,27.7,0C22.3,0,17,1.8,12.6,5.4h1.1
	c0.1,0,0.2,0.1,0.3,0.2c0.1,0.1,0.1,0.2,0.1,0.4s0,0.3-0.1,0.4c-0.1,0.1-0.2,0.2-0.3,0.2H13c0.1,0,0.2,0.1,0.3,0.2
	c0.1,0.1,0.1,0.2,0.1,0.4s0,0.3-0.1,0.4c-0.1,0.1-0.2,0.2-0.3,0.2h0.9c0.1,0,0.2,0.1,0.3,0.2c0.1,0.1,0.1,0.2,0.1,0.4s0,0.3-0.1,0.4
	c-0.1,0.1-0.2,0.2-0.3,0.2H9.3c-3.7,4.4-6,10.2-6,16.5c0,2.1,0.2,4.1,0.7,6.1l2.4,0c0.1,0,0.1,0,0.2,0.1C6.6,31.3,6.6,31.4,6.6,31.5
	L6.6,31.5z"/>
<path class="st1" d="M29.6,24c-0.3,0.1-0.5,0.2-0.5,0.2L29,23.1c0,0,0.1-0.1,0.3-0.2L29.6,24z"/>
<path class="st2" d="M23.7,24.1c0,0,2.3-0.2,2.3-0.3c0.1,0,0.8-0.3,0.9-0.4c0.4-0.3,0.8-0.5,1.2-0.5c0.4,0,0.8,0,1.2-0.2l0.3,1.2
	l-5.4,0.7L23.7,24.1z"/>
<path class="st3" d="M23.7,24.1c0,0,2.3-0.2,2.3-0.3c0.1,0,0.8-0.3,0.9-0.4c0.4-0.3,0.8-0.5,1.2-0.5c0.4,0,0.8,0,1.2-0.2l0.3,1.2
	l-5.4,0.7L23.7,24.1z"/>
<path class="st1" d="M25.7,28.1c0.2-0.2,0.4-0.3,0.6-0.6C26.6,27.1,25.7,28.1,25.7,28.1z"/>
<path class="st1" d="M22.7,24.8c0,0,0,0.2-0.3,0.7L22.7,24.8z"/>
<path class="st1" d="M23.3,24.8c0,0.1,0,0.3,0,0.4c0,0.1-0.1,0.2-0.2,0.3"/>
<path class="st1" d="M32.3,24.1c0,0,0.8,1.1,0.6,1.3C32.7,25.6,32.3,24.1,32.3,24.1z"/>
<path class="st1" d="M33.6,24.1c0,0,0.3,0.5,0.2,0.7L33.6,24.1z"/>
<path class="st1" d="M35.6,22.8c0,0,0.3,0.4,0.2,0.7L35.6,22.8z"/>
<path class="st1" d="M35.6,22.8c0,0,0.4,0.5,0.3,0.7L35.6,22.8z"/>
<path class="st1" d="M40.8,21.5c0,0,0.1,0.7,0.5,0.6C41.8,22.1,40.8,21.5,40.8,21.5z"/>
<path class="st4" d="M39.3,43.1c0,0,0.6-1.2-0.1-2.1c-0.3-0.4-0.4-0.8-0.3-1.2c0.1-0.2,0.2-0.4,0.3-0.6"/>
<path class="st5" d="M38.9,38.7c0.1,0.2,0.2,0.3,0.3,0.5c0.1-0.1,0.3-0.3,0.3-0.5c0-0.1,0-0.1-0.1-0.1c-0.1,0-0.1-0.1-0.2-0.1
	s-0.2,0-0.2,0.1C38.9,38.6,38.9,38.6,38.9,38.7z"/>
<path class="st5" d="M38.3,39.5c0.2,0.1,0.4,0.2,0.6,0.3c0-0.2,0-0.4-0.1-0.5c0,0,0,0-0.1-0.1c0,0-0.1,0-0.1,0c0,0-0.1,0-0.1,0
	s-0.1,0-0.1,0c0,0-0.1,0-0.1,0.1c0,0,0,0.1,0,0.1C38.2,39.4,38.2,39.4,38.3,39.5C38.2,39.4,38.2,39.5,38.3,39.5L38.3,39.5z"/>
<path class="st5" d="M38.3,41.1c0.2,0,0.4,0.1,0.5,0c-0.1-0.2-0.2-0.4-0.3-0.6c-0.1,0-0.1,0-0.2,0c-0.1,0-0.1,0.1-0.1,0.2
	c0,0.1,0,0.2,0,0.2C38.2,40.9,38.3,41,38.3,41.1z"/>
<path class="st5" d="M38.3,42.3c0.2,0.1,0.4,0.1,0.6,0.1c-0.1-0.2-0.2-0.4-0.3-0.6c0,0-0.1,0-0.1,0s-0.1,0-0.1,0c0,0-0.1,0-0.1,0
	c0,0-0.1,0-0.1,0.1c0,0,0,0.1,0,0.1c0,0,0,0.1,0,0.1C38.2,42.1,38.2,42.2,38.3,42.3C38.3,42.2,38.3,42.2,38.3,42.3L38.3,42.3z"/>
<path class="st5" d="M39.5,40.2c-0.2,0.1-0.4,0.2-0.6,0.2c0-0.2,0.1-0.4,0.2-0.6c0,0,0.1-0.1,0.2-0.1c0.1,0,0.1,0,0.2,0.1
	c0,0,0.1,0.1,0.1,0.2C39.5,40.1,39.5,40.2,39.5,40.2L39.5,40.2z"/>
<path class="st5" d="M39.4,41.7c-0.2,0-0.4,0.1-0.5,0c0.1-0.2,0.2-0.4,0.3-0.6c0.1,0,0.1,0,0.2,0c0.1,0,0.1,0.1,0.1,0.2
	c0,0.1,0,0.2,0,0.2C39.5,41.6,39.5,41.7,39.4,41.7z"/>
<path class="st5" d="M39.4,42.9c-0.2,0.1-0.4,0.1-0.6,0.1c0.1-0.2,0.2-0.4,0.3-0.6c0,0,0.1,0,0.1-0.1c0,0,0.1,0,0.1,0
	c0,0,0.1,0,0.1,0c0,0,0.1,0,0.1,0.1c0,0,0,0.1,0,0.1c0,0,0,0.1,0,0.1S39.5,42.8,39.4,42.9C39.5,42.9,39.5,42.9,39.4,42.9L39.4,42.9z
	"/>
<path class="st4" d="M47.2,41.7c0,0,0.6-1.2-0.1-2.1c-0.3-0.4-0.4-0.8-0.3-1.2c0.1-0.2,0.2-0.4,0.3-0.6"/>
<path class="st5" d="M46.1,37.4c0.1,0.2,0.2,0.3,0.3,0.4c0.1-0.1,0.3-0.3,0.3-0.4c0,0,0-0.1,0-0.1c0,0,0,0-0.1-0.1c0,0-0.1,0-0.1,0
	c0,0-0.1,0-0.1,0c0,0-0.1,0-0.1,0c0,0-0.1,0-0.1,0C46.2,37.3,46.2,37.3,46.1,37.4C46.1,37.3,46.1,37.4,46.1,37.4z"/>
<path class="st5" d="M46.2,38.2c0.2,0.1,0.4,0.2,0.6,0.3c0-0.2,0-0.4-0.1-0.5c0-0.1-0.1-0.1-0.2-0.1c-0.1,0-0.2,0-0.2,0
	c-0.1,0-0.1,0.1-0.1,0.1C46.1,38.1,46.1,38.1,46.2,38.2L46.2,38.2z"/>
<path class="st5" d="M46.2,39.8c0.2,0,0.4,0.1,0.5,0c-0.1-0.2-0.2-0.4-0.3-0.6c0,0-0.1,0-0.1,0c0,0-0.1,0-0.1,0c0,0-0.1,0-0.1,0.1
	c0,0,0,0.1-0.1,0.1c0,0,0,0.1,0,0.1c0,0,0,0.1,0,0.1C46.1,39.6,46.2,39.6,46.2,39.8C46.2,39.7,46.2,39.7,46.2,39.8L46.2,39.8z"/>
<path class="st5" d="M46.2,41c0.2,0.1,0.4,0.1,0.6,0.1c-0.1-0.2-0.2-0.4-0.3-0.6c-0.1,0-0.1-0.1-0.2,0c-0.1,0-0.1,0.1-0.2,0.1
	c0,0.1-0.1,0.1,0,0.2C46.1,40.8,46.2,40.9,46.2,41L46.2,41z"/>
<path class="st5" d="M47.4,38.9c-0.2,0.1-0.4,0.2-0.6,0.2c0-0.2,0.1-0.4,0.2-0.6c0,0,0.1,0,0.1-0.1c0,0,0.1,0,0.1,0c0,0,0.1,0,0.1,0
	s0.1,0,0.1,0.1c0,0,0,0.1,0.1,0.1c0,0,0,0.1,0,0.1C47.4,38.8,47.4,38.8,47.4,38.9C47.4,38.9,47.4,38.9,47.4,38.9L47.4,38.9z"/>
<path class="st5" d="M47.3,40.4c-0.2,0-0.4,0.1-0.5,0c0.1-0.2,0.2-0.4,0.3-0.6c0,0,0.1,0,0.1,0s0.1,0,0.1,0c0,0,0.1,0,0.1,0.1
	c0,0,0,0.1,0.1,0.1c0,0,0,0.1,0,0.1c0,0,0,0.1,0,0.1C47.4,40.3,47.4,40.3,47.3,40.4C47.4,40.4,47.3,40.4,47.3,40.4L47.3,40.4z"/>
<path class="st5" d="M47.3,41.6c-0.2,0.1-0.4,0.1-0.6,0.1c0.1-0.2,0.2-0.4,0.3-0.6c0,0,0.1,0,0.1,0s0.1,0,0.1,0c0,0,0.1,0,0.1,0
	c0,0,0.1,0,0.1,0.1c0,0,0,0.1,0,0.1c0,0,0,0.1,0,0.1C47.4,41.5,47.4,41.5,47.3,41.6C47.4,41.6,47.4,41.6,47.3,41.6L47.3,41.6z"/>
<path class="st4" d="M40.6,41.7c0,0,0.6-1.2-0.1-2.1c-0.3-0.4-0.4-0.8-0.3-1.2c0.1-0.2,0.2-0.4,0.3-0.6"/>
<path class="st5" d="M40.2,37.4c0.1,0.2,0.2,0.3,0.3,0.5c0.1-0.1,0.3-0.3,0.3-0.5c0-0.1,0-0.1-0.1-0.1c-0.1,0-0.1-0.1-0.2-0.1
	s-0.2,0-0.2,0.1C40.2,37.3,40.2,37.3,40.2,37.4z"/>
<path class="st5" d="M40.2,38.2c0.2,0.1,0.4,0.2,0.6,0.3c0-0.2,0-0.4-0.1-0.5c0-0.1-0.1-0.1-0.2-0.1c-0.1,0-0.2,0-0.2,0
	S40.2,38,40.2,38C40.2,38.1,40.2,38.1,40.2,38.2L40.2,38.2z"/>
<path class="st5" d="M39.7,39.8c0.2,0,0.4,0.1,0.5,0c-0.1-0.2-0.2-0.4-0.3-0.6c0,0-0.1,0-0.1,0c0,0-0.1,0-0.1,0c0,0-0.1,0-0.1,0.1
	c0,0,0,0.1-0.1,0.1c0,0,0,0.1,0,0.1s0,0.1,0,0.1C39.5,39.6,39.6,39.6,39.7,39.8C39.6,39.7,39.6,39.7,39.7,39.8L39.7,39.8z"/>
<path class="st5" d="M40.3,41c0.2,0.1,0.4,0.1,0.6,0.1c-0.1-0.2-0.2-0.4-0.3-0.6c0,0-0.1,0-0.1,0c0,0-0.1,0-0.1,0c0,0-0.1,0-0.1,0
	c0,0-0.1,0-0.1,0.1c0,0,0,0.1,0,0.1c0,0,0,0.1,0,0.1C40.2,40.8,40.2,40.8,40.3,41C40.2,40.9,40.3,40.9,40.3,41L40.3,41z"/>
<path class="st5" d="M40.8,38.9c-0.2,0.1-0.4,0.2-0.6,0.2c0-0.2,0.1-0.4,0.2-0.6c0,0,0.1-0.1,0.2-0.1c0.1,0,0.1,0,0.2,0.1
	c0,0,0.1,0.1,0.1,0.2C40.8,38.8,40.8,38.9,40.8,38.9L40.8,38.9z"/>
<path class="st5" d="M41.4,39.8c-0.2,0-0.4,0.1-0.5,0c0.1-0.2,0.2-0.4,0.3-0.6c0.1,0,0.1,0,0.2,0c0.1,0,0.1,0.1,0.1,0.2
	c0,0.1,0,0.2,0,0.2C41.5,39.6,41.4,39.7,41.4,39.8z"/>
<path class="st5" d="M41.4,41c-0.2,0.1-0.4,0.1-0.6,0.1c0.1-0.2,0.2-0.4,0.3-0.6c0,0,0.1,0,0.1-0.1c0,0,0.1,0,0.1,0c0,0,0.1,0,0.1,0
	c0,0,0.1,0,0.1,0.1c0,0,0,0.1,0,0.1c0,0,0,0.1,0,0.1C41.5,40.8,41.5,40.9,41.4,41C41.4,40.9,41.4,40.9,41.4,41L41.4,41z"/>
<path class="st6" d="M46.1,42.9v0.1l0,0c0.2-0.2,0.3-0.3,0.5-0.5l0,0c0.5-0.5,1-1.1,1.5-1.7c-0.5-1-1.7-1-1.9-1h0
	C46.2,39.8,46.1,41.6,46.1,42.9z"/>
<path class="st7" d="M46.1,42.9v0.1l0,0c0.2-0.2,0.3-0.3,0.5-0.5l0,0c0.5-0.5,1-1.1,1.5-1.7c-0.5-1-1.7-1-1.9-1h0
	C46.2,39.8,46.1,41.6,46.1,42.9z"/>
<path class="st6" d="M40.8,41.2l0,0.3l0.4,3.3l0.1,1.1l0.1,1.1c0.3-0.1,0.5-0.3,0.8-0.5l0,0l0.1,0l0.1-0.1c0.3-0.2,0.6-0.4,0.9-0.6
	l0.2-0.1c0.1-0.1,0.3-0.2,0.4-0.3c0.3-0.2,0.6-0.5,0.9-0.7l0.1-0.1l0.1-0.1c0.4-0.3,0.8-0.7,1.1-1l0,0c0.2-0.2,0.3-0.3,0.5-0.5
	l-0.3-1.5c-0.1-0.3-0.1-0.6-0.1-0.9c0-0.2,0-0.3,0-0.5c0,0,0-0.1,0-0.1c-0.1-1.3-0.4-3.9-1.1-4.5c-0.1-0.1-0.2-0.1-0.2-0.1
	c-0.1,0-0.2,0-0.3,0c-0.1,0-0.1,0.1-0.2,0.1c-0.5,0.3-1,0.7-1.4,1.2c-0.6,0.7-1.1,1.6-1.4,2.5l-0.8,2l0,0l0,0L40.8,41.2z"/>
<path class="st7" d="M42.2,45l0.9-3.6c0,0,0.9,2.7,1.5,3.6l0.1-0.1l-1.2-3.5c0,0-0.4-2-0.1-2.7c0.3-0.6,1.1-2.5,1.4-3.3
	c-0.1-0.1-0.2-0.1-0.3-0.1c-0.1,0-0.2,0-0.3,0c-0.1,0-0.2,0.1-0.2,0.1c-0.4,0.8-1.2,2.3-1.3,3.3c0,0.8,0,1.7,0.1,2.5L42.2,45z"/>
<path class="st6" d="M38.2,48.9c0.4-0.2,0.8-0.3,1.2-0.5c0.7-0.3,1.3-0.6,2-1c0.3-0.2,0.5-0.3,0.8-0.5l0,0l0-0.2l0-0.2L42,45.7
	c0,0-0.5-2.6-1.1-3.8c-0.1-0.2-0.2-0.4-0.3-0.6c0,0,0,0,0,0c-0.1-0.1-0.2-0.1-0.4-0.1c-0.2,0-0.3,0.1-0.5,0.2
	c-0.3,0.3-0.6,0.8-0.8,1.9C38.5,44.8,38.3,47.2,38.2,48.9z"/>
<path class="st7" d="M39.5,47.6c0.6-0.3,1.3-0.6,1.9-0.9c0.3-0.1,0.5-0.3,0.8-0.4c0-0.1,0-0.1,0-0.2c0,0-0.1-0.4-0.8-0.4
	c0,0-0.1,0-0.1,0c-0.4,0-0.7,0.2-1,0.5c-0.3,0.3-0.5,0.6-0.6,1C39.6,47.3,39.5,47.4,39.5,47.6z"/>
<path class="st7" d="M40,42.3c0-0.7-0.3-0.9-0.5-1c0.1-0.1,0.2-0.2,0.4-0.2c0.2,0.2,0.3,0.4,0.3,0.7l0.6,3.9
	C40.8,45.7,40,43.5,40,42.3z"/>
<path class="st6" d="M43.7,45.3l-0.2,0.4l0.2-0.2c0.2-0.1,0.3-0.3,0.5-0.4L43.8,45L43.7,45.3z"/>
<path class="st7" d="M43.5,45.7c0.2-0.1,0.3-0.2,0.4-0.3c0.3-0.2,0.6-0.5,0.9-0.7c-0.1-0.1-0.3-0.2-0.5-0.3c0,0-0.7,0.1-0.8,1.1
	C43.5,45.5,43.5,45.6,43.5,45.7z"/>
<path class="st1" d="M40.8,41.1L40.8,41.1l1.7,5.4l0.1,0.4l0.2-0.1c-0.2-1.8-0.7-3.6-1.6-5.1C41.1,41.4,40.9,41.2,40.8,41.1
	C40.9,41.1,40.9,41.1,40.8,41.1L40.8,41.1z"/>
<path class="st1" d="M46.2,42.9c0,0,0,0.1,0,0.1c0.2-0.2,0.4-0.3,0.5-0.5l0,0l-0.4-2.3l-0.1-0.5C46.1,40.8,46.1,41.9,46.2,42.9z"/>
<path class="st0" d="M26.8,4.3h0.7c-0.1,0-0.2-0.1-0.3-0.2C27.1,4.1,27,3.9,27,3.8c0-0.1,0-0.3,0.1-0.4c0.1-0.1,0.2-0.2,0.3-0.2h5.4
	c0.1,0,0.2,0.1,0.3,0.2c0.1,0.1,0.1,0.2,0.1,0.4c0,0.1,0,0.3-0.1,0.4c-0.1,0.1-0.2,0.2-0.3,0.2h-0.7c0.1,0,0.2,0.1,0.3,0.2
	c0.1,0.1,0.1,0.2,0.1,0.4c0,0.1,0,0.3-0.1,0.4c-0.1,0.1-0.2,0.2-0.3,0.2h0.9c0.1,0,0.2,0.1,0.3,0.2c0.1,0.1,0.1,0.2,0.1,0.4
	c0,0.1,0,0.3-0.1,0.4c-0.1,0.1-0.2,0.2-0.3,0.2h-5.4c-0.1,0-0.2-0.1-0.3-0.2c-0.1-0.1-0.1-0.2-0.1-0.4c0-0.1,0-0.3,0.1-0.4
	c0.1-0.1,0.2-0.2,0.3-0.2h-0.9c-0.1,0-0.2-0.1-0.3-0.2c-0.1-0.1-0.1-0.2-0.1-0.4c0-0.1,0-0.3,0.1-0.4C26.6,4.4,26.7,4.3,26.8,4.3
	L26.8,4.3z"/>
<path class="st0" d="M34.7,12.8h0.7c-0.1,0-0.2-0.1-0.3-0.2c-0.1-0.1-0.1-0.2-0.1-0.4c0-0.1,0-0.3,0.1-0.4c0.1-0.1,0.2-0.2,0.3-0.2
	h5.4c0.1,0,0.2,0.1,0.3,0.2c0.1,0.1,0.1,0.2,0.1,0.4c0,0.1,0,0.3-0.1,0.4c-0.1,0.1-0.2,0.2-0.3,0.2h-0.7c0.1,0,0.2,0.1,0.3,0.2
	c0.1,0.1,0.1,0.2,0.1,0.4c0,0.1,0,0.3-0.1,0.4c-0.1,0.1-0.2,0.2-0.3,0.2H41c0.1,0,0.2,0.1,0.3,0.2c0.1,0.1,0.1,0.2,0.1,0.4
	s0,0.3-0.1,0.4C41.3,14.9,41.2,15,41,15h-5.4c-0.1,0-0.2-0.1-0.3-0.2c-0.1-0.1-0.1-0.2-0.1-0.4s0-0.3,0.1-0.4
	c0.1-0.1,0.2-0.2,0.3-0.2h-0.9c-0.1,0-0.2-0.1-0.3-0.2c-0.1-0.1-0.1-0.2-0.1-0.4c0-0.1,0-0.3,0.1-0.4C34.5,12.9,34.6,12.8,34.7,12.8
	L34.7,12.8z"/>
<path class="st0" d="M13,22.6h0.7c-0.1,0-0.2-0.1-0.3-0.2c-0.1-0.1-0.1-0.2-0.1-0.4c0-0.1,0-0.3,0.1-0.4c0.1-0.1,0.2-0.2,0.3-0.2H19
	c0.1,0,0.2,0.1,0.3,0.2c0.1,0.1,0.1,0.2,0.1,0.4c0,0.1,0,0.3-0.1,0.4c-0.1,0.1-0.2,0.2-0.3,0.2h-0.7c0.1,0,0.2,0.1,0.3,0.2
	c0.1,0.1,0.1,0.2,0.1,0.4s0,0.3-0.1,0.4c-0.1,0.1-0.2,0.2-0.3,0.2h0.9c0.1,0,0.2,0.1,0.3,0.2c0.1,0.1,0.1,0.2,0.1,0.4s0,0.3-0.1,0.4
	c-0.1,0.1-0.2,0.2-0.3,0.2h-5.4c-0.1,0-0.2-0.1-0.3-0.2c-0.1-0.1-0.1-0.2-0.1-0.4s0-0.3,0.1-0.4c0.1-0.1,0.2-0.2,0.3-0.2H13
	c-0.1,0-0.2-0.1-0.3-0.2c-0.1-0.1-0.1-0.2-0.1-0.4s0-0.3,0.1-0.4C12.7,22.7,12.9,22.6,13,22.6L13,22.6z"/>
<path class="st0" d="M37.4,25.9H38c-0.1,0-0.2-0.1-0.3-0.2c-0.1-0.1-0.1-0.2-0.1-0.4c0-0.1,0-0.3,0.1-0.4c0.1-0.1,0.2-0.2,0.3-0.2
	h5.4c0.1,0,0.2,0.1,0.3,0.2c0.1,0.1,0.1,0.2,0.1,0.4c0,0.1,0,0.3-0.1,0.4c-0.1,0.1-0.2,0.2-0.3,0.2h-0.7c0.1,0,0.2,0.1,0.3,0.2
	c0.1,0.1,0.1,0.2,0.1,0.4s0,0.3-0.1,0.4C43,26.9,42.9,27,42.7,27h0.9c0.1,0,0.2,0.1,0.3,0.2c0.1,0.1,0.1,0.2,0.1,0.4s0,0.3-0.1,0.4
	c-0.1,0.1-0.2,0.2-0.3,0.2h-5.4c-0.1,0-0.2-0.1-0.3-0.2c-0.1-0.1-0.1-0.2-0.1-0.4s0-0.3,0.1-0.4C38,27,38.2,27,38.3,27h-0.9
	c-0.1,0-0.2-0.1-0.3-0.2c-0.1-0.1-0.1-0.2-0.1-0.4s0-0.3,0.1-0.4C37.1,25.9,37.2,25.9,37.4,25.9L37.4,25.9z"/>
<path class="st0" d="M26.6,38.3h0.3c-0.1,0-0.1,0-0.1-0.1c0,0-0.1-0.1-0.1-0.2c0-0.1,0-0.1,0.1-0.2c0,0,0.1-0.1,0.1-0.1h2.4
	c0.1,0,0.1,0,0.1,0.1c0,0,0.1,0.1,0.1,0.2c0,0.1,0,0.1-0.1,0.2c0,0-0.1,0.1-0.1,0.1H29c0.1,0,0.1,0,0.1,0.1c0,0,0.1,0.1,0.1,0.2
	c0,0.1,0,0.1-0.1,0.2c0,0-0.1,0.1-0.1,0.1h0.4c0.1,0,0.1,0,0.1,0.1c0,0,0.1,0.1,0.1,0.2c0,0.1,0,0.1-0.1,0.2c0,0-0.1,0.1-0.1,0.1H27
	c-0.1,0-0.1,0-0.1-0.1c0,0-0.1-0.1-0.1-0.2c0-0.1,0-0.1,0.1-0.2c0,0,0.1-0.1,0.1-0.1h-0.4c-0.1,0-0.1,0-0.1-0.1c0,0-0.1-0.1-0.1-0.2
	c0-0.1,0-0.1,0.1-0.2C26.5,38.3,26.5,38.3,26.6,38.3z"/>
<path class="st0" d="M19.9,42.8h0.2c0,0-0.1,0-0.1-0.1c0,0,0-0.1,0-0.1c0-0.1,0-0.1,0-0.1c0,0,0.1-0.1,0.1-0.1h2c0,0,0.1,0,0.1,0.1
	c0,0,0,0.1,0,0.1c0,0.1,0,0.1,0,0.1c0,0-0.1,0.1-0.1,0.1h-0.2c0,0,0.1,0,0.1,0.1c0,0,0,0.1,0,0.1c0,0.1,0,0.1,0,0.1
	c0,0-0.1,0.1-0.1,0.1h0.3c0,0,0.1,0,0.1,0.1c0,0,0,0.1,0,0.1c0,0.1,0,0.1,0,0.1c0,0-0.1,0.1-0.1,0.1h-2c0,0,0,0-0.1,0c0,0,0,0-0.1,0
	c0,0,0,0,0-0.1s0-0.1,0-0.1s0-0.1,0-0.1c0,0,0-0.1,0-0.1c0,0,0,0,0.1,0c0,0,0,0,0.1,0h-0.3c0,0,0,0-0.1,0c0,0,0,0-0.1,0
	c0,0,0,0,0-0.1s0-0.1,0-0.1c0,0,0-0.1,0-0.1c0,0,0-0.1,0-0.1C19.8,42.9,19.9,42.9,19.9,42.8C19.9,42.8,19.9,42.8,19.9,42.8
	L19.9,42.8z"/>
<path class="st0" d="M11.4,35h0.3c-0.1,0-0.1,0-0.1-0.1c0,0-0.1-0.1-0.1-0.2c0-0.1,0-0.1,0.1-0.2c0,0,0.1-0.1,0.1-0.1h2.4
	c0.1,0,0.1,0,0.1,0.1c0,0,0.1,0.1,0.1,0.2c0,0.1,0,0.1-0.1,0.2c0,0-0.1,0.1-0.1,0.1h-0.3c0.1,0,0.1,0,0.1,0.1c0,0,0.1,0.1,0.1,0.2
	s0,0.1-0.1,0.2c0,0-0.1,0.1-0.1,0.1h0.4c0.1,0,0.1,0,0.1,0.1c0,0,0.1,0.1,0.1,0.2c0,0.1,0,0.1-0.1,0.2c0,0-0.1,0.1-0.1,0.1h-2.4
	c-0.1,0-0.1,0-0.1-0.1c0,0-0.1-0.1-0.1-0.2s0-0.1,0.1-0.2c0,0,0.1-0.1,0.1-0.1h-0.4c-0.1,0-0.1,0-0.1-0.1c0,0-0.1-0.1-0.1-0.2
	c0-0.1,0-0.1,0.1-0.2C11.3,35,11.4,35,11.4,35L11.4,35z"/>
<path class="st0" d="M33.8,42.8h0.3c-0.1,0-0.1,0-0.1-0.1c0,0-0.1-0.1-0.1-0.2c0-0.1,0-0.1,0.1-0.2c0,0,0.1-0.1,0.1-0.1h2.5
	c0.1,0,0.1,0,0.2,0.1c0,0,0.1,0.1,0.1,0.2c0,0.1,0,0.1-0.1,0.2c0,0-0.1,0.1-0.2,0.1h-0.3c0.1,0,0.1,0,0.2,0.1c0,0,0.1,0.1,0.1,0.2
	c0,0.1,0,0.1-0.1,0.2c0,0-0.1,0.1-0.2,0.1h0.4c0.1,0,0.1,0,0.1,0.1c0,0,0.1,0.1,0.1,0.2c0,0.1,0,0.1-0.1,0.2c0,0-0.1,0.1-0.1,0.1
	h-2.5c0,0-0.1,0-0.1,0c0,0-0.1,0-0.1,0c0,0,0,0,0-0.1c0,0,0-0.1,0-0.1c0,0,0-0.1,0-0.1c0,0,0-0.1,0-0.1c0,0,0,0,0.1,0
	c0,0,0.1,0,0.1,0h-0.4c-0.1,0-0.1,0-0.1-0.1c0,0-0.1-0.1-0.1-0.2c0-0.1,0-0.1,0.1-0.2C33.7,42.9,33.8,42.8,33.8,42.8z"/>
<path class="st8" d="M37,18.8c0,0,0-0.1,0-0.1c0,0,0-0.1-0.1-0.1c0,0,0,0,0,0c0,0,0,0,0-0.1c0,0,0,0,0-0.1c0,0,0,0,0,0s0,0,0.1,0
	c0,0,0,0,0,0c0,0,0.1,0,0.1,0c0,0,0.1,0,0.1-0.1c0,0,0,0,0,0c0,0,0,0,0.1,0c0,0,0,0,0.1,0c0,0,0,0,0,0c0,0,0,0,0,0.1c0,0,0,0,0,0
	c0,0,0,0.1,0,0.1c0,0,0,0.1,0.1,0.1c0,0,0,0,0,0c0,0,0,0,0,0.1c0,0,0,0,0,0.1c0,0,0,0,0,0c0,0,0,0-0.1,0c0,0,0,0,0,0
	c0,0-0.1,0-0.1,0s-0.1,0-0.1,0.1c0,0,0,0,0,0c0,0,0,0-0.1,0c0,0,0,0-0.1,0C37,18.9,37,18.9,37,18.8C37,18.8,37,18.8,37,18.8
	C37,18.8,37,18.8,37,18.8L37,18.8z"/>
<path class="st8" d="M53.5,8.3c0,0,0-0.1,0-0.1c0,0,0-0.1-0.1-0.1c0,0,0,0,0,0c0,0,0,0,0-0.1c0,0,0,0,0-0.1c0,0,0,0,0,0
	c0,0,0,0,0.1,0c0,0,0,0,0,0c0,0,0.1,0,0.1,0c0,0,0.1,0,0.1-0.1c0,0,0,0,0,0c0,0,0,0,0.1,0c0,0,0,0,0.1,0c0,0,0,0,0,0s0,0,0,0.1
	c0,0,0,0,0,0c0,0,0,0.1,0,0.1c0,0,0,0.1,0.1,0.1c0,0,0,0,0,0c0,0,0,0,0,0.1c0,0,0,0,0,0.1c0,0,0,0,0,0c0,0,0,0-0.1,0c0,0,0,0,0,0
	c0,0-0.1,0-0.1,0c0,0-0.1,0-0.1,0.1c0,0,0,0,0,0c0,0,0,0-0.1,0c0,0,0,0-0.1,0C53.5,8.5,53.5,8.4,53.5,8.3
	C53.5,8.4,53.5,8.4,53.5,8.3C53.5,8.4,53.5,8.3,53.5,8.3z"/>
<path class="st8" d="M54.1,35.7c0,0,0-0.1,0-0.1c0,0,0-0.1-0.1-0.1c0,0,0,0,0,0c0,0,0,0,0-0.1c0,0,0,0,0-0.1c0,0,0,0,0,0
	c0,0,0,0,0.1,0c0,0,0,0,0,0c0,0,0.1,0,0.1,0c0,0,0.1,0,0.1-0.1c0,0,0,0,0,0c0,0,0,0,0.1,0c0,0,0,0,0.1,0c0,0,0,0,0,0c0,0,0,0,0,0.1
	c0,0,0,0,0,0c0,0,0,0.1,0,0.1c0,0,0,0.1,0.1,0.1c0,0,0,0,0,0c0,0,0,0,0,0.1c0,0,0,0,0,0.1c0,0,0,0,0,0c0,0,0,0-0.1,0c0,0,0,0,0,0
	c0,0-0.1,0-0.1,0c0,0-0.1,0-0.1,0.1c0,0,0,0,0,0c0,0,0,0-0.1,0c0,0,0,0-0.1,0C54.2,35.9,54.1,35.8,54.1,35.7
	C54.1,35.8,54.1,35.8,54.1,35.7C54.1,35.8,54.1,35.7,54.1,35.7z"/>
<path class="st8" d="M2.7,2.5c0,0,0-0.1,0-0.1c0,0,0-0.1-0.1-0.1c0,0,0,0,0,0c0,0,0,0,0-0.1c0,0,0,0,0-0.1c0,0,0,0,0,0
	c0,0,0,0,0.1,0c0,0,0,0,0,0c0,0,0.1,0,0.1,0C3,2.1,3,2,3,2c0,0,0,0,0,0c0,0,0,0,0.1,0c0,0,0,0,0.1,0c0,0,0,0,0,0c0,0,0,0,0,0.1
	c0,0,0,0,0,0c0,0,0,0.1,0,0.1c0,0,0,0.1,0.1,0.1c0,0,0,0,0,0c0,0,0,0,0,0.1c0,0,0,0,0,0.1c0,0,0,0,0,0c0,0,0,0-0.1,0c0,0,0,0,0,0
	c0,0-0.1,0-0.1,0c0,0-0.1,0-0.1,0.1c0,0,0,0,0,0c0,0,0,0-0.1,0c0,0,0,0-0.1,0C2.8,2.6,2.7,2.6,2.7,2.5C2.7,2.5,2.7,2.5,2.7,2.5
	C2.7,2.5,2.7,2.5,2.7,2.5z"/>
<path class="st8" d="M0.1,0.5c0,0,0-0.1,0-0.1s0-0.1-0.1-0.1c0,0,0,0,0,0c0,0,0,0,0-0.1c0,0,0,0,0-0.1c0,0,0,0,0,0c0,0,0,0,0.1,0
	c0,0,0,0,0,0c0,0,0.1,0,0.1,0c0,0,0.1,0,0.1-0.1c0,0,0,0,0,0c0,0,0,0,0.1,0c0,0,0,0,0.1,0c0,0,0,0,0,0c0,0,0,0,0,0.1c0,0,0,0,0,0
	c0,0,0,0.1,0,0.1c0,0,0,0.1,0.1,0.1c0,0,0,0,0,0c0,0,0,0,0,0.1c0,0,0,0,0,0.1c0,0,0,0,0,0c0,0,0,0-0.1,0c0,0,0,0,0,0
	c0,0-0.1,0-0.1,0c0,0-0.1,0-0.1,0.1c0,0,0,0,0,0c0,0,0,0-0.1,0c0,0,0,0-0.1,0C0.1,0.6,0.1,0.6,0.1,0.5C0.1,0.6,0.1,0.6,0.1,0.5
	C0.1,0.5,0.1,0.5,0.1,0.5z"/>
<path class="st8" d="M19.9,13.6c0,0,0-0.1,0-0.1c0,0,0-0.1-0.1-0.1c0,0,0,0,0,0c0,0,0,0,0-0.1c0,0,0,0,0-0.1c0,0,0,0,0,0
	c0,0,0,0,0.1,0c0,0,0,0,0,0c0,0,0.1,0,0.1,0c0,0,0.1,0,0.1-0.1c0,0,0,0,0,0c0,0,0,0,0.1,0c0,0,0,0,0.1,0c0,0,0,0,0,0c0,0,0,0,0,0.1
	c0,0,0,0,0,0c0,0,0,0.1,0,0.1c0,0,0,0.1,0.1,0.1c0,0,0,0,0,0c0,0,0,0,0,0.1c0,0,0,0,0,0.1c0,0,0,0,0,0c0,0,0,0-0.1,0c0,0,0,0,0,0
	c0,0-0.1,0-0.1,0c0,0-0.1,0-0.1,0.1c0,0,0,0,0,0c0,0,0,0-0.1,0c0,0,0,0-0.1,0C19.9,13.7,19.9,13.7,19.9,13.6
	C19.9,13.6,19.9,13.6,19.9,13.6C19.9,13.6,19.9,13.6,19.9,13.6z"/>
<path class="st8" d="M10.6,20.7c0,0,0-0.1,0-0.1c0,0,0-0.1-0.1-0.1c0,0,0,0,0,0c0,0,0,0,0-0.1c0,0,0,0,0-0.1s0,0,0,0c0,0,0,0,0.1,0
	c0,0,0,0,0,0c0,0,0.1,0,0.1,0c0,0,0.1,0,0.1-0.1c0,0,0,0,0,0c0,0,0,0,0.1,0c0,0,0,0,0.1,0c0,0,0,0,0,0c0,0,0,0,0,0.1c0,0,0,0,0,0
	c0,0,0,0.1,0,0.1c0,0,0,0.1,0.1,0.1c0,0,0,0,0,0c0,0,0,0,0,0.1s0,0,0,0.1s0,0,0,0c0,0,0,0-0.1,0c0,0,0,0,0,0c0,0-0.1,0-0.1,0
	c0,0-0.1,0-0.1,0.1c0,0,0,0,0,0c0,0,0,0-0.1,0c0,0,0,0-0.1,0C10.7,20.8,10.6,20.8,10.6,20.7C10.6,20.8,10.6,20.8,10.6,20.7
	C10.6,20.7,10.6,20.7,10.6,20.7z"/>
<path class="st8" d="M25.2,11.6c0,0,0-0.1,0-0.1c0,0,0-0.1-0.1-0.1c0,0,0,0,0,0c0,0,0,0,0,0c0,0,0,0,0-0.1c0,0,0,0,0,0
	c0,0,0,0,0.1,0c0,0,0,0,0,0c0,0,0.1,0,0.1,0c0,0,0.1,0,0.1-0.1c0,0,0,0,0,0c0,0,0,0,0.1,0c0,0,0,0,0.1,0c0,0,0,0,0,0c0,0,0,0,0,0.1
	c0,0,0,0,0,0c0,0,0,0.1,0,0.1c0,0,0,0.1,0.1,0.1c0,0,0,0,0,0c0,0,0,0,0,0c0,0,0,0,0,0.1c0,0,0,0,0,0c0,0,0,0-0.1,0c0,0,0,0,0,0
	c0,0-0.1,0-0.1,0c0,0-0.1,0-0.1,0.1c0,0,0,0,0,0c0,0,0,0-0.1,0c0,0,0,0-0.1,0C25.2,11.7,25.2,11.7,25.2,11.6
	C25.2,11.7,25.2,11.7,25.2,11.6C25.2,11.6,25.2,11.6,25.2,11.6L25.2,11.6z"/>
<path class="st8" d="M48.8,29.7C48.8,29.7,48.9,29.6,48.8,29.7c0.1-0.1,0.1-0.2,0.1-0.2c0,0,0,0,0,0c0,0,0,0,0-0.1c0,0,0,0,0,0
	c0,0,0,0,0.1,0c0,0,0,0,0,0c0,0,0,0,0,0c0,0,0,0.1,0.1,0.1c0,0,0.1,0,0.1,0c0,0,0,0,0,0c0,0,0,0,0.1,0c0,0,0,0,0,0c0,0,0,0,0,0.1
	c0,0,0,0,0,0c0,0,0,0,0,0c0,0-0.1,0.1-0.1,0.1s0,0.1,0,0.1c0,0,0,0,0,0c0,0,0,0,0,0.1c0,0,0,0,0,0c0,0,0,0-0.1,0c0,0,0,0,0,0
	c0,0,0,0,0,0c0,0,0-0.1-0.1-0.1c0,0-0.1,0-0.1,0c0,0,0,0,0,0c0,0,0,0-0.1,0c0,0,0,0,0,0C48.8,29.8,48.8,29.8,48.8,29.7
	C48.8,29.7,48.8,29.7,48.8,29.7C48.8,29.7,48.8,29.7,48.8,29.7z"/>
<path class="st8" d="M17.2,32.3C17.2,32.3,17.3,32.2,17.2,32.3c0.1-0.1,0.1-0.2,0.1-0.2c0,0,0,0,0,0c0,0,0,0,0-0.1c0,0,0,0,0,0
	c0,0,0,0,0.1,0c0,0,0,0,0,0c0,0,0,0,0,0c0,0,0,0.1,0.1,0.1c0,0,0.1,0,0.1,0c0,0,0,0,0,0c0,0,0,0,0.1,0c0,0,0,0,0,0c0,0,0,0,0,0.1
	c0,0,0,0,0,0c0,0,0,0,0,0c0,0-0.1,0-0.1,0.1c0,0,0,0.1,0,0.1c0,0,0,0,0,0c0,0,0,0,0,0.1c0,0,0,0,0,0c0,0,0,0-0.1,0c0,0,0,0,0,0
	c0,0,0,0,0,0c0,0-0.1-0.1-0.1-0.1c0,0-0.1,0-0.1,0c0,0,0,0,0,0c0,0,0,0-0.1,0c0,0,0,0,0,0C17.1,32.4,17.1,32.4,17.2,32.3
	C17.1,32.3,17.1,32.3,17.2,32.3C17.2,32.3,17.2,32.3,17.2,32.3z"/>
<path class="st8" d="M27.1,32.9C27.1,32.9,27.1,32.9,27.1,32.9c0.1-0.1,0.1-0.2,0.1-0.2c0,0,0,0,0,0c0,0,0,0,0-0.1c0,0,0,0,0,0
	c0,0,0,0,0.1,0s0,0,0,0c0,0,0,0,0,0c0,0,0.1,0.1,0.1,0.1c0,0,0.1,0,0.1,0c0,0,0,0,0,0c0,0,0,0,0.1,0c0,0,0,0,0,0c0,0,0,0,0,0.1
	c0,0,0,0,0,0c0,0,0,0,0,0c0,0-0.1,0-0.1,0.1c0,0,0,0.1,0,0.1c0,0,0,0,0,0c0,0,0,0,0,0.1c0,0,0,0,0,0c0,0,0,0-0.1,0c0,0,0,0,0,0
	c0,0,0,0,0,0c0,0-0.1-0.1-0.1-0.1c0,0-0.1,0-0.1,0c0,0,0,0,0,0c0,0,0,0-0.1,0c0,0,0,0,0,0C27,33,27,33,27.1,32.9
	C27,33,27,33,27.1,32.9C27.1,33,27.1,33,27.1,32.9z"/>
<path class="st0" d="M6.3,7.2c0.5,0,1-0.4,1-1s-0.4-1-1-1c-0.5,0-1,0.4-1,1S5.7,7.2,6.3,7.2z"/>
<path class="st0" d="M49.7,7.8c0.5,0,1-0.4,1-1s-0.4-1-1-1s-1,0.4-1,1S49.2,7.8,49.7,7.8z"/>
<path class="st0" d="M10.2,2c0.2,0,0.3-0.3,0.3-0.7c0-0.4-0.1-0.7-0.3-0.7c-0.2,0-0.3,0.3-0.3,0.7C9.9,1.7,10,2,10.2,2z"/>
<path class="st0" d="M55.7,17.6c0.2,0,0.3-0.3,0.3-0.7c0-0.4-0.1-0.7-0.3-0.7c-0.2,0-0.3,0.3-0.3,0.7C55.3,17.3,55.5,17.6,55.7,17.6
	z"/>
<path class="st0" d="M6.9,45.7c0.2,0,0.3-0.3,0.3-0.7c0-0.4-0.1-0.7-0.3-0.7c-0.2,0-0.3,0.3-0.3,0.7C6.6,45.4,6.7,45.7,6.9,45.7z"/>
<path class="st0" d="M8.9,47.6c0.2,0,0.3-0.3,0.3-0.7c0-0.4-0.1-0.7-0.3-0.7c-0.2,0-0.3,0.3-0.3,0.7C8.6,47.3,8.7,47.6,8.9,47.6z"/>
<path class="st0" d="M5.6,49.6c0.2,0,0.3-0.3,0.3-0.7c0-0.4-0.1-0.7-0.3-0.7c-0.2,0-0.3,0.3-0.3,0.7C5.3,49.3,5.4,49.6,5.6,49.6z"/>
</svg>
