<svg viewBox="0 0 13 13" fill="none" xmlns="http://www.w3.org/2000/svg">
    <path opacity="0.7" d="M6.50026 0C2.9116 0 0.000244141 2.90768 0.000244141 6.49658C0.000244141 10.0889 2.9116 13 6.50023 13C10.0908 13 12.9997 10.0889 12.9997 6.49658C12.9998 2.90768 10.0908 0 6.50026 0ZM6.96345 10.1134C6.81248 10.2477 6.63753 10.3152 6.43933 10.3152C6.23427 10.3152 6.0554 10.2489 5.90272 10.116C5.7498 9.98341 5.67319 9.7977 5.67319 9.55911C5.67319 9.34746 5.74733 9.16931 5.89513 9.02494C6.04294 8.88057 6.22425 8.80838 6.43933 8.80838C6.65098 8.80838 6.82913 8.88057 6.97374 9.02494C7.11812 9.16931 7.19054 9.34743 7.19054 9.55911C7.19027 9.79427 7.11466 9.97904 6.96345 10.1134ZM8.84586 5.4466C8.72987 5.66168 8.59212 5.84715 8.43234 6.00353C8.27304 6.15988 7.98652 6.42268 7.57297 6.79216C7.45894 6.89641 7.36719 6.98792 7.29843 7.0667C7.22968 7.14575 7.17829 7.2179 7.14476 7.2835C7.11098 7.34906 7.08506 7.41466 7.0667 7.48022C7.04834 7.54554 7.0207 7.66081 6.98326 7.82547C6.91965 8.1749 6.71974 8.34958 6.38376 8.34958C6.20905 8.34958 6.06223 8.29257 5.94258 8.1783C5.8234 8.06403 5.76395 7.89446 5.76395 7.66935C5.76395 7.38723 5.80775 7.14277 5.8951 6.93602C5.98198 6.72925 6.09821 6.54794 6.24258 6.39159C6.38719 6.23523 6.58196 6.04974 6.82738 5.83465C7.04247 5.64648 7.19786 5.50458 7.29352 5.40888C7.38943 5.31298 7.46996 5.20629 7.53528 5.08883C7.60111 4.97113 7.63341 4.84364 7.63341 4.70589C7.63341 4.43699 7.53383 4.2104 7.33368 4.02566C7.13377 3.84092 6.87585 3.74842 6.55995 3.74842C6.19023 3.74842 5.91813 3.84165 5.74342 4.0281C5.5687 4.21456 5.42117 4.48909 5.30003 4.85198C5.18552 5.23176 4.96872 5.42162 4.64988 5.42162C4.4617 5.42162 4.30291 5.3553 4.17347 5.22267C4.04427 5.09003 3.97967 4.94641 3.97967 4.79178C3.97967 4.47269 4.0822 4.14921 4.28702 3.82157C4.49208 3.49393 4.79109 3.22255 5.18429 3.00771C5.57725 2.79263 6.03608 2.68495 6.55995 2.68495C7.04713 2.68495 7.47706 2.77499 7.84997 2.95485C8.22289 3.13444 8.51112 3.37891 8.71446 3.68818C8.91757 3.99722 9.01934 4.33319 9.01934 4.69608C9.01982 4.98118 8.96185 5.23152 8.84586 5.4466Z" fill="#9495C4" />
</svg>