<svg id="Layer_1" data-name="Layer 1" xmlns="http://www.w3.org/2000/svg" viewBox="0 0 20 19.99"><defs><style>.cls-1{fill:#00b21e}</style></defs><path class="cls-1" d="M12.83 0a2.24 2.24 0 0 0-.41.17c-.11.05-2.2 1.26-4.63 2.68L3.37 5.46h-.92c-1 0-1.16 0-1.53.23A2 2 0 0 0 0 6.94v11.54A1.83 1.83 0 0 0 1.51 20h8.06c8.6 0 8.15 0 8.58-.24a1.86 1.86 0 0 0 .85-1.07 3.52 3.52 0 0 0 .07-1.11c0-.85 0-.91-.08-1s-.14-.2-2-.2a15 15 0 0 1-2.1-.06 3.61 3.61 0 0 1-2.77-2.21 2.78 2.78 0 0 1-.24-1.38 2.62 2.62 0 0 1 .09-.93 3.66 3.66 0 0 1 2.6-2.58 9.68 9.68 0 0 1 2.26-.1c1.92 0 2 0 2.08-.11s.22-.29.2-1.23S19 6.45 18.56 6a1.8 1.8 0 0 0-.88-.5l-.27-.07-1.32-2.3C14.76.81 14.58.54 14.24.31A1.92 1.92 0 0 0 12.83 0Zm.78 1c.16.07.43.33.39.37l-3.53 2.05L7 5.46h-.91a3.67 3.67 0 0 1-.83 0C5.34 5.34 12.84 1 13 1a.86.86 0 0 1 .61 0Zm2.25 3.57c.26.46.47.84.47.86s-.85 0-2 0h-1.94c.01 0 2.89-1.7 2.93-1.7s.28.38.54.83Z"/><path class="cls-1" d="M15 10a2.79 2.79 0 0 0-2.11 1.86 2.75 2.75 0 0 0 1.89 3.46 7.88 7.88 0 0 0 2.24.09h1.94l.25-.12a1.37 1.37 0 0 0 .78-1 16 16 0 0 0 0-1.78V11l-.1-.23a1.56 1.56 0 0 0-.69-.68L19 10h-4Zm.84 1.86a.9.9 0 0 1 .5 1.1.85.85 0 0 1-.47.54.89.89 0 0 1-1.2-.43 1 1 0 0 1 .18-1 1 1 0 0 1 .96-.18Z"/></svg>