<svg width="14" height="14" viewBox="0 0 14 14" fill="none" xmlns="http://www.w3.org/2000/svg">
<path d="M7 0C3.14038 0 0 2.72159 0 6.06664C0 7.90437 0.9765 9.65436 2.625 10.7958V13.5333C2.625 13.8777 2.96537 14.1054 3.2585 13.9505L6.6815 12.1249C6.78737 12.1333 6.89587 12.1333 7 12.1333C10.8596 12.1333 14 9.41169 14 6.06664C14 2.72159 10.8596 0 7 0ZM8.3125 6.53331H7.4375V7.46664C7.4375 7.72423 7.2415 7.9333 7 7.9333C6.7585 7.9333 6.5625 7.72423 6.5625 7.46664V6.53331H5.6875C5.446 6.53331 5.25 6.32424 5.25 6.06664C5.25 5.80904 5.446 5.59998 5.6875 5.59998H6.5625V4.66665C6.5625 4.40905 6.7585 4.19998 7 4.19998C7.2415 4.19998 7.4375 4.40905 7.4375 4.66665V5.59998H8.3125C8.554 5.59998 8.75 5.80904 8.75 6.06664C8.75 6.32424 8.554 6.53331 8.3125 6.53331Z" fill="#505D6E"/>
</svg>
